<svg xmlns="http://www.w3.org/2000/svg" width="24" height="24" viewBox="0 0 36 36"><path fill="#fff" d="M33.49 26.28a1 1 0 0 0-1.2-.7l-2.49.67a14.23 14.23 0 0 0 2.4-6.75a14.48 14.48 0 0 0-4.83-12.15a1 1 0 0 0-1.37.09a1 1 0 0 0 .09 1.41a12.45 12.45 0 0 1 4.16 10.46a12.2 12.2 0 0 1-2 5.74L28 22.54a1 1 0 1 0-1.95.16l.5 6.44l6.25-1.66a1 1 0 0 0 .69-1.2" class="clr-i-outline clr-i-outline-path-1"/><path fill="#fff" d="M4.31 17.08a1.1 1.1 0 0 0 .44.16a1 1 0 0 0 1.12-.85A12.21 12.21 0 0 1 18.69 5.84l-2.24 1.53a1 1 0 0 0 .47 1.79a1 1 0 0 0 .64-.16l5.33-3.66L18.33.76a1 1 0 1 0-1.39 1.38l1.7 1.7A14.2 14.2 0 0 0 3.89 16.12a1 1 0 0 0 .42.96" class="clr-i-outline clr-i-outline-path-2"/><path fill="#fff" d="M21.73 29.93a12 12 0 0 1-4.84.51a12.3 12.3 0 0 1-9.57-6.3l2.49.93a1 1 0 0 0 .69-1.84l-4.59-1.7L4.44 21l-1.11 6.35a1 1 0 0 0 .79 1.13h.17a1 1 0 0 0 1-.81l.42-2.4a14.3 14.3 0 0 0 11 7.14a13.9 13.9 0 0 0 5.63-.6a1 1 0 0 0-.6-1.9Z" class="clr-i-outline clr-i-outline-path-3"/><path fill="#fff" d="M22 13h-8a1 1 0 0 0-1 1v8a1 1 0 0 0 1 1h8a1 1 0 0 0 1-1v-8a1 1 0 0 0-1-1m-1 8h-6v-6h6Z" class="clr-i-outline clr-i-outline-path-4"/><path fill="none" d="M0 0h36v36H0z"/></svg>