<?xml version="1.0" encoding="UTF-8" standalone="no"?>
<svg
   width="512"
   height="512"
   viewBox="0 0 512 512"
   version="1.1"
   id="svg1"
   sodipodi:docname="inputplumber.svg"
   inkscape:version="1.3.2 (091e20ef0f, 2023-11-25)"
   xml:space="preserve"
   xmlns:inkscape="http://www.inkscape.org/namespaces/inkscape"
   xmlns:sodipodi="http://sodipodi.sourceforge.net/DTD/sodipodi-0.dtd"
   xmlns="http://www.w3.org/2000/svg"
   xmlns:svg="http://www.w3.org/2000/svg"><defs
     id="defs1" /><sodipodi:namedview
     id="namedview1"
     pagecolor="#ffffff"
     bordercolor="#000000"
     borderopacity="0.25"
     inkscape:showpageshadow="2"
     inkscape:pageopacity="0.0"
     inkscape:pagecheckerboard="true"
     inkscape:deskcolor="#d1d1d1"
     inkscape:zoom="1.5761719"
     inkscape:cx="366.71127"
     inkscape:cy="239.18711"
     inkscape:window-width="2560"
     inkscape:window-height="1374"
     inkscape:window-x="0"
     inkscape:window-y="0"
     inkscape:window-maximized="1"
     inkscape:current-layer="svg1" /><circle
     style="display:inline;fill:#ffffff;fill-opacity:1"
     id="path7214"
     cx="255.73466"
     cy="255.73466"
     r="251.73466"
     inkscape:label="BG" /><g
     fill="#000000"
     id="g2"
     transform="matrix(12.712639,0,0,12.712639,53.809664,40.364795)"
     inkscape:label="Pipes"><path
       d="m 29,12 a 3,3 0 0 0 -3,3 h -4 a 3,3 0 0 0 -3,-3 h -6 a 3,3 0 0 0 -3,3 H 6 A 3,3 0 0 0 3,12 H 0 v 14 h 3 a 3,3 0 0 0 3,-3 h 4 a 3,3 0 0 0 3,3 h 6 a 3,3 0 0 0 3,-3 h 4 a 3,3 0 0 0 3,3 h 3 V 12 Z M 3,24 H 2 V 14 h 1 a 1,1 0 0 1 1,1 v 8 a 1,1 0 0 1 -1,1 m 17,-3 v 2 a 1,1 0 0 1 -1,1 H 13 A 1,1 0 0 1 12,23 V 21 H 6 v -4 h 6 v -2 a 1,1 0 0 1 1,-1 h 6 a 1,1 0 0 1 1,1 v 2 h 6 v 4 z m 10,3 h -1 a 1,1 0 0 1 -1,-1 v -8 a 1,1 0 0 1 1,-1 h 1 z"
       id="path1" /><path
       d="M 22,6 H 10 v 2 h 5 v 2 h 2 V 8 h 5 z"
       class="ouiIcon__fillSecondary"
       id="path2" /></g><rect
     style="fill:#ffffff;fill-opacity:1;stroke-width:1.7615"
     id="rect2"
     width="139.84065"
     height="82.117271"
     x="187.74518"
     y="323.23105" /><rect
     style="fill:#ffffff;fill-opacity:1;stroke-width:1.21524"
     id="rect2-3"
     width="172.38509"
     height="31.705027"
     x="171.8979"
     y="174.38472" /><rect
     style="fill:#f8f8f2;fill-opacity:1;stroke-width:0.70263"
     id="rect1"
     width="255.60609"
     height="67.983704"
     x="129.71559"
     y="248.84608" /><rect
     style="fill:#ffffff;fill-opacity:1;stroke-width:0.850436"
     id="rect1-2"
     width="176.92609"
     height="143.8849"
     x="172.29503"
     y="213.64525" /><g
     style="overflow:hidden;fill:currentColor"
     id="g1"
     transform="matrix(0.24735026,0,0,0.24735026,131.93898,155.6824)"><path
       d="m 384,384 h 42.66667 a 42.666667,42.666667 0 0 1 0,85.33333 H 384 V 512 a 42.666667,42.666667 0 0 1 -85.33333,0 V 469.33333 H 256 A 42.666667,42.666667 0 0 1 256,384 h 42.66667 v -42.66667 a 42.666667,42.666667 0 1 1 85.33333,0 z M 170.66667,768 h 170.66666 a 42.666667,42.666667 0 0 1 0,85.33333 H 128 A 42.666667,42.666667 0 0 1 85.333333,810.66667 v -512 A 42.666667,42.666667 0 0 1 97.834667,268.50133 L 183.168,183.168 a 42.666667,42.666667 0 0 1 30.16533,-12.50133 H 810.66667 A 42.666667,42.666667 0 0 1 840.832,183.168 l 85.33333,85.33333 a 42.666667,42.666667 0 0 1 12.50134,30.16534 v 512 A 42.666667,42.666667 0 0 1 896,853.33333 H 682.66667 a 42.666667,42.666667 0 0 1 -38.144,-23.59466 l -73.55734,-147.072 H 453.03467 l -11.22134,22.44266 a 42.666667,42.666667 0 1 1 -76.33066,-38.144 l 23.04,-46.08 a 42.666667,42.666667 0 0 1 38.144,-23.552 h 170.66666 a 42.666667,42.666667 0 0 1 38.144,23.59467 L 709.03467,768 H 853.33333 V 316.33067 L 793.00267,256 H 230.99733 l -60.33066,60.33067 z m 512,-384 a 42.666667,42.666667 0 1 1 0,-85.33333 42.666667,42.666667 0 0 1 0,85.33333 z m 0,170.66667 a 42.66667,42.66667 0 1 1 0,-85.33334 42.66667,42.66667 0 0 1 0,85.33334 z M 768,469.33333 A 42.666667,42.666667 0 1 1 768,384 a 42.666667,42.666667 0 0 1 0,85.33333 z m -170.66667,0 a 42.666667,42.666667 0 1 1 0,-85.33333 42.666667,42.666667 0 0 1 0,85.33333 z"
       id="path1-7" /></g></svg>
