<svg xmlns="http://www.w3.org/2000/svg" width="1em" height="1em" viewBox="0 0 256 256"><path fill="white" d="M79.8 107.7h-48a8 8 0 0 1-8-8v-48a8.2 8.2 0 0 1 5-7.4a8 8 0 0 1 8.7 1.8l18.3 18.3l4.3-4.3a96.2 96.2 0 0 1 135.8 0a8 8 0 0 1 0 11.3a7.9 7.9 0 0 1-11.3 0a80.2 80.2 0 0 0-113.2 0l-4.3 4.3l18.4 18.4a8 8 0 0 1-5.7 13.6Zm144.4 40.6h-48a8 8 0 0 0-5.7 13.6l18.4 18.4l-4.3 4.3a80.2 80.2 0 0 1-113.2 0a7.9 7.9 0 0 0-11.3 0a8 8 0 0 0 0 11.3a96.1 96.1 0 0 0 135.8 0l4.3-4.3l18.3 18.3a7.8 7.8 0 0 0 5.7 2.4a8 8 0 0 0 3-.6a8.2 8.2 0 0 0 5-7.4v-48a8 8 0 0 0-8-8Z"/></svg>