<svg xmlns="http://www.w3.org/2000/svg" width="8" height="8" viewBox="0 0 24 24"><path fill="white" fill-rule="evenodd" d="m10.667 6.134l-.502-.355A4.241 4.241 0 0 0 7.715 5h-.612c-.405 0-.813.025-1.194.16c-2.383.846-4.022 3.935-3.903 10.943c.024 1.412.354 2.972 1.628 3.581A3.2 3.2 0 0 0 5.027 20a2.74 2.74 0 0 0 1.53-.437c.41-.268.77-.616 1.13-.964c.444-.43.888-.86 1.424-1.138a4.106 4.106 0 0 1 1.89-.461H13c.658 0 1.306.158 1.89.46c.536.279.98.709 1.425 1.139c.36.348.72.696 1.128.964c.39.256.895.437 1.531.437a3.2 3.2 0 0 0 1.393-.316c1.274-.609 1.604-2.17 1.628-3.581c.119-7.008-1.52-10.097-3.903-10.942C17.71 5.025 17.3 5 16.897 5h-.612a4.24 4.24 0 0 0-2.45.78l-.502.354a2.308 2.308 0 0 1-2.666 0ZM16.75 9a.75.75 0 1 1 0 1.5a.75.75 0 0 1 0-1.5Zm-9.25.25a.75.75 0 0 1 .75.75v.75H9a.75.75 0 0 1 0 1.5h-.75V13a.75.75 0 0 1-1.5 0v-.75H6a.75.75 0 0 1 0-1.5h.75V10a.75.75 0 0 1 .75-.75Zm11.5 2a.75.75 0 1 1-1.5 0a.75.75 0 0 1 1.5 0Zm-3.75.75a.75.75 0 1 0 0-1.5a.75.75 0 0 0 0 1.5Zm2.25.75a.75.75 0 1 0-1.5 0a.75.75 0 0 0 1.5 0Z" clip-rule="evenodd"/></svg>