<svg xmlns="http://www.w3.org/2000/svg" width="24" height="24" viewBox="0 0 24 24"><path fill="#fff" d="M4 19q-.825 0-1.412-.587T2 17V7q0-.825.588-1.412T4 5h16q.825 0 1.413.588T22 7v10q0 .825-.587 1.413T20 19zm0-2h16V7H4zm5-1h6q.425 0 .713-.288T16 15t-.288-.712T15 14H9q-.425 0-.712.288T8 15t.288.713T9 16m-5 1V7zm2.713-7.288Q7 9.425 7 9t-.288-.712T6 8t-.712.288T5 9t.288.713T6 10t.713-.288m3 0Q10 9.426 10 9t-.288-.712T9 8t-.712.288T8 9t.288.713T9 10t.713-.288m3 0Q13 9.426 13 9t-.288-.712T12 8t-.712.288T11 9t.288.713T12 10t.713-.288m3 0Q16 9.426 16 9t-.288-.712T15 8t-.712.288T14 9t.288.713T15 10t.713-.288m3 0Q19 9.426 19 9t-.288-.712T18 8t-.712.288T17 9t.288.713T18 10t.713-.288m-12 3Q7 12.426 7 12t-.288-.712T6 11t-.712.288T5 12t.288.713T6 13t.713-.288m3 0Q10 12.426 10 12t-.288-.712T9 11t-.712.288T8 12t.288.713T9 13t.713-.288m3 0Q13 12.426 13 12t-.288-.712T12 11t-.712.288T11 12t.288.713T12 13t.713-.288m3 0Q16 12.426 16 12t-.288-.712T15 11t-.712.288T14 12t.288.713T15 13t.713-.288m3 0Q19 12.426 19 12t-.288-.712T18 11t-.712.288T17 12t.288.713T18 13t.713-.288"/></svg>