<svg xmlns="http://www.w3.org/2000/svg" width="24" height="24" viewBox="0 0 24 24"><path fill="#fff" d="M17.5 13q.625 0 1.063-.437T19 11.5v-3q0-.625-.437-1.062T17.5 7H12q-.425 0-.712.288T11 8t.288.713T12 9h5v2h-1q-.425 0-.712.288T15 12t.3.713t.725.287zm3.5 5q-.375 0-.687-.262T20 16.975V6H9.025q-.5 0-.75-.312T8.025 5t.25-.687t.75-.313H20q.825 0 1.413.588T22 6v11q0 .5-.312.75T21 18m-1.25 4.575L17.15 20H4q-.825 0-1.412-.587T2 18V6q0-.825.588-1.412T4 4l2 2H4v12h11.15L1.35 4.2q-.3-.3-.3-.713t.3-.712t.713-.3t.712.3l18.4 18.4q.3.3.3.7t-.3.7t-.712.3t-.713-.3"/></svg>