<svg xmlns="http://www.w3.org/2000/svg" width="24" height="24" viewBox="0 0 24 24"><path fill="#fff" d="m11.3 9.8l-2-2q-.15-.15-.225-.337T9 7.075V3q0-.425.288-.712T10 2h4q.425 0 .713.288T15 3v4.075q0 .2-.075.388T14.7 7.8l-2 2q-.15.15-.325.213t-.375.062t-.375-.062T11.3 9.8m2.9 2.9q-.15-.15-.212-.325T13.925 12t.063-.375t.212-.325l2-2q.15-.15.338-.225T16.925 9H21q.425 0 .713.288T22 10v4q0 .425-.288.713T21 15h-4.075q-.2 0-.387-.075T16.2 14.7zM2 14v-4q0-.425.288-.712T3 9h4.075q.2 0 .388.075T7.8 9.3l2 2q.15.15.213.325t.062.375t-.062.375t-.213.325l-2 2q-.15.15-.337.225T7.075 15H3q-.425 0-.712-.288T2 14m7 7v-4.075q0-.2.075-.387T9.3 16.2l2-2q.15-.15.325-.212t.375-.063t.375.063t.325.212l2 2q.15.15.225.338t.075.387V21q0 .425-.288.713T14 22h-4q-.425 0-.712-.288T9 21m3-13.35l1-1V4h-2v2.65zM4 13h2.65l1-1l-1-1H4zm7 7h2v-2.65l-1-1l-1 1zm6.35-7H20v-2h-2.65l-1 1z"/></svg>