<svg xmlns="http://www.w3.org/2000/svg" width="24" height="24" viewBox="0 0 24 24"><path fill="#fff" d="M4 21q-.825 0-1.412-.587T2 19V5q0-.825.588-1.412T4 3h14q.825 0 1.413.588T20 5v2h1q.425 0 .713.288T22 8t-.288.713T21 9h-1v2h1q.425 0 .713.288T22 12t-.288.713T21 13h-1v2h1q.425 0 .713.288T22 16t-.288.713T21 17h-1v2q0 .825-.587 1.413T18 21zm0-2h14V5H4zm3-2h3q.425 0 .713-.288T11 16v-2q0-.425-.288-.712T10 13H7q-.425 0-.712.288T6 14v2q0 .425.288.713T7 17m6-7h2q.425 0 .713-.288T16 9V8q0-.425-.288-.712T15 7h-2q-.425 0-.712.288T12 8v1q0 .425.288.713T13 10m-6 2h3q.425 0 .713-.288T11 11V8q0-.425-.288-.712T10 7H7q-.425 0-.712.288T6 8v3q0 .425.288.713T7 12m6 5h2q.425 0 .713-.288T16 16v-4q0-.425-.288-.712T15 11h-2q-.425 0-.712.288T12 12v4q0 .425.288.713T13 17M4 5v14z"/></svg>