<svg xmlns="http://www.w3.org/2000/svg" width="24" height="24" viewBox="0 0 24 24"><path fill="#fff" d="M8.125 21.213q-1.825-.788-3.187-2.15t-2.15-3.188T2 11.988t.788-3.875t2.15-3.175t3.187-2.15T12.013 2t3.875.788t3.175 2.15t2.15 3.175t.787 3.875t-.787 3.887t-2.15 3.188t-3.175 2.15t-3.875.787t-3.888-.787M12 19.95q.65-.9 1.125-1.875T13.9 16h-3.8q.3 1.1.775 2.075T12 19.95m-2.6-.4q-.45-.825-.787-1.713T8.05 16H5.1q.725 1.25 1.813 2.175T9.4 19.55m5.2 0q1.4-.45 2.488-1.375T18.9 16h-2.95q-.225.95-.562 1.838T14.6 19.55M4.25 14h3.4q-.075-.5-.112-.987T7.5 12t.038-1.012T7.65 10h-3.4q-.125.5-.187.988T4 12t.063 1.013t.187.987m5.4 0h4.7q.075-.5.113-.987T14.5 12t-.038-1.012T14.35 10h-4.7q-.075.5-.112.988T9.5 12t.038 1.013t.112.987m6.7 0h3.4q.125-.5.188-.987T20 12t-.062-1.012T19.75 10h-3.4q.075.5.113.988T16.5 12t-.038 1.013t-.112.987m-.4-6h2.95q-.725-1.25-1.812-2.175T14.6 4.45q.45.825.788 1.713T15.95 8M10.1 8h3.8q-.3-1.1-.775-2.075T12 4.05q-.65.9-1.125 1.875T10.1 8m-5 0h2.95q.225-.95.563-1.838T9.4 4.45Q8 4.9 6.912 5.825T5.1 8"/></svg>