<svg width="64" height="64" xmlns="http://www.w3.org/2000/svg" xmlns:xlink="http://www.w3.org/1999/xlink">
  <defs/>
  <g>
    <path stroke="none" fill="#FFFFFF" d="M29 32.5 Q29 31.45 28.25 30.75 27.55 30 26.5 30 25.45 30 24.75 30.75 24 31.45 24 32.5 24 33.55 24.75 34.3 25.45 35 26.5 35 27.55 35 28.25 34.3 29 33.55 29 32.5 M39 35.5 Q39 34.9 38.55 34.45 38.15 34 37.5 34 36.85 34 36.45 34.45 36 34.9 36 35.5 36 36.15 36.45 36.6 36.85 37 37.5 37 38.15 37 38.55 36.6 L39 35.5 M36 32.5 Q36 31.9 35.55 31.45 35.15 31 34.5 31 33.85 31 33.45 31.45 33 31.9 33 32.5 33 33.15 33.45 33.6 33.85 34 34.5 34 35.15 34 35.55 33.6 36 33.15 36 32.5 M39 29.5 Q39 28.9 38.55 28.45 38.15 28 37.5 28 36.85 28 36.45 28.45 36 28.9 36 29.5 36 30.15 36.45 30.6 36.85 31 37.5 31 38.15 31 38.55 30.6 L39 29.5 M24 25 Q24 22.9 22.55 21.45 21.1 20 19 20 16.95 20 15.5 21.45 14 22.9 14 25 14 27.1 15.5 28.55 16.95 30 19 30 21.1 30 22.55 28.55 24 27.1 24 25 M42 32.5 Q42 31.9 41.55 31.45 41.15 31 40.5 31 39.85 31 39.45 31.45 39 31.9 39 32.5 39 33.15 39.45 33.6 39.85 34 40.5 34 41.15 34 41.55 33.6 42 33.15 42 32.5 M50 25 Q50 22.9 48.55 21.45 47.1 20 45 20 42.95 20 41.5 21.45 40 22.9 40 25 40 27.1 41.5 28.55 42.95 30 45 30 47.1 30 48.55 28.55 50 27.1 50 25 M26.5 38.55 Q23.3 38.6 22.2 40.3 L18.35 47.4 Q17 49.6 14.1 48.8 10.5 47.5 8.95 44.7 7.75 41.95 8.1 37.9 8.6 33.85 9.4 30 10.35 25.6 11.85 21.7 L12.65 19.65 Q12.95 17.9 14.45 16.9 15.7 16.05 19.3 16 L22.5 16 Q23.1 16 23.3 16.35 L40.7 16.35 Q40.9 16 41.55 16 L44.7 16 Q48.3 16.05 49.55 16.9 51.05 17.9 51.35 19.65 L52.15 21.7 Q53.7 25.6 54.6 30 L55.95 37.9 Q56.25 41.95 55.05 44.7 53.55 47.5 49.9 48.8 47.05 49.6 45.65 47.4 L41.85 40.3 Q40.75 38.6 37.55 38.55 L26.5 38.55"/>
  </g>
</svg>