<svg width="64" height="64" xmlns="http://www.w3.org/2000/svg" xmlns:xlink="http://www.w3.org/1999/xlink">
  <defs/>
  <g>
    <path stroke="none" fill="#FFFFFF" d="M46.85 17.15 Q40.75 11 32 11 23.3 11 17.15 17.15 11 23.3 11 32 11 40.75 17.15 46.85 23.3 53 32 53 40.75 53 46.85 46.85 53 40.75 53 32 53 23.3 46.85 17.15 M35 39 L32 39 32 26 38 26 Q40.05 26 41.5 27.45 43 28.95 43 31 43 33.05 41.5 34.55 40.05 36 38 36 L35 36 35 39 M56 32 Q56 42 48.95 48.95 42 56 32 56 22.05 56 15 48.95 8 42 8 32 8 22.05 15 15 20.45 9.55 27.7 8.35 L32 8 36.35 8.35 Q43.55 9.55 48.95 15 56 22.05 56 32 M35 33 L38 33 Q38.85 33 39.4 32.45 40 31.85 40 31 40 30.15 39.4 29.55 38.85 29 38 29 L35 29 35 33 M24 36 L30 36 30 39 21 39 21 26 24 26 24 36"/>
  </g>
</svg>