<svg width="64" height="64" xmlns="http://www.w3.org/2000/svg" xmlns:xlink="http://www.w3.org/1999/xlink">
  <defs/>
  <g>
    <path stroke="none" fill="#FFFFFF" d="M8 32 Q8 22.1 15 15.05 L15.05 15 Q18.1 11.9 21.75 10.2 26.4 8 32 8 36.25 8 40 9.3 L42.25 10.2 Q45.9 11.9 49 15 54.45 20.45 55.65 27.7 L56 31.45 56 32.55 55.65 36.3 Q54.45 43.55 49 49 45.9 52.1 42.25 53.8 L40 54.7 Q36.25 56 32 56 26.4 56 21.75 53.8 18.1 52.1 15.05 49 L15 48.95 Q8 41.9 8 32 M32 32 Q32 27.05 35.55 23.5 37.55 21.5 40 20.65 51.15 17.35 40 12.5 36.3 11 32 11 23.25 11 17.15 17.15 L15 19.65 Q11 25 11 32 11 39 15 44.35 L17.15 46.85 Q23.25 53 32 53 36.3 53 40 51.5 51.15 46.65 40 43.35 37.55 42.5 35.55 40.5 32 36.95 32 32"/>
  </g>
</svg>