<svg width="64" height="64" xmlns="http://www.w3.org/2000/svg" xmlns:xlink="http://www.w3.org/1999/xlink">
  <defs/>
  <g>
    <path stroke="none" fill="#FFFFFF" d="M36 39 L36 36 39 36 Q41.05 36 42.5 34.55 44 33.05 44 31 44 28.95 42.5 27.45 41.05 26 39 26 L33 26 33 39 36 39 M56 32 Q56 42 48.95 48.95 42 56 32 56 22.05 56 15 48.95 8 42 8 32 8 22.05 15 15 20.45 9.55 27.7 8.35 L32 8 36.35 8.35 Q43.55 9.55 48.95 15 56 22.05 56 32 M26 36 L27 35.9 27 36 28 39 31 39 29.5 34.5 Q31 33.05 31 31 31 28.95 29.5 27.45 28.05 26 26 26 L20 26 20 39 23 39 23 36 26 36 M36 33 L36 29 39 29 Q39.85 29 40.4 29.55 41 30.15 41 31 41 31.85 40.4 32.45 39.85 33 39 33 L36 33 M23 33 L23 29 26 29 Q26.85 29 27.4 29.55 28 30.15 28 31 28 31.85 27.4 32.4 26.85 33 26.05 33 L23 33"/>
  </g>
</svg>