<svg width="64" height="64" xmlns="http://www.w3.org/2000/svg" xmlns:xlink="http://www.w3.org/1999/xlink">
  <defs/>
  <g>
    <path stroke="none" fill="#FFFFFF" d="M28 28 L16 28 Q14.35 28 13.2 29.15 12 30.35 12 32 12 33.65 13.2 34.8 14.35 36 16 36 L28 36 28 48 Q28 49.65 29.15 50.8 30.35 52 32 52 33.65 52 34.8 50.8 36 49.65 36 48 L36 36 48 36 Q49.65 36 50.85 34.8 52 33.65 52 32 52 30.35 50.85 29.15 49.65 28 48 28 L36 28 36 16 Q36 14.35 34.8 13.15 33.65 12 32 12 30.35 12 29.15 13.15 28 14.35 28 16 L28 28 M56 32 Q56 42 48.95 48.95 42 56 32 56 22.05 56 15 48.95 8 42 8 32 8 22.05 15 15 22.05 8 32 8 42 8 48.95 15 56 22.05 56 32"/>
    <path stroke="none" fill="#E73246" d="M28 28 L28 16 Q28 14.35 29.15 13.15 30.35 12 32 12 33.65 12 34.8 13.15 36 14.35 36 16 L36 28 28 28"/>
  </g>
</svg>