<svg width="64" height="64" xmlns="http://www.w3.org/2000/svg" xmlns:xlink="http://www.w3.org/1999/xlink">
  <defs/>
  <g>
    <path stroke="none" fill="#FFFFFF" d="M24 16 L40 16 Q43.2 16 45.95 17.1 48.85 18.25 51.3 20.7 56 25.4 56 32 56 38.6 51.3 43.3 46.6 48 40 48 L24 48 Q17.4 48 12.7 43.3 8 38.6 8 32 8 25.4 12.7 20.7 15.15 18.25 18.05 17.1 20.8 16 24 16 M29 25 Q28.6 25 28.3 25.3 28 25.6 28 26 L28 38 Q28 38.4 28.3 38.7 28.6 39 29 39 L31 39 31.7 38.7 37.7 32.7 38 32 37.7 31.3 31.7 25.3 Q31.4 25 31 25 L29 25"/>
  </g>
</svg>