<svg width="64" height="64" xmlns="http://www.w3.org/2000/svg" xmlns:xlink="http://www.w3.org/1999/xlink">
  <defs/>
  <g>
    <path stroke="none" fill="#FFFFFF" d="M46.85 17.15 Q40.75 11 32 11 23.3 11 17.15 17.15 11 23.3 11 32 11 40.75 17.15 46.85 23.3 53 32 53 40.75 53 46.85 46.85 53 40.75 53 32 53 23.3 46.85 17.15 M36 39 L33 39 33 26 39 26 Q41.05 26 42.5 27.45 44 28.95 44 31 44 33.05 42.5 34.55 41.05 36 39 36 L36 36 36 39 M56 32 Q56 42 48.95 48.95 42 56 32 56 22.05 56 15 48.95 8 42 8 32 8 22.05 15 15 20.45 9.55 27.7 8.35 L32 8 36.35 8.35 Q43.55 9.55 48.95 15 56 22.05 56 32 M26 36 L23 36 23 39 20 39 20 26 26 26 Q28.05 26 29.5 27.45 31 28.95 31 31 31 33.05 29.5 34.5 L31 39 28 39 27 36 27 35.9 26 36 M36 33 L39 33 Q39.85 33 40.4 32.45 41 31.85 41 31 41 30.15 40.4 29.55 39.85 29 39 29 L36 29 36 33 M23 33 L26.05 33 Q26.85 33 27.4 32.4 28 31.85 28 31 28 30.15 27.4 29.55 26.85 29 26 29 L23 29 23 33"/>
  </g>
</svg>