<svg width="64" height="64" xmlns="http://www.w3.org/2000/svg" xmlns:xlink="http://www.w3.org/1999/xlink">
  <defs/>
  <g>
    <path stroke="none" fill="#FFFFFF" d="M12.15 12 L51.85 12 Q53.1 12 54.2 12.7 55.2 13.35 55.7 14.5 56.15 15.6 55.95 16.8 48.7 52.5 32.25 52 L32 52 31.75 52 Q15.3 52.5 8.1 16.8 7.85 15.6 8.3 14.5 8.75 13.35 9.85 12.7 10.9 12 12.15 12 M31 25 L31 22 42 22 42 25 38 25 38 35 35 35 35 25 31 25 M11.1 15.6 L11.1 15.65 Q10.95 15.9 11.05 16.2 17.6 48.8 31.65 49 L31.75 49 32 49 32.25 49 32.35 49 Q46.4 48.8 53 16.2 L53 16.3 52.95 15.7 52.6 15.25 51.85 15 12.15 15 11.55 15.2 11.4 15.3 11.1 15.6 M25 32 L31 32 31 35 22 35 22 22 25 22 25 32"/>
  </g>
</svg>