<svg width="64" height="64" xmlns="http://www.w3.org/2000/svg" xmlns:xlink="http://www.w3.org/1999/xlink">
  <defs/>
  <g>
    <path stroke="none" fill="#FFFFFF" d="M28 36 L28 48 Q28 49.65 29.15 50.8 30.35 52 32 52 33.65 52 34.8 50.8 36 49.65 36 48 L36 36 48 36 Q49.65 36 50.8 34.85 52 33.65 52 32 52 30.35 50.8 29.2 49.65 28 48 28 L36 28 36 16 Q36 14.35 34.8 13.15 33.65 12 32 12 30.35 12 29.15 13.15 28 14.35 28 16 L28 28 16 28 Q14.35 28 13.15 29.2 12 30.35 12 32 12 33.65 13.15 34.85 14.35 36 16 36 L28 36 M32 8 Q42 8 48.95 15.05 56 22 56 32 56 41.95 48.95 49 42 56 32 56 22.05 56 15 49 8 41.95 8 32 8 22 15 15.05 22.05 8 32 8"/>
    <path stroke="none" fill="#E73246" d="M28 36 L16 36 Q14.35 36 13.15 34.85 12 33.65 12 32 12 30.35 13.15 29.2 14.35 28 16 28 L28 28 28 36"/>
  </g>
</svg>