<svg width="64" height="64" xmlns="http://www.w3.org/2000/svg" xmlns:xlink="http://www.w3.org/1999/xlink">
  <defs/>
  <g>
    <path stroke="none" fill="#FFFFFF" d="M12 44 L12 20 Q12 12.1 19.3 12 L19.8 12.05 48.6 15.1 Q49.8 15.25 50.75 16.15 51.7 17 51.9 18.35 52.15 19.65 51.6 20.85 49.5 25.5 49.5 32 49.5 38.5 51.6 43.15 52.15 44.35 51.9 45.65 51.7 46.95 50.8 47.9 49.85 48.75 48.65 48.9 L19.8 52 19.3 52 Q12 51.9 12 44 M41.5 31.5 L36.5 31.5 36.5 34.5 39.35 34.5 38.95 34.95 Q37.9 36 36.5 36 L35.5 35.85 34 34.95 Q33 33.95 33 32.55 L33 32.5 Q33.05 31.05 34 30.05 L34.05 30 Q35.05 29 36.5 29 37.95 29 38.95 30 39.4 30.45 40 30.45 40.6 30.45 41.05 30 L41.5 28.95 Q41.5 28.35 41.05 27.9 39.15 26 36.5 26 33.85 26 31.9 27.9 30.05 29.75 30 32.5 30 35.15 31.9 37.05 33.85 39 36.5 39 39.15 39 41.05 37.1 L41.1 37.05 Q42.75 35.45 43 33.2 L42.85 32.35 42.3 31.75 41.5 31.5 M23 36 L23 26 20 26 20 39 29 39 29 36 23 36"/>
  </g>
</svg>