<svg width="64" height="64" xmlns="http://www.w3.org/2000/svg" xmlns:xlink="http://www.w3.org/1999/xlink">
  <defs/>
  <g>
    <path stroke="none" fill="#FFFFFF" d="M56 32 Q56 41.95 48.95 49 43.55 54.45 36.35 55.65 L32 56 27.7 55.65 Q20.45 54.45 15 49 8 41.95 8 32 8 22 15 15.05 22.05 8 32 8 42 8 48.95 15.05 56 22 56 32 M46.85 46.85 Q53 40.7 53 32 53 23.25 46.85 17.15 40.75 11 32 11 23.3 11 17.15 17.15 11 23.25 11 32 11 40.7 17.15 46.85 23.3 53 32 53 40.75 53 46.85 46.85 M36 28 L44.1 28 Q45.7 28.05 46.85 29.2 48 30.35 48 32 48 33.65 46.85 34.85 45.65 36 44 36 L36 36 28 36 20 36 Q18.35 36 17.2 34.85 16 33.65 16 32 16 30.35 17.2 29.2 18.35 28 20 28 L28 28 36 28"/>
    <path stroke="none" fill="#E73246" d="M36 28 L28 28 28 20 Q28 18.35 29.15 17.2 30.35 16 32 16 33.65 16 34.8 17.2 36 18.35 36 20 L36 28 M28 36 L36 36 36 44 Q36 45.65 34.8 46.85 33.65 48 32 48 30.35 48 29.15 46.85 28 45.65 28 44 L28 36"/>
  </g>
</svg>