<svg width="64" height="64" xmlns="http://www.w3.org/2000/svg" xmlns:xlink="http://www.w3.org/1999/xlink">
  <defs/>
  <g>
    <path stroke="none" fill="#FFFFFF" d="M46.85 17.15 Q40.75 11 32 11 23.3 11 17.15 17.15 11 23.3 11 32 11 40.75 17.15 46.85 23.3 53 32 53 40.75 53 46.85 46.85 53 40.75 53 32 53 23.3 46.85 17.15 M56 32 Q56 42 48.95 48.95 42 56 32 56 22.05 56 15 48.95 8 42 8 32 8 22.05 15 15 20.45 9.55 27.7 8.35 L32 8 36.35 8.35 Q43.55 9.55 48.95 15 56 22.05 56 32 M32 16 Q33.65 16 34.8 17.15 36 18.35 36 20 L36 28 44 28 Q45.65 28 46.85 29.15 48 30.35 48 32 48 33.65 46.85 34.8 45.65 36 44 36 L36 36 36 44 Q36 45.65 34.8 46.8 33.65 48 32 48 30.35 48 29.15 46.8 28 45.65 28 44 L28 36 20 36 Q18.35 36 17.2 34.8 16 33.65 16 32 16 30.35 17.2 29.15 18.35 28 20 28 L28 28 28 20 Q28 18.35 29.15 17.15 30.35 16 32 16"/>
  </g>
</svg>