<svg width="64" height="64" xmlns="http://www.w3.org/2000/svg" xmlns:xlink="http://www.w3.org/1999/xlink">
  <defs/>
  <g>
    <path stroke="none" fill="#FFFFFF" d="M52 44 Q52 51.9 44.7 52 L44.2 52 15.35 48.9 Q14.15 48.75 13.2 47.9 12.3 46.95 12.1 45.65 11.85 44.35 12.4 43.15 14.5 38.5 14.5 32 14.5 25.5 12.4 20.85 11.85 19.65 12.1 18.35 12.3 17 13.25 16.15 14.2 15.25 15.4 15.1 L44.2 12.05 44.7 12 Q52 12.1 52 20 L52 44 M44.5 31.5 L39.5 31.5 39.5 34.5 42.35 34.5 41.95 34.95 Q40.9 36 39.5 36 L38.5 35.85 37 34.95 Q36 33.95 36 32.55 L36 32.5 Q36.05 31.05 37 30.05 L37.05 30 Q38.05 29 39.5 29 40.95 29 41.95 30 42.4 30.45 43 30.45 43.6 30.45 44.05 30 L44.5 28.95 Q44.5 28.35 44.05 27.9 42.15 26 39.5 26 36.85 26 34.9 27.9 33.05 29.75 33 32.5 33 35.15 34.9 37.05 36.85 39 39.5 39 42.15 39 44.05 37.1 L44.1 37.05 Q45.75 35.45 46 33.2 L45.85 32.35 45.3 31.75 44.5 31.5 M24 33 L24 29 27 29 Q27.85 29 28.4 29.55 29 30.15 29 31 29 31.85 28.4 32.4 27.85 33 27.05 33 L24 33 M27 36 L28 35.9 28 36 29 39 32 39 30.5 34.5 Q32 33.05 32 31 32 28.95 30.5 27.45 29.05 26 27 26 L21 26 21 39 24 39 24 36 27 36"/>
  </g>
</svg>