<svg width="64" height="64" xmlns="http://www.w3.org/2000/svg" xmlns:xlink="http://www.w3.org/1999/xlink">
  <defs/>
  <g>
    <path stroke="none" fill="#FFFFFF" d="M48 16 Q55.75 16 56 23.55 L55.95 24.35 52.55 44.65 Q52.3 46.1 51.2 47.05 50.05 48 48.6 48 L15.4 48 Q13.95 48 12.85 47.05 11.7 46.1 11.45 44.65 L8.05 24.35 8 23.55 Q8.25 16 16 16 L48 16 M41 31 L37 31 37 29 41 29 Q41.45 29 41.7 29.3 L42 30 41.7 30.7 Q41.45 31 41 31 M41 39 Q42.6 39 43.8 37.8 45 36.65 45 35 45 33.6 44.1 32.5 45 31.45 45 30 45 28.4 43.8 27.2 42.6 26 41 26 L34 26 34 39 41 39 M41 36 L37 36 37 34 41 34 Q41.45 34 41.7 34.3 L42 35 41.7 35.7 Q41.45 36 41 36 M23 33 L23 29 26 29 Q26.85 29 27.4 29.55 28 30.15 28 31 28 31.85 27.4 32.4 26.85 33 26.05 33 L23 33 M26 36 L27 35.9 27 36 28 39 31 39 29.5 34.5 Q31 33.05 31 31 31 28.95 29.5 27.45 28.05 26 26 26 L20 26 20 39 23 39 23 36 26 36"/>
  </g>
</svg>