<svg width="64" height="64" xmlns="http://www.w3.org/2000/svg" xmlns:xlink="http://www.w3.org/1999/xlink">
  <defs/>
  <g>
    <path stroke="none" fill="#FFFFFF" d="M12.15 12 L51.85 12 Q53.1 12 54.2 12.7 55.2 13.35 55.7 14.5 56.15 15.6 55.95 16.8 48.7 52.5 32.25 52 L32 52 31.75 52 Q15.3 52.5 8.1 16.8 7.85 15.6 8.3 14.5 8.75 13.35 9.85 12.7 10.9 12 12.15 12 M33 25 L33 22 44 22 44 25 40 25 40 35 37 35 37 25 33 25 M11.1 15.6 L11.1 15.65 Q10.95 15.9 11.05 16.2 17.6 48.8 31.65 49 L31.75 49 32 49 32.25 49 32.35 49 Q46.4 48.8 53 16.2 L53 16.3 52.95 15.7 52.6 15.25 51.85 15 12.15 15 11.55 15.2 11.4 15.3 11.1 15.6 M26 32 L23 32 23 35 20 35 20 22 26 22 Q28.05 22 29.5 23.45 31 24.95 31 27 31 29.05 29.5 30.5 L31 35 28 35 27 32 27 31.9 26 32 M23 29 L26.05 29 Q26.85 29 27.4 28.4 28 27.85 28 27 28 26.15 27.4 25.55 26.85 25 26 25 L23 25 23 29"/>
  </g>
</svg>