<svg width="64" height="64" xmlns="http://www.w3.org/2000/svg" xmlns:xlink="http://www.w3.org/1999/xlink">
  <defs/>
  <g>
    <path stroke="none" fill="#FFFFFF" d="M48 16 Q55.75 16 56 23.55 L55.95 24.35 52.55 44.65 Q52.3 46.1 51.2 47.05 50.05 48 48.6 48 L15.4 48 Q13.95 48 12.85 47.05 11.7 46.1 11.45 44.65 L8.05 24.35 8 23.55 Q8.25 16 16 16 L48 16 M40 36 Q40.45 36 40.7 35.7 L41 35 40.7 34.3 Q40.45 34 40 34 L36 34 36 36 40 36 M11 23.65 L11.05 24 14.4 44.15 14.75 44.75 14.8 44.8 Q15.05 45 15.4 45 L48.6 45 49.3 44.75 49.6 44.15 53 24 53 23.65 53 23.55 Q52.75 19 48 19 L16 19 Q11.2 19 11 23.65 M40 39 L33 39 33 26 40 26 Q41.6 26 42.8 27.2 44 28.4 44 30 44 31.45 43.1 32.5 44 33.6 44 35 44 36.65 42.8 37.8 41.6 39 40 39 M40 31 Q40.45 31 40.7 30.7 L41 30 40.7 29.3 Q40.45 29 40 29 L36 29 36 31 40 31 M24 36 L30 36 30 39 21 39 21 26 24 26 24 36"/>
  </g>
</svg>