<svg width="64" height="64" xmlns="http://www.w3.org/2000/svg" xmlns:xlink="http://www.w3.org/1999/xlink">
  <defs/>
  <g>
    <path stroke="none" fill="#FFFFFF" d="M11 23.65 L11.05 24 14.4 44.15 14.75 44.75 14.8 44.8 Q15.05 45 15.4 45 L48.6 45 49.3 44.75 49.6 44.15 53 24 53 23.65 53 23.55 Q52.75 19 48 19 L16 19 Q11.2 19 11 23.65 M48 16 Q55.75 16 56 23.55 L55.95 24.35 52.55 44.65 Q52.3 46.1 51.2 47.05 50.05 48 48.6 48 L15.4 48 Q13.95 48 12.85 47.05 11.7 46.1 11.45 44.65 L8.05 24.35 8 23.55 Q8.25 16 16 16 L48 16 M41 31 Q41.45 31 41.7 30.7 L42 30 41.7 29.3 Q41.45 29 41 29 L37 29 37 31 41 31 M41 39 L34 39 34 26 41 26 Q42.6 26 43.8 27.2 45 28.4 45 30 45 31.45 44.1 32.5 45 33.6 45 35 45 36.65 43.8 37.8 42.6 39 41 39 M41 36 Q41.45 36 41.7 35.7 L42 35 41.7 34.3 Q41.45 34 41 34 L37 34 37 36 41 36 M26 36 L23 36 23 39 20 39 20 26 26 26 Q28.05 26 29.5 27.45 31 28.95 31 31 31 33.05 29.5 34.5 L31 39 28 39 27 36 27 35.9 26 36 M23 33 L26.05 33 Q26.85 33 27.4 32.4 28 31.85 28 31 28 30.15 27.4 29.55 26.85 29 26 29 L23 29 23 33"/>
  </g>
</svg>