<svg width="64" height="64" xmlns="http://www.w3.org/2000/svg" xmlns:xlink="http://www.w3.org/1999/xlink">
  <defs/>
  <g>
    <path stroke="none" fill="#FFFFFF" d="M33 25 L37 25 37 35 40 35 40 25 44 25 44 22 33 22 33 25 M12.15 12 L51.85 12 Q53.1 12 54.2 12.7 55.2 13.35 55.7 14.5 56.15 15.6 55.95 16.8 48.7 52.5 32.25 52 L32 52 31.75 52 Q15.3 52.5 8.1 16.8 7.85 15.6 8.3 14.5 8.75 13.35 9.85 12.7 10.9 12 12.15 12 M23 29 L23 25 26 25 Q26.85 25 27.4 25.55 28 26.15 28 27 28 27.85 27.4 28.4 26.85 29 26.05 29 L23 29 M26 32 L27 31.9 27 32 28 35 31 35 29.5 30.5 Q31 29.05 31 27 31 24.95 29.5 23.45 28.05 22 26 22 L20 22 20 35 23 35 23 32 26 32"/>
  </g>
</svg>