<svg width="64" height="64" xmlns="http://www.w3.org/2000/svg" xmlns:xlink="http://www.w3.org/1999/xlink">
  <defs/>
  <g>
    <path stroke="none" fill="#FFFFFF" d="M32 56 Q22.1 56 15.05 49 L15 48.95 Q11.9 45.9 10.2 42.25 8 37.6 8 32 8 27.75 9.3 24 L10.2 21.75 Q11.9 18.1 15 15 20.45 9.55 27.7 8.35 L31.45 8 32.55 8 36.3 8.35 Q43.55 9.55 49 15 52.1 18.1 53.8 21.75 L54.7 24 Q56 27.75 56 32 56 37.6 53.8 42.25 52.1 45.9 49 48.95 L48.95 49 Q41.9 56 32 56 M32 32 Q27.05 32 23.5 28.45 21.5 26.45 20.65 24 17.35 12.85 12.5 24 11 27.7 11 32 11 40.75 17.15 46.85 L19.65 49 Q25 53 32 53 39 53 44.35 49 L46.85 46.85 Q53 40.75 53 32 53 27.7 51.5 24 46.65 12.85 43.35 24 42.5 26.45 40.5 28.45 36.95 32 32 32"/>
  </g>
</svg>