<svg width="64" height="64" xmlns="http://www.w3.org/2000/svg" xmlns:xlink="http://www.w3.org/1999/xlink">
  <defs/>
  <g>
    <path stroke="none" fill="#FFFFFF" d="M56 32 Q56 41.9 49 48.95 L48.95 49 Q45.9 52.1 42.25 53.8 37.6 56 32 56 27.75 56 24 54.7 L21.75 53.8 Q18.1 52.1 15 49 9.55 43.55 8.35 36.3 L8 32.55 8 31.45 8.35 27.7 Q9.55 20.45 15 15 18.1 11.9 21.75 10.2 L24 9.3 Q27.75 8 32 8 37.6 8 42.25 10.2 45.9 11.9 48.95 15 L49 15.05 Q56 22.1 56 32 M32 32 Q32 36.95 28.45 40.5 26.45 42.5 24 43.35 12.85 46.65 24 51.5 27.7 53 32 53 40.75 53 46.85 46.85 L49 44.35 Q53 39 53 32 53 25 49 19.65 L46.85 17.15 Q40.75 11 32 11 27.7 11 24 12.5 12.85 17.35 24 20.65 26.45 21.5 28.45 23.5 32 27.05 32 32"/>
  </g>
</svg>