<svg width="64" height="64" xmlns="http://www.w3.org/2000/svg" xmlns:xlink="http://www.w3.org/1999/xlink">
  <defs/>
  <g>
    <path stroke="none" fill="#FFFFFF" d="M32 32 Q36.95 32 40.5 35.55 42.5 37.55 43.35 40 46.65 51.15 51.5 40 53 36.3 53 32 53 23.25 46.85 17.15 L44.35 15 Q39 11 32 11 25 11 19.65 15 L17.15 17.15 Q11 23.25 11 32 11 36.3 12.5 40 17.35 51.15 20.65 40 21.5 37.55 23.5 35.55 27.05 32 32 32 M32 8 Q41.9 8 48.95 15 L49 15.05 Q52.1 18.1 53.8 21.75 56 26.4 56 32 56 36.25 54.7 40 L53.8 42.25 Q52.1 45.9 49 49 43.55 54.45 36.3 55.65 L32.55 56 31.45 56 27.7 55.65 Q20.45 54.45 15 49 11.9 45.9 10.2 42.25 L9.3 40 Q8 36.25 8 32 8 26.4 10.2 21.75 11.9 18.1 15 15.05 L15.05 15 Q22.1 8 32 8"/>
  </g>
</svg>