<svg width="64" height="64" xmlns="http://www.w3.org/2000/svg" xmlns:xlink="http://www.w3.org/1999/xlink">
  <defs/>
  <g>
    <path stroke="none" fill="#FFFFFF" d="M35 39 L35 36 38 36 Q40.05 36 41.5 34.55 43 33.05 43 31 43 28.95 41.5 27.45 40.05 26 38 26 L32 26 32 39 35 39 M56 32 Q56 42 48.95 48.95 43 54.95 34.85 55.85 L32 56 29.2 55.85 Q21 54.95 15 48.95 8 42 8 32 8 22.05 15 15 20.45 9.55 27.7 8.35 L32 8 36.35 8.35 Q43.55 9.55 48.95 15 56 22.05 56 32 M35 33 L35 29 38 29 Q38.85 29 39.4 29.55 40 30.15 40 31 40 31.85 39.4 32.45 38.85 33 38 33 L35 33 M24 36 L24 26 21 26 21 39 30 39 30 36 24 36"/>
  </g>
</svg>