<svg width="64" height="64" xmlns="http://www.w3.org/2000/svg" xmlns:xlink="http://www.w3.org/1999/xlink">
  <defs/>
  <g>
    <path stroke="none" fill="#E73246" d="M36 28 L44 28 Q45.65 28 46.85 29.2 48 30.35 48 32 48 33.65 46.85 34.85 45.65 36 44 36 L36 36 36 28"/>
    <path stroke="none" fill="#FFFFFF" d="M36 28 L36 36 36 44 Q36 45.65 34.85 46.8 33.65 48 32 48 30.35 48 29.2 46.8 28 45.65 28 44 L28 36 20 36 Q18.35 36 17.2 34.85 16 33.65 16 32 16 30.35 17.2 29.2 18.35 28 20 28 L28 28 28 20 Q28 18.35 29.2 17.15 30.35 16 32 16 33.65 16 34.85 17.15 36 18.35 36 20 L36 28 M32 8 Q41.95 8 49 15.05 54.45 20.45 55.65 27.65 56 29.75 56 32 L55.65 36.3 Q54.45 43.55 49 49 41.95 56 32 56 22 56 15.05 49 8 41.95 8 32 8 22 15.05 15.05 22 8 32 8 M46.85 17.15 Q40.7 11 32 11 23.25 11 17.15 17.15 11 23.25 11 32 11 40.7 17.15 46.85 23.25 53 32 53 40.7 53 46.85 46.85 53 40.7 53 32 53 23.25 46.85 17.15"/>
  </g>
</svg>