<svg width="64" height="64" xmlns="http://www.w3.org/2000/svg" xmlns:xlink="http://www.w3.org/1999/xlink">
  <defs/>
  <g>
    <path stroke="none" fill="#FFFFFF" d="M48 16 Q55.75 16 56 23.55 L55.95 24.35 52.55 44.65 Q52.3 46.1 51.2 47.05 50.05 48 48.6 48 L15.4 48 Q13.95 48 12.85 47.05 11.7 46.1 11.45 44.65 L8.05 24.35 8 23.55 Q8.25 16 16 16 L48 16 M40 31 L36 31 36 29 40 29 Q40.45 29 40.7 29.3 L41 30 40.7 30.7 Q40.45 31 40 31 M40 39 Q41.6 39 42.8 37.8 44 36.65 44 35 44 33.6 43.1 32.5 44 31.45 44 30 44 28.4 42.8 27.2 41.6 26 40 26 L33 26 33 39 40 39 M40 36 L36 36 36 34 40 34 Q40.45 34 40.7 34.3 L41 35 40.7 35.7 Q40.45 36 40 36 M24 36 L24 26 21 26 21 39 30 39 30 36 24 36"/>
  </g>
</svg>