<svg width="64" height="64" xmlns="http://www.w3.org/2000/svg" xmlns:xlink="http://www.w3.org/1999/xlink">
  <defs/>
  <g>
    <path stroke="none" fill="#FFFFFF" d="M15.05 18.95 L15.1 19.6 15.1 19.65 Q17.5 24.8 17.5 32 17.5 39.2 15.1 44.4 15 44.7 15.05 45.1 L15.05 45.2 15.3 45.8 15.7 45.95 44.3 49 44.65 49 Q49 48.85 49 44 L49 20 Q49 15.25 44.8 15 L44.5 15.05 15.75 18.1 Q15.55 18.15 15.3 18.35 L15.25 18.4 15.05 18.8 15.05 18.95 M44.5 31.5 L45.3 31.75 45.85 32.35 46 33.2 Q45.75 35.45 44.1 37.05 L44.05 37.1 Q42.15 39 39.5 39 36.85 39 34.9 37.05 33 35.15 33 32.5 33.05 29.75 34.9 27.9 36.85 26 39.5 26 42.15 26 44.05 27.9 44.5 28.35 44.5 28.95 L44.05 30 Q43.6 30.45 43 30.45 42.4 30.45 41.95 30 40.95 29 39.5 29 38.05 29 37.05 30 L37 30.05 Q36.05 31.05 36 32.5 L36 32.55 Q36 33.95 37 34.95 L38.5 35.85 39.5 36 Q40.9 36 41.95 34.95 L42.35 34.5 39.5 34.5 39.5 31.5 44.5 31.5 M52 44 Q52 51.9 44.7 52 L44.2 52 15.35 48.9 Q14.15 48.75 13.2 47.9 12.3 46.95 12.1 45.65 11.85 44.35 12.4 43.15 14.5 38.5 14.5 32 14.5 25.5 12.4 20.85 11.85 19.65 12.1 18.35 12.3 17 13.25 16.15 14.2 15.25 15.4 15.1 L44.2 12.05 44.7 12 Q52 12.1 52 20 L52 44 M27 36 L24 36 24 39 21 39 21 26 27 26 Q29.05 26 30.5 27.45 32 28.95 32 31 32 33.05 30.5 34.5 L32 39 29 39 28 36 28 35.9 27 36 M24 33 L27.05 33 Q27.85 33 28.4 32.4 29 31.85 29 31 29 30.15 28.4 29.55 27.85 29 27 29 L24 29 24 33"/>
  </g>
</svg>