<svg width="64" height="64" xmlns="http://www.w3.org/2000/svg" xmlns:xlink="http://www.w3.org/1999/xlink">
  <defs/>
  <g>
    <path stroke="none" fill="#FFFFFF" d="M48.95 18.95 L48.95 18.8 48.75 18.4 48.7 18.35 Q48.45 18.15 48.25 18.1 L19.5 15.05 19.2 15 Q15 15.25 15 20 L15 44 Q15 48.85 19.35 49 L19.7 49 48.3 45.95 48.7 45.8 48.95 45.2 48.95 45.1 48.9 44.4 Q46.5 39.2 46.5 32 46.5 24.8 48.9 19.65 L48.9 19.6 48.95 18.95 M12 44 L12 20 Q12 12.1 19.3 12 L19.8 12.05 48.6 15.1 Q49.8 15.25 50.75 16.15 51.7 17 51.9 18.35 52.15 19.65 51.6 20.85 49.5 25.5 49.5 32 49.5 38.5 51.6 43.15 52.15 44.35 51.9 45.65 51.7 46.95 50.8 47.9 49.85 48.75 48.65 48.9 L19.8 52 19.3 52 Q12 51.9 12 44 M41.5 31.5 L42.3 31.75 42.85 32.35 43 33.2 Q42.75 35.45 41.1 37.05 L41.05 37.1 Q39.15 39 36.5 39 33.85 39 31.9 37.05 30 35.15 30 32.5 30.05 29.75 31.9 27.9 33.85 26 36.5 26 39.15 26 41.05 27.9 41.5 28.35 41.5 28.95 L41.05 30 Q40.6 30.45 40 30.45 39.4 30.45 38.95 30 37.95 29 36.5 29 35.05 29 34.05 30 L34 30.05 Q33.05 31.05 33 32.5 L33 32.55 Q33 33.95 34 34.95 L35.5 35.85 36.5 36 Q37.9 36 38.95 34.95 L39.35 34.5 36.5 34.5 36.5 31.5 41.5 31.5 M23 36 L29 36 29 39 20 39 20 26 23 26 23 36"/>
  </g>
</svg>