<svg width="64" height="64" xmlns="http://www.w3.org/2000/svg" xmlns:xlink="http://www.w3.org/1999/xlink">
  <defs/>
  <g>
    <path stroke="none" fill="#FFFFFF" d="M32 40.25 Q24.1 39.95 21.8 42.5 17.8 47.05 14.8 48.2 10.4 50.15 9.1 47.3 7.45 43.55 8.25 37.3 9 30.7 10.85 25 L11.65 22.6 Q12.5 20.1 13.8 17.9 L13.8 17.2 Q17.2 14.45 21.4 15.15 L24.05 16.65 Q26.05 17.7 28.45 17.85 L32 18.1 35.55 17.85 Q37.95 17.7 39.95 16.65 L42.65 15.15 Q46.8 14.45 50.2 17.2 L50.2 17.9 Q51.55 20.1 52.35 22.6 L53.2 25 54.7 30.6 55.75 37.3 55.95 39.55 Q56.2 44.25 54.9 47.3 53.7 50 49.6 48.35 L49.2 48.2 Q47.55 47.55 45.6 45.9 L42.2 42.5 Q39.9 39.95 32 40.25 M30 34.5 Q30 33.05 29 32 28 31 26.5 31 25.05 31 24.05 32 23 33.05 23 34.5 23 35.95 24.05 37 25.05 38 26.5 38 28 38 29 37 30 35.95 30 34.5 M41 34.5 Q41 33.05 40 32 39 31 37.5 31 36.05 31 35.05 32 34 33.05 34 34.5 34 35.95 35.05 37 36.05 38 37.5 38 39 38 40 37 41 35.95 41 34.5 M22 25.5 Q22 24.05 21 23 20 22 18.5 22 17.05 22 16.05 23 15 24.05 15 25.5 15 26.95 16.05 28 17.05 29 18.5 29 20 29 21 28 22 26.95 22 25.5 M35 24 Q35 22.75 34.15 21.85 33.3 21 32 21 30.75 21 29.9 21.85 29 22.75 29 24 29 25.25 29.9 26.15 30.75 27 32 27 33.3 27 34.15 26.15 35 25.25 35 24 M43 27 Q43 26.15 42.4 25.55 41.85 25 41 25 40.15 25 39.6 25.55 39 26.15 39 27 39 27.8 39.6 28.4 40.15 29 41 29 41.85 29 42.4 28.4 43 27.8 43 27 M47 31 Q47 30.15 46.4 29.55 45.85 29 45 29 44.15 29 43.6 29.55 43 30.15 43 31 43 31.8 43.6 32.4 44.15 33 45 33 45.85 33 46.4 32.4 47 31.8 47 31 M51 27 Q51 26.15 50.4 25.55 49.85 25 49 25 48.15 25 47.6 25.55 47 26.15 47 27 47 27.8 47.6 28.4 48.15 29 49 29 49.85 29 50.4 28.4 51 27.8 51 27 M47 23 Q47 22.15 46.4 21.55 45.85 21 45 21 44.15 21 43.6 21.55 43 22.15 43 23 43 23.8 43.6 24.4 44.15 25 45 25 45.85 25 46.4 24.4 47 23.8 47 23"/>
  </g>
</svg>