<svg width="64" height="64" xmlns="http://www.w3.org/2000/svg" xmlns:xlink="http://www.w3.org/1999/xlink">
  <defs/>
  <g>
    <path stroke="none" fill="#FFFFFF" d="M29 32.5 Q29 31.05 28 30 27 29 25.5 29 L24.55 29.15 Q23.7 29.35 23.05 30 22 31.05 22 32.5 22 33.95 23.05 35 L24.55 35.9 25.5 36 Q27 36 28 35 29 33.95 29 32.5 M39 32 Q39 30.75 38.15 29.85 37.3 29 36 29 34.75 29 33.9 29.85 33 30.75 33 32 33 33.25 33.9 34.15 34.75 35 36 35 37.3 35 38.15 34.15 39 33.25 39 32 M41 25 Q41 24.15 40.4 23.55 39.85 23 39 23 38.15 23 37.6 23.55 37 24.15 37 25 37 25.8 37.6 26.4 38.15 27 39 27 39.85 27 40.4 26.4 41 25.8 41 25 M34 20 Q34 19.15 33.45 18.55 32.85 18 32 18 31.15 18 30.6 18.55 30 19.15 30 20 30 20.85 30.6 21.45 31.15 22 32 22 32.85 22 33.45 21.45 34 20.85 34 20 M24 23.5 Q24 22.05 23 21 22 20 20.5 20 19.05 20 18.05 21 17 22.05 17 23.5 17 24.95 18.05 26 19.05 27 20.5 27 22 27 23 26 24 24.95 24 23.5 M45 29 Q45 28.15 44.4 27.55 43.85 27 43 27 42.15 27 41.6 27.55 41 28.15 41 29 41 29.8 41.6 30.4 42.15 31 43 31 43.85 31 44.4 30.4 45 29.8 45 29 M49 25 Q49 24.15 48.4 23.55 47.85 23 47 23 46.15 23 45.6 23.55 45 24.15 45 25 45 25.8 45.6 26.4 46.15 27 47 27 47.85 27 48.4 26.4 49 25.8 49 25 M45 21 Q45 20.15 44.4 19.55 43.85 19 43 19 42.15 19 41.6 19.55 41 20.15 41 21 41 21.8 41.6 22.4 42.15 23 43 23 43.85 23 44.4 22.4 45 21.8 45 21 M23.6 38.65 Q22.1 38.65 20.9 39.6 20.15 40.15 19.5 41.1 L17.45 43.75 Q14.65 47.25 12.7 48 9.55 47.55 8.25 43.95 7.95 42.5 8 40.75 8.1 38 9.1 34.5 L9.35 33.55 Q10.2 30.3 11.35 27 L12.1 25 13.35 21.9 14.35 19.6 15.3 18.6 15.45 18.35 15.85 17.65 Q17.55 15.4 21.55 15 L23.5 15 24.25 15.85 39.7 15.85 40.5 15 42.45 15 Q46.45 15.4 48.1 17.65 L48.55 18.35 48.65 18.6 49.65 19.6 50.65 21.9 51.95 25 52.65 27 54.65 33.55 54.9 34.5 Q55.9 38 56 40.75 56.05 42.5 55.75 43.95 54.45 47.55 51.25 48 49.35 47.25 46.5 43.75 L44.5 41.1 43.1 39.6 Q41.9 38.65 40.4 38.65 L23.6 38.65"/>
  </g>
</svg>