<svg width="64" height="64" xmlns="http://www.w3.org/2000/svg" xmlns:xlink="http://www.w3.org/1999/xlink">
  <defs/>
  <g>
    <path stroke="none" fill="#FFFFFF" d="M25 31 L25 33 23 33 23 35 25 35 25 37 27 37 27 35 29 35 29 33 27 33 27 31 25 31 M39 34 Q39 32.75 38.15 31.85 37.3 31 36 31 34.75 31 33.9 31.85 33 32.75 33 34 33 35.25 33.9 36.15 34.75 37 36 37 37.3 37 38.15 36.15 39 35.25 39 34 M41 27 Q41 26.15 40.4 25.55 39.85 25 39 25 38.15 25 37.6 25.55 37 26.15 37 27 37 27.8 37.6 28.4 38.15 29 39 29 39.85 29 40.4 28.4 41 27.8 41 27 M34 22 Q34 21.15 33.45 20.55 32.85 20 32 20 31.15 20 30.6 20.55 30 21.15 30 22 30 22.85 30.6 23.45 31.15 24 32 24 32.85 24 33.45 23.45 34 22.85 34 22 M24 25.5 Q24 24.05 23 23 22 22 20.5 22 19.05 22 18.05 23 17 24.05 17 25.5 17 26.95 18.05 28 19.05 29 20.5 29 22 29 23 28 24 26.95 24 25.5 M45 31 Q45 30.15 44.4 29.55 43.85 29 43 29 42.15 29 41.6 29.55 41 30.15 41 31 41 31.8 41.6 32.4 42.15 33 43 33 43.85 33 44.4 32.4 45 31.8 45 31 M49 27 Q49 26.15 48.4 25.55 47.85 25 47 25 46.15 25 45.6 25.55 45 26.15 45 27 45 27.8 45.6 28.4 46.15 29 47 29 47.85 29 48.4 28.4 49 27.8 49 27 M45 23 Q45 22.15 44.4 21.55 43.85 21 43 21 42.15 21 41.6 21.55 41 22.15 41 23 41 23.8 41.6 24.4 42.15 25 43 25 43.85 25 44.4 24.4 45 23.8 45 23 M23.55 39.45 Q21.15 39.35 19.6 41.55 L15.1 47.4 Q14.15 48.5 13.2 49 9.45 48.35 8.7 45.75 7.55 41.85 8.3 37.5 9.7 30.8 12.15 24.45 14 19.1 15.2 19 L15.5 17.95 Q15.75 17.05 18.15 16.1 L21.05 15.2 Q23 14.8 23.75 15.2 25.1 16 25.85 16 L38.1 16 Q38.85 16 40.25 15.2 41 14.8 42.95 15.2 L45.8 16.1 Q48.25 17.05 48.5 17.95 L48.8 19 Q50 19.1 51.85 24.45 54.3 30.8 55.7 37.5 56.45 41.85 55.3 45.75 54.5 48.35 50.8 49 49.85 48.5 48.85 47.4 46.55 44.75 44.4 41.55 42.85 39.35 40.4 39.45 L23.55 39.45"/>
  </g>
</svg>