<svg width="64" height="64" xmlns="http://www.w3.org/2000/svg" xmlns:xlink="http://www.w3.org/1999/xlink">
  <defs/>
  <g>
    <path stroke="none" fill="#FFFFFF" d="M14.85 22.85 Q11 26.65 11 32 11 37.35 14.85 41.2 18.65 45 24 45 L40 45 Q45.35 45 49.2 41.2 53 37.35 53 32 53 26.65 49.2 22.85 47.2 20.85 44.85 19.9 42.6 19 40 19 L24 19 Q21.4 19 19.2 19.9 L19.15 19.9 Q16.8 20.85 14.85 22.85 M44 29 Q43.6 29 43.3 28.7 43 28.4 43 28 43 27.6 43.3 27.3 43.6 27 44 27 L48 27 Q48.4 27 48.7 27.3 L49 28 48.7 28.7 Q48.4 29 48 29 L47 29 47 36 46.7 36.7 46 37 45.3 36.7 Q45 36.4 45 36 L45 29 44 29 M39.1 31 L39.45 30.9 39.7 30.7 39.75 30.7 40 30 39.7 29.25 Q39.45 29 39.05 29 L38 29 38 31 39.1 31 M31 29.8 L31 32 33 32 33 29.8 32.75 29.25 32.75 29.3 Q32.45 29 32 29 31.55 29 31.2 29.3 L31.25 29.2 Q31 29.45 31 29.8 M38 33 L38 36 37.7 36.7 37 37 36.3 36.7 Q36 36.4 36 36 L36 28 Q36 27.6 36.3 27.3 36.6 27 37 27 L39.05 27 Q40.25 27 41.1 27.85 42 28.75 42 30 42 31.25 41.1 32.1 L41.1 32.15 40.45 32.65 41.9 35.55 41.95 36.35 41.45 36.9 40.7 36.95 Q40.3 36.8 40.1 36.45 L38.4 33 38 33 M29 29.8 Q29 28.65 29.85 27.8 L29.9 27.75 Q30.75 27 32 27 33.15 27 34.05 27.75 L34.1 27.8 Q35 28.65 35 29.8 L35 36 34.7 36.7 Q34.4 37 34 37 L33.3 36.7 Q33 36.4 33 36 L33 34 31 34 31 36 30.7 36.7 Q30.4 37 30 37 L29.3 36.7 Q29 36.4 29 36 L29 29.8 M24 16 L40 16 Q43.2 16 45.95 17.1 48.85 18.25 51.3 20.7 56 25.4 56 32 56 38.6 51.3 43.3 46.6 48 40 48 L24 48 Q17.4 48 12.7 43.3 8 38.6 8 32 8 25.4 12.7 20.7 15.15 18.25 18.05 17.1 20.8 16 24 16 M23 29 Q22.6 29 22.3 28.7 22 28.4 22 28 22 27.6 22.3 27.3 22.6 27 23 27 L27 27 Q27.4 27 27.7 27.3 L28 28 27.7 28.7 Q27.4 29 27 29 L26 29 26 36 25.7 36.7 25 37 24.3 36.7 Q24 36.4 24 36 L24 29 23 29 M18 29 Q17.6 29 17.3 29.3 17 29.6 17 30 17 30.4 17.3 30.7 17.6 31 17.95 31 L18.05 31 Q19.2 31 20.1 31.9 21 32.8 21 34 21 35.2 20.1 36.1 19.2 37 18 37 L16 37 15.3 36.7 Q15 36.4 15 36 15 35.6 15.3 35.3 15.6 35 16 35 L18 35 Q18.4 35 18.7 34.7 L19 34 18.7 33.3 Q18.4 33 18.05 33 L17.95 33 Q16.8 33 15.9 32.1 15 31.2 15 30 15 28.8 15.9 27.9 16.8 27 18 27 L20 27 Q20.4 27 20.7 27.3 L21 28 20.7 28.7 20 29 18 29"/>
  </g>
</svg>