<svg width="64" height="64" xmlns="http://www.w3.org/2000/svg" xmlns:xlink="http://www.w3.org/1999/xlink">
  <defs/>
  <g>
    <path stroke="none" fill="#FFFFFF" d="M38 36 L38 23 33 23 33 19 47 19 47 23 42 23 42 36 38 36 M48.3 54 L31.35 54 Q21.85 53.8 15.05 47 8.35 40.3 8 31.05 L8 18 Q8 10 16 10 L48 10 Q56 10 56 18 L56 46 Q56 53.85 48.3 54 M18 19 L25 19 Q27.5 19 29.25 20.75 31 22.5 31 25 31 27.45 29.25 29.2 L29.2 29.25 28.45 29.9 31.5 36 27.5 36 25 31 22 31 22 36 18 36 18 19 M25 23 L22 23 22 27 25 27 Q25.8 27 26.35 26.45 L26.45 26.35 Q27 25.8 27 25 27 24.2 26.4 23.6 25.8 23 25 23 M53 46 L53 18 Q53 13 48 13 L16 13 Q11 13 11 18 L11 31.05 Q11.35 39.05 17.15 44.85 23.3 51 32 51 L48 51 Q53 51 53 46"/>
  </g>
</svg>