<svg width="64" height="64" xmlns="http://www.w3.org/2000/svg" xmlns:xlink="http://www.w3.org/1999/xlink">
  <defs/>
  <g>
    <path stroke="none" fill="#FFFFFF" d="M14.85 22.85 Q11 26.65 11 32 11 37.35 14.85 41.2 18.65 45 24 45 L40 45 Q45.35 45 49.2 41.2 53 37.35 53 32 53 26.65 49.2 22.85 47.2 20.85 44.85 19.9 42.6 19 40 19 L24 19 Q21.4 19 19.2 19.9 L19.15 19.9 Q16.8 20.85 14.85 22.85 M24 16 L40 16 Q43.2 16 45.95 17.1 48.85 18.25 51.3 20.7 56 25.4 56 32 56 38.6 51.3 43.3 46.6 48 40 48 L24 48 Q17.4 48 12.7 43.3 11.2 41.8 10.2 40.15 8 36.5 8 32 8 27.5 10.2 23.85 11.2 22.2 12.7 20.7 15.15 18.25 18.05 17.1 20.8 16 24 16 M29 25 L31 25 Q31.4 25 31.7 25.3 L37.7 31.3 38 32 37.7 32.7 31.7 38.7 31 39 29 39 Q28.6 39 28.3 38.7 28 38.4 28 38 L28 26 Q28 25.6 28.3 25.3 28.6 25 29 25"/>
  </g>
</svg>