<svg width="64" height="64" xmlns="http://www.w3.org/2000/svg" xmlns:xlink="http://www.w3.org/1999/xlink">
  <defs/>
  <g>
    <path stroke="none" fill="#FFFFFF" d="M31 29.8 Q31 29.45 31.25 29.2 L31.2 29.3 Q31.55 29 32 29 32.45 29 32.75 29.3 L32.75 29.25 33 29.8 33 32 31 32 31 29.8 M29 29.8 L29 36 Q29 36.4 29.3 36.7 L30 37 Q30.4 37 30.7 36.7 L31 36 31 34 33 34 33 36 Q33 36.4 33.3 36.7 L34 37 Q34.4 37 34.7 36.7 L35 36 35 29.8 Q35 28.65 34.1 27.8 L34.05 27.75 Q33.15 27 32 27 30.75 27 29.9 27.75 L29.85 27.8 Q29 28.65 29 29.8 M38 33 L38.4 33 40.1 36.45 Q40.3 36.8 40.7 36.95 L41.45 36.9 41.95 36.35 41.9 35.55 40.45 32.65 41.1 32.15 41.1 32.1 Q42 31.25 42 30 42 28.75 41.1 27.85 40.25 27 39.05 27 L37 27 Q36.6 27 36.3 27.3 36 27.6 36 28 L36 36 Q36 36.4 36.3 36.7 L37 37 37.7 36.7 38 36 38 33 M39.1 31 L38 31 38 29 39.05 29 Q39.45 29 39.7 29.25 L40 30 39.75 30.7 39.7 30.7 39.45 30.9 39.1 31 M44 29 L45 29 45 36 Q45 36.4 45.3 36.7 L46 37 46.7 36.7 47 36 47 29 48 29 Q48.4 29 48.7 28.7 L49 28 48.7 27.3 Q48.4 27 48 27 L44 27 Q43.6 27 43.3 27.3 43 27.6 43 28 43 28.4 43.3 28.7 43.6 29 44 29 M24 16 L40 16 Q43.2 16 45.95 17.1 48.85 18.25 51.3 20.7 56 25.4 56 32 56 38.6 51.3 43.3 46.6 48 40 48 L24 48 Q17.4 48 12.7 43.3 8 38.6 8 32 8 25.4 12.7 20.7 15.15 18.25 18.05 17.1 20.8 16 24 16 M18 29 L20 29 20.7 28.7 21 28 20.7 27.3 Q20.4 27 20 27 L18 27 Q16.8 27 15.9 27.9 15 28.8 15 30 15 31.2 15.9 32.1 16.8 33 17.95 33 L18.05 33 Q18.4 33 18.7 33.3 L19 34 18.7 34.7 Q18.4 35 18 35 L16 35 Q15.6 35 15.3 35.3 15 35.6 15 36 15 36.4 15.3 36.7 L16 37 18 37 Q19.2 37 20.1 36.1 21 35.2 21 34 21 32.8 20.1 31.9 19.2 31 18.05 31 L17.95 31 Q17.6 31 17.3 30.7 17 30.4 17 30 17 29.6 17.3 29.3 17.6 29 18 29 M23 29 L24 29 24 36 Q24 36.4 24.3 36.7 L25 37 25.7 36.7 26 36 26 29 27 29 Q27.4 29 27.7 28.7 L28 28 27.7 27.3 Q27.4 27 27 27 L23 27 Q22.6 27 22.3 27.3 22 27.6 22 28 22 28.4 22.3 28.7 22.6 29 23 29"/>
  </g>
</svg>