<svg width="64" height="64" xmlns="http://www.w3.org/2000/svg" xmlns:xlink="http://www.w3.org/1999/xlink">
  <defs/>
  <g>
    <path stroke="none" fill="#FFFFFF" fill-opacity="0" d="M22.75 9.45 L22.3 8.95 22.25 8.85 Q21 7.5 21 5.65 21 3.75 22.25 2.5 23.55 1 25.6 1 L38.4 1 Q40.25 0.95 41.7 2.4 43 3.65 43 5.65 43 7.5 41.8 8.85 L41.7 8.95 41.25 9.45 37.9 12.95 35.6 15.3 35.3 15.6 35.3 15.65 Q33.85 17.05 32 17 30 17 28.7 15.6 L28.4 15.3 26.15 12.95 22.75 9.45 M30.85 13.5 Q31.3 14 32 14 32.65 14 33.15 13.5 L39.55 6.85 Q40 6.35 40 5.65 40 4.95 39.55 4.5 39.05 4 38.4 4 L25.6 4 Q24.9 4 24.45 4.5 24 4.95 24 5.65 24 6.35 24.45 6.85 L30.85 13.5"/>
    <path stroke="none" fill="#FFFFFF" d="M30.85 13.5 L24.45 6.85 Q24 6.35 24 5.65 24 4.95 24.45 4.5 24.9 4 25.6 4 L38.4 4 Q39.05 4 39.55 4.5 40 4.95 40 5.65 40 6.35 39.55 6.85 L33.15 13.5 Q32.65 14 32 14 31.3 14 30.85 13.5 M41.25 9.45 Q45.5 10.85 48.95 13.65 56 19.4 56 27.4 L56 27.95 56 28.1 56 28.5 56 29 56 29.55 56 30.1 56 30.65 Q56 38.7 48.95 44.3 46.2 46.55 43 47.9 L43 50 Q43 52.5 39.75 54.25 36.55 56 32 56 27.5 56 24.25 54.25 21 52.5 21 50 L21 47.9 Q17.8 46.55 15 44.3 8 38.7 8 30.65 L8 30.1 8 29.55 8 29 8 28.5 8 28.1 8 27.95 8 27.4 Q8 19.4 15 13.65 18.5 10.85 22.75 9.45 L26.15 12.95 Q21.25 14.05 17.4 17.1 L17.45 17.1 Q12.15 21.4 12 27.4 12.1 33.45 17.4 37.65 23.45 42.5 32 42.5 40.55 42.5 46.55 37.7 L46.6 37.65 Q51.9 33.4 52 27.4 51.85 21.4 46.55 17.1 42.75 14.05 37.9 12.95 L41.25 9.45 M28.4 15.3 L28.7 15.6 Q30 17 32 17 33.85 17.05 35.3 15.65 L35.3 15.6 35.6 15.3 Q40.5 16.05 44.2 19 L44.15 19 Q47.7 22 48 25.95 L48 26.05 Q47.7 30 44.2 32.9 L44 33.05 Q39.05 37 32 37 24.85 37 19.8 32.95 L19.7 32.9 Q16.3 30 16 26.1 L16 26.05 Q16.25 22 19.85 19 L19.95 18.9 Q23.65 16.05 28.4 15.3 M33 30 L34 29.9 34 30 35 33 38 33 36.5 28.5 Q38 27.05 38 25 38 22.95 36.5 21.45 35.05 20 33 20 L27 20 27 33 30 33 30 30 33 30 M30 27 L30 23 33 23 Q33.85 23 34.4 23.55 35 24.15 35 25 35 25.85 34.4 26.4 33.85 27 33.05 27 L30 27"/>
  </g>
</svg>