<svg width="64" height="64" xmlns="http://www.w3.org/2000/svg" xmlns:xlink="http://www.w3.org/1999/xlink">
  <defs/>
  <g>
    <path stroke="none" fill="#FFFFFF" d="M40 39 L33 39 33 26 40 26 Q41.6 26 42.8 27.2 44 28.4 44 30 44 31.45 43.1 32.5 44 33.6 44 35 44 36.65 42.8 37.8 41.6 39 40 39 M48 16 Q56 16 56 24 L56 40 Q56 48 48 48 L16 48 Q8 48 8 40 L8 32 Q8 25.4 12.7 20.7 17.4 16 24 16 L48 16 M40 31 Q40.45 31 40.7 30.7 L41 30 40.7 29.3 Q40.45 29 40 29 L36 29 36 31 40 31 M48 19 L24 19 Q18.65 19 14.8 22.85 11 26.65 11 32 L11 40 Q11 45 16 45 L48 45 Q53 45 53 40 L53 24 Q53 19 48 19 M40 36 Q40.45 36 40.7 35.7 L41 35 40.7 34.3 Q40.45 34 40 34 L36 34 36 36 40 36 M24 36 L30 36 30 39 21 39 21 26 24 26 24 36"/>
  </g>
</svg>