<svg width="64" height="64" xmlns="http://www.w3.org/2000/svg" xmlns:xlink="http://www.w3.org/1999/xlink">
  <defs/>
  <g>
    <path stroke="none" fill="#FFFFFF" d="M15.7 54 Q8 53.85 8 46 L8 18 Q8 10 16 10 L48 10 Q56 10 56 18 L56 31.05 Q55.65 40.3 48.95 47 42.15 53.8 32.65 54 L15.7 54 M11 46 Q11 51 16 51 L32 51 Q40.7 51 46.85 44.85 52.65 39.05 53 31.05 L53 18 Q53 13 48 13 L16 13 Q11 13 11 18 L11 46 M37 36 L37 23 32 23 32 19 46 19 46 23 41 23 41 36 37 36 M18 19 L22 19 22 32 30 32 30 36 18 36 18 19"/>
  </g>
</svg>