<svg width="64" height="64" xmlns="http://www.w3.org/2000/svg" xmlns:xlink="http://www.w3.org/1999/xlink">
  <defs/>
  <g>
    <path stroke="none" fill="#FFFFFF" d="M11 32 Q11 40.75 17.15 46.85 23.3 53 32 53 40.75 53 46.85 46.85 53 40.75 53 32 53 23.3 46.85 17.15 40.75 11 32 11 23.3 11 17.15 17.15 11 23.3 11 32 M41.5 36.6 L41.6 36.5 Q42 36.1 42 35.5 42 34.9 41.55 34.45 41.1 34 40.5 34 L38 34 Q35.9 34 34.45 32.55 33 31.1 33 29 33 26.95 34.4 25.5 L34.5 25.4 Q35.95 24 37.95 24 L41.2 24 Q43.1 24.05 44.5 25.4 L44.6 25.5 Q45.65 26.6 45.9 28 L46 29 42 29 41.7 28.3 Q41.4 28 41.1 28 L37.95 28 Q37.6 28 37.3 28.3 37 28.6 37 29 37 29.4 37.3 29.7 37.6 30 38 30 L40.5 30 Q42.8 30 44.4 31.6 46 33.2 46 35.5 L46 36 Q45.8 37.95 44.4 39.35 L44.35 39.4 Q42.75 41 40.5 41 L37.85 41 Q35.9 40.95 34.5 39.6 L34.4 39.5 Q33.35 38.4 33.1 37 L33 36 37 36 Q37 36.4 37.3 36.7 L37.95 37 40.5 37 Q41.1 37 41.5 36.6 M56 32 Q56 42 48.95 48.95 42 56 32 56 22.05 56 15 48.95 8 42 8 32 8 22.05 15 15 22.05 8 32 8 42 8 48.95 15 56 22.05 56 32 M18 24 L25 24 Q27.5 24 29.25 25.75 31 27.5 31 30 31 32.45 29.25 34.2 L29.2 34.25 28.45 34.9 31.5 41 27.5 41 25 36 22 36 22 41 18 41 18 24 M25 28 L22 28 22 32 25 32 Q25.8 32 26.35 31.45 L26.45 31.35 Q27 30.8 27 30 27 29.2 26.4 28.6 25.8 28 25 28"/>
  </g>
</svg>