<svg width="64" height="64" xmlns="http://www.w3.org/2000/svg" xmlns:xlink="http://www.w3.org/1999/xlink">
  <defs/>
  <g>
    <path stroke="none" fill="#FFFFFF" d="M35 25 Q35.4 25 35.7 25.3 L36 26 36 38 35.7 38.7 35 39 33 39 32.3 38.7 26.3 32.7 26 32 Q26 31.6 26.3 31.3 L32.3 25.3 Q32.6 25 33 25 L35 25 M49.15 22.85 Q47.2 20.85 44.85 19.9 L44.8 19.9 Q42.6 19 40 19 L24 19 Q21.4 19 19.15 19.9 16.8 20.85 14.8 22.85 11 26.65 11 32 11 37.35 14.8 41.2 18.65 45 24 45 L40 45 Q45.35 45 49.15 41.2 53 37.35 53 32 53 26.65 49.15 22.85 M40 16 Q43.2 16 45.95 17.1 48.85 18.25 51.3 20.7 56 25.4 56 32 56 38.6 51.3 43.3 46.6 48 40 48 L24 48 Q17.4 48 12.7 43.3 8 38.6 8 32 8 25.4 12.7 20.7 15.15 18.25 18.05 17.1 20.8 16 24 16 L40 16"/>
  </g>
</svg>