<svg width="64" height="64" xmlns="http://www.w3.org/2000/svg" xmlns:xlink="http://www.w3.org/1999/xlink">
  <defs/>
  <g>
    <path stroke="none" fill="#FFFFFF" d="M38.1 36.25 Q39 35.35 39 34.25 L38.7 33.55 38 33.25 Q37.6 33.25 37.3 33.55 37 33.85 37 34.25 L36.75 34.8 36.75 34.75 36 35 35.2 34.75 35 34.25 35 29.8 Q35 29.45 35.25 29.2 L35.2 29.3 Q35.55 29 36 29 36.45 29 36.75 29.3 L36.75 29.25 37 29.8 Q37 30.2 37.3 30.5 37.6 30.8 38 30.8 L38.7 30.5 39 29.8 Q39 28.65 38.1 27.8 L38.05 27.75 Q37.15 27 36 27 34.75 27 33.9 27.75 L33.85 27.8 Q33 28.65 33 29.8 L33 34.25 Q33 35.35 33.85 36.2 L33.9 36.3 Q34.75 37 36 37 37.15 37 38.05 36.3 L38.1 36.25 M46.9 35.55 L45.15 32 46.9 28.45 46.95 27.7 46.45 27.1 45.7 27.05 Q45.3 27.2 45.1 27.55 L43.4 31 43 31 43 28 42.7 27.3 Q42.4 27 42 27 41.6 27 41.3 27.3 41 27.6 41 28 L41 36 Q41 36.4 41.3 36.7 L42 37 42.7 36.7 43 36 43 33 43.4 33 45.1 36.45 Q45.3 36.8 45.7 36.95 L46.45 36.9 46.95 36.35 46.9 35.55 M24 16 L40 16 Q43.2 16 45.95 17.1 48.85 18.25 51.3 20.7 56 25.4 56 32 56 38.6 51.3 43.3 46.6 48 40 48 L24 48 Q17.9 48 13.45 44 L12.7 43.3 Q8 38.6 8 32 8 25.4 12.7 20.7 L13.45 20 Q15.6 18.1 18.05 17.1 20.8 16 24 16 M23 30 Q23 28.75 22.1 27.85 21.25 27 20.05 27 L18 27 Q17.6 27 17.3 27.3 17 27.6 17 28 L17 36 Q17 36.4 17.3 36.7 L18 37 20.1 37 21.35 36.7 21.45 36.65 22.1 36.15 22.1 36.1 Q23 35.25 23 34 23 32.85 22.25 32 23 31.2 23 30 M20.45 30.9 L20.25 31 19 31 19 29 20.05 29 Q20.45 29 20.7 29.25 L21 30 20.75 30.7 20.7 30.7 20.45 30.9 M25 29.8 L25 36 Q25 36.4 25.3 36.7 25.6 37 26 37 L26.7 36.7 27 36 27 34 29 34 29 36 Q29 36.4 29.3 36.7 L30 37 Q30.4 37 30.7 36.7 L31 36 31 29.8 Q31 28.65 30.1 27.8 L30.05 27.75 Q29.15 27 28 27 26.75 27 25.9 27.75 L25.85 27.8 Q25 28.65 25 29.8 M27 29.8 L27.25 29.2 27.2 29.3 Q27.55 29 28 29 28.45 29 28.75 29.3 L28.75 29.25 29 29.8 29 32 27 32 27 29.8 M20.25 33 Q20.5 33.05 20.7 33.25 L21 34 20.75 34.7 20.7 34.7 20.45 34.9 20.1 35 19 35 19 33 20.25 33"/>
  </g>
</svg>