<svg width="64" height="64" xmlns="http://www.w3.org/2000/svg" xmlns:xlink="http://www.w3.org/1999/xlink">
  <defs/>
  <g>
    <path stroke="none" fill="#FFFFFF" d="M40 31 L43 31 43 39 42 40 22 40 21 39 21 31 24 31 24 37 40 37 40 31 M14.85 22.85 Q11 26.65 11 32 11 37.35 14.85 41.2 18.65 45 24 45 L40 45 Q45.35 45 49.2 41.2 53 37.35 53 32 53 26.65 49.2 22.85 47.2 20.85 44.85 19.9 42.6 19 40 19 L24 19 Q21.4 19 19.2 19.9 L19.15 19.9 Q16.8 20.85 14.85 22.85 M30 30 L27 30 27 29 32 24 37 29 37 30 34 30 34 34 30 34 30 30 M24 16 L40 16 Q43.2 16 45.95 17.1 48.85 18.25 51.3 20.7 56 25.4 56 32 56 38.6 51.3 43.3 46.6 48 40 48 L24 48 Q17.4 48 12.7 43.3 8 38.6 8 32 8 25.4 12.7 20.7 15.15 18.25 18.05 17.1 20.8 16 24 16"/>
  </g>
</svg>