<svg width="64" height="64" xmlns="http://www.w3.org/2000/svg" xmlns:xlink="http://www.w3.org/1999/xlink">
  <defs/>
  <g>
    <path stroke="none" fill="#FFFFFF" d="M51.3 45.75 Q51.65 44.05 50.6 40.7 49.55 37.45 46.45 32.2 43.3 26.95 40.05 22.85 L38.7 21.1 40.15 19.75 Q42.85 17.3 44.9 16 45.75 15.5 46.8 15.1 L48.4 14.65 Q48.7 14.65 49.7 15.7 L51.6 18 Q54.5 22.05 55.6 27.3 55.95 28.9 56 31.8 L55.7 36.35 Q55.1 39.45 53.9 42 L52.7 44.3 51.4 46.25 51.15 46.45 51.3 45.8 51.3 45.75 M29.95 13.85 Q28.5 13.1 26.45 12.4 24.45 11.65 23.15 11.45 L20.9 11.3 19.95 11.2 Q20.1 11 21.8 10.25 24.4 9 27.4 8.35 L32.05 8 36.65 8.35 Q38.6 8.75 40.65 9.5 42.65 10.25 43.9 11.1 L44.4 11.4 43.3 11.35 Q39.75 11.1 34.05 13.85 L31.95 14.8 29.95 13.85 M29.6 55.9 Q23.9 55.35 18.95 52.1 L16.3 50.05 Q15.65 49.3 15.65 48.2 15.65 46.05 17.9 42.4 20.2 38.8 24.25 34.45 26.55 32 29.2 29.65 31.8 27.35 32.1 27.4 32.8 27.6 36.9 31.55 40.95 35.5 43 38 46.25 41.95 47.65 45 49 48.05 48.25 49.5 47.7 50.6 44.8 52.35 41.9 54.1 39.3 54.9 L34.5 55.85 29.6 55.9 M12 45.2 Q10.3 42.6 9.4 39.85 8.45 37.15 8.1 33.5 L8 31.2 8.45 27.65 Q8.95 24.55 10.6 21.3 12.2 18 14.35 15.8 15.2 14.85 15.6 14.75 L17.1 15 Q19.55 15.85 23.75 19.6 L25.45 21.15 24.5 22.3 Q21.2 26.35 18.2 31.35 15.1 36.45 13.8 39.95 13.1 41.85 12.85 43.6 12.55 45.35 12.9 46.15 L12.9 46.5 12 45.2"/>
  </g>
</svg>