<svg width="64" height="64" xmlns="http://www.w3.org/2000/svg" xmlns:xlink="http://www.w3.org/1999/xlink">
  <defs/>
  <g>
    <path stroke="none" fill="#FFFFFF" d="M40 39 L33 39 33 26 40 26 Q41.6 26 42.8 27.2 44 28.4 44 30 44 31.45 43.1 32.5 44 33.6 44 35 44 36.65 42.8 37.8 41.6 39 40 39 M40 31 Q40.45 31 40.7 30.7 L41 30 40.7 29.3 Q40.45 29 40 29 L36 29 36 31 40 31 M16 16 L40 16 Q46.6 16 51.3 20.7 56 25.4 56 32 L56 40 Q56 48 48 48 L16 48 Q8 48 8 40 L8 24 Q8 16 16 16 M40 36 Q40.45 36 40.7 35.7 L41 35 40.7 34.3 Q40.45 34 40 34 L36 34 36 36 40 36 M16 19 Q11 19 11 24 L11 40 Q11 45 16 45 L48 45 Q53 45 53 40 L53 32 Q53 26.65 49.2 22.85 45.35 19 40 19 L16 19 M22 33 L25.05 33 Q25.85 33 26.4 32.4 27 31.85 27 31 27 30.15 26.4 29.55 25.85 29 25 29 L22 29 22 33 M25 36 L22 36 22 39 19 39 19 26 25 26 Q27.05 26 28.5 27.45 30 28.95 30 31 30 33.05 28.5 34.5 L30 39 27 39 26 36 26 35.9 25 36"/>
  </g>
</svg>