<svg width="64" height="64" xmlns="http://www.w3.org/2000/svg" xmlns:xlink="http://www.w3.org/1999/xlink">
  <defs/>
  <g>
    <path stroke="none" fill="#FFFFFF" d="M41.5 36.6 Q41.1 37 40.5 37 L37.95 37 37.3 36.7 Q37 36.4 37 36 L33 36 33.1 37 Q33.35 38.4 34.4 39.5 L34.5 39.6 Q35.9 40.95 37.85 41 L40.5 41 Q42.75 41 44.35 39.4 L44.4 39.35 Q45.8 37.95 46 36 L46 35.5 Q46 33.2 44.4 31.6 42.8 30 40.5 30 L38 30 Q37.6 30 37.3 29.7 37 29.4 37 29 37 28.6 37.3 28.3 37.6 28 37.95 28 L41.1 28 Q41.4 28 41.7 28.3 L42 29 46 29 45.9 28 Q45.65 26.6 44.6 25.5 L44.5 25.4 Q43.1 24.05 41.2 24 L37.95 24 Q35.95 24 34.5 25.4 L34.4 25.5 Q33 26.95 33 29 33 31.1 34.45 32.55 35.9 34 38 34 L40.5 34 Q41.1 34 41.55 34.45 42 34.9 42 35.5 42 36.1 41.6 36.5 L41.5 36.6 M56 32 Q56 42 48.95 48.95 42 56 32 56 22.05 56 15 48.95 8 42 8 32 8 22.05 15 15 22.05 8 32 8 42 8 48.95 15 56 22.05 56 32 M19 24 L19 41 31 41 31 37 23 37 23 24 19 24"/>
  </g>
</svg>