<svg width="64" height="64" xmlns="http://www.w3.org/2000/svg" xmlns:xlink="http://www.w3.org/1999/xlink">
  <defs/>
  <g>
    <path stroke="none" fill="#FFFFFF" d="M46.5 42.3 Q46.75 41.05 45.95 38.55 45.15 36.1 42.85 32.15 40.5 28.2 38.05 25.15 L37.05 23.85 38.1 22.8 Q40.15 21 41.7 20 L43.1 19.35 44.3 19 45.3 19.8 46.7 21.5 Q48.9 24.55 49.7 28.5 L50 31.85 49.8 35.25 Q49.35 37.6 48.45 39.5 L47.55 41.25 46.55 42.7 46.35 42.85 46.5 42.35 46.5 42.3 M30.45 18.4 L27.85 17.3 25.35 16.6 23.7 16.5 22.95 16.4 24.35 15.7 Q26.3 14.75 28.55 14.25 L32.05 14 35.5 14.25 Q36.95 14.55 38.5 15.15 40 15.7 40.95 16.35 L41.3 16.55 40.5 16.5 Q37.8 16.35 33.55 18.4 L31.95 19.1 30.45 18.4 M30.2 49.95 Q25.95 49.5 22.2 47.1 L20.25 45.55 Q19.75 45 19.75 44.15 19.75 42.55 21.45 39.8 23.15 37.1 26.2 33.85 27.9 32 29.9 30.25 L32.1 28.55 35.7 31.65 40.25 36.5 Q42.7 39.45 43.75 41.75 44.75 44.05 44.2 45.15 43.8 45.95 41.6 47.25 39.45 48.6 37.5 49.2 L33.9 49.9 30.2 49.95 M11 32 Q11 40.75 17.15 46.85 23.3 53 32 53 40.75 53 46.85 46.85 53 40.75 53 32 53 23.3 46.85 17.15 40.75 11 32 11 23.3 11 17.15 17.15 11 23.3 11 32 M56 32 Q56 42 48.95 48.95 42 56 32 56 22.05 56 15 48.95 8 42 8 32 8 22.05 15 15 22.05 8 32 8 42 8 48.95 15 56 22.05 56 32 M17 41.9 Q15.75 39.95 15.05 37.9 14.35 35.85 14.1 33.15 L14 31.4 14.35 28.75 Q14.7 26.4 15.95 24 17.15 21.5 18.75 19.85 19.4 19.15 19.7 19.05 L20.85 19.25 Q22.65 19.9 25.8 22.7 L27.1 23.85 26.4 24.75 Q23.9 27.75 21.65 31.5 19.35 35.35 18.35 37.95 17.85 39.4 17.65 40.7 17.4 42 17.7 42.6 L17.7 42.9 17 41.9"/>
  </g>
</svg>