<svg width="64" height="64" xmlns="http://www.w3.org/2000/svg" xmlns:xlink="http://www.w3.org/1999/xlink">
  <defs/>
  <g>
    <path stroke="none" fill="#FFFFFF" d="M17.15 17.15 Q11 23.3 11 32 11 40.75 17.15 46.85 23.3 53 32 53 40.75 53 46.85 46.85 53 40.75 53 32 53 23.3 46.85 17.15 40.75 11 32 11 23.3 11 17.15 17.15 M56 32 Q56 42 48.95 48.95 42 56 32 56 22.05 56 15 48.95 8 42 8 32 8 22.05 15 15 22.05 8 32 8 42 8 48.95 15 56 22.05 56 32 M20 35 L20 22 21 21 36 21 37 22 37 27 34 27 34 23.95 23 23.95 23 33 26 33 26 36 21 36 20 35 M28 43 L28 30 29 29 44 29 45 30 45 43 44 44 29 44 28 43 M42 32 L31 32 31 41 42 41 42 32"/>
  </g>
</svg>