<svg width="64" height="64" xmlns="http://www.w3.org/2000/svg" xmlns:xlink="http://www.w3.org/1999/xlink">
  <defs/>
  <g>
    <path stroke="none" fill="#EF4E29" d="M46.85 17.15 Q40.75 11 32 11 23.3 11 17.15 17.15 11 23.3 11 32 11 40.75 17.15 46.85 23.3 53 32 53 40.75 53 46.85 46.85 53 40.75 53 32 53 23.3 46.85 17.15 M56 32 Q56 42 48.95 48.95 42 56 32 56 22.05 56 15 48.95 8 42 8 32 8 22.05 15 15 22.05 8 32 8 42 8 48.95 15 56 22.05 56 32 M40 36 Q40 38.45 38.25 40.2 L38.2 40.25 Q36.45 42 34 42 L24 42 24 22 34 22 Q36.45 22 38.2 23.75 L38.25 23.8 Q40 25.55 40 28 40 30.3 38.5 32 40 33.7 40 36 M36 28 Q36 27.2 35.45 26.65 L35.35 26.55 Q34.8 26 34 26 L28 26 28 30 34 30 Q34.8 30 35.4 29.4 L35.45 29.4 Q36 28.85 36 28 M36 36 Q36 35.15 35.45 34.6 L35.4 34.6 Q34.8 34 34 34 L28 34 28 38 34 38 Q34.8 38 35.35 37.45 L35.45 37.35 Q36 36.8 36 36"/>
  </g>
</svg>