<?xml version="1.0" encoding="UTF-8" standalone="no"?>
<!-- Created with Inkscape (http://www.inkscape.org/) -->

<svg
   width="64mm"
   height="64mm"
   viewBox="0 0 63.999999 64.000003"
   version="1.1"
   id="svg1"
   inkscape:version="1.4 (e7c3feb100, 2024-10-09)"
   sodipodi:docname="ally_button_m2-2.svg"
   xmlns:inkscape="http://www.inkscape.org/namespaces/inkscape"
   xmlns:sodipodi="http://sodipodi.sourceforge.net/DTD/sodipodi-0.dtd"
   xmlns="http://www.w3.org/2000/svg"
   xmlns:svg="http://www.w3.org/2000/svg">
  <sodipodi:namedview
     id="namedview1"
     pagecolor="#505050"
     bordercolor="#eeeeee"
     borderopacity="1"
     inkscape:showpageshadow="0"
     inkscape:pageopacity="0"
     inkscape:pagecheckerboard="true"
     inkscape:deskcolor="#505050"
     inkscape:document-units="mm"
     inkscape:zoom="1"
     inkscape:cx="81.5"
     inkscape:cy="129"
     inkscape:window-width="1503"
     inkscape:window-height="965"
     inkscape:window-x="0"
     inkscape:window-y="0"
     inkscape:window-maximized="1"
     inkscape:current-layer="layer2" />
  <defs
     id="defs1">
    <inkscape:path-effect
       effect="fillet_chamfer"
       id="path-effect13"
       is_visible="true"
       lpeversion="1"
       nodesatellites_param="F,0,0,1,0,4.4654321,0,1 @ F,0,0,1,0,2.8043269,0,1 @ F,0,0,1,0,3.0870149,0,1 @ F,0,0,1,0,3.0881829,0,1 @ F,0,0,1,0,3.4808311,0,1 @ F,0,0,1,0,1.3537695,0,1 @ F,0,0,1,0,1.6783765,0,1 @ F,0,0,1,0,1.782281,0,1 @ F,0,0,1,0,1.3891024,0,1"
       radius="0"
       unit="px"
       method="auto"
       mode="F"
       chamfer_steps="1"
       flexible="false"
       use_knot_distance="true"
       apply_no_radius="true"
       apply_with_radius="true"
       only_selected="false"
       hide_knots="false" />
    <inkscape:path-effect
       effect="fillet_chamfer"
       id="path-effect12"
       is_visible="true"
       lpeversion="1"
       nodesatellites_param="F,0,0,1,0,0.22397452,0,1 @ F,0,0,1,0,0.17985251,0,1 @ F,0,0,1,0,0.14616779,0,1 @ F,0,1,1,0,0.22397452,0,1"
       radius="0"
       unit="px"
       method="auto"
       mode="F"
       chamfer_steps="1"
       flexible="false"
       use_knot_distance="true"
       apply_no_radius="true"
       apply_with_radius="true"
       only_selected="false"
       hide_knots="false" />
    <inkscape:path-effect
       effect="fillet_chamfer"
       id="path-effect7"
       is_visible="true"
       lpeversion="1"
       nodesatellites_param="F,0,0,1,0,0.22397452,0,1 @ F,0,0,1,0,0.17985251,0,1 @ F,0,0,1,0,0.14616779,0,1 @ F,0,1,1,0,0.22397452,0,1"
       radius="0"
       unit="px"
       method="auto"
       mode="F"
       chamfer_steps="1"
       flexible="false"
       use_knot_distance="true"
       apply_no_radius="true"
       apply_with_radius="true"
       only_selected="false"
       hide_knots="false" />
    <inkscape:path-effect
       effect="fillet_chamfer"
       id="path-effect4"
       is_visible="true"
       lpeversion="1"
       nodesatellites_param="F,0,0,1,0,0,0,1 @ F,0,0,1,0,0,0,1 @ F,0,0,1,0,0,0,1 @ F,0,0,1,0,0,0,1 @ F,0,0,1,0,0,0,1 @ F,0,0,1,0,0,0,1 @ F,0,0,1,0,0,0,1 @ F,0,0,1,0,0.93465993,0,1 @ F,0,0,1,0,0.74721123,0,1 @ F,0,0,1,0,0.71328773,0,1 @ F,0,0,1,0,0.79929094,0,1 @ F,0,0,1,0,0.68469131,0,1 @ F,0,0,1,0,0.89723963,0,1"
       radius="0"
       unit="px"
       method="auto"
       mode="F"
       chamfer_steps="1"
       flexible="false"
       use_knot_distance="true"
       apply_no_radius="true"
       apply_with_radius="true"
       only_selected="false"
       hide_knots="false" />
    <inkscape:path-effect
       effect="fillet_chamfer"
       id="path-effect2"
       is_visible="true"
       lpeversion="1"
       nodesatellites_param="F,0,0,1,0,2.3018959,0,1 @ F,0,0,1,0,1.642734,0,1 @ F,0,0,1,0,1.6882275,0,1 @ F,0,1,1,0,1.642734,0,1"
       radius="0"
       unit="px"
       method="auto"
       mode="F"
       chamfer_steps="1"
       flexible="false"
       use_knot_distance="true"
       apply_no_radius="true"
       apply_with_radius="true"
       only_selected="false"
       hide_knots="false" />
    <inkscape:path-effect
       effect="fillet_chamfer"
       id="path-effect4-6"
       is_visible="true"
       lpeversion="1"
       nodesatellites_param="F,0,0,1,0,0,0,1 @ F,0,0,1,0,0,0,1 @ F,0,0,1,0,0,0,1 @ F,0,0,1,0,0,0,1 @ F,0,0,1,0,0,0,1 @ F,0,0,1,0,0,0,1 @ F,0,0,1,0,0,0,1 @ F,0,0,1,0,0.93465993,0,1 @ F,0,0,1,0,0.74721123,0,1 @ F,0,0,1,0,0.71328773,0,1 @ F,0,0,1,0,0.79929094,0,1 @ F,0,0,1,0,0.68469131,0,1 @ F,0,0,1,0,0.89723963,0,1"
       radius="0"
       unit="px"
       method="auto"
       mode="F"
       chamfer_steps="1"
       flexible="false"
       use_knot_distance="true"
       apply_no_radius="true"
       apply_with_radius="true"
       only_selected="false"
       hide_knots="false" />
  </defs>
  <g
     inkscape:label="Layer 1"
     inkscape:groupmode="layer"
     id="layer1"
     transform="translate(-127.09302,-172.47216)">
    <g
       inkscape:groupmode="layer"
       id="layer2"
       inkscape:label="Layer 1"
       transform="matrix(0.26458333,0,0,0.26458333,105.03958,168.01042)">
      <path
         id="path5"
         d="m 210.93462,40.507993 c -7.69746,0.0016 -15.07652,3.057596 -20.51895,8.501021 l -60.71058,60.710596 c -6.13523,6.13592 -9.58376,14.45764 -9.58358,23.13465 v 54.03946 c 4.7e-4,3.45199 0.91171,6.84682 2.63768,9.83634 l 1.17597,2.03322 c 2.16733,3.75739 4.81411,7.21852 7.88007,10.28695 l 21.15639,21.1454 c 3.14184,3.14301 7.40351,4.91261 11.84759,4.91268 h 15.17212 c 3.46112,-8e-4 6.7756,-1.38625 9.20991,-3.84662 l 87.04344,-87.92815 c 7.83589,-7.91545 12.22653,-18.60183 12.22673,-29.73984 V 69.440042 c -1.7e-4,-6.991151 -2.77696,-13.690854 -7.72071,-18.634108 l -1.79143,-1.79692 c -5.43989,-5.442641 -12.81831,-8.498686 -20.51343,-8.501021 z m -62.35914,64.189027 h 11.25411 l 16.88115,33.7623 16.88115,-33.7623 h 11.2541 v 56.27051 h -11.2541 v -28.13525 l -14.06762,28.13525 h -5.62706 l -14.06762,-28.13525 v 28.13525 h -11.25411 z m 79.2403,0 h 5.46221 c 4.96499,0 9.21254,1.76665 12.74326,5.29735 l 0.16487,0.16484 3.31358,4.46757 c 2.75835,7.39239 1.70598,13.51563 -3.14873,18.37034 l -14.72703,14.73253 h 19.85952 v 13.23786 h -23.33797 -0.32971 -16.05139 v -13.23786 l 23.16763,-21.68391 c 2.75836,-2.86869 3.30904,-5.13153 1.65405,-6.78653 -0.88269,-0.88268 -1.98407,-1.32434 -3.30808,-1.32434 h -5.1325 -0.32971 c -0.662,0.11035 -1.26719,0.44295 -1.81889,0.99463 -0.662,0.662 -0.99464,1.43628 -0.99464,2.31896 h -13.23786 l 0.32972,-3.31359 c 0.55167,-3.08935 1.9857,-5.84287 4.30272,-8.27023 l 0.32969,-0.3352 c 3.08933,-2.97903 6.78622,-4.52211 11.08926,-4.63243 z"
         style="fill:#ffffff;fill-opacity:1;stroke-width:2.81352" />
      <g
         id="g5"
         transform="translate(51.339152,-43.785172)">
        <g
           id="g3"
           transform="translate(20.125012,61.462842)" />
      </g>
    </g>
  </g>
</svg>
