<?xml version="1.0" encoding="UTF-8" standalone="no"?>
<svg
   width="64"
   height="64"
   version="1.1"
   id="svg1"
   sodipodi:docname="ally_button_guide.svg"
   xml:space="preserve"
   inkscape:version="1.3.2 (091e20ef0f, 2023-11-25)"
   xmlns:inkscape="http://www.inkscape.org/namespaces/inkscape"
   xmlns:sodipodi="http://sodipodi.sourceforge.net/DTD/sodipodi-0.dtd"
   xmlns="http://www.w3.org/2000/svg"
   xmlns:svg="http://www.w3.org/2000/svg"><sodipodi:namedview
     id="namedview1"
     pagecolor="#ffffff"
     bordercolor="#000000"
     borderopacity="0.25"
     inkscape:showpageshadow="2"
     inkscape:pageopacity="0.0"
     inkscape:pagecheckerboard="true"
     inkscape:deskcolor="#d1d1d1"
     inkscape:zoom="6.2645241"
     inkscape:cx="9.8970007"
     inkscape:cy="21.230663"
     inkscape:window-width="2560"
     inkscape:window-height="1374"
     inkscape:window-x="0"
     inkscape:window-y="0"
     inkscape:window-maximized="1"
     inkscape:current-layer="layer1" /><defs
     id="defs1"><inkscape:path-effect
       effect="fillet_chamfer"
       id="path-effect4"
       is_visible="true"
       lpeversion="1"
       nodesatellites_param="F,0,0,1,0,0,0,1 @ F,0,0,1,0,0,0,1 @ F,0,0,1,0,0,0,1 @ F,0,0,1,0,0,0,1 @ F,0,0,1,0,0,0,1 @ F,0,0,1,0,0,0,1 @ F,0,0,1,0,0,0,1 @ F,0,0,1,0,0.93465993,0,1 @ F,0,0,1,0,0.74721123,0,1 @ F,0,0,1,0,0.71328773,0,1 @ F,0,0,1,0,0.79929094,0,1 @ F,0,0,1,0,0.68469131,0,1 @ F,0,0,1,0,0.89723963,0,1"
       radius="0"
       unit="px"
       method="auto"
       mode="F"
       chamfer_steps="1"
       flexible="false"
       use_knot_distance="true"
       apply_no_radius="true"
       apply_with_radius="true"
       only_selected="false"
       hide_knots="false" /><inkscape:path-effect
       effect="fillet_chamfer"
       id="path-effect2"
       is_visible="true"
       lpeversion="1"
       nodesatellites_param="F,0,0,1,0,2.3018959,0,1 @ F,0,0,1,0,1.642734,0,1 @ F,0,0,1,0,1.6882275,0,1 @ F,0,1,1,0,1.642734,0,1"
       radius="0"
       unit="px"
       method="auto"
       mode="F"
       chamfer_steps="1"
       flexible="false"
       use_knot_distance="true"
       apply_no_radius="true"
       apply_with_radius="true"
       only_selected="false"
       hide_knots="false" /><inkscape:path-effect
       effect="fillet_chamfer"
       id="path-effect4-6"
       is_visible="true"
       lpeversion="1"
       nodesatellites_param="F,0,0,1,0,0,0,1 @ F,0,0,1,0,0,0,1 @ F,0,0,1,0,0,0,1 @ F,0,0,1,0,0,0,1 @ F,0,0,1,0,0,0,1 @ F,0,0,1,0,0,0,1 @ F,0,0,1,0,0,0,1 @ F,0,0,1,0,0.93465993,0,1 @ F,0,0,1,0,0.74721123,0,1 @ F,0,0,1,0,0.71328773,0,1 @ F,0,0,1,0,0.79929094,0,1 @ F,0,0,1,0,0.68469131,0,1 @ F,0,0,1,0,0.89723963,0,1"
       radius="0"
       unit="px"
       method="auto"
       mode="F"
       chamfer_steps="1"
       flexible="false"
       use_knot_distance="true"
       apply_no_radius="true"
       apply_with_radius="true"
       only_selected="false"
       hide_knots="false" /></defs><g
     inkscape:groupmode="layer"
     id="layer1-9"
     inkscape:label="Original"
     transform="matrix(1.5211401,0,0,1.5211401,-41.876131,-27.112486)"
     style="display:none"><path
       style="fill:#ffffff;fill-opacity:1"
       d="m 31.212302,34.57694 v -2.25485 l 2.843143,-2.843144 -4.050087,-3.730127 v 12.418647 l 5.59236,-5.66212 v 3.288525 l -4.785993,4.785993 a 0.93465993,0.93465993 0 0 1 -1.321808,0 l -0.77472,-0.77472 A 1.8039275,1.8039275 67.5 0 1 28.186839,38.529575 V 25.128191 a 1.7220289,1.7220289 112.5 0 1 0.504371,-1.217659 l 0.593419,-0.593419 a 0.79929087,0.79929087 2.3956205e-6 0 1 1.130368,0 l 4.929887,4.929888 a 1.6126577,1.6126577 68.004784 0 1 0.472086,1.168735 l -0.0012,0.06966 a 2.0856741,2.0856741 114.28653 0 1 -0.677995,1.502533 z"
       id="path3-1"
       sodipodi:nodetypes="cccccccccccccc"
       inkscape:original-d="m 31.212302,34.57694 v -2.25485 l 2.843143,-2.843144 -4.050087,-3.730127 v 12.418647 l 5.59236,-5.66212 v 3.288525 l -5.446897,5.446897 -1.963982,-1.963982 V 24.414903 l 1.662974,-1.662974 5.979221,5.979222 -0.0291,1.651344 z"
       inkscape:path-effect="#path-effect4-6" /><path
       style="fill:#ffffff;fill-opacity:1"
       d="m 36.991182,29.516755 2.415785,2.415785 -2.358797,2.358796 z"
       id="path4-2" /></g><g
     inkscape:groupmode="layer"
     id="layer1"
     inkscape:label="Layer 1"
     transform="matrix(1.5211401,0,0,1.5211401,-17.612921,-16.659969)"><path
       id="path3"
       style="fill:#ffffff;fill-opacity:1"
       d="M 40.358061 15.442396 A 0.7198164 0.7198164 0 0 0 40.162895 15.492471 L 22.940769 22.67253 A 1.6650913 1.6650913 0 0 0 21.916147 24.209463 L 21.916147 39.170486 A 1.5569063 1.5569063 0 0 0 22.926645 40.629096 L 39.743031 46.918067 A 1.0496681 1.0496681 0 0 0 41.159269 45.934533 L 41.159269 16.157577 A 0.7198164 0.7198164 0 0 0 40.358061 15.442396 z M 29.849906 23.083406 A 0.79929087 0.79929087 0 0 1 30.414861 23.317091 L 35.345373 28.247604 A 1.6126577 1.6126577 0 0 1 35.816597 29.416032 L 35.815313 29.485368 A 2.0856741 2.0856741 0 0 1 35.137367 30.987633 L 31.212217 34.576379 L 31.212217 32.321696 L 34.054966 29.478948 L 30.005269 25.748964 L 30.005269 38.167692 L 35.598319 32.505307 L 35.598319 35.793599 L 30.811613 40.580304 A 0.93465993 0.93465993 0 0 1 29.49039 40.580304 L 28.714861 39.804776 A 1.8039275 1.8039275 0 0 1 28.187143 38.529776 L 28.187143 25.128798 A 1.7220289 1.7220289 0 0 1 28.69175 23.910294 L 29.284952 23.317091 A 0.79929087 0.79929087 0 0 1 29.849906 23.083406 z M 36.991445 29.516183 L 39.406626 31.932648 L 37.047941 34.291333 L 36.991445 29.516183 z " /></g></svg>
