<?xml version="1.0" encoding="UTF-8" standalone="no"?>
<svg
   width="64"
   height="64"
   version="1.1"
   id="svg1"
   sodipodi:docname="ally_button_m2.svg"
   xml:space="preserve"
   inkscape:version="1.3.2 (091e20ef0f, 2023-11-25)"
   xmlns:inkscape="http://www.inkscape.org/namespaces/inkscape"
   xmlns:sodipodi="http://sodipodi.sourceforge.net/DTD/sodipodi-0.dtd"
   xmlns="http://www.w3.org/2000/svg"
   xmlns:svg="http://www.w3.org/2000/svg"><sodipodi:namedview
     id="namedview1"
     pagecolor="#ffffff"
     bordercolor="#000000"
     borderopacity="0.25"
     inkscape:showpageshadow="2"
     inkscape:pageopacity="0.0"
     inkscape:pagecheckerboard="true"
     inkscape:deskcolor="#d1d1d1"
     inkscape:zoom="8.859375"
     inkscape:cx="31.661376"
     inkscape:cy="19.414462"
     inkscape:window-width="2560"
     inkscape:window-height="1374"
     inkscape:window-x="0"
     inkscape:window-y="0"
     inkscape:window-maximized="1"
     inkscape:current-layer="layer2" /><defs
     id="defs1"><inkscape:path-effect
       effect="fillet_chamfer"
       id="path-effect13"
       is_visible="true"
       lpeversion="1"
       nodesatellites_param="F,0,0,1,0,4.4654321,0,1 @ F,0,0,1,0,2.8043269,0,1 @ F,0,0,1,0,3.0870149,0,1 @ F,0,0,1,0,3.0881829,0,1 @ F,0,0,1,0,3.4808311,0,1 @ F,0,0,1,0,1.3537695,0,1 @ F,0,0,1,0,1.6783765,0,1 @ F,0,0,1,0,1.782281,0,1 @ F,0,0,1,0,1.3891024,0,1"
       radius="0"
       unit="px"
       method="auto"
       mode="F"
       chamfer_steps="1"
       flexible="false"
       use_knot_distance="true"
       apply_no_radius="true"
       apply_with_radius="true"
       only_selected="false"
       hide_knots="false" /><inkscape:path-effect
       effect="fillet_chamfer"
       id="path-effect12"
       is_visible="true"
       lpeversion="1"
       nodesatellites_param="F,0,0,1,0,0.22397452,0,1 @ F,0,0,1,0,0.17985251,0,1 @ F,0,0,1,0,0.14616779,0,1 @ F,0,1,1,0,0.22397452,0,1"
       radius="0"
       unit="px"
       method="auto"
       mode="F"
       chamfer_steps="1"
       flexible="false"
       use_knot_distance="true"
       apply_no_radius="true"
       apply_with_radius="true"
       only_selected="false"
       hide_knots="false" /><inkscape:path-effect
       effect="fillet_chamfer"
       id="path-effect7"
       is_visible="true"
       lpeversion="1"
       nodesatellites_param="F,0,0,1,0,0.22397452,0,1 @ F,0,0,1,0,0.17985251,0,1 @ F,0,0,1,0,0.14616779,0,1 @ F,0,1,1,0,0.22397452,0,1"
       radius="0"
       unit="px"
       method="auto"
       mode="F"
       chamfer_steps="1"
       flexible="false"
       use_knot_distance="true"
       apply_no_radius="true"
       apply_with_radius="true"
       only_selected="false"
       hide_knots="false" /><inkscape:path-effect
       effect="fillet_chamfer"
       id="path-effect4"
       is_visible="true"
       lpeversion="1"
       nodesatellites_param="F,0,0,1,0,0,0,1 @ F,0,0,1,0,0,0,1 @ F,0,0,1,0,0,0,1 @ F,0,0,1,0,0,0,1 @ F,0,0,1,0,0,0,1 @ F,0,0,1,0,0,0,1 @ F,0,0,1,0,0,0,1 @ F,0,0,1,0,0.93465993,0,1 @ F,0,0,1,0,0.74721123,0,1 @ F,0,0,1,0,0.71328773,0,1 @ F,0,0,1,0,0.79929094,0,1 @ F,0,0,1,0,0.68469131,0,1 @ F,0,0,1,0,0.89723963,0,1"
       radius="0"
       unit="px"
       method="auto"
       mode="F"
       chamfer_steps="1"
       flexible="false"
       use_knot_distance="true"
       apply_no_radius="true"
       apply_with_radius="true"
       only_selected="false"
       hide_knots="false" /><inkscape:path-effect
       effect="fillet_chamfer"
       id="path-effect2"
       is_visible="true"
       lpeversion="1"
       nodesatellites_param="F,0,0,1,0,2.3018959,0,1 @ F,0,0,1,0,1.642734,0,1 @ F,0,0,1,0,1.6882275,0,1 @ F,0,1,1,0,1.642734,0,1"
       radius="0"
       unit="px"
       method="auto"
       mode="F"
       chamfer_steps="1"
       flexible="false"
       use_knot_distance="true"
       apply_no_radius="true"
       apply_with_radius="true"
       only_selected="false"
       hide_knots="false" /><inkscape:path-effect
       effect="fillet_chamfer"
       id="path-effect4-6"
       is_visible="true"
       lpeversion="1"
       nodesatellites_param="F,0,0,1,0,0,0,1 @ F,0,0,1,0,0,0,1 @ F,0,0,1,0,0,0,1 @ F,0,0,1,0,0,0,1 @ F,0,0,1,0,0,0,1 @ F,0,0,1,0,0,0,1 @ F,0,0,1,0,0,0,1 @ F,0,0,1,0,0.93465993,0,1 @ F,0,0,1,0,0.74721123,0,1 @ F,0,0,1,0,0.71328773,0,1 @ F,0,0,1,0,0.79929094,0,1 @ F,0,0,1,0,0.68469131,0,1 @ F,0,0,1,0,0.89723963,0,1"
       radius="0"
       unit="px"
       method="auto"
       mode="F"
       chamfer_steps="1"
       flexible="false"
       use_knot_distance="true"
       apply_no_radius="true"
       apply_with_radius="true"
       only_selected="false"
       hide_knots="false" /></defs><g
     inkscape:groupmode="layer"
     id="layer2"
     inkscape:label="Layer 1"><path
       id="path12"
       style="fill:#ffffff;fill-opacity:1"
       d="M 31.075555 9.005298 A 7.4555331 7.4555331 0 0 1 36.346371 11.189464 L 51.938886 26.781979 A 8.4034695 8.4034695 0 0 1 54.399864 32.723971 L 54.399864 46.604418 A 5.0523367 5.0523367 0 0 1 53.723 49.12986 L 53.42154 49.65315 A 12.748534 12.748534 0 0 1 51.396636 52.294246 L 45.962766 57.72622 A 4.302807 4.302807 0 0 1 42.919723 58.987044 L 39.02349 58.987044 A 3.3296837 3.3296837 0 0 1 36.657311 57.99924 L 14.301846 35.416258 A 10.858303 10.858303 0 0 1 11.160212 27.777367 L 11.160212 16.437528 A 6.7702436 6.7702436 0 0 1 13.143404 11.650186 L 13.604126 11.189464 A 7.4527137 7.4527137 0 0 1 18.873046 9.005298 L 31.075555 9.005298 z M 24.898461 25.240549 C 22.415953 25.240549 20.53013 27.125533 20.53013 29.589921 C 20.53013 31.238886 21.092435 32.291135 23.121931 34.121306 L 25.857826 36.60314 L 20.585114 36.60314 L 20.585114 38.868832 L 29.245937 38.868832 L 29.245937 36.747234 L 24.481346 32.236705 C 23.394117 31.203836 22.939917 30.423681 22.939917 29.553897 C 22.939917 28.357944 23.774151 27.451259 24.879502 27.451259 C 26.129816 27.451259 26.96318 28.503439 26.96318 30.098042 L 29.336944 30.098042 C 29.336944 27.017558 27.471572 25.240549 24.898461 25.240549 z M 45.029946 25.477546 L 41.622875 25.477546 L 38.016726 35.624815 L 34.446602 25.477546 L 31.039531 25.477546 L 31.039531 38.868832 L 33.523261 38.868832 L 33.523261 28.829634 L 37.019443 38.868832 L 39.050034 38.868832 L 42.546216 28.829634 L 42.546216 38.868832 L 45.029946 38.868832 L 45.029946 25.477546 z "
       transform="matrix(-1.0301417,0,0,1.0301417,65.768084,-3.0208736)" /></g></svg>
