<?xml version="1.0" encoding="UTF-8" standalone="no"?>
<svg
   width="64"
   height="64"
   version="1.1"
   id="svg1"
   sodipodi:docname="ally_button_view.svg"
   xml:space="preserve"
   inkscape:version="1.3.2 (091e20ef0f, 2023-11-25)"
   xmlns:inkscape="http://www.inkscape.org/namespaces/inkscape"
   xmlns:sodipodi="http://sodipodi.sourceforge.net/DTD/sodipodi-0.dtd"
   xmlns="http://www.w3.org/2000/svg"
   xmlns:svg="http://www.w3.org/2000/svg"><sodipodi:namedview
     id="namedview1"
     pagecolor="#ffffff"
     bordercolor="#000000"
     borderopacity="0.25"
     inkscape:showpageshadow="2"
     inkscape:pageopacity="0.0"
     inkscape:pagecheckerboard="true"
     inkscape:deskcolor="#d1d1d1"
     inkscape:zoom="8.8593748"
     inkscape:cx="48.084657"
     inkscape:cy="50.793652"
     inkscape:window-width="2560"
     inkscape:window-height="1374"
     inkscape:window-x="0"
     inkscape:window-y="0"
     inkscape:window-maximized="1"
     inkscape:current-layer="svg1" /><defs
     id="defs1"><inkscape:path-effect
       effect="fillet_chamfer"
       id="path-effect12"
       is_visible="true"
       lpeversion="1"
       nodesatellites_param="F,0,0,1,0,0.22397452,0,1 @ F,0,0,1,0,0.17985251,0,1 @ F,0,0,1,0,0.14616779,0,1 @ F,0,1,1,0,0.22397452,0,1"
       radius="0"
       unit="px"
       method="auto"
       mode="F"
       chamfer_steps="1"
       flexible="false"
       use_knot_distance="true"
       apply_no_radius="true"
       apply_with_radius="true"
       only_selected="false"
       hide_knots="false" /><inkscape:path-effect
       effect="fillet_chamfer"
       id="path-effect7"
       is_visible="true"
       lpeversion="1"
       nodesatellites_param="F,0,0,1,0,0.22397452,0,1 @ F,0,0,1,0,0.17985251,0,1 @ F,0,0,1,0,0.14616779,0,1 @ F,0,1,1,0,0.22397452,0,1"
       radius="0"
       unit="px"
       method="auto"
       mode="F"
       chamfer_steps="1"
       flexible="false"
       use_knot_distance="true"
       apply_no_radius="true"
       apply_with_radius="true"
       only_selected="false"
       hide_knots="false" /><inkscape:path-effect
       effect="fillet_chamfer"
       id="path-effect4"
       is_visible="true"
       lpeversion="1"
       nodesatellites_param="F,0,0,1,0,0,0,1 @ F,0,0,1,0,0,0,1 @ F,0,0,1,0,0,0,1 @ F,0,0,1,0,0,0,1 @ F,0,0,1,0,0,0,1 @ F,0,0,1,0,0,0,1 @ F,0,0,1,0,0,0,1 @ F,0,0,1,0,0.93465993,0,1 @ F,0,0,1,0,0.74721123,0,1 @ F,0,0,1,0,0.71328773,0,1 @ F,0,0,1,0,0.79929094,0,1 @ F,0,0,1,0,0.68469131,0,1 @ F,0,0,1,0,0.89723963,0,1"
       radius="0"
       unit="px"
       method="auto"
       mode="F"
       chamfer_steps="1"
       flexible="false"
       use_knot_distance="true"
       apply_no_radius="true"
       apply_with_radius="true"
       only_selected="false"
       hide_knots="false" /><inkscape:path-effect
       effect="fillet_chamfer"
       id="path-effect2"
       is_visible="true"
       lpeversion="1"
       nodesatellites_param="F,0,0,1,0,2.3018959,0,1 @ F,0,0,1,0,1.642734,0,1 @ F,0,0,1,0,1.6882275,0,1 @ F,0,1,1,0,1.642734,0,1"
       radius="0"
       unit="px"
       method="auto"
       mode="F"
       chamfer_steps="1"
       flexible="false"
       use_knot_distance="true"
       apply_no_radius="true"
       apply_with_radius="true"
       only_selected="false"
       hide_knots="false" /><inkscape:path-effect
       effect="fillet_chamfer"
       id="path-effect4-6"
       is_visible="true"
       lpeversion="1"
       nodesatellites_param="F,0,0,1,0,0,0,1 @ F,0,0,1,0,0,0,1 @ F,0,0,1,0,0,0,1 @ F,0,0,1,0,0,0,1 @ F,0,0,1,0,0,0,1 @ F,0,0,1,0,0,0,1 @ F,0,0,1,0,0,0,1 @ F,0,0,1,0,0.93465993,0,1 @ F,0,0,1,0,0.74721123,0,1 @ F,0,0,1,0,0.71328773,0,1 @ F,0,0,1,0,0.79929094,0,1 @ F,0,0,1,0,0.68469131,0,1 @ F,0,0,1,0,0.89723963,0,1"
       radius="0"
       unit="px"
       method="auto"
       mode="F"
       chamfer_steps="1"
       flexible="false"
       use_knot_distance="true"
       apply_no_radius="true"
       apply_with_radius="true"
       only_selected="false"
       hide_knots="false" /></defs><path
     id="path1"
     style="stroke-width:0.811487;fill:#ffffff;fill-opacity:1"
     class="clr-i-outline clr-i-outline-path-1"
     d="M 16.712891 6.828125 A 1.0949416 1.0949416 0 0 0 15.724609 7.9179688 L 15.724609 53.212891 A 1.5966923 1.5966923 0 0 0 17.880859 54.708984 L 43.458984 45.142578 A 2.3682727 2.3682727 0 0 0 44.996094 42.923828 L 44.996094 20.166016 A 2.5328371 2.5328371 0 0 0 43.439453 17.828125 L 17.240234 6.90625 A 1.0949416 1.0949416 0 0 0 16.712891 6.828125 z M 22.400391 22.892578 L 33.759766 22.892578 A 1.6229727 1.6229727 0 0 1 35.382812 24.515625 L 35.382812 26.138672 L 33.759766 26.138672 L 33.759766 24.515625 L 22.400391 24.515625 L 22.400391 32.630859 L 24.021484 32.630859 L 24.021484 34.253906 L 22.400391 34.253906 A 1.6229727 1.6229727 0 0 1 20.777344 32.630859 L 20.777344 24.515625 A 1.6229727 1.6229727 0 0 1 22.400391 22.892578 z M 27.267578 27.761719 L 38.628906 27.761719 A 1.6229727 1.6229727 0 0 1 40.251953 29.384766 L 40.251953 37.498047 A 1.6229727 1.6229727 0 0 1 38.628906 39.121094 L 27.267578 39.121094 A 1.6229727 1.6229727 0 0 1 25.644531 37.498047 L 25.644531 29.384766 A 1.6229727 1.6229727 0 0 1 27.267578 27.761719 z M 27.267578 29.384766 L 27.267578 37.498047 L 38.628906 37.498047 L 38.628906 29.384766 L 27.267578 29.384766 z " /></svg>
