<?xml version="1.0" encoding="UTF-8" standalone="no"?>
<svg
   width="64"
   height="64"
   version="1.1"
   id="svg1"
   sodipodi:docname="ally_button_quick.svg"
   xml:space="preserve"
   inkscape:version="1.3.2 (091e20ef0f, 2023-11-25)"
   xmlns:inkscape="http://www.inkscape.org/namespaces/inkscape"
   xmlns:sodipodi="http://sodipodi.sourceforge.net/DTD/sodipodi-0.dtd"
   xmlns="http://www.w3.org/2000/svg"
   xmlns:svg="http://www.w3.org/2000/svg"><sodipodi:namedview
     id="namedview1"
     pagecolor="#ffffff"
     bordercolor="#000000"
     borderopacity="0.25"
     inkscape:showpageshadow="2"
     inkscape:pageopacity="0.0"
     inkscape:pagecheckerboard="true"
     inkscape:deskcolor="#d1d1d1"
     inkscape:zoom="12.529048"
     inkscape:cx="45.973165"
     inkscape:cy="40.625592"
     inkscape:window-width="2560"
     inkscape:window-height="1374"
     inkscape:window-x="0"
     inkscape:window-y="0"
     inkscape:window-maximized="1"
     inkscape:current-layer="layer1" /><defs
     id="defs1"><inkscape:path-effect
       effect="fillet_chamfer"
       id="path-effect12"
       is_visible="true"
       lpeversion="1"
       nodesatellites_param="F,0,0,1,0,0.22397452,0,1 @ F,0,0,1,0,0.17985251,0,1 @ F,0,0,1,0,0.14616779,0,1 @ F,0,1,1,0,0.22397452,0,1"
       radius="0"
       unit="px"
       method="auto"
       mode="F"
       chamfer_steps="1"
       flexible="false"
       use_knot_distance="true"
       apply_no_radius="true"
       apply_with_radius="true"
       only_selected="false"
       hide_knots="false" /><inkscape:path-effect
       effect="fillet_chamfer"
       id="path-effect7"
       is_visible="true"
       lpeversion="1"
       nodesatellites_param="F,0,0,1,0,0.22397452,0,1 @ F,0,0,1,0,0.17985251,0,1 @ F,0,0,1,0,0.14616779,0,1 @ F,0,1,1,0,0.22397452,0,1"
       radius="0"
       unit="px"
       method="auto"
       mode="F"
       chamfer_steps="1"
       flexible="false"
       use_knot_distance="true"
       apply_no_radius="true"
       apply_with_radius="true"
       only_selected="false"
       hide_knots="false" /><inkscape:path-effect
       effect="fillet_chamfer"
       id="path-effect4"
       is_visible="true"
       lpeversion="1"
       nodesatellites_param="F,0,0,1,0,0,0,1 @ F,0,0,1,0,0,0,1 @ F,0,0,1,0,0,0,1 @ F,0,0,1,0,0,0,1 @ F,0,0,1,0,0,0,1 @ F,0,0,1,0,0,0,1 @ F,0,0,1,0,0,0,1 @ F,0,0,1,0,0.93465993,0,1 @ F,0,0,1,0,0.74721123,0,1 @ F,0,0,1,0,0.71328773,0,1 @ F,0,0,1,0,0.79929094,0,1 @ F,0,0,1,0,0.68469131,0,1 @ F,0,0,1,0,0.89723963,0,1"
       radius="0"
       unit="px"
       method="auto"
       mode="F"
       chamfer_steps="1"
       flexible="false"
       use_knot_distance="true"
       apply_no_radius="true"
       apply_with_radius="true"
       only_selected="false"
       hide_knots="false" /><inkscape:path-effect
       effect="fillet_chamfer"
       id="path-effect2"
       is_visible="true"
       lpeversion="1"
       nodesatellites_param="F,0,0,1,0,2.3018959,0,1 @ F,0,0,1,0,1.642734,0,1 @ F,0,0,1,0,1.6882275,0,1 @ F,0,1,1,0,1.642734,0,1"
       radius="0"
       unit="px"
       method="auto"
       mode="F"
       chamfer_steps="1"
       flexible="false"
       use_knot_distance="true"
       apply_no_radius="true"
       apply_with_radius="true"
       only_selected="false"
       hide_knots="false" /><inkscape:path-effect
       effect="fillet_chamfer"
       id="path-effect4-6"
       is_visible="true"
       lpeversion="1"
       nodesatellites_param="F,0,0,1,0,0,0,1 @ F,0,0,1,0,0,0,1 @ F,0,0,1,0,0,0,1 @ F,0,0,1,0,0,0,1 @ F,0,0,1,0,0,0,1 @ F,0,0,1,0,0,0,1 @ F,0,0,1,0,0,0,1 @ F,0,0,1,0,0.93465993,0,1 @ F,0,0,1,0,0.74721123,0,1 @ F,0,0,1,0,0.71328773,0,1 @ F,0,0,1,0,0.79929094,0,1 @ F,0,0,1,0,0.68469131,0,1 @ F,0,0,1,0,0.89723963,0,1"
       radius="0"
       unit="px"
       method="auto"
       mode="F"
       chamfer_steps="1"
       flexible="false"
       use_knot_distance="true"
       apply_no_radius="true"
       apply_with_radius="true"
       only_selected="false"
       hide_knots="false" /></defs><g
     inkscape:groupmode="layer"
     id="g11"
     inkscape:label="Original"
     transform="matrix(1.5211401,0,0,1.5211401,-17.612921,-16.659969)"
     style="display:none"><path
       style="fill:#ffffff;fill-opacity:1;stroke-width:0.657402"
       d="m 25.13144,35.093975 h 8.91014 v 2.944104 l -3.032651,1.750902 z"
       id="path8"
       sodipodi:nodetypes="ccccc" /><path
       style="fill:#ffffff;fill-opacity:1;stroke-width:0.657402"
       d="m 34.993334,32.138856 v 5.656321 l 2.949539,-2.267564 z"
       id="path9"
       sodipodi:nodetypes="cccc" /><path
       style="fill:#ffffff;fill-opacity:1;stroke-width:0.657402"
       d="M 38.250342,33.228525 V 28.017917 A 0.31151369,0.31151369 60 0 0 38.094585,27.748138 L 31.36902,23.865131 a 0.23346232,0.23346232 177.94984 0 0 -0.24762,0.0089 l -0.384618,0.260409 a 0.20221008,0.20221008 97.976234 0 0 -0.04165,0.297277 l 7.411404,8.849112 a 0.08140323,0.08140323 160.02639 0 0 0.14381,-0.05227 z"
       id="path10"
       sodipodi:nodetypes="ccccc"
       inkscape:path-effect="#path-effect12"
       inkscape:original-d="m 38.250342,33.4525 v -5.614436 l -7.007907,-4.046017 -0.691117,0.467927 z" /><path
       style="fill:#ffffff;fill-opacity:1;stroke-width:0.657402"
       d="m 29.186141,25.283965 2.057714,2.536128 -6.143719,6.470391 -0.05508,-5.824874 z"
       id="path11"
       sodipodi:nodetypes="ccccc" /></g><g
     inkscape:groupmode="layer"
     id="layer1"
     inkscape:label="Layer 1"
     transform="matrix(1.5211401,0,0,1.5211401,-17.612921,-16.659969)"
     style="display:inline"><path
       id="path4"
       style="fill:#ffffff;fill-opacity:1;stroke-width:0.657402"
       d="M 22.565845 15.441112 A 0.7198164 0.7198164 0 0 0 21.916147 16.157577 L 21.916147 45.934533 A 1.0496681 1.0496681 0 0 0 23.33367 46.918067 L 40.148771 40.629096 A 1.5569063 1.5569063 0 0 0 41.159269 39.170486 L 41.159269 24.209463 A 1.6650913 1.6650913 0 0 0 40.135931 22.67253 L 22.912522 15.492471 A 0.7198164 0.7198164 0 0 0 22.565845 15.441112 z M 31.244317 23.834538 A 0.23346232 0.23346232 0 0 1 31.368864 23.865354 L 38.094391 27.748133 A 0.31151369 0.31151369 0 0 1 38.249753 28.01777 L 38.249753 33.228192 A 0.081403234 0.081403234 0 0 1 38.105947 33.280835 L 30.69477 24.431593 A 0.20221008 0.20221008 0 0 1 30.737142 24.134991 L 31.121054 23.874342 A 0.23346232 0.23346232 0 0 1 31.244317 23.834538 z M 29.186085 25.28416 L 31.244317 27.820036 L 25.100436 34.290049 L 25.045225 28.465882 L 29.186085 25.28416 z M 34.993561 32.13937 L 37.94288 35.527813 L 34.993561 37.795335 L 34.993561 32.13937 z M 25.131252 35.093826 L 34.042126 35.093826 L 34.042126 38.038009 L 31.009347 39.789368 L 25.131252 35.093826 z " /></g></svg>
