<?xml version="1.0" encoding="UTF-8" standalone="no"?>
<!-- Created with Inkscape (http://www.inkscape.org/) -->

<svg
   width="64mm"
   height="64mm"
   viewBox="0 0 64 64"
   version="1.1"
   id="svg1"
   inkscape:version="1.4 (e7c3feb100, 2024-10-09)"
   sodipodi:docname="367137539-fa52f568-036a-42d8-a970-39c06f48d08c.svg"
   xmlns:inkscape="http://www.inkscape.org/namespaces/inkscape"
   xmlns:sodipodi="http://sodipodi.sourceforge.net/DTD/sodipodi-0.dtd"
   xmlns="http://www.w3.org/2000/svg"
   xmlns:svg="http://www.w3.org/2000/svg">
  <sodipodi:namedview
     id="namedview1"
     pagecolor="#505050"
     bordercolor="#eeeeee"
     borderopacity="1"
     inkscape:showpageshadow="0"
     inkscape:pageopacity="0"
     inkscape:pagecheckerboard="0"
     inkscape:deskcolor="#505050"
     inkscape:document-units="mm"
     inkscape:zoom="2.1986252"
     inkscape:cx="180.7948"
     inkscape:cy="210.81356"
     inkscape:window-width="2560"
     inkscape:window-height="1374"
     inkscape:window-x="0"
     inkscape:window-y="0"
     inkscape:window-maximized="1"
     inkscape:current-layer="layer1" />
  <defs
     id="defs1">
    <inkscape:path-effect
       effect="powerclip"
       id="path-effect16"
       is_visible="true"
       lpeversion="1"
       inverse="true"
       flatten="false"
       hide_clip="false"
       message="" />
    <inkscape:path-effect
       effect="powerclip"
       id="path-effect15"
       is_visible="true"
       lpeversion="1"
       inverse="true"
       flatten="false"
       hide_clip="false"
       message="" />
    <inkscape:path-effect
       effect="bspline"
       id="path-effect14"
       is_visible="true"
       lpeversion="1.3"
       weight="33.333333"
       steps="2"
       helper_size="0"
       apply_no_weight="true"
       apply_with_weight="true"
       only_selected="false"
       uniform="false" />
    <inkscape:path-effect
       effect="bspline"
       id="path-effect5"
       is_visible="true"
       lpeversion="1.3"
       weight="33.333333"
       steps="2"
       helper_size="0"
       apply_no_weight="true"
       apply_with_weight="true"
       only_selected="false"
       uniform="false" />
    <inkscape:path-effect
       effect="bspline"
       id="path-effect15-8"
       is_visible="true"
       lpeversion="1.3"
       weight="33.333333"
       steps="2"
       helper_size="0"
       apply_no_weight="true"
       apply_with_weight="true"
       only_selected="false"
       uniform="false" />
    <clipPath
       clipPathUnits="userSpaceOnUse"
       id="clipPath14">
      <path
         id="path14"
         style="display:block;fill:#000000;stroke-width:0.255707"
         d="m 81.460692,130.85201 v 4.34702 h 1.022828 v -1.78995 h 1.547028 c 0.136376,0 0.255707,-0.0511 0.357989,-0.15343 0.09376,-0.0938 0.140639,-0.20882 0.140639,-0.3452 v -2.05844 h -1.022828 v 1.53424 H 82.48352 v -1.53424 h -1.022828 m 6.392676,0 h -1.022829 v 3.32419 h -2.045656 v 1.02283 h 3.068485 v -4.34702" />
    </clipPath>
  </defs>
  <g
     inkscape:label="Layer 1"
     inkscape:groupmode="layer"
     id="layer1">
    <path
       id="path11-6"
       clip-path="none"
       style="fill:#ffffff;fill-opacity:1;stroke:#ffffff;stroke-width:0.526;stroke-dasharray:none;stroke-opacity:1"
       d="M 84.011251 120.84029 C 85.082806 120.84029 86.482858 120.84024 87.231147 120.85264 C 87.979436 120.86504 88.075936 120.8898 88.155562 120.91127 C 88.235187 120.93273 88.298003 120.95094 88.398301 121.01926 C 88.498599 121.08758 88.63629 121.20609 88.757267 121.32783 C 88.878244 121.44957 88.982467 121.57451 89.080491 121.72177 C 89.178515 121.86903 89.270328 122.03847 89.373115 122.24942 C 89.475902 122.46036 89.589615 122.71278 89.646454 123.05658 C 89.703292 123.40038 89.703323 123.83556 89.699424 124.2263 C 89.695526 124.61704 89.687821 124.96318 89.681168 125.42843 C 89.674514 125.89368 89.668887 126.47798 89.667282 127.14174 C 89.665677 127.8055 89.667997 128.54868 89.691196 129.3156 C 89.714395 130.08252 89.758578 130.87295 89.835194 131.57225 C 89.91181 132.27156 90.020925 132.8797 90.128075 133.45348 C 90.235225 134.02726 90.340389 134.56664 90.460556 135.08863 C 90.580723 135.61061 90.71587 136.11507 90.850379 136.61706 C 90.984887 137.11906 91.11871 137.6187 91.240202 138.00098 C 91.361693 138.38327 91.470678 138.6484 91.610996 138.9992 C 91.751315 139.34999 91.92277 139.78637 92.038361 140.19309 C 92.153953 140.59982 92.21384 140.97673 92.231987 141.24814 C 92.250134 141.51955 92.22666 141.68549 92.163074 141.87736 C 92.099488 142.06922 91.995643 142.28695 91.808222 142.54052 C 91.620801 142.79409 91.356031 143.07685 91.073833 143.34048 C 90.791635 143.60411 90.504583 143.83521 90.220388 143.96764 C 89.936193 144.10007 89.635573 144.14926 88.966835 144.17386 C 88.298098 144.19847 87.261231 144.19855 86.74284 144.19855 C 86.224448 144.19855 86.224547 144.19894 85.893252 144.19881 C 85.561957 144.19867 84.899324 144.19822 84.468187 144.18672 C 84.037051 144.17522 83.837454 144.1526 83.626571 144.10392 C 83.415688 144.05525 83.193549 143.98056 83.017152 143.91441 C 82.840755 143.84826 82.709992 143.79071 82.539902 143.65162 C 82.369812 143.51252 82.160536 143.29208 81.946167 142.86246 C 81.731799 142.43283 81.51235 141.79402 81.320034 141.16045 C 81.127718 140.52688 80.962537 139.89857 80.764099 139.08277 C 80.565661 138.26697 80.333946 137.26381 80.129994 136.27712 C 79.926042 135.29044 79.749842 134.32026 79.628573 133.35011 C 79.507304 132.37997 79.441213 131.40997 79.386091 130.61621 C 79.330969 129.82245 79.28677 129.20495 79.264721 128.65372 C 79.242673 128.1025 79.242639 127.61752 79.253664 126.94503 C 79.264689 126.27254 79.286825 125.41253 79.308435 124.70612 C 79.330045 123.99971 79.351266 123.44691 79.393034 123.10029 C 79.434801 122.75367 79.496958 122.61327 79.567117 122.46516 C 79.637276 122.31704 79.715283 122.16122 79.808828 122.01311 C 79.902372 121.86499 80.011534 121.72477 80.151851 121.58446 C 80.292168 121.44414 80.463666 121.30377 80.596187 121.19463 C 80.728709 121.0855 80.822312 121.00757 80.958753 120.95369 C 81.095195 120.89982 81.274424 120.87009 81.735571 120.85521 C 82.196717 120.84033 82.939697 120.84029 84.011251 120.84029 z M 88.392129 130.48558 L 87.196947 130.48558 L 87.196947 134.37018 L 84.806325 134.37018 L 84.806325 135.56562 L 88.392129 135.56562 L 88.392129 130.48558 z M 84.50753 130.48558 L 83.312347 130.48558 L 83.312347 132.27835 L 82.116908 132.27835 L 82.116908 130.48558 L 80.921725 130.48558 L 80.921725 135.56562 L 82.116908 135.56562 L 82.116908 133.47379 L 83.924853 133.47379 C 84.084223 133.47379 84.223689 133.41415 84.343218 133.29457 C 84.452786 133.18495 84.50753 133.05049 84.50753 132.89112 L 84.50753 130.48558 z "
       transform="matrix(-2.0096687,0,0,2.0096687,204.31272,-234.32028)" />
  </g>
</svg>
