<?xml version="1.0" encoding="UTF-8" standalone="no"?>
<!-- Created with Inkscape (http://www.inkscape.org/) -->

<svg
   width="64mm"
   height="64mm"
   viewBox="0 0 64 64"
   version="1.1"
   id="svg1"
   inkscape:version="1.4 (e7c3feb100, 2024-10-09)"
   sodipodi:docname="367137542-560c7888-a6f6-4e63-ad7c-426a5ab35121.svg"
   xmlns:inkscape="http://www.inkscape.org/namespaces/inkscape"
   xmlns:sodipodi="http://sodipodi.sourceforge.net/DTD/sodipodi-0.dtd"
   xmlns="http://www.w3.org/2000/svg"
   xmlns:svg="http://www.w3.org/2000/svg">
  <sodipodi:namedview
     id="namedview1"
     pagecolor="#505050"
     bordercolor="#eeeeee"
     borderopacity="1"
     inkscape:showpageshadow="0"
     inkscape:pageopacity="0"
     inkscape:pagecheckerboard="0"
     inkscape:deskcolor="#505050"
     inkscape:document-units="mm"
     inkscape:zoom="1.5546628"
     inkscape:cx="84.58426"
     inkscape:cy="112.24299"
     inkscape:window-width="2560"
     inkscape:window-height="1374"
     inkscape:window-x="0"
     inkscape:window-y="0"
     inkscape:window-maximized="1"
     inkscape:current-layer="layer1" />
  <defs
     id="defs1">
    <inkscape:path-effect
       effect="powerclip"
       id="path-effect2"
       is_visible="true"
       lpeversion="1"
       inverse="true"
       flatten="false"
       hide_clip="false"
       message="" />
    <inkscape:path-effect
       effect="bspline"
       id="path-effect5"
       is_visible="true"
       lpeversion="1.3"
       weight="33.333333"
       steps="2"
       helper_size="0"
       apply_no_weight="true"
       apply_with_weight="true"
       only_selected="false"
       uniform="false" />
    <inkscape:path-effect
       effect="bspline"
       id="path-effect5-4"
       is_visible="true"
       lpeversion="1.3"
       weight="33.333333"
       steps="2"
       helper_size="0"
       apply_no_weight="true"
       apply_with_weight="true"
       only_selected="false"
       uniform="false" />
    <filter
       id="mask-powermask-path-effect1_inverse"
       inkscape:label="filtermask-powermask-path-effect1"
       style="color-interpolation-filters:sRGB"
       height="100"
       width="100"
       x="-50"
       y="-50">
      <feColorMatrix
         id="mask-powermask-path-effect1_primitive1"
         values="1"
         type="saturate"
         result="fbSourceGraphic" />
      <feColorMatrix
         id="mask-powermask-path-effect1_primitive2"
         values="-1 0 0 0 1 0 -1 0 0 1 0 0 -1 0 1 0 0 0 1 0 "
         in="fbSourceGraphic" />
    </filter>
  </defs>
  <g
     inkscape:label="Layer 1"
     inkscape:groupmode="layer"
     id="layer1">
    <path
       id="path3-0"
       clip-path="none"
       style="fill:#ffffff;fill-opacity:1;stroke:#ffffff;stroke-width:0.526;stroke-dasharray:none;stroke-opacity:1"
       d="M 84.011108 120.84029 C 82.939553 120.84029 82.196573 120.84033 81.735427 120.85521 C 81.27428 120.87009 81.095051 120.89982 80.95861 120.95369 C 80.822168 121.00757 80.728822 121.0855 80.596301 121.19463 C 80.463779 121.30377 80.292282 121.44414 80.151965 121.58446 C 80.011647 121.72477 79.902486 121.86499 79.808941 122.01311 C 79.715396 122.16122 79.637389 122.31704 79.56723 122.46516 C 79.497072 122.61327 79.434657 122.75367 79.39289 123.10029 C 79.351123 123.44691 79.329901 123.99971 79.308291 124.70612 C 79.286681 125.41253 79.264803 126.27254 79.253778 126.94503 C 79.242753 127.61752 79.242529 128.1025 79.264578 128.65372 C 79.286626 129.20495 79.330825 129.82245 79.385947 130.61621 C 79.441069 131.40997 79.507161 132.37997 79.628429 133.35011 C 79.749698 134.32026 79.926156 135.29044 80.130108 136.27712 C 80.33406 137.26381 80.565518 138.26697 80.763955 139.08277 C 80.962393 139.89857 81.127831 140.52688 81.320147 141.16045 C 81.512463 141.79402 81.731655 142.43283 81.946024 142.86246 C 82.160392 143.29208 82.369925 143.51252 82.540015 143.65162 C 82.710105 143.79071 82.840611 143.84826 83.017008 143.91441 C 83.193405 143.98056 83.415545 144.05525 83.626428 144.10392 C 83.83731 144.1526 84.036907 144.17522 84.468044 144.18672 C 84.89918 144.19822 85.561813 144.19867 85.893108 144.19881 C 86.224403 144.19894 86.224561 144.19855 86.742953 144.19855 C 87.261344 144.19855 88.297954 144.19847 88.966692 144.17386 C 89.635429 144.14926 89.936307 144.10007 90.220502 143.96764 C 90.504696 143.83521 90.791748 143.60411 91.073946 143.34048 C 91.356144 143.07685 91.620914 142.79409 91.808335 142.54052 C 91.995757 142.28695 92.099601 142.06922 92.163187 141.87736 C 92.226773 141.68549 92.24999 141.51955 92.231843 141.24814 C 92.213696 140.97673 92.154066 140.59982 92.038475 140.19309 C 91.922884 139.78637 91.751428 139.34999 91.61111 138.9992 C 91.470791 138.6484 91.361549 138.38327 91.240058 138.00098 C 91.118567 137.6187 90.984744 137.11906 90.850235 136.61706 C 90.715727 136.11507 90.580579 135.61061 90.460412 135.08863 C 90.340245 134.56664 90.235082 134.02726 90.127932 133.45348 C 90.020781 132.8797 89.911666 132.27156 89.83505 131.57225 C 89.758434 130.87295 89.714252 130.08252 89.691052 129.3156 C 89.667853 128.54868 89.66579 127.8055 89.667395 127.14174 C 89.669 126.47798 89.67437 125.89368 89.681024 125.42843 C 89.687677 124.96318 89.695382 124.61704 89.699281 124.2263 C 89.703179 123.83556 89.703406 123.40038 89.646567 123.05658 C 89.589729 122.71278 89.476016 122.46036 89.373228 122.24942 C 89.270441 122.03847 89.178371 121.86903 89.080347 121.72177 C 88.982323 121.57451 88.878357 121.44957 88.75738 121.32783 C 88.636403 121.20609 88.498455 121.08758 88.398157 121.01926 C 88.297859 120.95094 88.235043 120.93273 88.155418 120.91127 C 88.075793 120.8898 87.979292 120.86504 87.231003 120.85264 C 86.482714 120.84024 85.082662 120.84029 84.011108 120.84029 z M 81.065837 130.74889 L 82.94038 130.74889 C 83.386722 130.74889 83.766041 130.90497 84.078478 131.2174 C 84.390917 131.52984 84.547242 131.90915 84.547242 132.3555 C 84.547242 132.79291 84.390917 133.16804 84.078478 133.48048 L 84.065107 133.49385 L 83.864281 133.66793 L 84.681212 135.30154 L 83.609971 135.30154 L 82.94038 133.96236 L 82.137078 133.96236 L 82.137078 135.30154 L 81.065837 135.30154 L 81.065837 130.74889 z M 85.350545 130.74889 L 86.421786 130.74889 L 86.421786 132.3555 L 87.493028 132.3555 L 87.493028 130.74889 L 88.564269 130.74889 L 88.564269 135.30154 L 87.493028 135.30154 L 87.493028 133.42674 L 85.872794 133.42674 C 85.729966 133.42674 85.605008 133.3732 85.497886 133.26603 C 85.39969 133.16779 85.350545 133.04731 85.350545 132.90449 L 85.350545 130.74889 z M 82.137078 131.81988 L 82.137078 132.89112 L 82.94038 132.89112 C 83.083212 132.89112 83.203725 132.84221 83.301918 132.74403 L 83.32866 132.71703 C 83.426857 132.6188 83.476001 132.49833 83.476001 132.3555 C 83.476001 132.21266 83.422412 132.08771 83.315289 131.98059 C 83.208167 131.87347 83.083212 131.81988 82.94038 131.81988 L 82.137078 131.81988 z "
       transform="matrix(2.0096687,0,0,2.0096687,-140.31272,-234.32028)" />
  </g>
</svg>
