<svg width="64" height="64" xmlns="http://www.w3.org/2000/svg" xmlns:xlink="http://www.w3.org/1999/xlink">
  <defs/>
  <g>
    <path stroke="none" fill="#FFFFFF" d="M42 34 Q42 32.75 41.2 31.85 40.3 31 39 31 37.75 31 36.9 31.85 36 32.75 36 34 36 35.3 36.9 36.2 37.75 37 39 37 40.3 37 41.2 36.2 42 35.3 42 34 M44 28 Q44 27.15 43.4 26.55 42.85 26 42 26 41.15 26 40.6 26.55 40 27.15 40 28 40 28.8 40.6 29.4 41.15 30 42 30 42.85 30 43.4 29.4 44 28.8 44 28 M48 32 Q48 31.15 47.4 30.55 46.85 30 46 30 45.15 30 44.6 30.55 44 31.15 44 32 44 32.8 44.6 33.4 45.15 34 46 34 46.85 34 47.4 33.4 48 32.8 48 32 M52 28 Q52 27.15 51.4 26.55 50.85 26 50 26 49.15 26 48.6 26.55 48 27.15 48 28 48 28.8 48.6 29.4 49.15 30 50 30 50.85 30 51.4 29.4 52 28.8 52 28 M48 24 Q48 23.15 47.4 22.55 46.85 22 46 22 45.15 22 44.6 22.55 44 23.15 44 24 44 24.8 44.6 25.4 45.15 26 46 26 46.85 26 47.4 25.4 48 24.8 48 24 M40 20 L42.15 17.85 Q42.4 17.25 43.15 16.95 43.25 16.15 45.95 16 48.6 16.15 48.75 16.95 49.5 17.25 49.75 17.85 L50.3 20.3 Q52.4 21.6 53.2 23.7 L53.75 25.2 53.75 25.3 53.8 25.4 53.8 25.45 54.45 29.15 55.9 39.7 Q56.3 42.3 55.05 43.95 53.25 46.05 50.9 46 48 46 46.8 44.1 L43.15 37.85 Q41.35 39.5 39.05 39.55 36.85 39.3 35.7 38.05 34.8 37.1 34.25 36 L29.75 36 28.3 38.05 Q27.15 39.3 24.95 39.55 22.65 39.5 20.85 37.85 L17.2 44.1 Q16 46 13.1 46 10.75 46.05 8.95 43.95 7.7 42.3 8.1 39.7 L9.55 29.15 Q10.2 24.6 10.8 23.7 11.6 21.6 13.7 20.3 L14.25 17.85 Q14.5 17.25 15.25 16.95 15.4 16.15 18.05 16 20.75 16.15 20.85 16.95 21.6 17.25 21.85 17.85 L24 20 40 20 M16 23 L16 25 18 27 20 25 20 23 16 23 M30 29 L30 31 34 31 34 29 30 29 M16 33 L20 33 20 31 18 29 16 31 16 33 M13 26 L13 30 15 30 17 28 15 26 13 26 M23 26 L21 26 19 28 21 30 23 30 23 26 M28 34 Q28 32.75 27.2 31.85 26.3 31 25 31 23.75 31 22.9 31.85 22 32.75 22 34 22 35.3 22.9 36.2 23.75 37 25 37 26.3 37 27.2 36.2 28 35.3 28 34"/>
  </g>
</svg>