<svg width="64" height="64" xmlns="http://www.w3.org/2000/svg" xmlns:xlink="http://www.w3.org/1999/xlink">
  <defs/>
  <g>
    <path stroke="none" fill="#FFFFFF" d="M28 19 Q26 19 26 21 L26 25 Q26 27 28 27 L36 27 Q38 27 38 25 L38 21 Q38 19 36 19 L28 19 M43 32 Q43 30.75 42.2 29.85 41.3 29 40 29 38.75 29 37.9 29.85 37 30.75 37 32 37 33.3 37.9 34.2 38.75 35 40 35 41.3 35 42.2 34.2 43 33.3 43 32 M45 26.5 Q45 25.85 44.55 25.4 44.15 25 43.5 25 42.85 25 42.45 25.4 42 25.85 42 26.5 42 27.1 42.45 27.55 42.85 28 43.5 28 L44.55 27.55 Q45 27.1 45 26.5 M48 29.5 Q48 28.85 47.55 28.4 47.15 28 46.5 28 45.85 28 45.45 28.4 45 28.85 45 29.5 45 30.1 45.45 30.55 45.85 31 46.5 31 L47.55 30.55 48 29.5 M51 26.5 Q51 25.85 50.55 25.4 50.15 25 49.5 25 48.85 25 48.45 25.4 48 25.85 48 26.5 48 27.1 48.45 27.55 48.85 28 49.5 28 50.15 28 50.55 27.55 L51 26.5 M48 23.5 Q48 22.85 47.55 22.4 47.15 22 46.5 22 45.85 22 45.45 22.4 45 22.85 45 23.5 45 24.1 45.45 24.55 45.85 25 46.5 25 L47.55 24.55 48 23.5 M39.5 17.45 Q40.05 17.45 40.2 17.75 L41.4 17.75 Q43 17.8 43.35 17.25 L43.7 17.25 43.7 16.65 Q44.9 15.95 46.8 16 48.5 16 49.7 16.65 L49.7 17.25 50.3 17.55 Q51.9 19.65 53.05 23.05 L54.95 30.65 Q55.8 34.45 55.95 38.85 56.25 42 54.75 44.25 53.5 46.15 50.75 46 48.4 45.8 47.35 44.15 L45.35 40.5 43.75 35.8 42.85 35.25 Q41.4 36.7 39.4 36.5 37.8 36.5 36.25 35.2 L27.75 35.2 Q26.2 36.5 24.6 36.5 22.6 36.7 21.15 35.25 20.45 35.4 20.25 35.8 L18.65 40.5 16.6 44.15 Q15.6 45.8 13.25 46 10.5 46.15 9.25 44.25 7.75 42 8.05 38.85 8.2 34.45 9.05 30.65 L10.95 23.05 Q12.1 19.65 13.7 17.55 L14.3 17.25 14.3 16.65 Q15.45 16 17.2 16 19.1 15.95 20.3 16.65 L20.3 17.25 20.65 17.25 Q21 17.8 22.6 17.75 L23.8 17.75 Q23.9 17.45 24.5 17.45 L39.5 17.45 M23 24 L21 24 19 26 21 28 23 28 23 24 M16 21 L16 23 18 25 20 23 20 21 16 21 M27 32 Q27 30.75 26.2 29.85 25.3 29 24 29 22.75 29 21.9 29.85 21 30.75 21 32 21 33.3 21.9 34.2 22.75 35 24 35 25.3 35 26.2 34.2 27 33.3 27 32 M16 31 L20 31 20 29 18 27 16 29 16 31 M13 24 L13 28 15 28 17 26 15 24 13 24"/>
  </g>
</svg>