<svg width="64" height="64" xmlns="http://www.w3.org/2000/svg" xmlns:xlink="http://www.w3.org/1999/xlink">
  <defs/>
  <g>
    <path stroke="none" fill="#FFFFFF" d="M39.45 20.5 Q40 18 37.35 18 L26.7 18 Q24 18 24.55 20.5 L25.65 25.4 Q26 27 28 27 L36 27 Q38 27 38.35 25.4 L39.45 20.5 M42 32 Q42 30.75 41.2 29.85 40.3 29 39 29 37.75 29 36.9 29.85 36 30.75 36 32 36 33.3 36.9 34.2 37.75 35 39 35 40.3 35 41.2 34.2 42 33.3 42 32 M45 26.5 Q45 25.85 44.55 25.4 44.15 25 43.5 25 42.85 25 42.45 25.4 42 25.85 42 26.5 42 27.1 42.45 27.55 42.85 28 43.5 28 L44.55 27.55 Q45 27.1 45 26.5 M48 29.5 Q48 28.85 47.55 28.4 47.15 28 46.5 28 45.85 28 45.45 28.4 45 28.85 45 29.5 45 30.1 45.45 30.55 45.85 31 46.5 31 L47.55 30.55 48 29.5 M51 26.5 Q51 25.85 50.55 25.4 50.15 25 49.5 25 48.85 25 48.45 25.4 48 25.85 48 26.5 48 27.1 48.45 27.55 48.85 28 49.5 28 50.15 28 50.55 27.55 L51 26.5 M48 23.5 Q48 22.85 47.55 22.4 47.15 22 46.5 22 45.85 22 45.45 22.4 45 22.85 45 23.5 45 24.1 45.45 24.55 45.85 25 46.5 25 L47.55 24.55 48 23.5 M32 16.4 L43.15 17.2 43.7 17.1 43.85 16.2 46.8 16.05 Q48.55 16.35 50 17.3 L50.15 18.25 50.9 18.45 Q53.25 23.25 54.65 28.5 55.55 32.3 55.9 36.35 56.25 40.1 55.45 43.75 55.15 46.05 52.9 47.4 L49.45 48 Q48.95 47.9 48.6 47.1 L46.7 42.45 Q45.8 39.85 44.2 37.6 43.5 36.65 41.6 36.6 L40.6 36.75 40.55 36.75 37.5 36.95 26.5 36.95 23.45 36.75 23.4 36.75 22.4 36.6 Q20.5 36.65 19.8 37.6 18.2 39.85 17.3 42.45 L15.4 47.1 Q15.05 47.9 14.55 48 L11.1 47.4 Q8.85 46.05 8.55 43.75 7.75 40.1 8.1 36.35 8.45 32.3 9.35 28.5 10.75 23.25 13.1 18.45 L13.85 18.25 14 17.3 Q15.45 16.35 17.2 16.05 L20.15 16.2 20.3 17.1 20.85 17.2 32 16.4 M23 24 L21 24 19 26 21 28 23 28 23 24 M16 21 L16 23 18 25 20 23 20 21 16 21 M28 32 Q28 30.75 27.2 29.85 26.3 29 25 29 23.75 29 22.9 29.85 22 30.75 22 32 22 33.3 22.9 34.2 23.75 35 25 35 26.3 35 27.2 34.2 28 33.3 28 32 M16 31 L20 31 20 29 18 27 16 29 16 31 M13 24 L13 28 15 28 17 26 15 24 13 24"/>
  </g>
</svg>