<?xml version="1.0" encoding="UTF-8" standalone="no"?>
<svg
   width="64"
   height="64"
   version="1.1"
   id="svg1"
   sodipodi:docname="guide.svg"
   inkscape:version="1.3.2 (091e20ef0f, 2023-11-25)"
   xmlns:inkscape="http://www.inkscape.org/namespaces/inkscape"
   xmlns:sodipodi="http://sodipodi.sourceforge.net/DTD/sodipodi-0.dtd"
   xmlns="http://www.w3.org/2000/svg"
   xmlns:svg="http://www.w3.org/2000/svg">
  <sodipodi:namedview
     id="namedview1"
     pagecolor="#ffffff"
     bordercolor="#000000"
     borderopacity="0.25"
     inkscape:showpageshadow="2"
     inkscape:pageopacity="0.0"
     inkscape:pagecheckerboard="true"
     inkscape:deskcolor="#d1d1d1"
     inkscape:zoom="18.703125"
     inkscape:cx="32"
     inkscape:cy="32.026734"
     inkscape:window-width="2560"
     inkscape:window-height="1374"
     inkscape:window-x="0"
     inkscape:window-y="0"
     inkscape:window-maximized="1"
     inkscape:current-layer="g1" />
  <defs
     id="defs1" />
  <g
     id="g1">
    <path
       stroke="none"
       fill="#FFFFFF"
       d="M56 32 Q56 42 48.95 48.95 42 56 32 56 22.05 56 15 48.95 8 42 8 32 8 22.05 15 15 22.05 8 32 8 42 8 48.95 15 56 22.05 56 32"
       id="path1"
       style="fill:#ffffff;fill-opacity:1" />
    <path
       d="m 22.760217,25.705426 v 5.991471 h 2.712716 q 1.505878,0 2.328237,-0.779639 0.822359,-0.77964 0.822359,-2.221436 0,-1.431118 -0.822359,-2.210758 -0.822359,-0.779638 -2.328237,-0.779638 z M 20.60286,23.932549 h 4.870073 q 2.680676,0 4.047714,1.217517 1.377719,1.206839 1.377719,3.545756 0,2.360276 -1.377719,3.567114 -1.367038,1.206838 -4.047714,1.206838 h -2.712716 v 6.407991 H 20.60286 Z m 22.748368,0.523318 v 2.103958 q -1.228198,-0.5874 -2.317556,-0.87576 -1.08936,-0.288359 -2.103957,-0.288359 -1.762198,0 -2.723397,0.683519 -0.950518,0.683519 -0.950518,1.943757 0,1.057318 0.630119,1.601997 0.640798,0.534 2.413677,0.86508 l 1.302957,0.266999 q 2.413677,0.459239 3.556435,1.623358 1.153439,1.153439 1.153439,3.097196 0,2.317556 -1.559278,3.513714 -1.548597,1.196158 -4.549674,1.196158 -1.132077,0 -2.413675,-0.256319 -1.270919,-0.25632 -2.637957,-0.758278 V 36.95145 q 1.313638,0.736919 2.573875,1.110719 1.26024,0.373799 2.477757,0.373799 1.847638,0 2.851556,-0.72624 1.00392,-0.726238 1.00392,-2.071916 0,-1.174799 -0.72624,-1.836958 -0.715559,-0.662159 -2.360277,-0.993239 l -1.313638,-0.25632 q -2.413677,-0.480599 -3.492354,-1.505878 -1.078679,-1.025278 -1.078679,-2.851555 0,-2.114637 1.484518,-3.332156 1.495197,-1.217518 4.111793,-1.217518 1.1214,0 2.285517,0.202921 1.164118,0.202919 2.381637,0.608758 z"
       id="text1"
       style="fill:#44475a;stroke-width:1.82272"
       aria-label="PS" />
  </g>
</svg>
