<?xml version="1.0" encoding="UTF-8" standalone="no"?>
<!-- Created with Inkscape (http://www.inkscape.org/) -->

<svg
   width="64mm"
   height="64mm"
   viewBox="0 0 64 64"
   version="1.1"
   id="svg1"
   xml:space="preserve"
   inkscape:version="1.4 (e7c3feb100, 2024-10-09)"
   sodipodi:docname="guide-2.svg"
   xmlns:inkscape="http://www.inkscape.org/namespaces/inkscape"
   xmlns:sodipodi="http://sodipodi.sourceforge.net/DTD/sodipodi-0.dtd"
   xmlns:xlink="http://www.w3.org/1999/xlink"
   xmlns="http://www.w3.org/2000/svg"
   xmlns:svg="http://www.w3.org/2000/svg"><sodipodi:namedview
     id="namedview1"
     pagecolor="#ffffff"
     bordercolor="#000000"
     borderopacity="0.25"
     inkscape:showpageshadow="2"
     inkscape:pageopacity="0.0"
     inkscape:pagecheckerboard="true"
     inkscape:deskcolor="#d1d1d1"
     inkscape:document-units="mm"
     inkscape:zoom="2.463207"
     inkscape:cx="44.048268"
     inkscape:cy="167.87059"
     inkscape:window-width="2560"
     inkscape:window-height="1374"
     inkscape:window-x="0"
     inkscape:window-y="0"
     inkscape:window-maximized="1"
     inkscape:current-layer="layer1" /><defs
     id="defs1"><inkscape:path-effect
       effect="bspline"
       id="path-effect2"
       is_visible="true"
       lpeversion="1.3"
       weight="33.333333"
       steps="2"
       helper_size="0"
       apply_no_weight="true"
       apply_with_weight="true"
       only_selected="false"
       uniform="false" /><inkscape:path-effect
       effect="bspline"
       id="path-effect1"
       is_visible="true"
       lpeversion="1.3"
       weight="33.333333"
       steps="2"
       helper_size="0"
       apply_no_weight="true"
       apply_with_weight="true"
       only_selected="false"
       uniform="false" /><rect
       x="235.09921"
       y="94.232658"
       width="41.967407"
       height="36.039608"
       id="rect3" /><rect
       x="267.43985"
       y="87.327301"
       width="74.592072"
       height="47.302288"
       id="rect2" /><rect
       x="128.64526"
       y="91.338135"
       width="99.056854"
       height="38.593578"
       id="rect1" /><color-profile
       name="G195W"
       xlink:href=".local/share/icc/edid-4fb35b7bcb8f8661e8daccf9187a4a4a.icc"
       id="color-profile2" /><clipPath
       clipPathUnits="userSpaceOnUse"
       id="clipPath4"><rect
         style="fill:#000000;stroke-width:0.264583"
         id="rect4"
         width="79.905998"
         height="77.01783"
         x="164.14424"
         y="71.722847" /></clipPath><clipPath
       clipPathUnits="userSpaceOnUse"
       id="clipPath5"><rect
         style="fill:#000000;stroke-width:0.274365"
         id="rect5"
         width="80.868721"
         height="81.831444"
         x="-68.353325"
         y="66.427872" /></clipPath><rect
       x="235.09921"
       y="94.232658"
       width="17.524807"
       height="14.169913"
       id="rect3-0" /><rect
       x="235.09921"
       y="94.232658"
       width="17.524807"
       height="14.169913"
       id="rect3-8" /><clipPath
       clipPathUnits="userSpaceOnUse"
       id="clipPath4-8"><rect
         style="fill:#000000;stroke-width:0.264583"
         id="rect4-9"
         width="79.905998"
         height="77.01783"
         x="164.14424"
         y="71.722847" /></clipPath><clipPath
       clipPathUnits="userSpaceOnUse"
       id="clipPath4-3"><rect
         style="fill:#000000;stroke-width:0.264583"
         id="rect4-1"
         width="79.905998"
         height="77.01783"
         x="164.14424"
         y="71.722847" /></clipPath><clipPath
       clipPathUnits="userSpaceOnUse"
       id="clipPath4-3-3"><rect
         style="fill:#000000;stroke-width:0.264583"
         id="rect4-1-6"
         width="79.905998"
         height="77.01783"
         x="164.14424"
         y="71.722847" /></clipPath><inkscape:path-effect
       effect="bspline"
       id="path-effect2-2"
       is_visible="true"
       lpeversion="1.3"
       weight="33.333333"
       steps="2"
       helper_size="0"
       apply_no_weight="true"
       apply_with_weight="true"
       only_selected="false"
       uniform="false" /><filter
       id="mask-powermask-path-effect3_inverse"
       inkscape:label="filtermask-powermask-path-effect3"
       style="color-interpolation-filters:sRGB"
       height="100"
       width="100"
       x="-50"
       y="-50"><feColorMatrix
         id="mask-powermask-path-effect3_primitive1"
         values="1"
         type="saturate"
         result="fbSourceGraphic" /><feColorMatrix
         id="mask-powermask-path-effect3_primitive2"
         values="-1 0 0 0 1 0 -1 0 0 1 0 0 -1 0 1 0 0 0 1 0 "
         in="fbSourceGraphic" /></filter><filter
       id="mask-powermask-path-effect21_inverse"
       inkscape:label="filtermask-powermask-path-effect21"
       style="color-interpolation-filters:sRGB"
       height="100"
       width="100"
       x="-50"
       y="-50"><feColorMatrix
         id="mask-powermask-path-effect21_primitive1"
         values="1"
         type="saturate"
         result="fbSourceGraphic" /><feColorMatrix
         id="mask-powermask-path-effect21_primitive2"
         values="-1 0 0 0 1 0 -1 0 0 1 0 0 -1 0 1 0 0 0 1 0 "
         in="fbSourceGraphic" /></filter></defs><g
     inkscape:label="Layer 1"
     inkscape:groupmode="layer"
     id="layer1"
     style="fill:#ffffff;fill-opacity:1;stroke:none"><path
       id="circle26"
       style="fill:#f9f9f9;fill-opacity:1;stroke:#ffffff;stroke-width:0"
       d="M 32.000626,8.0000002 A 24.000088,24.000088 0 0 0 7.9999933,32.000623 24.000088,24.000088 0 0 0 32.000626,56 24.000088,24.000088 0 0 0 56.000007,32.000623 24.000088,24.000088 0 0 0 32.000626,8.0000002 Z m 7.952976,11.9655058 h 3.40467 c 1.278991,0.03949 2.281309,0.731326 3.006931,2.074634 l 0.03103,0.05968 c 0.42682,0.790181 0.692187,1.658438 0.794297,2.606654 l 0.03223,0.592931 -3.42704,1.778791 c 0.09598,-0.632144 0.02598,-1.166437 -0.208791,-1.601038 l -0.06351,-0.118082 c -0.23476,-0.434599 -0.556968,-0.652596 -0.96707,-0.652596 h -3.322644 c -0.437451,0 -0.839037,0.218004 -1.205746,0.652598 l -0.100785,0.118082 c -0.366707,0.434602 -0.597653,0.968894 -0.693605,1.601039 -0.09598,0.632143 -0.01684,1.184105 0.239821,1.658213 0.256106,0.474111 0.602993,0.712262 1.04042,0.712262 h 3.281632 c 1.367005,0 2.422797,0.690575 3.169755,2.073392 0.746958,1.382816 0.971145,3.062591 0.671235,5.038043 -0.293895,1.935943 -1.02464,3.595559 -2.191467,4.978376 l -0.04979,0.05843 c -1.166849,1.382816 -2.420535,2.074634 -3.760191,2.074634 h -3.403468 c -1.278966,-0.03949 -2.281285,-0.731327 -3.006907,-2.074634 l -0.03223,-0.05843 C 32.765528,40.7483 32.515076,39.8788 32.440315,38.930585 l -0.04234,-0.533265 3.395986,-1.837214 c -0.09598,0.632145 -0.02719,1.165192 0.207589,1.599793 l 0.0647,0.118082 c 0.23477,0.434602 0.557002,0.652599 0.967103,0.652599 h 3.321394 c 0.437451,0 0.840265,-0.218005 1.206996,-0.652599 l 0.09934,-0.118082 c 0.366732,-0.434601 0.59888,-0.967648 0.694857,-1.599793 0.09598,-0.632145 0.01443,-1.185351 -0.241145,-1.659458 -0.256106,-0.47411 -0.602993,-0.711019 -1.04042,-0.711019 H 37.794 c -1.367006,0 -2.424023,-0.691818 -3.171005,-2.074635 -0.746958,-1.382817 -0.969894,-3.061347 -0.669984,-5.036798 0.293895,-1.935944 1.02339,-3.59556 2.190215,-4.978377 l 0.051,-0.05968 c 1.166851,-1.382817 2.419285,-2.074635 3.758965,-2.074635 z m -18.757493,0.362968 h 7.545256 c 0.84154,0.0395 1.559416,0.355805 2.152956,0.948441 l 0.822897,1.066529 0.03103,0.05965 c 0.746958,1.382816 0.971144,3.061347 0.671235,5.036799 l -0.360478,2.370479 -0.740847,2.727231 -1.449392,2.251145 -0.051,0.05968 -0.09934,0.118082 -0.0097,0.05968 -1.046627,0.948439 c -0.77349,0.592636 -1.586549,0.908934 -2.440092,0.948439 h -0.16405 -4.921196 l -1.080207,7.111434 h -3.28038 l 3.418355,-22.52016 z m 1.740257,4.740957 -1.078956,7.112674 h 4.962233 l 0.733391,-0.237415 0.431319,-0.415175 0.100785,-0.118082 0.621515,-1.126194 0.432592,-2.845321 c 0.101989,-0.671653 0.03464,-1.224859 -0.200132,-1.659458 h -0.04089 c -0.256106,-0.474107 -0.602994,-0.711017 -1.040445,-0.711017 z" /><g
       id="g29"
       transform="matrix(1,0,-0.15181843,1,-33.83986,-20.049889)"
       style="fill:#000000;fill-opacity:1;stroke:none"><g
         id="g27"
         transform="matrix(0.34098018,0,0,0.49274878,154.90948,83.391057)"
         style="fill:#000000;fill-opacity:1;stroke:none" /><g
         id="g28"
         transform="matrix(0.34098018,0,0,0.49274878,160.97981,83.240227)"
         style="fill:#000000;fill-opacity:1;stroke:none" /></g></g></svg>
