<svg width="64" height="64" xmlns="http://www.w3.org/2000/svg" xmlns:xlink="http://www.w3.org/1999/xlink">
  <defs/>
  <g>
    <path stroke="none" fill="#FFFFFF" d="M27.4 14.4 Q31.35 13.3 34.95 15.35 36.5 16.35 37.6 17.7 38.9 19.35 39.5 21.6 L43.65 37.25 Q44.65 41.25 42.6 44.85 40.65 48.6 36.55 49.65 32.65 50.8 29.1 48.65 25.5 46.6 24.45 42.55 L20.35 26.8 Q19.3 22.8 21.4 19.15 23.4 15.55 27.4 14.4 M33.4 17.9 Q30.9 16.55 28.2 17.3 L28.25 17.3 Q25.4 18.1 24.05 20.6 L24 20.65 Q22.5 23.25 23.25 26.05 L27.35 41.8 Q28.05 44.6 30.6 46.05 L30.65 46.1 Q33.05 47.55 35.7 46.8 L35.8 46.75 Q38.6 46.05 39.95 43.5 L40 43.4 Q41.45 40.8 40.75 38 L40.75 38.05 36.6 22.4 Q35.8 19.45 33.4 17.9"/>
  </g>
</svg>