<svg width="64" height="64" xmlns="http://www.w3.org/2000/svg" xmlns:xlink="http://www.w3.org/1999/xlink">
  <defs/>
  <g>
    <path stroke="none" fill="#FFFFFF" d="M56 20 L56 40 Q56 44.95 49 48.5 41.95 52 32 52 22.05 52 15.05 48.5 8 44.95 8 40 L8 20 Q8 12 16 12 L48 12 Q56 12 56 20 M21 23 L21 40 25 40 25 35 28 35 30.5 40 34.5 40 31.45 33.9 32.2 33.25 32.25 33.2 Q34 31.45 34 29 34 26.5 32.25 24.75 30.5 23 28 23 L21 23 M43 23 L39 23 36 26 36 27.95 39 27.95 39 32.85 39 32.95 39 40 43 40 43 23 M28 27 Q28.8 27 29.4 27.6 30 28.2 30 29 30 29.8 29.45 30.35 L29.35 30.45 Q28.8 31 28 31 L25 31 25 27 28 27"/>
  </g>
</svg>