<svg width="64" height="64" xmlns="http://www.w3.org/2000/svg" xmlns:xlink="http://www.w3.org/1999/xlink">
  <defs/>
  <g>
    <path stroke="none" fill="#FFFFFF" d="M41.5 16.8 L41.5 21.25 41.7 21.75 42.5 22 43.25 21.75 43.25 21.8 43.5 21.25 43.5 16.8 43.45 16.55 43.25 16.25 43.25 16.3 Q42.95 16 42.5 16 42.05 16 41.7 16.3 L41.75 16.2 41.55 16.55 41.5 16.8 M40.35 14.8 L40.4 14.75 Q41.25 14 42.5 14 43.65 14 44.55 14.75 L44.6 14.8 Q45.4 15.55 45.5 16.55 L45.5 16.8 45.5 21.25 Q45.5 22.35 44.6 23.25 L44.55 23.3 Q43.65 24 42.5 24 41.25 24 40.4 23.3 L40.35 23.2 Q39.5 22.35 39.5 21.25 L39.5 16.8 39.5 16.55 Q39.6 15.55 40.35 14.8 M51.5 19 Q51.9 19 52.2 19.3 L52.5 20 52.5 21.25 Q52.5 22.35 51.6 23.25 L51.55 23.3 Q50.65 24 49.5 24 48.25 24 47.4 23.3 L47.35 23.2 Q46.5 22.35 46.5 21.25 L46.5 16.8 46.5 16.55 Q46.6 15.55 47.35 14.8 L47.4 14.75 Q48.25 14 49.5 14 50.65 14 51.55 14.75 L51.6 14.8 Q52.4 15.55 52.5 16.55 L52.5 16.8 52.2 17.5 51.5 17.8 50.8 17.5 Q50.5 17.2 50.5 16.8 L50.45 16.55 50.25 16.25 50.25 16.3 Q49.95 16 49.5 16 49.05 16 48.7 16.3 L48.75 16.2 48.55 16.55 48.5 16.8 48.5 21.25 48.7 21.75 49.5 22 50.25 21.75 50.25 21.8 50.5 21.25 50.5 21 Q50.1 21 49.8 20.7 49.5 20.4 49.5 20 49.5 19.6 49.8 19.3 50.1 19 50.5 19 L51.5 19 M48.5 33 L48.5 47 Q48.5 48.25 47.65 49.15 46.75 50 45.5 50 L19.5 50 Q18.25 50 17.4 49.15 16.5 48.25 16.5 47 L16.5 33 Q16.5 31.75 17.4 30.9 18.25 30 19.5 30 L45.5 30 Q46.75 30 47.65 30.9 48.5 31.75 48.5 33 M13.5 16.8 L13.5 19 15.5 19 15.5 16.8 15.45 16.55 15.25 16.25 15.25 16.3 Q14.95 16 14.5 16 14.05 16 13.7 16.3 L13.75 16.2 13.55 16.55 13.5 16.8 M11.5 16.8 L11.5 16.55 Q11.6 15.55 12.35 14.8 L12.4 14.75 Q13.25 14 14.5 14 15.65 14 16.55 14.75 L16.6 14.8 Q17.4 15.55 17.5 16.55 L17.5 16.8 17.5 23 17.2 23.7 Q16.9 24 16.5 24 L15.8 23.7 15.5 23 15.5 21 13.5 21 13.5 23 13.2 23.7 12.5 24 Q12.1 24 11.8 23.7 11.5 23.4 11.5 23 L11.5 16.8 M32.5 15 Q32.5 14.6 32.8 14.3 33.1 14 33.5 14 33.9 14 34.2 14.3 L34.5 15 34.5 22 37.5 22 Q37.9 22 38.2 22.3 L38.5 23 38.2 23.7 Q37.9 24 37.5 24 L33.5 24 Q33.1 24 32.8 23.7 32.5 23.4 32.5 23 L32.5 15 M18.5 16.8 L18.5 16.55 Q18.6 15.55 19.35 14.8 L19.4 14.75 Q20.25 14 21.5 14 22.65 14 23.55 14.75 L23.6 14.8 Q24.4 15.55 24.5 16.55 L24.5 16.8 24.5 23 24.2 23.7 Q23.9 24 23.5 24 L22.8 23.7 Q22.5 23.4 22.5 23 L22.5 16.8 22.45 16.55 22.25 16.25 22.25 16.3 Q21.95 16 21.5 16 21.05 16 20.7 16.3 L20.75 16.2 20.55 16.55 20.5 16.8 20.5 23 20.2 23.7 Q19.9 24 19.5 24 L18.8 23.7 Q18.5 23.4 18.5 23 L18.5 16.8 M27.5 16.8 L27.5 19 29.5 19 29.5 16.8 29.45 16.55 29.25 16.25 29.25 16.3 Q28.95 16 28.5 16 28.05 16 27.7 16.3 L27.75 16.2 27.55 16.55 27.5 16.8 M25.5 16.8 L25.5 16.55 Q25.6 15.55 26.35 14.8 L26.4 14.75 Q27.25 14 28.5 14 29.65 14 30.55 14.75 L30.6 14.8 Q31.4 15.55 31.5 16.55 L31.5 16.8 31.5 23 31.2 23.7 30.5 24 29.8 23.7 Q29.5 23.4 29.5 23 L29.5 21 27.5 21 27.5 23 27.2 23.7 26.5 24 25.8 23.7 Q25.5 23.4 25.5 23 L25.5 16.8"/>
  </g>
</svg>