<svg width="64" height="64" xmlns="http://www.w3.org/2000/svg" xmlns:xlink="http://www.w3.org/1999/xlink">
  <defs/>
  <g>
    <path stroke="none" fill="#FFFFFF" d="M56 20 L56 40 Q56 44.95 49 48.5 41.95 52 32 52 22.05 52 15.05 48.5 8 44.95 8 40 L8 20 Q8 12 16 12 L48 12 Q56 12 56 20 M21 23 L28 23 Q30.5 23 32.25 24.75 34 26.5 34 29 34 31.45 32.25 33.2 L32.2 33.25 31.45 33.9 34.5 40 30.5 40 28 35 25 35 25 40 21 40 21 23 M11 20 L11 40 Q11.35 43.25 16.4 45.85 22.85 49 32 49 41.15 49 47.7 45.85 L47.65 45.85 Q52.7 43.25 53 40 L53 20 Q53 15 48 15 L16 15 Q11 15 11 20 M43 23 L43 40 39 40 39 32.95 39 32.85 39 27.95 36 27.95 36 26 39 23 43 23 M28 27 L25 27 25 31 28 31 Q28.8 31 29.35 30.45 L29.45 30.35 Q30 29.8 30 29 30 28.2 29.4 27.6 28.8 27 28 27"/>
  </g>
</svg>