<svg width="64" height="64" xmlns="http://www.w3.org/2000/svg" xmlns:xlink="http://www.w3.org/1999/xlink">
  <defs/>
  <g>
    <path stroke="none" fill="#FFFFFF" d="M56 32 Q56 42 48.95 48.95 42 56 32 56 22.05 56 15 48.95 8 42 8 32 8 22.05 15 15 L16.05 14 Q22.8 8 32 8 41.25 8 47.9 14 L48.95 15 Q56 22.05 56 32 M44 35.75 Q44.05 33.9 42.75 32.5 44.05 31.1 44 29.25 44.05 27.05 42.05 25.4 L42.1 25.5 Q40.4 24 38 24 35.6 24 33.9 25.45 32.05 26.95 32 29 L36.1 29 36.45 28.55 36.45 28.5 Q37.1 28 38 28 38.9 28 39.5 28.5 L39.55 28.55 Q39.95 28.85 40 29.25 L39.6 30 Q39 30.5 38.15 30.5 L36 30.5 36 34.5 38.15 34.5 38.7 34.55 Q39.2 34.65 39.6 35 L40 35.75 39.55 36.45 39.5 36.5 Q38.9 37 38 37 37.1 37 36.45 36.5 L36.45 36.45 36.1 36 32 36 Q32.05 38.05 33.9 39.55 35.6 41 38 41 40.4 41 42.1 39.5 L42.05 39.6 Q44.05 37.95 44 35.75 M20 24 L20 41 30 41 30 37 24 37 24 24 20 24"/>
  </g>
</svg>