<svg width="64" height="64" xmlns="http://www.w3.org/2000/svg" xmlns:xlink="http://www.w3.org/1999/xlink">
  <defs/>
  <g>
    <path stroke="none" fill="#FFFFFF" d="M11.75 38 Q8.1 37.9 8 34.25 L8 31.75 Q8.1 28.6 10.4 26.3 12.6 24.1 15.75 24 L48.25 24 Q51.4 24.1 53.7 26.3 55.9 28.6 56 31.7 L56 34.25 Q55.9 37.9 52.25 38 L46 38 46 52 Q46 55.85 42.25 56 L21.75 56 Q18 55.85 18 52 L18 38 11.75 38 M38 32 L36.9 32 Q35.25 32.05 34.2 33.15 33.4 33.95 33.15 35 L33 36 36 36 Q36 35.55 36.3 35.25 36.6 35 37 35 L38 35 38.7 35.25 39 36 38.75 36.65 38.65 36.75 38.2 37 37 37 37 40 38.2 40 Q38.45 40.05 38.7 40.25 L39 41 38.75 41.65 38.65 41.75 38 42 37 42 36.35 41.75 36.25 41.65 36 41 33 41 33.15 42 Q33.35 43 34.15 43.8 L34.2 43.85 Q35.3 44.95 36.9 45 L38 45 Q39.65 45 40.8 43.85 L40.85 43.8 Q42 42.65 42 41 42 39.55 41.15 38.5 42 37.45 42 36 42 34.35 40.8 33.15 39.7 32 38 32 M30.85 17.5 L24.45 10.85 Q24 10.35 24 9.65 24 8.95 24.45 8.5 24.9 8 25.6 8 L38.4 8 Q39.05 8 39.55 8.5 40 8.95 40 9.65 40 10.35 39.55 10.85 L33.15 17.5 Q32.65 18 32 18 31.3 18 30.85 17.5 M26.05 39 L25 39 25 35 26 35 Q26.85 35 27.4 35.55 28 36.15 28 37 28 37.85 27.4 38.4 26.85 39 26.05 39 M26 42 L27 41.9 27 42 28 45 31 45 29.5 40.5 Q31 39.05 31 37 31 34.95 29.5 33.45 28.05 32 26 32 L22 32 22 45 25 45 25 42 26 42"/>
  </g>
</svg>