<svg width="64" height="64" xmlns="http://www.w3.org/2000/svg" xmlns:xlink="http://www.w3.org/1999/xlink">
  <defs/>
  <g>
    <path stroke="none" fill="#FFFFFF" d="M48 30 Q48.25 37.4 52 43.6 56 50.15 56 51.6 56 53.45 54.55 54.75 53.25 56 51.2 56 L24 56 Q17.4 56 12.7 51.3 8 46.6 8 40 L8 16 Q8 12.7 10.35 10.35 12.7 8 16 8 L40 8 Q43.3 8 45.65 10.35 48 12.7 48 16 L48 30 M37.5 27.4 Q38.25 28.15 37 29.45 L30 36 30 40 34.85 40 34.95 40 42 40 42 36 36 36 40.45 31.55 Q42.65 29.35 41.4 26 L40.4 24.65 40.35 24.6 Q38.75 23 36.5 23 L34.85 23 Q32.9 23.05 31.5 24.4 L31.4 24.5 Q30.35 25.6 30.1 27 L30 28 34 28 Q34 27.6 34.3 27.3 34.55 27.05 34.85 27 L34.95 27 36.5 27 Q37.1 27 37.5 27.4 M22 27 Q22.8 27 23.4 27.6 24 28.2 24 29 24 29.8 23.45 30.35 L23.35 30.45 Q22.8 31 22 31 L19 31 19 27 22 27 M15 23 L15 40 19 40 19 35 22 35 24.5 40 28.5 40 25.45 33.9 26.2 33.25 26.25 33.2 Q28 31.45 28 29 28 26.5 26.25 24.75 24.5 23 22 23 L15 23"/>
  </g>
</svg>