<svg width="64" height="64" xmlns="http://www.w3.org/2000/svg" xmlns:xlink="http://www.w3.org/1999/xlink">
  <defs/>
  <g>
    <path stroke="none" fill="#FFFFFF" d="M16 49 L48 49 Q53 49 53 44 L53 24 Q52.7 20.75 47.65 18.2 L47.7 18.2 Q41.15 15 32 15 22.85 15 16.4 18.2 11.35 20.75 11 24 L11 44 Q11 49 16 49 M40.5 28.4 Q40.1 28 39.5 28 L37.95 28 37.85 28 Q37.55 28.05 37.3 28.3 37 28.6 37 29 L33 29 33.1 28 Q33.35 26.6 34.4 25.5 L34.5 25.4 Q35.9 24.05 37.85 24 L39.5 24 Q41.75 24 43.35 25.6 L43.4 25.65 44.4 27 Q45.65 30.35 43.45 32.55 L39 37 45 37 45 41 37.95 41 37.85 41 33 41 33 37 40 30.45 Q41.25 29.15 40.5 28.4 M56 44 Q56 52 48 52 L16 52 Q8 52 8 44 L8 24 Q8 19.05 15.05 15.5 22.05 12 32 12 41.95 12 49 15.5 56 19.05 56 24 L56 44 M19 24 L23 24 23 37 31 37 31 41 19 41 19 24"/>
  </g>
</svg>