<svg width="64" height="64" xmlns="http://www.w3.org/2000/svg" xmlns:xlink="http://www.w3.org/1999/xlink">
  <defs/>
  <g>
    <path stroke="none" fill="#FFFFFF" d="M19 24 L19 41 31 41 31 37 23 37 23 24 19 24 M56 44 Q56 52 48 52 L16 52 Q8 52 8 44 L8 24 Q8 19.05 15.05 15.5 22.05 12 32 12 41.95 12 49 15.5 56 19.05 56 24 L56 44 M40.5 28.4 Q41.25 29.15 40 30.45 L33 37 33 41 37.85 41 37.95 41 45 41 45 37 39 37 43.45 32.55 Q45.65 30.35 44.4 27 L43.4 25.65 43.35 25.6 Q41.75 24 39.5 24 L37.85 24 Q35.9 24.05 34.5 25.4 L34.4 25.5 Q33.35 26.6 33.1 28 L33 29 37 29 Q37 28.6 37.3 28.3 37.55 28.05 37.85 28 L37.95 28 39.5 28 Q40.1 28 40.5 28.4"/>
  </g>
</svg>