<svg width="64" height="64" xmlns="http://www.w3.org/2000/svg" xmlns:xlink="http://www.w3.org/1999/xlink">
  <defs/>
  <g>
    <path stroke="none" fill="#FFFFFF" d="M42 25 L38 25 35 28 35 29.95 38 29.95 38 34.85 38 34.95 38 42 42 42 42 25 M12 30 Q12 21.7 17.8 15.8 20.2 13.45 22.95 12.1 27.05 10 32 10 40.25 10 46.1 15.8 49.85 19.55 51.25 24.3 L51.8 26.9 52 29.6 52 46 52 46.45 Q51.85 49.15 50.1 51.2 L49.65 51.65 49.45 51.85 Q48 53.2 46.25 53.7 L44 54 20 54 Q16.7 54 14.35 51.65 12 49.3 12 46 L12 30 M22 25 L22 42 34 42 34 38 26 38 26 25 22 25"/>
  </g>
</svg>