<svg width="64" height="64" xmlns="http://www.w3.org/2000/svg" xmlns:xlink="http://www.w3.org/1999/xlink">
  <defs/>
  <g>
    <path stroke="none" fill="#FFFFFF" d="M21 25 L21 42 25 42 25 37 28 37 30.5 42 34.5 42 31.45 35.9 32.2 35.25 32.25 35.2 33.2 34 Q34 32.65 34 31 34 28.5 32.25 26.75 L31.35 26 Q29.9 25 28 25 L21 25 M43 25 L39 25 36 28 36 29.95 39 29.95 39 34.85 39 34.95 39 42 43 42 43 25 M12 30 Q12 21.7 17.8 15.8 23.7 10 32 10 40.25 10 46.1 15.8 49.85 19.55 51.25 24.3 L51.8 26.9 52 29.6 52 46 52 46.45 Q51.85 49.15 50.1 51.2 L49.65 51.65 49.45 51.85 Q48 53.2 46.25 53.7 L44 54 20 54 Q16.85 54 14.55 51.85 L14.35 51.65 Q12 49.3 12 46 L12 30 M28 29 Q28.8 29 29.4 29.6 30 30.2 30 31 30 31.8 29.45 32.35 L29.35 32.45 Q28.8 33 28 33 L25 33 25 29 28 29"/>
  </g>
</svg>