<svg width="64" height="64" xmlns="http://www.w3.org/2000/svg" xmlns:xlink="http://www.w3.org/1999/xlink">
  <defs/>
  <g>
    <path stroke="none" fill="#FFFFFF" d="M50 32 Q50 31.15 49.4 30.55 48.85 30 48 30 47.15 30 46.55 30.55 46 31.15 46 32 46 32.85 46.55 33.4 47.15 34 48 34 48.85 34 49.4 33.4 50 32.85 50 32 M50 24 Q50 23.15 49.4 22.55 48.85 22 48 22 47.15 22 46.55 22.55 46 23.15 46 24 46 24.85 46.55 25.4 47.15 26 48 26 48.85 26 49.4 25.4 50 24.85 50 24 M42 32 Q42 31.15 41.4 30.55 40.85 30 40 30 39.15 30 38.55 30.55 38 31.15 38 32 38 32.85 38.55 33.4 39.15 34 40 34 40.85 34 41.4 33.4 42 32.85 42 32 M34 32 Q34 31.15 33.4 30.55 32.85 30 32 30 31.15 30 30.55 30.55 30 31.15 30 32 30 32.85 30.55 33.4 31.15 34 32 34 32.85 34 33.4 33.4 34 32.85 34 32 M34 24 Q34 23.15 33.4 22.55 32.85 22 32 22 31.15 22 30.55 22.55 30 23.15 30 24 30 24.85 30.55 25.4 31.15 26 32 26 32.85 26 33.4 25.4 34 24.85 34 24 M42 24 Q42 23.15 41.4 22.55 40.85 22 40 22 39.15 22 38.55 22.55 38 23.15 38 24 38 24.85 38.55 25.4 39.15 26 40 26 40.85 26 41.4 25.4 42 24.85 42 24 M16 16 L48 16 Q56 16 56 24 L56 40 Q56 48 48 48 L16 48 Q8 48 8 40 L8 24 Q8 16 16 16 M18 40 Q18 39.15 17.4 38.55 16.85 38 16 38 15.15 38 14.55 38.55 14 39.15 14 40 14 40.85 14.55 41.4 15.15 42 16 42 16.85 42 17.4 41.4 18 40.85 18 40 M26 40 Q26 39.15 25.4 38.55 24.85 38 24 38 23.15 38 22.55 38.55 22 39.15 22 40 22 40.85 22.55 41.4 23.15 42 24 42 24.85 42 25.4 41.4 26 40.85 26 40 M26 32 Q26 31.15 25.4 30.55 24.85 30 24 30 23.15 30 22.55 30.55 22 31.15 22 32 22 32.85 22.55 33.4 23.15 34 24 34 24.85 34 25.4 33.4 26 32.85 26 32 M26 24 Q26 23.15 25.4 22.55 24.85 22 24 22 23.15 22 22.55 22.55 22 23.15 22 24 22 24.85 22.55 25.4 23.15 26 24 26 24.85 26 25.4 25.4 26 24.85 26 24 M18 32 Q18 31.15 17.4 30.55 16.85 30 16 30 15.15 30 14.55 30.55 14 31.15 14 32 14 32.85 14.55 33.4 15.15 34 16 34 16.85 34 17.4 33.4 18 32.85 18 32 M18 24 Q18 23.15 17.4 22.55 16.85 22 16 22 15.15 22 14.55 22.55 14 23.15 14 24 14 24.85 14.55 25.4 15.15 26 16 26 16.85 26 17.4 25.4 18 24.85 18 24 M42 40 Q42 39.15 41.4 38.55 40.85 38 40 38 39.15 38 38.55 38.55 38 39.15 38 40 38 40.85 38.55 41.4 39.15 42 40 42 40.85 42 41.4 41.4 42 40.85 42 40 M34 40 Q34 39.15 33.4 38.55 32.85 38 32 38 31.15 38 30.55 38.55 30 39.15 30 40 30 40.85 30.55 41.4 31.15 42 32 42 32.85 42 33.4 41.4 34 40.85 34 40 M50 40 Q50 39.15 49.4 38.55 48.85 38 48 38 47.15 38 46.55 38.55 46 39.15 46 40 46 40.85 46.55 41.4 47.15 42 48 42 48.85 42 49.4 41.4 50 40.85 50 40"/>
  </g>
</svg>