<svg width="64" height="64" xmlns="http://www.w3.org/2000/svg" xmlns:xlink="http://www.w3.org/1999/xlink">
  <defs/>
  <g>
    <path stroke="none" fill="#FFFFFF" d="M56 32 Q56 42 48.95 48.95 42 56 32 56 22.05 56 15 48.95 8 42 8 32 8 22.05 15 15 L16.05 14 Q22.8 8 32 8 41.25 8 47.9 14 L48.95 15 Q56 22.05 56 32 M46 35.75 Q46.05 33.9 44.75 32.5 46.05 31.1 46 29.25 46.05 27.05 44.05 25.4 L44.1 25.5 Q42.4 24 40 24 37.6 24 35.9 25.45 34.05 26.95 34 29 L38.1 29 38.45 28.55 38.45 28.5 Q39.1 28 40 28 40.9 28 41.5 28.5 L41.55 28.55 42 29.25 41.6 30 Q41 30.5 40.15 30.5 L38 30.5 38 34.5 40.15 34.5 40.7 34.55 Q41.2 34.65 41.6 35 41.95 35.3 42 35.75 L41.55 36.45 41.5 36.5 Q40.9 37 40 37 39.1 37 38.45 36.5 L38.45 36.45 38.1 36 34 36 Q34.05 38.05 35.9 39.55 37.6 41 40 41 42.4 41 44.1 39.5 L44.05 39.6 Q46.05 37.95 46 35.75 M25 28 Q25.8 28 26.4 28.6 27 29.2 27 30 27 30.8 26.45 31.35 L26.35 31.45 Q25.8 32 25 32 L23 32 23 28 25 28 M23 41 L23 36 25 36 27.5 41 31.5 41 28.45 34.9 29.2 34.25 29.25 34.2 Q31 32.45 31 30 31 27.5 29.25 25.75 27.5 24 25 24 L19 24 19 41 23 41"/>
  </g>
</svg>