<svg width="64" height="64" xmlns="http://www.w3.org/2000/svg" xmlns:xlink="http://www.w3.org/1999/xlink">
  <defs/>
  <g>
    <path stroke="none" fill="#FFFFFF" d="M42 25 L42 42 38 42 38 34.95 38 34.85 38 29.95 35 29.95 35 28 38 25 42 25 M49 46 L49 29.6 48.85 27.35 48.35 25.1 48.4 25.15 Q47.15 21.1 44 17.95 39 13 32 13 26.95 13 22.95 15.55 21.35 16.5 19.95 17.9 L19.9 17.95 Q15 22.95 15 30 L15 46 Q15 48.05 16.5 49.55 17.95 51 20 51 L44 51 45.45 50.85 Q46.6 50.45 47.55 49.55 L47.95 49.15 Q48.9 47.9 49 46.3 L49 46 M12 30 Q12 21.7 17.8 15.8 20.2 13.45 22.95 12.1 27.05 10 32 10 40.25 10 46.1 15.8 49.85 19.55 51.25 24.3 L51.8 26.9 52 29.6 52 46 52 46.45 Q51.85 49.15 50.1 51.2 L49.65 51.65 49.45 51.85 Q48 53.2 46.25 53.7 L44 54 20 54 Q16.7 54 14.35 51.65 12 49.3 12 46 L12 30 M22 25 L26 25 26 38 34 38 34 42 22 42 22 25"/>
  </g>
</svg>