<svg width="64" height="64" xmlns="http://www.w3.org/2000/svg" xmlns:xlink="http://www.w3.org/1999/xlink">
  <defs/>
  <g>
    <path stroke="none" fill="#FFFFFF" d="M56 32 Q56 42 48.95 48.95 42 56 32 56 22.05 56 15 48.95 8 42 8 32 8 22.05 15 15 L16.05 14 Q22.8 8 32 8 41.25 8 47.9 14 L48.95 15 Q56 22.05 56 32 M23 41 L19 41 19 24 25 24 Q27.5 24 29.25 25.75 31 27.5 31 30 31 32.45 29.25 34.2 L29.2 34.25 28.45 34.9 31.5 41 27.5 41 25 36 23 36 23 41 M25 28 L23 28 23 32 25 32 Q25.8 32 26.35 31.45 L26.45 31.35 Q27 30.8 27 30 27 29.2 26.4 28.6 25.8 28 25 28 M46 35.75 Q46.05 37.95 44.05 39.6 L44.1 39.5 Q42.4 41 40 41 37.6 41 35.9 39.55 34.05 38.05 34 36 L38.1 36 38.45 36.45 38.45 36.5 Q39.1 37 40 37 40.9 37 41.5 36.5 L41.55 36.45 42 35.75 Q41.95 35.3 41.6 35 41.2 34.65 40.7 34.55 L40.15 34.5 38 34.5 38 30.5 40.15 30.5 Q41 30.5 41.6 30 L42 29.25 41.55 28.55 41.5 28.5 Q40.9 28 40 28 39.1 28 38.45 28.5 L38.45 28.55 38.1 29 34 29 Q34.05 26.95 35.9 25.45 37.6 24 40 24 42.4 24 44.1 25.5 L44.05 25.4 Q46.05 27.05 46 29.25 46.05 31.1 44.75 32.5 46.05 33.9 46 35.75 M32 12 Q27.15 12 23.15 14 20.3 15.4 17.85 17.85 12 23.7 12 32 12 40.3 17.85 46.1 L17.85 46.15 Q23.7 52 32 52 40.3 52 46.1 46.15 L46.15 46.1 Q52 40.3 52 32 52 23.7 46.15 17.85 L46.1 17.85 Q43.7 15.4 40.85 14 36.85 12 32 12"/>
  </g>
</svg>