<svg width="64" height="64" xmlns="http://www.w3.org/2000/svg" xmlns:xlink="http://www.w3.org/1999/xlink">
  <defs/>
  <g>
    <path stroke="none" fill="#FFFFFF" d="M37.7 26.35 Q40 28.65 40 32 40 35.35 37.7 37.7 35.35 40 32 40 28.7 40 26.4 37.7 L26.35 37.65 Q24 35.3 24 32 24 28.7 26.35 26.35 L26.4 26.35 Q28.7 24 32 24 35.35 24 37.7 26.35 M44 32 Q44 27 40.5 23.5 37 20 32 20 27.05 20 23.55 23.5 20 27 20 32 20 37 23.55 40.5 27.05 44 32 44 37 44 40.5 40.5 44 37 44 32 M56 32 Q56 42 48.95 48.95 42 56 32 56 22.05 56 15 48.95 8 42 8 32 8 22.05 15 15 22.05 8 32 8 42 8 48.95 15 56 22.05 56 32"/>
  </g>
</svg>