<svg width="64" height="64" xmlns="http://www.w3.org/2000/svg" xmlns:xlink="http://www.w3.org/1999/xlink">
  <defs/>
  <g>
    <path stroke="none" fill="#FFFFFF" d="M48 30 Q48.25 37.4 52 43.6 56 50.15 56 51.6 56 53.45 54.55 54.75 53.25 56 51.2 56 L24 56 Q17.4 56 12.7 51.3 8 46.6 8 40 L8 16 Q8 12.7 10.35 10.35 12.7 8 16 8 L40 8 Q43.3 8 45.65 10.35 48 12.7 48 16 L48 30 M49.45 45.2 L49.45 45.15 Q45.3 38.3 45 30.1 L45 30 45 16 Q45 13.95 43.55 12.5 42.05 11 40 11 L16 11 Q13.95 11 12.5 12.5 11 13.95 11 16 L11 40 Q11 45.35 14.85 49.2 18.65 53 24 53 L51.2 53 Q51.95 53 52.5 52.6 L52.55 52.55 53 51.6 Q52.75 50.55 49.45 45.2 M37.5 27.4 Q37.1 27 36.5 27 L34.95 27 34.85 27 Q34.55 27.05 34.3 27.3 34 27.6 34 28 L30 28 30.1 27 Q30.35 25.6 31.4 24.5 L31.5 24.4 Q32.9 23.05 34.85 23 L36.5 23 Q38.75 23 40.35 24.6 L40.4 24.65 41.4 26 Q42.65 29.35 40.45 31.55 L36 36 42 36 42 40 34.95 40 34.85 40 30 40 30 36 37 29.45 Q38.25 28.15 37.5 27.4 M15 23 L22 23 Q24.5 23 26.25 24.75 28 26.5 28 29 28 31.45 26.25 33.2 L26.2 33.25 25.45 33.9 28.5 40 24.5 40 22 35 19 35 19 40 15 40 15 23 M22 27 L19 27 19 31 22 31 Q22.8 31 23.35 30.45 L23.45 30.35 Q24 29.8 24 29 24 28.2 23.4 27.6 22.8 27 22 27"/>
  </g>
</svg>