<svg width="64" height="64" xmlns="http://www.w3.org/2000/svg" xmlns:xlink="http://www.w3.org/1999/xlink">
  <defs/>
  <g>
    <path stroke="none" fill="#FFFFFF" d="M42 24 Q42 24.85 41.4 25.4 40.85 26 40 26 39.15 26 38.55 25.4 38 24.85 38 24 38 23.15 38.55 22.55 39.15 22 40 22 40.85 22 41.4 22.55 42 23.15 42 24 M34 24 Q34 24.85 33.4 25.4 32.85 26 32 26 31.15 26 30.55 25.4 30 24.85 30 24 30 23.15 30.55 22.55 31.15 22 32 22 32.85 22 33.4 22.55 34 23.15 34 24 M34 32 Q34 32.85 33.4 33.4 32.85 34 32 34 31.15 34 30.55 33.4 30 32.85 30 32 30 31.15 30.55 30.55 31.15 30 32 30 32.85 30 33.4 30.55 34 31.15 34 32 M42 32 Q42 32.85 41.4 33.4 40.85 34 40 34 39.15 34 38.55 33.4 38 32.85 38 32 38 31.15 38.55 30.55 39.15 30 40 30 40.85 30 41.4 30.55 42 31.15 42 32 M50 24 Q50 24.85 49.4 25.4 48.85 26 48 26 47.15 26 46.55 25.4 46 24.85 46 24 46 23.15 46.55 22.55 47.15 22 48 22 48.85 22 49.4 22.55 50 23.15 50 24 M50 32 Q50 32.85 49.4 33.4 48.85 34 48 34 47.15 34 46.55 33.4 46 32.85 46 32 46 31.15 46.55 30.55 47.15 30 48 30 48.85 30 49.4 30.55 50 31.15 50 32 M11 40 Q11 45 16 45 L48 45 Q53 45 53 40 L53 24 Q53 19 48 19 L16 19 Q11 19 11 24 L11 40 M16 16 L48 16 Q56 16 56 24 L56 40 Q56 48 48 48 L16 48 Q8 48 8 40 L8 24 Q8 16 16 16 M50 40 Q50 40.85 49.4 41.4 48.85 42 48 42 47.15 42 46.55 41.4 46 40.85 46 40 46 39.15 46.55 38.55 47.15 38 48 38 48.85 38 49.4 38.55 50 39.15 50 40 M34 40 Q34 40.85 33.4 41.4 32.85 42 32 42 31.15 42 30.55 41.4 30 40.85 30 40 30 39.15 30.55 38.55 31.15 38 32 38 32.85 38 33.4 38.55 34 39.15 34 40 M42 40 Q42 40.85 41.4 41.4 40.85 42 40 42 39.15 42 38.55 41.4 38 40.85 38 40 38 39.15 38.55 38.55 39.15 38 40 38 40.85 38 41.4 38.55 42 39.15 42 40 M18 24 Q18 24.85 17.4 25.4 16.85 26 16 26 15.15 26 14.55 25.4 14 24.85 14 24 14 23.15 14.55 22.55 15.15 22 16 22 16.85 22 17.4 22.55 18 23.15 18 24 M18 32 Q18 32.85 17.4 33.4 16.85 34 16 34 15.15 34 14.55 33.4 14 32.85 14 32 14 31.15 14.55 30.55 15.15 30 16 30 16.85 30 17.4 30.55 18 31.15 18 32 M26 24 Q26 24.85 25.4 25.4 24.85 26 24 26 23.15 26 22.55 25.4 22 24.85 22 24 22 23.15 22.55 22.55 23.15 22 24 22 24.85 22 25.4 22.55 26 23.15 26 24 M26 32 Q26 32.85 25.4 33.4 24.85 34 24 34 23.15 34 22.55 33.4 22 32.85 22 32 22 31.15 22.55 30.55 23.15 30 24 30 24.85 30 25.4 30.55 26 31.15 26 32 M26 40 Q26 40.85 25.4 41.4 24.85 42 24 42 23.15 42 22.55 41.4 22 40.85 22 40 22 39.15 22.55 38.55 23.15 38 24 38 24.85 38 25.4 38.55 26 39.15 26 40 M18 40 Q18 40.85 17.4 41.4 16.85 42 16 42 15.15 42 14.55 41.4 14 40.85 14 40 14 39.15 14.55 38.55 15.15 38 16 38 16.85 38 17.4 38.55 18 39.15 18 40"/>
  </g>
</svg>