<svg width="64" height="64" xmlns="http://www.w3.org/2000/svg" xmlns:xlink="http://www.w3.org/1999/xlink">
  <defs/>
  <g>
    <path stroke="none" fill="#FFFFFF" d="M44.6 23.25 L44.55 23.3 Q43.65 24 42.5 24 41.25 24 40.4 23.3 L40.35 23.2 Q39.5 22.35 39.5 21.25 L39.5 16.8 Q39.5 15.65 40.35 14.8 L40.4 14.75 Q41.25 14 42.5 14 43.65 14 44.55 14.75 L44.6 14.8 Q45.5 15.65 45.5 16.8 L45.2 17.5 Q44.9 17.8 44.5 17.8 L43.8 17.5 Q43.5 17.2 43.5 16.8 L43.25 16.25 43.25 16.3 Q42.95 16 42.5 16 42.05 16 41.7 16.3 L41.75 16.2 Q41.5 16.45 41.5 16.8 L41.5 21.25 41.7 21.75 42.5 22 43.25 21.75 43.25 21.8 43.5 21.25 Q43.5 20.85 43.8 20.55 44.1 20.25 44.5 20.25 44.9 20.25 45.2 20.55 L45.5 21.25 Q45.5 22.35 44.6 23.25 M47.5 16 L46.8 15.7 Q46.5 15.4 46.5 15 46.5 14.6 46.8 14.3 47.1 14 47.5 14 L51.5 14 Q51.9 14 52.2 14.3 L52.5 15 52.2 15.7 51.5 16 50.5 16 50.5 23 50.2 23.7 Q49.9 24 49.5 24 L48.8 23.7 Q48.5 23.4 48.5 23 L48.5 16 47.5 16 M48.5 33 L48.5 47 Q48.5 48.25 47.65 49.15 46.75 50 45.5 50 L19.5 50 Q18.25 50 17.4 49.15 16.5 48.25 16.5 47 L16.5 33 Q16.5 31.75 17.4 30.9 18.25 30 19.5 30 L45.5 30 Q46.75 30 47.65 30.9 48.5 31.75 48.5 33 M14.5 16 Q14.1 16 13.8 16.3 13.5 16.6 13.5 17 13.5 17.4 13.8 17.7 L14.45 18 14.55 18 Q15.7 18 16.6 18.9 17.5 19.8 17.5 21 17.5 22.2 16.6 23.1 15.7 24 14.5 24 L12.5 24 Q12.1 24 11.8 23.7 11.5 23.4 11.5 23 11.5 22.6 11.8 22.3 12.1 22 12.5 22 L14.5 22 15.2 21.7 15.5 21 15.2 20.3 Q14.9 20 14.55 20 L14.45 20 Q13.3 20 12.4 19.1 11.5 18.2 11.5 17 11.5 15.8 12.4 14.9 13.3 14 14.5 14 L16.5 14 Q16.9 14 17.2 14.3 L17.5 15 17.2 15.7 Q16.9 16 16.5 16 L14.5 16 M37.5 14 Q37.9 14 38.2 14.3 L38.5 15 38.2 15.7 Q37.9 16 37.5 16 L34.5 16 34.5 18 37.5 18 Q37.9 18 38.2 18.3 L38.5 19 38.2 19.7 Q37.9 20 37.5 20 L34.5 20 34.5 22 37.5 22 Q37.9 22 38.2 22.3 L38.5 23 38.2 23.7 Q37.9 24 37.5 24 L33.5 24 Q33.1 24 32.8 23.7 32.5 23.4 32.5 23 L32.5 15 Q32.5 14.6 32.8 14.3 33.1 14 33.5 14 L37.5 14 M23.5 14 Q23.9 14 24.2 14.3 L24.5 15 24.2 15.7 Q23.9 16 23.5 16 L20.5 16 20.5 18 23.5 18 Q23.9 18 24.2 18.3 L24.5 19 24.2 19.7 Q23.9 20 23.5 20 L20.5 20 20.5 22 23.5 22 Q23.9 22 24.2 22.3 L24.5 23 24.2 23.7 Q23.9 24 23.5 24 L19.5 24 18.8 23.7 Q18.5 23.4 18.5 23 L18.5 15 Q18.5 14.6 18.8 14.3 19.1 14 19.5 14 L23.5 14 M25.5 15 Q25.5 14.6 25.8 14.3 26.1 14 26.5 14 26.9 14 27.2 14.3 L27.5 15 27.5 22 30.5 22 Q30.9 22 31.2 22.3 L31.5 23 31.2 23.7 30.5 24 26.5 24 25.8 23.7 Q25.5 23.4 25.5 23 L25.5 15 M19.5 47 L45.5 47 45.5 33 19.5 33 19.5 47"/>
  </g>
</svg>