<svg width="64" height="64" xmlns="http://www.w3.org/2000/svg" xmlns:xlink="http://www.w3.org/1999/xlink">
  <defs/>
  <g>
    <path stroke="none" fill="#FFFFFF" d="M28.15 26.25 Q31.45 25.35 34.45 27.05 37.35 28.85 38.25 32.25 L41.7 45.3 Q42.55 48.65 40.85 51.65 39.2 54.75 35.8 55.65 32.55 56.6 29.6 54.8 26.6 53.1 25.7 49.7 L22.3 36.6 Q21.4 33.25 23.15 30.2 24.85 27.2 28.15 26.25 M25.75 31.7 Q24.6 33.65 25.2 35.85 L28.6 48.95 Q29.15 51.1 31.1 52.2 L31.2 52.25 Q32.95 53.35 34.95 52.8 L35.05 52.75 Q37.15 52.2 38.2 50.25 L38.25 50.2 Q39.35 48.25 38.8 46.1 L35.35 33.05 Q34.75 30.8 32.9 29.6 31 28.6 28.95 29.15 L29 29.15 Q26.85 29.75 25.75 31.7 M38.1 14.55 Q38.3 14.2 38.7 14.05 L39.45 14.1 39.95 14.7 39.9 15.45 36.9 21.45 36.35 21.95 35.55 21.9 35.05 21.35 Q34.9 20.95 35.1 20.55 L38.1 14.55 M18.1 15.45 Q17.9 15.05 18.05 14.7 L18.55 14.1 19.35 14.05 19.9 14.55 22.9 20.55 22.95 21.35 22.45 21.9 21.7 21.95 Q21.3 21.8 21.1 21.45 L18.1 15.45 M28 12 Q28 11.6 28.3 11.3 28.6 11 29 11 L29.7 11.3 30 12 30 20 29.7 20.7 29 21 Q28.6 21 28.3 20.7 28 20.4 28 20 L28 12"/>
  </g>
</svg>