<svg width="64" height="64" xmlns="http://www.w3.org/2000/svg" xmlns:xlink="http://www.w3.org/1999/xlink">
  <defs/>
  <g>
    <path stroke="none" fill="#FFFFFF" d="M28 19 L27.7 19.7 Q27.4 20 27 20 L26.3 19.7 26 19 26 16 24 16 24 19 23.7 19.7 23 20 Q22.6 20 22.3 19.7 22 19.4 22 19 L22 11 Q22 10.6 22.3 10.3 22.6 10 23 10 23.4 10 23.7 10.3 L24 11 24 14 26 14 26 11 Q26 10.6 26.3 10.3 26.6 10 27 10 27.4 10 27.7 10.3 L28 11 28 19 M18 12 Q17.6 12 17.3 12.3 17 12.6 17 13 17 13.4 17.3 13.7 17.6 14 17.95 14 L18.05 14 Q19.2 14 20.1 14.9 21 15.8 21 17 21 18.2 20.1 19.1 19.2 20 18 20 L16 20 15.3 19.7 Q15 19.4 15 19 15 18.6 15.3 18.3 15.6 18 16 18 L18 18 Q18.4 18 18.7 17.7 L19 17 18.7 16.3 Q18.4 16 18.05 16 L17.95 16 Q16.8 16 15.9 15.1 15 14.2 15 13 15 11.8 15.9 10.9 16.8 10 18 10 L20 10 Q20.4 10 20.7 10.3 L21 11 20.7 11.7 20 12 18 12 M39.1 14 L39.45 13.9 39.7 13.7 39.75 13.7 40 13 39.7 12.25 Q39.45 12 39.05 12 L38 12 38 14 39.1 14 M29 12.8 Q29 11.65 29.85 10.8 L29.9 10.75 Q30.75 10 32 10 33.15 10 34.05 10.75 L34.1 10.8 Q35 11.65 35 12.8 L35 19 34.7 19.7 Q34.4 20 34 20 L33.3 19.7 Q33 19.4 33 19 L33 17 31 17 31 19 30.7 19.7 Q30.4 20 30 20 L29.3 19.7 Q29 19.4 29 19 L29 12.8 M31 12.8 L31 15 33 15 33 12.8 32.75 12.25 32.75 12.3 Q32.45 12 32 12 31.55 12 31.2 12.3 L31.25 12.2 Q31 12.45 31 12.8 M41.1 15.1 L41.1 15.15 40.45 15.65 41.9 18.55 41.95 19.35 41.45 19.9 40.7 19.95 Q40.3 19.8 40.1 19.45 L38.4 16 38 16 38 19 37.7 19.7 37 20 36.3 19.7 Q36 19.4 36 19 L36 11 Q36 10.6 36.3 10.3 36.6 10 37 10 L39.05 10 Q40.25 10 41.1 10.85 42 11.75 42 13 42 14.25 41.1 15.1 M43 11 Q43 10.6 43.3 10.3 43.6 10 44 10 L48 10 Q48.4 10 48.7 10.3 L49 11 48.7 11.7 Q48.4 12 48 12 L45 12 45 14 48 14 Q48.4 14 48.7 14.3 L49 15 48.7 15.7 Q48.4 16 48 16 L45 16 45 18 48 18 Q48.4 18 48.7 18.3 L49 19 48.7 19.7 Q48.4 20 48 20 L44 20 Q43.6 20 43.3 19.7 43 19.4 43 19 L43 11 M32 26 Q35.3 26 37.65 28.35 40 30.7 40 34 L40 46 Q40 49.3 37.65 51.65 35.3 54 32 54 28.7 54 26.35 51.65 24 49.3 24 46 L24 34 Q24 30.7 26.35 28.35 28.7 26 32 26 M28.5 30.5 Q27 31.95 27 34 L27 46 Q27 48.05 28.5 49.55 29.95 51 32 51 34.05 51 35.55 49.55 37 48.05 37 46 L37 34 Q37 31.95 35.55 30.5 34.05 29 32 29 29.95 29 28.5 30.5"/>
  </g>
</svg>