<svg width="64" height="64" xmlns="http://www.w3.org/2000/svg" xmlns:xlink="http://www.w3.org/1999/xlink">
  <defs/>
  <g>
    <path stroke="none" fill="#FFFFFF" d="M35.85 26.25 Q39.15 27.2 40.85 30.2 42.6 33.25 41.7 36.6 L38.3 49.7 Q37.4 53.1 34.4 54.8 31.45 56.6 28.2 55.65 24.8 54.75 23.15 51.65 21.45 48.65 22.3 45.3 L25.75 32.25 Q26.65 28.85 29.55 27.05 32.55 25.35 35.85 26.25 M28 10 L40 10 40 12 28 12 28 10 M28 14 L40 14 40 16 28 16 28 14 M28 18 L40 18 40 20 28 20 28 18 M35.05 29.15 Q33 28.6 31.15 29.6 29.25 30.8 28.65 33.05 L25.2 46.1 Q24.65 48.25 25.75 50.2 L25.8 50.25 Q26.85 52.2 29 52.75 L29.05 52.8 Q31.05 53.35 32.85 52.25 L32.95 52.2 Q34.85 51.1 35.4 48.95 L38.8 35.85 Q39.4 33.65 38.25 31.7 37.15 29.75 35.05 29.15"/>
  </g>
</svg>