<svg width="64" height="64" xmlns="http://www.w3.org/2000/svg" xmlns:xlink="http://www.w3.org/1999/xlink">
  <defs/>
  <g>
    <path stroke="none" fill="#FFFFFF" d="M16 26.05 Q16.25 22 19.85 19 L19.95 18.9 Q25 15 32 15 39.15 15 44.2 19 L44.15 19 Q47.7 22 48 25.95 L48 26.05 Q47.7 30 44.2 32.9 L44 33.05 Q39.05 37 32 37 24.85 37 19.8 32.95 L19.7 32.9 Q16.3 30 16 26.1 L16 26.05 M14.95 35.3 Q16 36.55 17.4 37.65 23.45 42.5 32 42.5 40.55 42.5 46.55 37.7 L46.6 37.65 Q51.9 33.4 52 27.4 51.85 21.4 46.55 17.1 40.55 12.3 32 12.3 23.45 12.3 17.4 17.1 L17.45 17.1 15.9 18.55 Q15.6 17.3 14.6 16.3 13.95 15.65 13.15 15.35 L15 13.65 Q22.05 8 32 8 42 8 48.95 13.65 56 19.4 56 27.4 L56 27.95 56 28.1 56 28.5 56 29 56 29.55 56 30.1 56 30.65 Q56 38.7 48.95 44.3 46.2 46.55 43 47.9 L43 50 Q43 52.5 39.75 54.25 36.55 56 32 56 27.5 56 24.25 54.25 21 52.5 21 50 L21 47.9 Q17.8 46.55 15 44.3 10.65 40.8 9 36.4 10.05 37 11.35 37 13.25 37 14.5 35.75 L14.95 35.3 M31 30 L31 20 28 20 28 33 37 33 37 30 31 30 M3.5 27.15 Q3 26.7 3 26 3 25.35 3.5 24.85 L10.15 18.45 Q10.45 18.15 10.9 18.05 L11.35 18 Q12.05 18 12.5 18.45 13 18.95 13 19.6 L13 32.4 Q13 33.1 12.5 33.55 L11.35 34 Q10.65 34 10.15 33.55 L3.5 27.15"/>
    <path stroke="none" fill="#FFFFFF" fill-opacity="0" d="M3.5 27.15 L10.15 33.55 Q10.65 34 11.35 34 L12.5 33.55 Q13 33.1 13 32.4 L13 19.6 Q13 18.95 12.5 18.45 12.05 18 11.35 18 L10.9 18.05 Q10.45 18.15 10.15 18.45 L3.5 24.85 Q3 25.35 3 26 3 26.7 3.5 27.15 M16 26.1 L16 32.4 Q16 34.1 14.95 35.3 L14.5 35.75 Q13.25 37 11.35 37 10.05 37 9 36.4 L8.15 35.75 8.05 35.7 1.4 29.3 Q0 28 0 26 -0.05 24.15 1.35 22.7 L1.4 22.7 8.05 16.3 8.15 16.2 Q9.5 15 11.35 15 12.35 15 13.15 15.35 13.95 15.65 14.6 16.3 15.6 17.3 15.9 18.55 L16 19.6 16 26.05 16 26.1"/>
  </g>
</svg>