<svg width="64" height="64" xmlns="http://www.w3.org/2000/svg" xmlns:xlink="http://www.w3.org/1999/xlink">
  <defs/>
  <g>
    <path stroke="none" fill="#FFFFFF" d="M52.8 21.1 L52.55 21 Q51.65 20.55 48.4 20.15 L48.35 20.15 Q32 17.95 15.6 20.15 L11.5 20.95 11.25 21.1 11.05 21.3 11 21.75 11 21.65 17.3 44.3 17.3 44.35 17.7 44.75 17.75 44.8 18.5 45 45.5 45 46.4 44.75 46.65 44.35 52.95 21.65 52.95 21.75 52.95 21.25 52.8 21.1 M45.5 48.05 L18.5 48.05 Q17.05 48.05 15.95 47.2 14.8 46.4 14.4 45.15 L8.1 22.45 Q7.8 21.25 8.25 20.15 8.7 19.05 9.8 18.45 10.9 17.7 15.2 17.15 32 14.85 48.75 17.15 53.05 17.7 54.2 18.45 55.3 19.05 55.75 20.15 56.15 21.25 55.85 22.45 L49.55 45.15 Q49.2 46.4 48.1 47.2 46.95 48.05 45.5 48.05"/>
  </g>
</svg>