<svg width="64" height="64" xmlns="http://www.w3.org/2000/svg" xmlns:xlink="http://www.w3.org/1999/xlink">
  <defs/>
  <g>
    <path stroke="none" fill="#FFFFFF" d="M32 11 Q23.3 11 17.15 17.15 11 23.3 11 32 11 40.75 17.15 46.85 23.3 53 32 53 40.75 53 46.85 46.85 53 40.75 53 32 53 23.3 46.85 17.15 40.75 11 32 11 M56 32 Q56 42 48.95 48.95 42 56 32 56 22.05 56 15 48.95 8 42 8 32 8 22.05 15 15 22.05 8 32 8 42 8 48.95 15 56 22.05 56 32 M37.7 26.35 Q35.35 24 32 24 28.7 24 26.4 26.35 L26.35 26.35 Q24 28.7 24 32 24 35.3 26.35 37.65 L26.4 37.7 Q28.7 40 32 40 35.35 40 37.7 37.7 40 35.35 40 32 40 28.65 37.7 26.35 M44 32 Q44 37 40.5 40.5 37 44 32 44 27.05 44 23.55 40.5 20 37 20 32 20 27 23.55 23.5 27.05 20 32 20 37 20 40.5 23.5 44 27 44 32"/>
  </g>
</svg>