<svg width="64" height="64" xmlns="http://www.w3.org/2000/svg" xmlns:xlink="http://www.w3.org/1999/xlink">
  <defs/>
  <g>
    <path stroke="none" fill="#FFFFFF" d="M16 49 L48 49 Q53 49 53 44 L53 24 Q52.7 20.75 47.65 18.2 L47.7 18.2 Q41.15 15 32 15 22.85 15 16.4 18.2 11.35 20.75 11 24 L11 44 Q11 49 16 49 M41.5 28.4 Q41.1 28 40.5 28 L38.95 28 38.85 28 38.3 28.3 Q38 28.6 38 29 L34 29 34.1 28 Q34.35 26.6 35.4 25.5 L35.5 25.4 Q36.9 24.05 38.85 24 L40.5 24 Q42.75 24 44.35 25.6 L44.4 25.65 45.4 27 Q46.65 30.35 44.45 32.55 L40 37 46 37 46 41 38.95 41 38.85 41 34 41 34 37 41 30.45 Q42.25 29.15 41.5 28.4 M25 28 L22 28 22 32 25 32 Q25.8 32 26.35 31.45 L26.45 31.35 Q27 30.8 27 30 27 29.2 26.4 28.6 25.8 28 25 28 M18 24 L25 24 Q27.5 24 29.25 25.75 31 27.5 31 30 31 32.45 29.25 34.2 L29.2 34.25 28.45 34.9 31.5 41 27.5 41 25 36 22 36 22 41 18 41 18 24 M56 44 Q56 52 48 52 L16 52 Q8 52 8 44 L8 24 Q8 19.05 15.05 15.5 22.05 12 32 12 41.95 12 49 15.5 56 19.05 56 24 L56 44"/>
  </g>
</svg>