<svg width="64" height="64" xmlns="http://www.w3.org/2000/svg" xmlns:xlink="http://www.w3.org/1999/xlink">
  <defs/>
  <g>
    <path stroke="none" fill="#FFFFFF" d="M56 26 L56 38 Q56 38.85 55.45 39.45 54.85 40 54 40 L44.85 40 Q44 40 43.45 39.45 L37.45 33.45 Q36.85 32.85 36.85 32 36.85 31.15 37.45 30.6 L43.45 24.6 Q44 24 44.85 24 L54 24 Q54.85 24 55.45 24.6 56 25.15 56 26 M40 10 L40 19.15 Q40 20 39.45 20.6 L33.45 26.6 Q32.85 27.15 32 27.15 31.15 27.15 30.6 26.6 L24.6 20.6 Q24 20 24 19.15 L24 10 Q24 9.15 24.6 8.6 25.15 8 26 8 L38 8 Q38.85 8 39.45 8.6 40 9.15 40 10 M27 11 L27 18.75 32.05 23.8 37 18.8 37 11 27 11 M19.15 40 L10 40 Q9.15 40 8.6 39.45 8 38.85 8 38 L8 26 Q8 25.15 8.6 24.6 9.15 24 10 24 L19.15 24 Q20 24 20.6 24.6 L26.6 30.6 Q27.15 31.15 27.15 32 27.15 32.85 26.6 33.45 L20.6 39.45 Q20 40 19.15 40 M33.45 37.45 L39.45 43.45 Q40 44 40 44.85 L40 54 Q40 54.85 39.45 55.45 38.85 56 38 56 L26 56 Q25.15 56 24.6 55.45 24 54.85 24 54 L24 44.85 Q24 44 24.6 43.45 L30.6 37.45 Q31.15 36.85 32 36.85 32.85 36.85 33.45 37.45 M27 45.3 L27 53 37 53 37 45.25 32.05 40.3 27 45.3"/>
  </g>
</svg>