<svg width="64" height="64" xmlns="http://www.w3.org/2000/svg" xmlns:xlink="http://www.w3.org/1999/xlink">
  <defs/>
  <g>
    <path stroke="none" fill="#40E2A0" d="M17.15 17.15 Q11 23.3 11 32 11 40.75 17.15 46.85 23.3 53 32 53 40.75 53 46.85 46.85 53 40.75 53 32 53 23.3 46.85 17.15 40.75 11 32 11 23.3 11 17.15 17.15 M56 32 Q56 42 48.95 48.95 42 56 32 56 22.05 56 15 48.95 8 42 8 32 8 22.05 15 15 21.45 8.6 30.35 8.05 L32 8 33.7 8.05 Q42.6 8.6 48.95 15 56 22.05 56 32 M32 25.95 L25 38 39.05 38 32 25.95 M46 42 L18 42 32 18 46 42"/>
  </g>
</svg>