<svg width="64" height="64" xmlns="http://www.w3.org/2000/svg" xmlns:xlink="http://www.w3.org/1999/xlink">
  <defs/>
  <g>
    <path stroke="none" fill="#FFFFFF" d="M14.55 45.2 Q11.25 50.55 11 51.6 11 52.15 11.45 52.55 L11.5 52.6 Q12.05 53 12.8 53 L40 53 Q45.35 53 49.15 49.2 53 45.35 53 40 L53 16 Q53 13.95 51.5 12.5 50.05 11 48 11 L24 11 Q21.95 11 20.45 12.5 19 13.95 19 16 L19 30 19 30.1 Q18.7 38.3 14.55 45.15 L14.55 45.2 M44.5 27.4 Q44.1 27 43.5 27 L41.95 27 41.85 27 Q41.55 27.05 41.3 27.3 41 27.6 41 28 L37 28 37.1 27 Q37.35 25.6 38.4 24.5 L38.5 24.4 Q39.9 23.05 41.85 23 L43.5 23 Q45.75 23 47.35 24.6 L47.4 24.65 48.4 26 Q49.65 29.35 47.45 31.55 L43 36 49 36 49 40 41.95 40 41.85 40 37 40 37 36 44 29.45 Q45.25 28.15 44.5 27.4 M16 30 L16 16 Q16 12.7 18.35 10.35 20.7 8 24 8 L48 8 Q51.3 8 53.65 10.35 56 12.7 56 16 L56 40 Q56 46.6 51.3 51.3 46.6 56 40 56 L12.8 56 Q10.75 56 9.45 54.75 8 53.45 8 51.6 8 50.15 12 43.6 15.75 37.4 16 30 M23 23 L27 23 27 36 35 36 35 40 23 40 23 23"/>
  </g>
</svg>