<svg width="64" height="64" xmlns="http://www.w3.org/2000/svg" xmlns:xlink="http://www.w3.org/1999/xlink">
  <defs/>
  <g>
    <path stroke="none" fill="#FFFFFF" d="M41.1 19.2 L41.1 19.25 40.45 19.75 41.9 22.65 41.95 23.45 41.45 24 40.7 24.05 Q40.3 23.9 40.1 23.55 L38.4 20.1 38 20.1 38 23.1 37.7 23.8 37 24.1 36.3 23.8 Q36 23.5 36 23.1 L36 15.1 Q36 14.7 36.3 14.4 36.6 14.1 37 14.1 L39.05 14.1 Q40.25 14.1 41.1 14.95 42 15.85 42 17.1 42 18.35 41.1 19.2 M48 14.1 Q48.4 14.1 48.7 14.4 L49 15.1 48.7 15.8 Q48.4 16.1 48 16.1 L47 16.1 47 23.1 46.7 23.8 46 24.1 45.3 23.8 Q45 23.5 45 23.1 L45 16.1 44 16.1 Q43.6 16.1 43.3 15.8 43 15.5 43 15.1 43 14.7 43.3 14.4 43.6 14.1 44 14.1 L48 14.1 M21.25 30.1 L44.75 35.9 Q46.15 36.25 47.05 37.35 48 38.45 48 39.95 48 41.4 47.05 42.5 46.15 43.65 44.75 44 L21.25 49.85 18.75 49.7 Q17.45 49.2 16.75 48.2 16 47.05 16 45.8 L16 34.15 Q16 32.8 16.75 31.75 17.45 30.65 18.75 30.2 L21.25 30.1 M31 16.9 L31 19.1 33 19.1 33 16.9 32.75 16.35 32.75 16.4 Q32.45 16.1 32 16.1 31.55 16.1 31.2 16.4 L31.25 16.3 Q31 16.55 31 16.9 M39.1 18.1 L39.45 18 39.7 17.8 39.75 17.8 40 17.1 39.7 16.35 Q39.45 16.1 39.05 16.1 L38 16.1 38 18.1 39.1 18.1 M18 16.1 Q17.6 16.1 17.3 16.4 17 16.7 17 17.1 17 17.5 17.3 17.8 17.6 18.1 17.95 18.1 L18.05 18.1 Q19.2 18.1 20.1 19 21 19.9 21 21.1 21 22.3 20.1 23.2 19.2 24.1 18 24.1 L16 24.1 15.3 23.8 Q15 23.5 15 23.1 15 22.7 15.3 22.4 15.6 22.1 16 22.1 L18 22.1 Q18.4 22.1 18.7 21.8 L19 21.1 18.7 20.4 Q18.4 20.1 18.05 20.1 L17.95 20.1 Q16.8 20.1 15.9 19.2 15 18.3 15 17.1 15 15.9 15.9 15 16.8 14.1 18 14.1 L20 14.1 Q20.4 14.1 20.7 14.4 L21 15.1 20.7 15.8 20 16.1 18 16.1 M23 16.1 Q22.6 16.1 22.3 15.8 22 15.5 22 15.1 22 14.7 22.3 14.4 22.6 14.1 23 14.1 L27 14.1 Q27.4 14.1 27.7 14.4 L28 15.1 27.7 15.8 Q27.4 16.1 27 16.1 L26 16.1 26 23.1 25.7 23.8 25 24.1 24.3 23.8 Q24 23.5 24 23.1 L24 16.1 23 16.1 M29 16.9 Q29 15.75 29.85 14.9 L29.9 14.85 Q30.75 14.1 32 14.1 33.15 14.1 34.05 14.85 L34.1 14.9 Q35 15.75 35 16.9 L35 23.1 34.7 23.8 Q34.4 24.1 34 24.1 L33.3 23.8 Q33 23.5 33 23.1 L33 21.1 31 21.1 31 23.1 30.7 23.8 Q30.4 24.1 30 24.1 L29.3 23.8 Q29 23.5 29 23.1 L29 16.9"/>
  </g>
</svg>