<svg width="64" height="64" xmlns="http://www.w3.org/2000/svg" xmlns:xlink="http://www.w3.org/1999/xlink">
  <defs/>
  <g>
    <path stroke="none" fill="#FFFFFF" d="M23 23 L23 40 35 40 35 36 27 36 27 23 23 23 M16 30 L16 16 Q16 12.7 18.35 10.35 20.7 8 24 8 L48 8 Q51.3 8 53.65 10.35 55.75 12.45 56 15.25 L56 16 56 40 Q56 46.6 51.3 51.3 46.6 56 40 56 L12.8 56 Q10.75 56 9.45 54.75 8 53.45 8 51.6 8 50.15 12 43.6 15.75 37.4 16 30 M44.5 27.4 Q45.25 28.15 44 29.45 L37 36 37 40 41.85 40 41.95 40 49 40 49 36 43 36 47.45 31.55 Q49.65 29.35 48.4 26 L47.4 24.65 47.35 24.6 Q45.75 23 43.5 23 L41.85 23 Q39.9 23.05 38.5 24.4 L38.4 24.5 Q37.35 25.6 37.1 27 L37 28 41 28 Q41 27.6 41.3 27.3 41.55 27.05 41.85 27 L41.95 27 43.5 27 Q44.1 27 44.5 27.4"/>
  </g>
</svg>