<svg width="64" height="64" xmlns="http://www.w3.org/2000/svg" xmlns:xlink="http://www.w3.org/1999/xlink">
  <defs/>
  <g>
    <path stroke="none" fill="#FFFFFF" d="M32 12 Q27.15 12 23.15 14 20.3 15.4 17.85 17.85 12 23.7 12 32 12 40.3 17.85 46.1 L17.85 46.15 Q23.7 52 32 52 40.3 52 46.1 46.15 L46.15 46.1 Q52 40.3 52 32 52 23.7 46.15 17.85 L46.1 17.85 Q43.7 15.4 40.85 14 36.85 12 32 12 M56 32 Q56 42 48.95 48.95 42 56 32 56 22.05 56 15 48.95 8 42 8 32 8 22.05 15 15 L16.05 14 Q22.8 8 32 8 41.25 8 47.9 14 L48.95 15 Q56 22.05 56 32 M44 35.75 Q44.05 37.95 42.05 39.6 L42.1 39.5 Q40.4 41 38 41 35.6 41 33.9 39.55 32.05 38.05 32 36 L36.1 36 36.45 36.45 36.45 36.5 Q37.1 37 38 37 38.9 37 39.5 36.5 L39.55 36.45 40 35.75 39.6 35 Q39.2 34.65 38.7 34.55 L38.15 34.5 36 34.5 36 30.5 38.15 30.5 Q39 30.5 39.6 30 L40 29.25 Q39.95 28.85 39.55 28.55 L39.5 28.5 Q38.9 28 38 28 37.1 28 36.45 28.5 L36.45 28.55 36.1 29 32 29 Q32.05 26.95 33.9 25.45 35.6 24 38 24 40.4 24 42.1 25.5 L42.05 25.4 Q44.05 27.05 44 29.25 44.05 31.1 42.75 32.5 44.05 33.9 44 35.75 M20 24 L24 24 24 37 30 37 30 41 20 41 20 24"/>
  </g>
</svg>