<svg width="64" height="64" xmlns="http://www.w3.org/2000/svg" xmlns:xlink="http://www.w3.org/1999/xlink">
  <defs/>
  <g>
    <path stroke="none" fill="#FFFFFF" d="M36.6 14.4 Q40.6 15.55 42.6 19.15 44.7 22.8 43.65 26.8 L39.55 42.55 Q38.5 46.6 34.9 48.65 31.35 50.8 27.45 49.65 23.35 48.6 21.4 44.85 19.35 41.25 20.35 37.25 L24.5 21.6 Q25.6 17.5 29.05 15.35 32.65 13.3 36.6 14.4 M40 20.65 L40 20.6 Q38.6 18.1 35.8 17.3 33.1 16.55 30.65 17.9 28.2 19.45 27.4 22.4 L23.25 38.05 23.25 38 Q22.55 40.8 24 43.4 L24.05 43.5 Q25.4 46.05 28.2 46.75 L28.3 46.8 Q30.95 47.55 33.35 46.1 L33.45 46.05 Q35.95 44.6 36.65 41.8 L40.75 26.05 Q41.5 23.25 40 20.65"/>
  </g>
</svg>