<svg width="64" height="64" xmlns="http://www.w3.org/2000/svg" xmlns:xlink="http://www.w3.org/1999/xlink">
  <defs/>
  <g>
    <path stroke="none" fill="#FFFFFF" d="M21 25 L28 25 Q29.9 25 31.35 26 L32.25 26.75 Q34 28.5 34 31 34 32.65 33.2 34 L32.25 35.2 32.2 35.25 31.45 35.9 34.5 42 30.5 42 28 37 25 37 25 42 21 42 21 25 M43 25 L43 42 39 42 39 34.95 39 34.85 39 29.95 36 29.95 36 28 39 25 43 25 M12 30 Q12 21.7 17.8 15.8 23.7 10 32 10 40.25 10 46.1 15.8 49.85 19.55 51.25 24.3 L51.8 26.9 52 29.6 52 46 52 46.45 Q51.85 49.15 50.1 51.2 L49.65 51.65 49.45 51.85 Q48 53.2 46.25 53.7 L44 54 20 54 Q16.85 54 14.55 51.85 L14.35 51.65 Q12 49.3 12 46 L12 30 M28 29 L25 29 25 33 28 33 Q28.8 33 29.35 32.45 L29.45 32.35 Q30 31.8 30 31 30 30.2 29.4 29.6 28.8 29 28 29 M32 13 Q24.95 13 19.95 17.9 L19.9 17.95 Q15 22.95 15 30 L15 46 Q15 48.05 16.5 49.55 17.95 51 20 51 L44 51 45.45 50.85 Q46.6 50.45 47.55 49.55 L47.95 49.15 Q48.9 47.9 49 46.3 L49 46 49 29.6 48.85 27.35 48.35 25.1 48.4 25.15 Q47.15 21.1 44 17.95 39 13 32 13"/>
  </g>
</svg>