<svg width="64" height="64" xmlns="http://www.w3.org/2000/svg" xmlns:xlink="http://www.w3.org/1999/xlink">
  <defs/>
  <g>
    <path stroke="none" fill="#FFFFFF" d="M42 23 L42 40 38 40 38 32.95 38 32.85 38 27.95 35 27.95 35 26 38 23 42 23 M56 20 L56 40 Q56 44.95 49 48.5 41.95 52 32 52 22.05 52 15.05 48.5 8 44.95 8 40 L8 20 Q8 12 16 12 L48 12 Q56 12 56 20 M16 15 Q11 15 11 20 L11 40 Q11.35 43.25 16.4 45.85 22.85 49 32 49 41.15 49 47.7 45.85 L47.65 45.85 Q52.7 43.25 53 40 L53 20 Q53 15 48 15 L16 15 M22 23 L26 23 26 36 34 36 34 40 22 40 22 23"/>
  </g>
</svg>