<svg width="64" height="64" xmlns="http://www.w3.org/2000/svg" xmlns:xlink="http://www.w3.org/1999/xlink">
  <defs/>
  <g>
    <path stroke="none" fill="#FFFFFF" d="M23.75 40 L16 40 Q9.25 40 8.2 34.35 L8 32 8 16 8.2 13.7 Q9.25 8 16 8 L48 8 Q56 8 56 16 L56 32 Q56 36 54.05 38 L53.5 36.05 52.6 33.8 Q51.75 32.35 50.45 31.4 L50.35 31.35 Q48.35 30.1 45.4 30.25 L39.6 30.55 38.7 27.05 Q37.95 24.25 35.45 22.85 L34.5 22.35 34.3 22.3 30.4 22.05 30.25 22.1 30 22.15 29.9 22.2 Q27.95 22.85 26.65 24.3 L26.6 24.35 Q26.15 24.85 25.85 25.4 L25.8 25.5 Q24.45 27.95 25.2 30.7 L27.3 38.55 Q25.25 38.7 23.75 40 M37.35 33.65 L45.55 33.25 Q47.5 33.15 48.75 33.9 L50 35.3 50.6 36.85 52.1 42.4 Q52.8 45.2 51.85 47.85 L51 49.7 Q48.95 53.3 45 54.4 41 55.45 37.35 53.35 L36.2 52.6 Q34.1 50.8 31.35 50 L28.3 49.7 Q26.7 49.8 25.5 48.6 24.2 47.45 24.1 45.75 24.05 44.05 25.15 42.75 26.2 41.55 27.8 41.5 L31.25 41.75 28.1 29.9 Q27.65 28.3 28.45 26.85 L28.9 26.35 Q29.6 25.45 30.8 25.05 L31.05 25 33.3 25.15 33.9 25.4 Q35.35 26.25 35.8 27.85 L37.35 33.65"/>
    <path stroke="none" fill="#FFFFFF" fill-opacity="0" d="M37.35 33.65 L35.8 27.85 Q35.35 26.25 33.9 25.4 L33.3 25.15 31.05 25 30.8 25.05 Q29.6 25.45 28.9 26.35 L28.45 26.85 Q27.65 28.3 28.1 29.9 L31.25 41.75 27.8 41.5 Q26.2 41.55 25.15 42.75 24.05 44.05 24.1 45.75 24.2 47.45 25.5 48.6 26.7 49.8 28.3 49.7 L31.35 50 Q34.1 50.8 36.2 52.6 L37.35 53.35 Q41 55.45 45 54.4 48.95 53.3 51 49.7 L51.85 47.85 Q52.8 45.2 52.1 42.4 L50.6 36.85 50 35.3 48.75 33.9 Q47.5 33.15 45.55 33.25 L37.35 33.65 M54.05 38 L55 41.6 55.05 41.7 Q55.9 45.4 54.75 48.85 L54.75 48.8 53.65 51.25 Q50.9 55.9 45.75 57.3 40.55 58.7 35.85 56 L35.8 55.95 34.35 54.95 34.2 54.85 Q32.65 53.45 30.55 52.9 L30.6 52.85 28.5 52.7 28.45 52.7 Q25.6 52.85 23.45 50.8 21.3 48.8 21.15 45.9 21 43 22.9 40.85 L22.9 40.8 23.75 40 Q25.25 38.7 27.3 38.55 L25.2 30.7 Q24.45 27.95 25.8 25.5 L25.85 25.4 Q26.15 24.85 26.6 24.35 L26.65 24.3 Q27.95 22.85 29.9 22.2 L30 22.15 30.25 22.1 30.4 22.05 34.3 22.3 34.5 22.35 35.45 22.85 Q37.95 24.25 38.7 27.05 L39.6 30.55 45.4 30.25 Q48.35 30.1 50.35 31.35 L50.45 31.4 Q51.75 32.35 52.6 33.8 L53.5 36.05 54.05 38"/>
  </g>
</svg>