<svg width="64" height="64" xmlns="http://www.w3.org/2000/svg" xmlns:xlink="http://www.w3.org/1999/xlink">
  <defs/>
  <g>
    <path stroke="none" fill="#FFFFFF" d="M24 22 L30.25 22 Q34.25 22.1 37.1 24.95 L38.05 26 Q40 28.55 40 32 40 35.4 38.05 38 L37.1 39.1 Q34.25 41.9 30.25 42 L24 42 24 22 M11 16 L11 48 Q11 53 16 53 L48 53 Q53 53 53 48 L53 16 Q53 11 48 11 L16 11 Q11 11 11 16 M16 8 L48 8 Q56 8 56 16 L56 48 Q56 56 48 56 L16 56 Q8 56 8 48 L8 16 Q8 8 16 8 M28 26 L28 38 30.15 38 Q32.5 37.95 34.25 36.25 36 34.45 36 32 36 29.55 34.25 27.8 32.5 26.05 30.15 26 L28 26"/>
  </g>
</svg>