<svg width="64" height="64" xmlns="http://www.w3.org/2000/svg" xmlns:xlink="http://www.w3.org/1999/xlink">
  <defs/>
  <g>
    <path stroke="none" fill="#FFFFFF" d="M16 8 L48 8 Q56 8 56 16 L56 48 Q56 56 48 56 L16 56 Q8 56 8 48 L8 16 Q8 8 16 8 M44.8 37 Q46.05 35.8 46 34.3 L46 32.8 43 32.8 43 34.3 42.75 34.8 42 35 41.2 34.8 41 34.3 41 28.75 41.2 28.3 41.25 28.25 Q41.55 28 42 28 42.45 28 42.8 28.3 L43 28.75 43 30.25 46 30.25 46 28.75 Q46 27.15 44.75 26.05 43.55 25 42 25 40.4 25 39.25 26.05 L39.2 26.05 Q38 27.15 38 28.75 L38 34.3 Q38 35.8 39.15 36.95 L39.2 37.05 39.3 37.1 Q40.4 38 42 38 43.55 38 44.7 37.1 L44.8 37 M18 25 L18 38 26 38 26 35 21 35 21 33 26 33 26 30 21 30 21 28 26 28 26 25 18 25 M32 28 L36 28 36 25 32 25 Q30.4 25 29.2 26.2 28 27.4 28 29 28 30.6 29.2 31.8 30.4 33 31.95 33 L32.05 33 Q32.4 33 32.7 33.3 L33 34 32.7 34.7 32 35 28 35 28 38 32 38 Q33.6 38 34.8 36.8 36 35.6 36 34 36 32.4 34.8 31.2 33.6 30 32.05 30 L31.95 30 31.3 29.7 Q31 29.4 31 29 31 28.6 31.3 28.3 31.6 28 32 28"/>
  </g>
</svg>