<svg width="64" height="64" xmlns="http://www.w3.org/2000/svg" xmlns:xlink="http://www.w3.org/1999/xlink">
  <defs/>
  <g>
    <path stroke="none" fill="#FFFFFF" d="M53 16 Q53 11 48 11 L16 11 Q11 11 11 16 L11 48 Q11 53 16 53 L48 53 Q53 53 53 48 L53 16 M48 8 Q56 8 56 16 L56 48 Q56 56 48 56 L16 56 Q8 56 8 48 L8 16 Q8 8 16 8 L48 8 M29.95 30 L33.95 30 Q34.75 30 35.35 29.4 35.95 28.8 35.95 28 35.95 27.2 35.4 26.65 L35.3 26.55 Q34.75 26 33.95 26 L29.9 26 Q29.15 26 28.6 26.55 L28.5 26.65 Q27.95 27.2 27.95 28 L24.1 26.5 24.25 26 Q24.7 24.8 25.7 23.8 L25.75 23.75 Q27.45 22.05 29.8 22 L33.95 22 Q36.4 22 38.15 23.75 L38.2 23.8 Q39.95 25.55 39.95 28 39.95 30.5 38.2 32.25 36.45 34 33.95 34 L33.95 36 29.95 36 29.95 30 M33.95 40 Q33.95 40.85 33.35 41.4 32.8 42 31.95 42 31.1 42 30.5 41.4 29.95 40.85 29.95 40 29.95 39.15 30.5 38.55 31.1 38 31.95 38 32.8 38 33.35 38.55 33.95 39.15 33.95 40"/>
  </g>
</svg>