<svg width="64" height="64" xmlns="http://www.w3.org/2000/svg" xmlns:xlink="http://www.w3.org/1999/xlink">
  <defs/>
  <g>
    <path stroke="none" fill="#FFFFFF" d="M24 30 L24 34.2 Q24.05 37.35 26.35 39.65 L28 40.95 Q29.8 42 32 42 34.2 42 36 40.95 L37.65 39.65 Q38.95 38.35 39.55 36.8 L35.8 35.35 34.85 36.85 Q33.65 38 32 38 30.35 38 29.2 36.85 28.05 35.7 28 34.1 L28 30 Q28 28.35 29.2 27.2 30.35 26 32 26 33.65 26 34.85 27.2 L35.8 28.7 39.55 27.2 Q38.95 25.65 37.65 24.35 35.3 22 32 22 28.7 22 26.35 24.35 24 26.7 24 30 M16 8 L48 8 Q56 8 56 16 L56 48 Q56 56 48 56 L16 56 Q8 56 8 48 L8 16 Q8 8 16 8"/>
  </g>
</svg>