<svg width="64" height="64" xmlns="http://www.w3.org/2000/svg" xmlns:xlink="http://www.w3.org/1999/xlink">
  <defs/>
  <g>
    <path stroke="none" fill="#FFFFFF" d="M16 8 L48 8 Q56 8 56 16 L56 48 Q56 56 48 56 L16 56 Q8 56 8 48 L8 16 Q8 8 16 8 M41 28 L45 28 45 25 41 25 Q39.4 25 38.2 26.2 37 27.4 37 29 37 30.6 38.2 31.8 39.4 33 40.95 33 L41.05 33 Q41.4 33 41.7 33.3 L42 34 41.7 34.7 41 35 37 35 37 38 41 38 Q42.6 38 43.8 36.8 45 35.6 45 34 45 32.4 43.8 31.2 42.6 30 41.05 30 L40.95 30 40.3 29.7 Q40 29.4 40 29 40 28.6 40.3 28.3 40.6 28 41 28 M23 38 L23 25 20 25 20 38 23 38 M35 38 L35 25 32 25 32 32 28 25 25 25 25 38 28 38 28 31 32 38 35 38"/>
  </g>
</svg>