<svg width="64" height="64" xmlns="http://www.w3.org/2000/svg" xmlns:xlink="http://www.w3.org/1999/xlink">
  <defs/>
  <g>
    <path stroke="none" fill="#FFFFFF" d="M48 56 L16 56 Q8 56 8 48 L8 16 Q8 8 16 8 L48 8 Q56 8 56 16 L56 48 Q56 56 48 56 M53 48 L53 16 Q53 11 48 11 L16 11 Q11 11 11 16 L11 48 Q11 53 16 53 L48 53 Q53 53 53 48 M30 24 L34 24 34 28.55 37.9 26.3 39.9 29.75 35.95 32.05 39.9 34.3 37.9 37.75 34 35.5 34 40 30 40 30 35.5 26.05 37.75 24.05 34.3 28 32.05 24.05 29.75 26.05 26.3 30 28.6 30 24"/>
  </g>
</svg>