<svg width="64" height="64" xmlns="http://www.w3.org/2000/svg" xmlns:xlink="http://www.w3.org/1999/xlink">
  <defs/>
  <g>
    <path stroke="none" fill="#FFFFFF" d="M25 22 L34.2 22 Q35.75 22.05 37 22.8 L38.2 23.7 38.25 23.75 Q40 25.5 40 28 L40 30 39.6 32.3 38.25 34.2 38.2 34.25 38.1 34.35 38.1 34.4 37 35.2 Q35.75 35.95 34.2 36 L34 36 28 36 28 42 24 42 24 23 25 22 M11 16 L11 48 Q11 53 16 53 L48 53 Q53 53 53 48 L53 16 Q53 11 48 11 L16 11 Q11 11 11 16 M28 26 L28 32 34.05 32 34.9 31.8 35.35 31.45 35.45 31.35 36 30.4 36 28 Q36 27.15 35.45 26.6 L35.4 26.6 Q34.8 26 34 26 L28 26 M16 8 L48 8 Q56 8 56 16 L56 48 Q56 56 48 56 L16 56 Q8 56 8 48 L8 16 Q8 8 16 8"/>
  </g>
</svg>