<svg width="64" height="64" xmlns="http://www.w3.org/2000/svg" xmlns:xlink="http://www.w3.org/1999/xlink">
  <defs/>
  <g>
    <path stroke="none" fill="#FFFFFF" d="M16 8 L48 8 Q56 8 56 16 L56 48 Q56 56 48 56 L16 56 Q8 56 8 48 L8 16 Q8 8 16 8 M36.95 25.55 Q39 27.65 39 30.5 L39 33.5 Q39 36.35 36.95 38.4 L36.9 38.45 Q34.85 40.5 32 40.5 29.15 40.5 27.05 38.45 25 36.4 25 33.5 L25 30.5 Q25 27.65 27 25.55 L27.05 25.5 Q29.15 23.5 32 23.5 34.9 23.5 36.95 25.55 M32 27.5 Q30.8 27.5 29.9 28.35 L29.85 28.4 Q29 29.3 29 30.5 L29 33.5 Q29 34.7 29.9 35.6 30.75 36.5 32 36.5 33.2 36.5 34.05 35.6 L34.1 35.55 Q35 34.7 35 33.5 L35 30.5 Q35 29.25 34.1 28.4 33.2 27.5 32 27.5 M11 16 L11 48 Q11 53 16 53 L48 53 Q53 53 53 48 L53 16 Q53 11 48 11 L16 11 Q11 11 11 16"/>
  </g>
</svg>