<svg width="64" height="64" xmlns="http://www.w3.org/2000/svg" xmlns:xlink="http://www.w3.org/1999/xlink">
  <defs/>
  <g>
    <path stroke="none" fill="#FFFFFF" d="M16 8 L48 8 Q56 8 56 16 L56 48 Q56 56 48 56 L16 56 Q8 56 8 48 L8 16 Q8 8 16 8 M32.5 41 Q34.75 41 36.35 39.4 L36.4 39.35 Q37.8 37.95 38 36 L38 35.5 Q38 33.6 36.9 32.2 38 30.85 38 29 38 26.95 36.6 25.5 L36.5 25.4 Q35.05 24 33.05 24 L29.95 24 28.65 24.2 Q27.45 24.5 26.5 25.4 L26.4 25.5 Q25 26.95 25 29 25 30.85 26.1 32.2 25 33.6 25 35.5 L25 36 Q25.2 37.95 26.6 39.35 L26.65 39.4 Q28.25 41 30.5 41 L32.5 41 M30 30 L29.3 29.7 Q29 29.4 29 29 29 28.6 29.3 28.3 29.6 28 29.95 28 L33.05 28 Q33.4 28 33.7 28.3 L34 29 33.7 29.7 33 30 30 30 M33.5 36.6 Q33.1 37 32.5 37 L30.5 37 Q29.9 37 29.5 36.6 L29.4 36.5 Q29 36.1 29 35.5 29 34.9 29.45 34.45 29.9 34 30.5 34 L32.55 34 Q33.1 34 33.55 34.45 34 34.9 34 35.5 34 36.1 33.6 36.5 L33.5 36.6"/>
  </g>
</svg>