<svg width="64" height="64" xmlns="http://www.w3.org/2000/svg" xmlns:xlink="http://www.w3.org/1999/xlink">
  <defs/>
  <g>
    <path stroke="none" fill="#FFFFFF" d="M11 16 L11 48 Q11 53 16 53 L48 53 Q53 53 53 48 L53 16 Q53 11 48 11 L16 11 Q11 11 11 16 M16 8 L48 8 Q56 8 56 16 L56 48 Q56 56 48 56 L16 56 Q8 56 8 48 L8 16 Q8 8 16 8 M40 33 L39 33 38.35 33.1 Q37.95 33.25 37.6 33.55 L37.55 33.6 37.25 34 Q37 34.45 37 35 37 35.8 37.6 36.4 38.2 37 39 37 L40 37 Q40.8 37 41.35 36.45 L41.45 36.35 Q42 35.8 42 35 42 34.2 41.4 33.6 40.8 33 40 33 M44.25 30.75 Q46 32.5 46 35 46 37.45 44.25 39.2 L44.2 39.25 Q42.45 41 40 41 L39 41 Q36.5 41 34.75 39.25 33 37.5 33 35 L33.1 34 33.15 33.65 37 24 42 24 40 29 Q42.5 29 44.25 30.75 M23 41 L19 41 19 33.95 19 33.85 19 24 26.05 24 26.15 24 30 24 30 28 23 28 23 31 26.05 31 26.15 31 30 31 30 35 23 35 23 41"/>
  </g>
</svg>