<svg width="64" height="64" xmlns="http://www.w3.org/2000/svg" xmlns:xlink="http://www.w3.org/1999/xlink">
  <defs/>
  <g>
    <path stroke="none" fill="#FFFFFF" d="M48 56 L16 56 Q8 56 8 48 L8 16 Q8 8 16 8 L48 8 Q56 8 56 16 L56 48 Q56 56 48 56 M22 29.8 Q22 28.65 22.85 27.8 L22.9 27.75 Q23.75 27 25 27 26.15 27 27.05 27.75 L27.1 27.8 Q28 28.65 28 29.8 L28 36 27.7 36.7 Q27.4 37 27 37 L26.3 36.7 26 36 26 29.8 25.75 29.25 25.75 29.3 Q25.45 29 25 29 24.55 29 24.2 29.3 L24.25 29.2 24 29.8 24 36 23.7 36.7 23 37 Q22.6 37 22.3 36.7 22 36.4 22 36 L22 29.8 M30 29 L29.3 28.7 Q29 28.4 29 28 29 27.6 29.3 27.3 29.6 27 30 27 L34 27 Q34.4 27 34.7 27.3 L35 28 34.7 28.7 Q34.4 29 34 29 L33 29 33 36 32.7 36.7 32 37 Q31.6 37 31.3 36.7 31 36.4 31 36 L31 29 30 29 M20 31 Q20.4 31 20.7 31.3 L21 32 20.7 32.7 20 33 17 33 17 35 20 35 Q20.4 35 20.7 35.3 L21 36 20.7 36.7 20 37 16 37 15.3 36.7 Q15 36.4 15 36 L15 28 Q15 27.6 15.3 27.3 15.6 27 16 27 L20 27 Q20.4 27 20.7 27.3 L21 28 20.7 28.7 20 29 17 29 17 31 20 31 M36 28 Q36 27.6 36.3 27.3 36.6 27 37 27 L41 27 Q41.4 27 41.7 27.3 L42 28 41.7 28.7 41 29 38 29 38 31 41 31 Q41.4 31 41.7 31.3 L42 32 41.7 32.7 41 33 38 33 38 35 41 35 Q41.4 35 41.7 35.3 L42 36 41.7 36.7 41 37 37 37 36.3 36.7 Q36 36.4 36 36 L36 28 M48.1 32.1 L48.1 32.15 47.45 32.65 48.9 35.55 Q49.1 35.95 48.95 36.35 L48.45 36.9 47.7 36.95 Q47.3 36.8 47.1 36.45 L45.4 33 45 33 45 36 44.7 36.7 44 37 Q43.6 37 43.3 36.7 43 36.4 43 36 L43 28 Q43 27.6 43.3 27.3 43.6 27 44 27 L46.05 27 Q47.25 27 48.1 27.85 49 28.75 49 30 49 31.25 48.1 32.1 M46.1 31 L46.45 30.9 46.7 30.7 46.75 30.7 47 30 46.7 29.25 Q46.45 29 46.05 29 L45 29 45 31 46.1 31 M53 48 L53 16 Q53 11 48 11 L16 11 Q11 11 11 16 L11 48 Q11 53 16 53 L48 53 Q53 53 53 48"/>
  </g>
</svg>