<svg width="64" height="64" xmlns="http://www.w3.org/2000/svg" xmlns:xlink="http://www.w3.org/1999/xlink">
  <defs/>
  <g>
    <path stroke="none" fill="#FFFFFF" d="M16 8 L48 8 Q56 8 56 16 L56 48 Q56 56 48 56 L16 56 Q8 56 8 48 L8 16 Q8 8 16 8 M40 35.8 L40 42 Q40 42.4 40.3 42.7 L41 43 41.7 42.7 42 42 42 35.8 42.25 35.2 42.2 35.3 Q42.55 35 43 35 43.45 35 43.75 35.3 L43.75 35.25 44 35.8 44 42 Q44 42.4 44.3 42.7 44.6 43 45 43 L45.7 42.7 46 42 46 35.8 Q46 34.65 45.1 33.8 L45.05 33.75 Q44.15 33 43 33 41.75 33 40.9 33.75 L40.85 33.8 Q40 34.65 40 35.8 M31.1 27.1 Q32 26.25 32 25 32 23.75 31.1 22.85 30.25 22 29.05 22 L27 22 Q26.6 22 26.3 22.3 26 22.6 26 23 L26 31 26.3 31.7 27 32 Q27.4 32 27.7 31.7 L28 31 28 28 28.4 28 30.1 31.45 Q30.3 31.8 30.7 31.95 L31.45 31.9 31.95 31.35 31.9 30.55 30.45 27.65 31.1 27.15 31.1 27.1 M29.1 26 L28 26 28 24 29.05 24 Q29.45 24 29.7 24.25 L30 25 29.75 25.7 29.7 25.7 29.45 25.9 29.1 26 M22.1 26 L21 26 21 24 22.05 24 22.7 24.25 23 25 22.75 25.7 22.7 25.7 22.45 25.9 22.1 26 M21 31 L21 28 22.1 28 23.35 27.7 23.45 27.65 24.1 27.15 24.1 27.1 Q25 26.25 25 25 25 23.75 24.1 22.85 23.25 22 22.05 22 L20 22 Q19.6 22 19.3 22.3 19 22.6 19 23 L19 31 Q19 31.4 19.3 31.7 L20 32 20.7 31.7 21 31 M37 31 L37 24 38 24 38.7 23.7 39 23 38.7 22.3 38 22 34 22 Q33.6 22 33.3 22.3 33 22.6 33 23 33 23.4 33.3 23.7 L34 24 35 24 35 31 35.3 31.7 Q35.6 32 36 32 L36.7 31.7 37 31 M22 35 L24 35 24.7 34.7 25 34 24.7 33.3 Q24.4 33 24 33 L22 33 Q20.8 33 19.9 33.9 19 34.8 19 36 19 37.2 19.9 38.1 20.8 39 21.95 39 L22.05 39 22.7 39.3 23 40 22.7 40.7 22 41 20 41 Q19.6 41 19.3 41.3 19 41.6 19 42 19 42.4 19.3 42.7 L20 43 22 43 Q23.2 43 24.1 42.1 25 41.2 25 40 25 38.8 24.1 37.9 23.2 37 22.05 37 L21.95 37 Q21.6 37 21.3 36.7 21 36.4 21 36 21 35.6 21.3 35.3 21.6 35 22 35 M38.1 38.1 Q39 37.25 39 36 39 34.75 38.1 33.85 37.25 33 36.05 33 L34 33 Q33.6 33 33.3 33.3 33 33.6 33 34 L33 42 Q33 42.4 33.3 42.7 L34 43 Q34.4 43 34.7 42.7 L35 42 35 39 35.4 39 37.1 42.45 Q37.3 42.8 37.7 42.95 L38.45 42.9 38.95 42.35 38.9 41.55 37.45 38.65 38.1 38.15 38.1 38.1 M31.1 42.25 Q32 41.35 32 40.25 L31.7 39.55 Q31.4 39.25 31 39.25 30.6 39.25 30.3 39.55 30 39.85 30 40.25 L29.75 40.8 29.75 40.75 29 41 28.2 40.75 28 40.25 28 35.8 Q28 35.45 28.25 35.2 L28.2 35.3 Q28.55 35 29 35 29.45 35 29.75 35.3 L29.75 35.25 30 35.8 Q30 36.2 30.3 36.5 30.6 36.8 31 36.8 L31.7 36.5 32 35.8 Q32 34.65 31.1 33.8 L31.05 33.75 Q30.15 33 29 33 27.75 33 26.9 33.75 L26.85 33.8 Q26 34.65 26 35.8 L26 40.25 Q26 41.35 26.85 42.2 L26.9 42.3 Q27.75 43 29 43 30.15 43 31.05 42.3 L31.1 42.25 M36.1 37 L35 37 35 35 36.05 35 Q36.45 35 36.7 35.25 L37 36 36.75 36.7 36.7 36.7 36.45 36.9 36.1 37"/>
  </g>
</svg>