<svg width="64" height="64" xmlns="http://www.w3.org/2000/svg" xmlns:xlink="http://www.w3.org/1999/xlink">
  <defs/>
  <g>
    <path stroke="none" fill="#FFFFFF" d="M16 8 L48 8 Q56 8 56 16 L56 48 Q56 56 48 56 L16 56 Q8 56 8 48 L8 16 Q8 8 16 8 M11 16 L11 48 Q11 53 16 53 L48 53 Q53 53 53 48 L53 16 Q53 11 48 11 L16 11 Q11 11 11 16 M33.5 28.4 Q33.1 28 32.5 28 L30.95 28 30.85 28 Q30.55 28.05 30.3 28.3 30 28.6 30 29 L26 29 26.1 28 Q26.35 26.6 27.4 25.5 L27.5 25.4 Q28.9 24.05 30.85 24 L32.5 24 Q34.75 24 36.35 25.6 L36.4 25.65 37.4 27 Q38.65 30.35 36.45 32.55 L32 37 38 37 38 41 30.95 41 30.85 41 26 41 26 37 33 30.45 Q34.25 29.15 33.5 28.4"/>
  </g>
</svg>