<svg width="64" height="64" xmlns="http://www.w3.org/2000/svg" xmlns:xlink="http://www.w3.org/1999/xlink">
  <defs/>
  <g>
    <path stroke="none" fill="#E73246" d="M45 33 L51 33 Q55 33 55 37 L55 43 Q55 47 51 47 L45 47 Q41 47 41 43 L41 37 Q41 33 45 33 M13 33 L19 33 Q23 33 23 37 L23 43 Q23 47 19 47 L13 47 Q9 47 9 43 L9 37 Q9 33 13 33"/>
    <path stroke="none" fill="#FFFFFF" d="M29 17 L35 17 Q39 17 39 21 L39 27 Q39 31 35 31 L29 31 Q25 31 25 27 L25 21 Q25 17 29 17 M29 33 L35 33 Q39 33 39 37 L39 43 Q39 47 35 47 L29 47 Q25 47 25 43 L25 37 Q25 33 29 33"/>
  </g>
</svg>