<svg width="64" height="64" xmlns="http://www.w3.org/2000/svg" xmlns:xlink="http://www.w3.org/1999/xlink">
  <defs/>
  <g>
    <path stroke="none" fill="#FFFFFF" d="M36 20 L38 20 Q40 20 40 22 L40 28 Q40 30 38 30 L36 30 Q34 30 34 28 L34 22 Q34 20 36 20 M11 16 L11 48 Q11 53 16 53 L48 53 Q53 53 53 48 L53 16 Q53 11 48 11 L16 11 Q11 11 11 16 M16 8 L48 8 Q56 8 56 16 L56 48 Q56 56 48 56 L16 56 Q8 56 8 48 L8 16 Q8 8 16 8 M26 20 L28 20 Q30 20 30 22 L30 28 Q30 30 28 30 L26 30 Q24 30 24 28 L24 22 Q24 20 26 20"/>
  </g>
</svg>