<svg width="64" height="64" xmlns="http://www.w3.org/2000/svg" xmlns:xlink="http://www.w3.org/1999/xlink">
  <defs/>
  <g>
    <path stroke="none" fill="#FFFFFF" d="M31 22 L33 22 Q35 22 35 24 L35 26 Q35 28 33 28 L31 28 Q29 28 29 26 L29 24 Q29 22 31 22 M16 8 L48 8 Q56 8 56 16 L56 48 Q56 56 48 56 L16 56 Q8 56 8 48 L8 16 Q8 8 16 8 M11 16 L11 48 Q11 53 16 53 L48 53 Q53 53 53 48 L53 16 Q53 11 48 11 L16 11 Q11 11 11 16 M31 36 L33 36 Q35 36 35 38 L35 40 35 40.25 35 43 Q35 44.2 34.1 45.1 33.2 46 32 46 30.8 46 29.9 45.1 L31.3 43.7 Q31.6 44 32 44 L32.7 43.7 33 43 33 42 31 42 Q29 42 29 40 L29 38 Q29 36 31 36"/>
  </g>
</svg>