<svg width="64" height="64" xmlns="http://www.w3.org/2000/svg" xmlns:xlink="http://www.w3.org/1999/xlink">
  <defs/>
  <g>
    <path stroke="none" fill="#FFFFFF" d="M11 16 L11 48 Q11 53 16 53 L48 53 Q53 53 53 48 L53 16 Q53 11 48 11 L16 11 Q11 11 11 16 M16 8 L48 8 Q56 8 56 16 L56 48 Q56 56 48 56 L16 56 Q9.55 56 8.3 50.8 8 49.55 8 48 L8 16 Q8 14.45 8.3 13.2 9.55 8 16 8 M31 36 L33 36 Q35 36 35 38 L35 40 35 40.25 35 43 Q35 44.2 34.1 45.1 33.2 46 32 46 30.8 46 29.9 45.1 L31.3 43.7 Q31.6 44 32 44 L32.7 43.7 33 43 33 42 31 42 Q29 42 29 40 L29 38 Q29 36 31 36"/>
  </g>
</svg>