<svg width="64" height="64" xmlns="http://www.w3.org/2000/svg" xmlns:xlink="http://www.w3.org/1999/xlink">
  <defs/>
  <g>
    <path stroke="none" fill="#FFFFFF" d="M16 8 L48 8 Q56 8 56 16 L56 48 Q56 56 48 56 L16 56 Q8 56 8 48 L8 16 Q8 8 16 8 M34 24 L30 24 27 27 27 28.95 30 28.95 30 33.85 30 33.95 30 41 34 41 34 24 M18 41 L18 35 25 35 25 31 21.15 31 21.05 31 18 31 18 28 25 28 25 24 21.15 24 21.05 24 14 24 14 33.85 14 33.95 14 41 18 41 M44.5 28.4 Q45.25 29.15 44 30.45 L37 37 37 41 41.85 41 41.95 41 49 41 49 37 43 37 47.45 32.55 Q49.65 30.35 48.4 27 L47.4 25.65 47.35 25.6 Q45.75 24 43.5 24 L41.85 24 Q39.9 24.05 38.5 25.4 L38.4 25.5 Q37.35 26.6 37.1 28 L37 29 41 29 Q41 28.6 41.3 28.3 41.55 28.05 41.85 28 L41.95 28 43.5 28 Q44.1 28 44.5 28.4"/>
  </g>
</svg>