<svg width="64" height="64" xmlns="http://www.w3.org/2000/svg" xmlns:xlink="http://www.w3.org/1999/xlink">
  <defs/>
  <g>
    <path stroke="none" fill="#FFFFFF" d="M16 8 L48 8 Q56 8 56 16 L56 48 Q56 56 48 56 L16 56 Q8 56 8 48 L8 16 Q8 8 16 8 M34.5 36.6 Q34.1 37 33.5 37 L30.95 37 Q30.6 37 30.3 36.7 30 36.4 30 36 L26 36 26.1 37 Q26.35 38.4 27.4 39.5 L27.5 39.6 Q28.9 40.95 30.85 41 L33.5 41 Q35.75 41 37.35 39.4 L37.4 39.35 Q38.8 37.95 39 36 L39 35.5 Q39 33.2 37.4 31.6 35.8 30 33.5 30 L30 30 30 28 39 28 39 24 26 24 26 34 33.5 34 Q34.1 34 34.55 34.45 35 34.9 35 35.5 35 36.1 34.6 36.5 L34.5 36.6"/>
  </g>
</svg>