<svg width="64" height="64" xmlns="http://www.w3.org/2000/svg" xmlns:xlink="http://www.w3.org/1999/xlink">
  <defs/>
  <g>
    <path stroke="none" fill="#FFFFFF" d="M42 23 Q41.6 23 41.3 23.3 41 23.6 41 24 41 24.4 41.3 24.7 41.6 25 41.95 25 L42.05 25 Q43.2 25 44.1 25.9 45 26.8 45 28 45 29.2 44.1 30.1 43.2 31 42 31 L40 31 Q39.6 31 39.3 30.7 39 30.4 39 30 39 29.6 39.3 29.3 39.6 29 40 29 L42 29 42.7 28.7 43 28 42.7 27.3 Q42.4 27 42.05 27 L41.95 27 Q40.8 27 39.9 26.1 39 25.2 39 24 39 22.8 39.9 21.9 40.8 21 42 21 L44 21 Q44.4 21 44.7 21.3 L45 22 44.7 22.7 44 23 42 23 M16 14 L48 14 Q56 14 56 22 L56 41 Q56 49 48 49 L16 49 Q8 49 8 41 L8 22 Q8 14 16 14 M27 34.8 L27 39.25 27.2 39.75 28 40 28.75 39.75 28.75 39.8 29 39.25 29 34.8 28.75 34.25 28.75 34.3 Q28.45 34 28 34 27.55 34 27.2 34.3 L27.25 34.2 27 34.8 M25.85 32.8 L25.9 32.75 Q26.75 32 28 32 29.15 32 30.05 32.75 L30.1 32.8 Q31 33.65 31 34.8 L31 39.25 Q31 40.35 30.1 41.25 L30.05 41.3 Q29.15 42 28 42 26.75 42 25.9 41.3 L25.85 41.2 Q25 40.35 25 39.25 L25 34.8 Q25 33.65 25.85 32.8 M37.1 41.25 L37.05 41.3 Q36.15 42 35 42 33.75 42 32.9 41.3 L32.85 41.2 Q32 40.35 32 39.25 L32 34.8 Q32 33.65 32.85 32.8 L32.9 32.75 Q33.75 32 35 32 36.15 32 37.05 32.75 L37.1 32.8 Q38 33.65 38 34.8 L37.7 35.5 37 35.8 36.3 35.5 Q36 35.2 36 34.8 L35.75 34.25 35.75 34.3 Q35.45 34 35 34 34.55 34 34.2 34.3 L34.25 34.2 Q34 34.45 34 34.8 L34 39.25 34.2 39.75 35 40 35.75 39.75 35.75 39.8 36 39.25 Q36 38.85 36.3 38.55 36.6 38.25 37 38.25 37.4 38.25 37.7 38.55 L38 39.25 Q38 40.35 37.1 41.25 M18 33 Q18 32.6 18.3 32.3 18.6 32 19 32 19.4 32 19.7 32.3 L20 33 20 40 23 40 Q23.4 40 23.7 40.3 L24 41 23.7 41.7 23 42 19 42 Q18.6 42 18.3 41.7 18 41.4 18 41 L18 33 M35.1 25 L35.45 24.9 35.7 24.7 35.75 24.7 36 24 35.7 23.25 35.05 23 34 23 34 25 35.1 25 M35.1 27 L34 27 34 30 33.7 30.7 33 31 32.3 30.7 Q32 30.4 32 30 L32 22 Q32 21.6 32.3 21.3 32.6 21 33 21 L35.05 21 Q36.25 21 37.1 21.85 38 22.75 38 24 38 25.25 37.1 26.1 L37.1 26.15 36.45 26.65 36.35 26.7 35.1 27 M27 23.8 L27 26 29 26 29 23.8 28.75 23.25 28.75 23.3 Q28.45 23 28 23 27.55 23 27.2 23.3 L27.25 23.2 27 23.8 M25 23.8 Q25 22.65 25.85 21.8 L25.9 21.75 Q26.75 21 28 21 29.15 21 30.05 21.75 L30.1 21.8 Q31 22.65 31 23.8 L31 30 30.7 30.7 Q30.4 31 30 31 L29.3 30.7 Q29 30.4 29 30 L29 28 27 28 27 30 26.7 30.7 26 31 Q25.6 31 25.3 30.7 25 30.4 25 30 L25 23.8 M23.1 30.25 L23.05 30.3 Q22.15 31 21 31 19.75 31 18.9 30.3 L18.85 30.2 Q18 29.35 18 28.25 L18 23.8 Q18 22.65 18.85 21.8 L18.9 21.75 Q19.75 21 21 21 22.15 21 23.05 21.75 L23.1 21.8 Q24 22.65 24 23.8 L23.7 24.5 23 24.8 Q22.6 24.8 22.3 24.5 22 24.2 22 23.8 L21.75 23.25 21.75 23.3 Q21.45 23 21 23 20.55 23 20.2 23.3 L20.25 23.2 Q20 23.45 20 23.8 L20 28.25 20.2 28.75 21 29 21.75 28.75 21.75 28.8 22 28.25 Q22 27.85 22.3 27.55 22.6 27.25 23 27.25 23.4 27.25 23.7 27.55 L24 28.25 Q24 29.35 23.1 30.25 M39 33 Q39 32.6 39.3 32.3 39.6 32 40 32 40.4 32 40.7 32.3 L41 33 41 36 41.4 36 43.1 32.55 Q43.3 32.2 43.7 32.05 L44.45 32.1 44.95 32.7 44.9 33.45 43.15 37 44.9 40.55 Q45.1 40.95 44.95 41.35 L44.45 41.9 43.7 41.95 Q43.3 41.8 43.1 41.45 L41.4 38 41 38 41 41 40.7 41.7 40 42 Q39.6 42 39.3 41.7 39 41.4 39 41 L39 33 M11 22 L11 41 Q11 46 16 46 L48 46 Q53 46 53 41 L53 22 Q53 17 48 17 L16 17 Q11 17 11 22"/>
  </g>
</svg>