<svg width="64" height="64" xmlns="http://www.w3.org/2000/svg" xmlns:xlink="http://www.w3.org/1999/xlink">
  <defs/>
  <g>
    <path stroke="none" fill="#FFFFFF" d="M11 16 L11 48 Q11 53 16 53 L48 53 Q53 53 53 48 L53 16 Q53 11 48 11 L16 11 Q11 11 11 16 M16 8 L48 8 Q56 8 56 16 L56 48 Q56 56 48 56 L16 56 Q8 56 8 48 L8 16 Q8 8 16 8 M47.95 26.05 Q50 28.15 50 31 L50 34 Q50 36.85 47.95 38.9 L47.9 38.95 Q45.85 41 43 41 40.15 41 38.05 38.95 36 36.9 36 34 L36 31 Q36 28.15 38 26.05 L38.05 26 Q40.15 24 43 24 45.9 24 47.95 26.05 M43 28 Q41.8 28 40.9 28.85 L40.85 28.9 Q40 29.8 40 31 L40 34 Q40 35.2 40.9 36.1 41.75 37 43 37 44.2 37 45.05 36.1 L45.1 36.05 Q46 35.2 46 34 L46 31 Q46 29.75 45.1 28.9 44.2 28 43 28 M18 41 L14 41 14 33.95 14 33.85 14 24 21.05 24 21.15 24 25 24 25 28 18 28 18 31 21.05 31 21.15 31 25 31 25 35 18 35 18 41 M34 24 L34 41 30 41 30 33.95 30 33.85 30 28.95 27 28.95 27 27 30 24 34 24"/>
  </g>
</svg>