<svg width="64" height="64" xmlns="http://www.w3.org/2000/svg" xmlns:xlink="http://www.w3.org/1999/xlink">
  <defs/>
  <g>
    <path stroke="none" fill="#FFFFFF" d="M16 8 L48 8 Q56 8 56 16 L56 48 Q56 56 48 56 L16 56 Q8 56 8 48 L8 16 Q8 8 16 8 M37 38 L34 38 30 31 30 38 27 38 27 25 30 25 34 32 34 25 37 25 37 38 M17 25 L25 25 25 28 20 28 20 30 25 30 25 33 20 33 20 35 25 35 25 38 17 38 17 25 M42 28.05 L42 34.95 Q42.7 34.8 43.2 34.3 L43.3 34.2 Q44 33.55 44 32.5 L44 30.5 Q44 29.45 43.3 28.8 L43.25 28.75 43.2 28.75 42 28.05 M39 25 L41.5 25 Q43.8 25 45.35 26.6 L45.4 26.7 Q47 28.2 47 30.5 L47 32.5 Q47 34.8 45.4 36.35 L45.35 36.4 Q43.8 38 41.5 38 L39 38 39 25 M11 16 L11 48 Q11 53 16 53 L48 53 Q53 53 53 48 L53 16 Q53 11 48 11 L16 11 Q11 11 11 16"/>
  </g>
</svg>