<svg width="64" height="64" xmlns="http://www.w3.org/2000/svg" xmlns:xlink="http://www.w3.org/1999/xlink">
  <defs/>
  <g>
    <path stroke="none" fill="#FFFFFF" d="M11 16 L11 48 Q11 53 16 53 L48 53 Q53 53 53 48 L53 16 Q53 11 48 11 L16 11 Q11 11 11 16 M16 8 L48 8 Q56 8 56 16 L56 48 Q56 56 48 56 L16 56 Q8 56 8 48 L8 16 Q8 8 16 8 M34.75 34.25 Q33 32.5 33 30 33 27.55 34.75 25.8 L34.8 25.75 Q36.55 24 39 24 L40 24 Q42.5 24 44.25 25.75 46 27.5 46 30 L45.9 31 45.85 31.35 42 41 37 41 39 36 Q36.5 36 34.75 34.25 M39 32 L40 32 40.65 31.9 41.4 31.45 41.45 31.4 41.75 31 42 30 Q42 29.2 41.4 28.6 40.8 28 40 28 L39 28 Q38.2 28 37.65 28.55 L37.55 28.65 Q37 29.2 37 30 37 30.8 37.6 31.4 38.2 32 39 32 M23 41 L19 41 19 33.95 19 33.85 19 24 26.05 24 26.15 24 30 24 30 28 23 28 23 31 26.05 31 26.15 31 30 31 30 35 23 35 23 41"/>
  </g>
</svg>