<svg width="64" height="64" xmlns="http://www.w3.org/2000/svg" xmlns:xlink="http://www.w3.org/1999/xlink">
  <defs/>
  <g>
    <path stroke="none" fill="#FFFFFF" d="M16 8 L48 8 Q56 8 56 16 L56 48 Q56 56 48 56 L16 56 Q8 56 8 48 L8 16 Q8 8 16 8 M31 36 Q29 36 29 38 L29 40 Q29 42 31 42 L33 42 33 43 32.7 43.7 32 44 Q31.6 44 31.3 43.7 L29.9 45.1 Q30.8 46 32 46 33.2 46 34.1 45.1 35 44.2 35 43 L35 40.25 35 40 35 38 Q35 36 33 36 L31 36 M31 22 Q29 22 29 24 L29 26 Q29 28 31 28 L33 28 Q35 28 35 26 L35 24 Q35 22 33 22 L31 22"/>
  </g>
</svg>