<svg width="64" height="64" xmlns="http://www.w3.org/2000/svg" xmlns:xlink="http://www.w3.org/1999/xlink">
  <defs/>
  <g>
    <path stroke="none" fill="#FFFFFF" d="M48 8 Q56 8 56 16 L56 48 Q56 56 48 56 L16 56 Q8 56 8 48 L8 16 Q8 8 16 8 L48 8 M42.45 24.4 Q43 23.8 43 23 43 22.2 42.5 21.6 L42.4 21.55 Q41.8 21 41 21 40.2 21 39.65 21.6 39 22.2 39 23 L39 25 41 25 Q41.8 25 42.45 24.4 M35 25 L35 23 Q35 20.5 36.8 18.75 38.5 17 41 17 43.45 17 45.25 18.7 L45.3 18.75 45.3 18.8 Q47 20.55 47 23 47 25.5 45.3 27.25 43.5 29 41 29 L39 29 39 35 41 35 Q43.5 35 45.3 36.8 47 38.5 47 41 47 43.45 45.3 45.25 L45.3 45.3 45.25 45.3 Q43.45 47 41 47 38.5 47 36.8 45.3 35 43.5 35 41 L35 39 29 39 29 41 Q29 43.5 27.25 45.3 25.5 47 23 47 20.55 47 18.8 45.3 L18.75 45.3 18.7 45.25 Q17 43.45 17 41 17 38.5 18.75 36.8 20.5 35 23 35 L25 35 25 29 23 29 Q20.5 29 18.75 27.25 17 25.5 17 23 17 20.55 18.7 18.8 L18.8 18.7 Q20.55 17 23 17 25.5 17 27.25 18.75 29 20.5 29 23 L29 25 35 25 M53 16 Q53 11 48 11 L16 11 Q11 11 11 16 L11 48 Q11 53 16 53 L48 53 Q53 53 53 48 L53 16 M21.6 39.65 Q21 40.2 21 41 21 41.8 21.55 42.4 L21.6 42.5 Q22.2 43 23 43 23.8 43 24.4 42.45 25 41.8 25 41 L25 39 23 39 Q22.2 39 21.6 39.65 M35 29 L29 29 29 35 35 35 35 29 M23 25 L25 25 25 23 Q25 22.2 24.4 21.6 23.8 21 23 21 22.2 21 21.6 21.55 L21.55 21.6 Q21 22.2 21 23 21 23.8 21.6 24.4 22.2 25 23 25 M41 39 L39 39 39 41 Q39 41.8 39.65 42.45 40.2 43 41 43 41.8 43 42.4 42.5 L42.5 42.4 Q43 41.8 43 41 43 40.2 42.45 39.65 41.8 39 41 39"/>
  </g>
</svg>