<svg width="64" height="64" xmlns="http://www.w3.org/2000/svg" xmlns:xlink="http://www.w3.org/1999/xlink">
  <defs/>
  <g>
    <path stroke="none" fill="#FFFFFF" d="M16 8 L48 8 Q56 8 56 16 L56 48 Q56 56 48 56 L16 56 Q8 56 8 48 L8 16 Q8 8 16 8 M45 24 L45 41 41 41 41 34 34.95 34 Q34.15 34 33.55 33.4 33 32.85 33 32.05 L33 24 37 24 37 30 41 30 41 24 45 24 M11 16 L11 48 Q11 53 16 53 L48 53 Q53 53 53 48 L53 16 Q53 11 48 11 L16 11 Q11 11 11 16 M23 41 L19 41 19 33.95 19 33.85 19 24 26.05 24 26.15 24 30 24 30 28 23 28 23 31 26.05 31 26.15 31 30 31 30 35 23 35 23 41"/>
  </g>
</svg>