<svg width="64" height="64" xmlns="http://www.w3.org/2000/svg" xmlns:xlink="http://www.w3.org/1999/xlink">
  <defs/>
  <g>
    <path stroke="none" fill="#FFFFFF" d="M16 8 L48 8 Q56 8 56 16 L56 48 Q56 52.9 53 54.8 51.1 56 48 56 L16 56 Q12.9 56 11 54.8 8 52.9 8 48 L8 16 Q8 8 16 8 M11 16 L11 48 Q11 53 16 53 L48 53 Q53 53 53 48 L53 16 Q53 11 48 11 L16 11 Q11 11 11 16 M46 22 L46 42 45.7 42.7 45 43 27.55 43 27.15 42.9 26.8 42.7 17.95 32.7 Q17.65 32.4 17.7 32 17.65 31.6 17.95 31.35 L26.8 21.35 27.15 21.1 27.55 21 45 21 Q45.4 21 45.7 21.3 L46 22 M42 39 L42 25 28.9 25 28.9 25.05 22.7 32 28.9 39 42 39 M39.7 35.3 L38.3 36.7 35 33.4 31.7 36.7 30.3 35.3 33.6 32 30.3 28.7 31.7 27.3 35 30.6 38.3 27.3 39.7 28.7 36.4 32 39.7 35.3"/>
  </g>
</svg>