<svg width="64" height="64" xmlns="http://www.w3.org/2000/svg" xmlns:xlink="http://www.w3.org/1999/xlink">
  <defs/>
  <g>
    <path stroke="none" fill="#FFFFFF" d="M11 16 L11 48 Q11 53 16 53 L48 53 Q53 53 53 48 L53 16 Q53 11 48 11 L16 11 Q11 11 11 16 M16 8 L48 8 Q56 8 56 16 L56 48 Q56 56 48 56 L16 56 Q8 56 8 48 L8 16 Q8 8 16 8 M31 32 L32 32 32.65 31.9 33.4 31.45 33.45 31.4 33.75 31 34 30 Q34 29.2 33.4 28.6 32.8 28 32 28 L31 28 Q30.2 28 29.65 28.55 L29.55 28.65 Q29 29.2 29 30 29 30.8 29.6 31.4 30.2 32 31 32 M26.75 34.25 Q25 32.5 25 30 25 27.55 26.75 25.8 L26.8 25.75 Q28.55 24 31 24 L32 24 Q34.5 24 36.25 25.75 38 27.5 38 30 L37.9 31 37.85 31.35 34 41 29 41 31 36 Q28.5 36 26.75 34.25"/>
  </g>
</svg>