<svg width="64" height="64" xmlns="http://www.w3.org/2000/svg" xmlns:xlink="http://www.w3.org/1999/xlink">
  <defs/>
  <g>
    <path stroke="none" fill="#FFFFFF" d="M16 8 L48 8 Q56 8 56 16 L56 48 Q56 56 48 56 L16 56 Q8 56 8 48 L8 16 Q8 8 16 8 M33 33 L32 33 31.35 33.1 30.6 33.55 30.55 33.6 30.25 34 Q30 34.45 30 35 30 35.8 30.6 36.4 31.2 37 32 37 L33 37 Q33.8 37 34.35 36.45 L34.45 36.35 Q35 35.8 35 35 35 34.2 34.4 33.6 33.8 33 33 33 M37.25 30.75 Q39 32.5 39 35 39 37.45 37.25 39.2 L37.2 39.25 Q35.45 41 33 41 L32 41 Q29.5 41 27.75 39.25 26 37.5 26 35 L26.1 34 26.15 33.65 30 24 35 24 33 29 Q35.5 29 37.25 30.75 M11 16 L11 48 Q11 53 16 53 L48 53 Q53 53 53 48 L53 16 Q53 11 48 11 L16 11 Q11 11 11 16"/>
  </g>
</svg>