<svg width="64" height="64" xmlns="http://www.w3.org/2000/svg" xmlns:xlink="http://www.w3.org/1999/xlink">
  <defs/>
  <g>
    <path stroke="none" fill="#FFFFFF" d="M11 16 L11 48 Q11 53 16 53 L48 53 Q53 53 53 48 L53 16 Q53 11 48 11 L16 11 Q11 11 11 16 M37 31 L36.7 31.7 36 32 Q35.6 32 35.3 31.7 L35 31 35 24 34 24 33.3 23.7 Q33 23.4 33 23 33 22.6 33.3 22.3 33.6 22 34 22 L38 22 38.7 22.3 39 23 38.7 23.7 38 24 37 24 37 31 M16 8 L48 8 Q56 8 56 16 L56 48 Q56 56 48 56 L16 56 Q8 56 8 48 L8 16 Q8 8 16 8 M22 35 Q21.6 35 21.3 35.3 21 35.6 21 36 21 36.4 21.3 36.7 21.6 37 21.95 37 L22.05 37 Q23.2 37 24.1 37.9 25 38.8 25 40 25 41.2 24.1 42.1 23.2 43 22 43 L20 43 19.3 42.7 Q19 42.4 19 42 19 41.6 19.3 41.3 19.6 41 20 41 L22 41 22.7 40.7 23 40 22.7 39.3 22.05 39 21.95 39 Q20.8 39 19.9 38.1 19 37.2 19 36 19 34.8 19.9 33.9 20.8 33 22 33 L24 33 Q24.4 33 24.7 33.3 L25 34 24.7 34.7 24 35 22 35 M31.1 42.25 L31.05 42.3 Q30.15 43 29 43 27.75 43 26.9 42.3 L26.85 42.2 Q26 41.35 26 40.25 L26 35.8 Q26 34.65 26.85 33.8 L26.9 33.75 Q27.75 33 29 33 30.15 33 31.05 33.75 L31.1 33.8 Q32 34.65 32 35.8 L31.7 36.5 31 36.8 Q30.6 36.8 30.3 36.5 30 36.2 30 35.8 L29.75 35.25 29.75 35.3 Q29.45 35 29 35 28.55 35 28.2 35.3 L28.25 35.2 Q28 35.45 28 35.8 L28 40.25 28.2 40.75 29 41 29.75 40.75 29.75 40.8 30 40.25 Q30 39.85 30.3 39.55 30.6 39.25 31 39.25 31.4 39.25 31.7 39.55 L32 40.25 Q32 41.35 31.1 42.25 M29.1 26 L29.45 25.9 29.7 25.7 29.75 25.7 30 25 29.7 24.25 Q29.45 24 29.05 24 L28 24 28 26 29.1 26 M31.1 27.1 L31.1 27.15 30.45 27.65 31.9 30.55 31.95 31.35 31.45 31.9 30.7 31.95 Q30.3 31.8 30.1 31.45 L28.4 28 28 28 28 31 27.7 31.7 Q27.4 32 27 32 L26.3 31.7 26 31 26 23 Q26 22.6 26.3 22.3 26.6 22 27 22 L29.05 22 Q30.25 22 31.1 22.85 32 23.75 32 25 32 26.25 31.1 27.1 M21 31 L20.7 31.7 20 32 19.3 31.7 Q19 31.4 19 31 L19 23 Q19 22.6 19.3 22.3 19.6 22 20 22 L22.05 22 Q23.25 22 24.1 22.85 25 23.75 25 25 25 26.25 24.1 27.1 L24.1 27.15 23.45 27.65 23.35 27.7 22.1 28 21 28 21 31 M22.1 26 L22.45 25.9 22.7 25.7 22.75 25.7 23 25 22.7 24.25 22.05 24 21 24 21 26 22.1 26 M36.1 37 L36.45 36.9 36.7 36.7 36.75 36.7 37 36 36.7 35.25 Q36.45 35 36.05 35 L35 35 35 37 36.1 37 M38.1 38.1 L38.1 38.15 37.45 38.65 38.9 41.55 38.95 42.35 38.45 42.9 37.7 42.95 Q37.3 42.8 37.1 42.45 L35.4 39 35 39 35 42 34.7 42.7 Q34.4 43 34 43 L33.3 42.7 Q33 42.4 33 42 L33 34 Q33 33.6 33.3 33.3 33.6 33 34 33 L36.05 33 Q37.25 33 38.1 33.85 39 34.75 39 36 39 37.25 38.1 38.1 M40 35.8 Q40 34.65 40.85 33.8 L40.9 33.75 Q41.75 33 43 33 44.15 33 45.05 33.75 L45.1 33.8 Q46 34.65 46 35.8 L46 42 45.7 42.7 45 43 Q44.6 43 44.3 42.7 44 42.4 44 42 L44 35.8 43.75 35.25 43.75 35.3 Q43.45 35 43 35 42.55 35 42.2 35.3 L42.25 35.2 42 35.8 42 42 41.7 42.7 41 43 40.3 42.7 Q40 42.4 40 42 L40 35.8"/>
  </g>
</svg>