<svg width="64" height="64" xmlns="http://www.w3.org/2000/svg" xmlns:xlink="http://www.w3.org/1999/xlink">
  <defs/>
  <g>
    <path stroke="none" fill="#FFFFFF" d="M11 16 L11 48 Q11 53 16 53 L48 53 Q53 53 53 48 L53 16 Q53 11 48 11 L16 11 Q11 11 11 16 M16 8 L48 8 Q56 8 56 16 L56 48 Q56 56 48 56 L16 56 Q8 56 8 48 L8 16 Q8 8 16 8 M47 24 L47 41 43 41 43 33.95 43 33.85 43 28.95 40 28.95 40 27 43 24 47 24 M38 24 L38 41 34 41 34 33.95 34 33.85 34 28.95 31 28.95 31 27 34 24 38 24 M21 41 L17 41 17 33.95 17 33.85 17 24 24.05 24 24.15 24 28 24 28 28 21 28 21 31 24.05 31 24.15 31 28 31 28 35 21 35 21 41"/>
  </g>
</svg>