<svg width="64" height="64" xmlns="http://www.w3.org/2000/svg" xmlns:xlink="http://www.w3.org/1999/xlink">
  <defs/>
  <g>
    <path stroke="none" fill="#FFFFFF" d="M16 16 L48 16 Q56 16 56 24 L56 40 Q56 44.9 53 46.8 51.1 48 48 48 L16 48 Q12.9 48 11 46.8 8 44.9 8 40 L8 24 Q8 16 16 16 M30 36 L29.7 36.7 29 37 Q28.6 37 28.3 36.7 28 36.4 28 36 L28 33 26 33 26 36 25.7 36.7 25 37 24.3 36.7 Q24 36.4 24 36 L24 28 Q24 27.6 24.3 27.3 24.6 27 25 27 25.4 27 25.7 27.3 L26 28 26 31 28 31 28 28 Q28 27.6 28.3 27.3 28.6 27 29 27 L29.7 27.3 30 28 30 36 M33 36 L32.7 36.7 32 37 Q31.6 37 31.3 36.7 31 36.4 31 36 L31 28 Q31 27.6 31.3 27.3 31.6 27 32 27 32.4 27 32.7 27.3 L33 28 33 36 M36 36 L35.7 36.7 35 37 Q34.6 37 34.3 36.7 34 36.4 34 36 L34 28 Q34 27.6 34.3 27.3 34.6 27 35 27 L39 27 Q39.4 27 39.7 27.3 L40 28 39.7 28.7 Q39.4 29 39 29 L36 29 36 31 39 31 Q39.4 31 39.7 31.3 L40 32 39.7 32.7 Q39.4 33 39 33 L36 33 36 36 M20 29 Q19.6 29 19.3 29.3 19 29.6 19 30 19 30.4 19.3 30.7 L19.95 31 20.05 31 Q21.2 31 22.1 31.9 23 32.8 23 34 23 35.2 22.1 36.1 21.2 37 20 37 L18 37 17.3 36.7 Q17 36.4 17 36 17 35.6 17.3 35.3 17.6 35 18 35 L20 35 20.7 34.7 21 34 20.7 33.3 Q20.4 33 20.05 33 L19.95 33 Q18.8 33 17.9 32.1 17 31.2 17 30 17 28.8 17.9 27.9 18.8 27 20 27 L22 27 Q22.4 27 22.7 27.3 L23 28 22.7 28.7 22 29 20 29 M42 29 L41.3 28.7 Q41 28.4 41 28 41 27.6 41.3 27.3 41.6 27 42 27 L46 27 Q46.4 27 46.7 27.3 L47 28 46.7 28.7 46 29 45 29 45 36 44.7 36.7 44 37 Q43.6 37 43.3 36.7 43 36.4 43 36 L43 29 42 29 M11 24 L11 40 Q11 45 16 45 L48 45 Q53 45 53 40 L53 24 Q53 19 48 19 L16 19 Q11 19 11 24"/>
  </g>
</svg>