<svg width="64" height="64" xmlns="http://www.w3.org/2000/svg" xmlns:xlink="http://www.w3.org/1999/xlink">
  <defs/>
  <g>
    <path stroke="none" fill="#FFFFFF" d="M16 8 L48 8 Q56 8 56 16 L56 48 Q56 56 48 56 L16 56 Q8 56 8 48 L8 16 Q8 8 16 8 M34.5 36.6 L34.6 36.5 Q35 36.1 35 35.5 35 34.9 34.55 34.45 34.1 34 33.5 34 L26 34 26 24 39 24 39 28 30 28 30 30 33.5 30 Q35.8 30 37.4 31.6 39 33.2 39 35.5 L39 36 Q38.8 37.95 37.4 39.35 L37.35 39.4 Q35.75 41 33.5 41 L30.85 41 Q28.9 40.95 27.5 39.6 L27.4 39.5 Q26.35 38.4 26.1 37 L26 36 30 36 Q30 36.4 30.3 36.7 30.6 37 30.95 37 L33.5 37 Q34.1 37 34.5 36.6 M11 16 L11 48 Q11 53 16 53 L48 53 Q53 53 53 48 L53 16 Q53 11 48 11 L16 11 Q11 11 11 16"/>
  </g>
</svg>