<svg width="64" height="64" xmlns="http://www.w3.org/2000/svg" xmlns:xlink="http://www.w3.org/1999/xlink">
  <defs/>
  <g>
    <path stroke="none" fill="#FFFFFF" d="M16 8 L48 8 Q56 8 56 16 L56 48 Q56 56 48 56 L16 56 Q8 56 8 48 L8 16 Q8 8 16 8 M38 30 Q37.6 30 37.3 29.7 37 29.4 37 29 37 28.6 37.3 28.3 37.6 28 37.95 28 L41.05 28 Q41.4 28 41.7 28.3 L42 29 41.7 29.7 41 30 38 30 M40.5 41 Q42.75 41 44.35 39.4 L44.4 39.35 Q45.8 37.95 46 36 L46 35.5 Q46 33.6 44.9 32.2 46 30.85 46 29 46 26.95 44.6 25.5 L44.5 25.4 Q43.05 24 41.05 24 L37.95 24 36.65 24.2 Q35.45 24.5 34.5 25.4 L34.4 25.5 Q33 26.95 33 29 33 30.85 34.1 32.2 33 33.6 33 35.5 L33 36 Q33.2 37.95 34.6 39.35 L34.65 39.4 Q36.25 41 38.5 41 L40.5 41 M41.5 36.6 Q41.1 37 40.5 37 L38.5 37 Q37.9 37 37.5 36.6 L37.4 36.5 Q37 36.1 37 35.5 37 34.9 37.45 34.45 37.9 34 38.5 34 L40.55 34 Q41.1 34 41.55 34.45 42 34.9 42 35.5 42 36.1 41.6 36.5 L41.5 36.6 M22 41 L22 35 29 35 29 31 25.15 31 25.05 31 22 31 22 28 29 28 29 24 25.15 24 25.05 24 18 24 18 33.85 18 33.95 18 41 22 41"/>
  </g>
</svg>