<svg width="64" height="64" xmlns="http://www.w3.org/2000/svg" xmlns:xlink="http://www.w3.org/1999/xlink">
  <defs/>
  <g>
    <path stroke="none" fill="#FFFFFF" d="M16 8 L48 8 Q56 8 56 16 L56 48 Q56 56 48 56 L16 56 Q8 56 8 48 L8 16 Q8 8 16 8 M26.75 34.25 Q28.5 36 31 36 L29 41 34 41 37.85 31.35 37.9 31 38 30 Q38 27.5 36.25 25.75 34.5 24 32 24 L31 24 Q28.55 24 26.8 25.75 L26.75 25.8 Q25 27.55 25 30 25 32.5 26.75 34.25 M31 32 Q30.2 32 29.6 31.4 29 30.8 29 30 29 29.2 29.55 28.65 L29.65 28.55 Q30.2 28 31 28 L32 28 Q32.8 28 33.4 28.6 34 29.2 34 30 L33.75 31 33.45 31.4 33.4 31.45 32.65 31.9 32 32 31 32"/>
  </g>
</svg>