<svg width="64" height="64" xmlns="http://www.w3.org/2000/svg" xmlns:xlink="http://www.w3.org/1999/xlink">
  <defs/>
  <g>
    <path stroke="none" fill="#FFFFFF" d="M16 8 L48 8 Q56 8 56 16 L56 48 Q56 56 48 56 L16 56 Q8 56 8 48 L8 16 Q8 8 16 8 M23 41 L23 35 30 35 30 31 23 31 23 28 30 28 30 24 24.15 24 24.05 24 19 24 19 33.85 19 33.95 19 41 23 41 M40.5 28.4 Q41.25 29.15 40 30.45 L33 37 33 41 37.85 41 37.95 41 45 41 45 37 39 37 43.45 32.55 Q45.65 30.35 44.4 27 L43.4 25.65 43.35 25.6 43.25 25.5 Q41.7 24 39.5 24 L37.85 24 Q35.9 24.05 34.5 25.4 L34.4 25.5 Q33.35 26.6 33.1 28 L33 29 37 29 Q37 28.6 37.3 28.3 37.55 28.05 37.85 28 L37.95 28 39.5 28 Q40.1 28 40.5 28.4"/>
  </g>
</svg>