<svg width="64" height="64" xmlns="http://www.w3.org/2000/svg" xmlns:xlink="http://www.w3.org/1999/xlink">
  <defs/>
  <g>
    <path stroke="none" fill="#FFFFFF" d="M16 8 L48 8 Q56 8 56 16 L56 48 Q56 56 48 56 L16 56 Q8 56 8 48 L8 16 Q8 8 16 8 M35 38 L32 38 28 31 28 38 25 38 25 25 28 25 32 32 32 25 35 25 35 38 M23 38 L20 38 20 25 23 25 23 38 M41 28 Q40.6 28 40.3 28.3 40 28.6 40 29 40 29.4 40.3 29.7 L40.95 30 41.05 30 Q42.6 30 43.8 31.2 45 32.4 45 34 45 35.6 43.8 36.8 42.6 38 41 38 L37 38 37 35 41 35 41.7 34.7 42 34 41.7 33.3 Q41.4 33 41.05 33 L40.95 33 Q39.4 33 38.2 31.8 37 30.6 37 29 37 27.4 38.2 26.2 39.4 25 41 25 L45 25 45 28 41 28 M11 16 L11 48 Q11 53 16 53 L48 53 Q53 53 53 48 L53 16 Q53 11 48 11 L16 11 Q11 11 11 16"/>
  </g>
</svg>