<svg width="64" height="64" xmlns="http://www.w3.org/2000/svg" xmlns:xlink="http://www.w3.org/1999/xlink">
  <defs/>
  <g>
    <path stroke="none" fill="#FFFFFF" d="M16 8 L48 8 Q56 8 56 16 L56 48 Q56 56 48 56 L16 56 Q8 56 8 48 L8 16 Q8 8 16 8 M32 28 Q31.6 28 31.3 28.3 31 28.6 31 29 31 29.4 31.3 29.7 L31.95 30 32.05 30 Q33.6 30 34.8 31.2 36 32.4 36 34 36 35.6 34.8 36.8 33.6 38 32 38 L28 38 28 35 32 35 32.7 34.7 33 34 32.7 33.3 Q32.4 33 32.05 33 L31.95 33 Q30.4 33 29.2 31.8 28 30.6 28 29 28 27.4 29.2 26.2 30.4 25 32 25 L36 25 36 28 32 28 M18 25 L26 25 26 28 21 28 21 30 26 30 26 33 21 33 21 35 26 35 26 38 18 38 18 25 M44.8 37 L44.7 37.1 Q43.55 38 42 38 40.4 38 39.3 37.1 L39.2 37.05 39.15 36.95 Q38 35.8 38 34.3 L38 28.75 Q38 27.15 39.2 26.05 L39.25 26.05 Q40.4 25 42 25 43.55 25 44.75 26.05 46 27.15 46 28.75 L46 30.25 43 30.25 43 28.75 42.8 28.3 Q42.45 28 42 28 41.55 28 41.25 28.25 L41.2 28.3 41 28.75 41 34.3 41.2 34.8 42 35 42.75 34.8 43 34.3 43 32.8 46 32.8 46 34.3 Q46.05 35.8 44.8 37 M11 16 L11 48 Q11 53 16 53 L48 53 Q53 53 53 48 L53 16 Q53 11 48 11 L16 11 Q11 11 11 16"/>
  </g>
</svg>