<svg width="64" height="64" xmlns="http://www.w3.org/2000/svg" xmlns:xlink="http://www.w3.org/1999/xlink">
  <defs/>
  <g>
    <path stroke="none" fill="#FFFFFF" d="M16 8 L48 8 Q56 8 56 16 L56 48 Q56 52.9 53 54.8 51.1 56 48 56 L16 56 Q12.9 56 11 54.8 8 52.9 8 48 L8 16 Q8 8 16 8 M42 39 L28.9 39 22.7 32 28.9 25.05 28.9 25 42 25 42 39 M46 22 L45.7 21.3 Q45.4 21 45 21 L27.55 21 27.15 21.1 26.8 21.35 17.95 31.35 Q17.65 31.6 17.7 32 17.65 32.4 17.95 32.7 L26.8 42.7 27.15 42.9 27.55 43 45 43 45.7 42.7 46 42 46 22 M39.7 35.3 L36.4 32 39.7 28.7 38.3 27.3 35 30.6 31.7 27.3 30.3 28.7 33.6 32 30.3 35.3 31.7 36.7 35 33.4 38.3 36.7 39.7 35.3"/>
  </g>
</svg>