<svg width="64" height="64" xmlns="http://www.w3.org/2000/svg" xmlns:xlink="http://www.w3.org/1999/xlink">
  <defs/>
  <g>
    <path stroke="none" fill="#FFFFFF" d="M11 16 L11 48 Q11 53 16 53 L48 53 Q53 53 53 48 L53 16 Q53 11 48 11 L16 11 Q11 11 11 16 M34 30 Q36.5 30 38.25 31.75 40 33.5 40 36 40 38.45 38.25 40.2 L38.2 40.25 Q36.45 42 34 42 L29.85 42 Q27.5 41.95 25.8 40.25 L25.75 40.2 Q24.75 39.2 24.35 38 L24.2 37.55 28 36 Q28 36.8 28.55 37.35 L28.65 37.45 Q29.2 38 29.95 38 L34 38 Q34.8 38 35.35 37.45 L35.45 37.35 Q36 36.8 36 36 36 35.2 35.4 34.6 34.8 34 34 34 L30 34 Q27.5 34 25.75 32.25 24 30.5 24 28 24 25.55 25.75 23.8 L25.8 23.75 Q27.55 22 30 22 L34.15 22 Q36.5 22.05 38.2 23.75 L38.25 23.8 Q39.25 24.8 39.7 26 L39.85 26.5 36 28 Q36 27.2 35.45 26.65 L35.35 26.55 Q34.8 26 34.05 26 L30 26 Q29.2 26 28.65 26.55 L28.55 26.65 Q28 27.2 28 28 28 28.8 28.6 29.4 29.2 30 30 30 L34 30 M16 8 L48 8 Q56 8 56 16 L56 48 Q56 56 48 56 L16 56 Q8 56 8 48 L8 16 Q8 8 16 8"/>
  </g>
</svg>