<svg width="64" height="64" xmlns="http://www.w3.org/2000/svg" xmlns:xlink="http://www.w3.org/1999/xlink">
  <defs/>
  <g>
    <path stroke="none" fill="#FFFFFF" d="M44.25 30.75 Q42.5 29 40 29 L42 24 37 24 33.15 33.65 33.1 34 33 35 Q33 37.5 34.75 39.25 36.5 41 39 41 L40 41 Q42.45 41 44.2 39.25 L44.25 39.2 Q46 37.45 46 35 46 32.5 44.25 30.75 M16 8 L48 8 Q56 8 56 16 L56 48 Q56 56 48 56 L16 56 Q8 56 8 48 L8 16 Q8 8 16 8 M40 33 Q40.8 33 41.4 33.6 42 34.2 42 35 42 35.8 41.45 36.35 L41.35 36.45 Q40.8 37 40 37 L39 37 Q38.2 37 37.6 36.4 37 35.8 37 35 37 34.45 37.25 34 L37.55 33.6 37.6 33.55 Q37.95 33.25 38.35 33.1 L39 33 40 33 M23 41 L23 35 30 35 30 31 26.15 31 26.05 31 23 31 23 28 30 28 30 24 26.15 24 26.05 24 19 24 19 33.85 19 33.95 19 41 23 41"/>
  </g>
</svg>