<svg width="64" height="64" xmlns="http://www.w3.org/2000/svg" xmlns:xlink="http://www.w3.org/1999/xlink">
  <defs/>
  <g>
    <path stroke="none" fill="#FFFFFF" d="M44 26 Q44.4 26 44.7 26.3 L45 27 44.7 27.7 44 28 41 28 41 30 44 30 Q44.4 30 44.7 30.3 L45 31 44.7 31.7 44 32 40 32 Q39.6 32 39.3 31.7 39 31.4 39 31 L39 23 Q39 22.6 39.3 22.3 39.6 22 40 22 L44 22 Q44.4 22 44.7 22.3 L45 23 44.7 23.7 44 24 41 24 41 26 44 26 M37 27 Q37.4 27 37.7 27.3 L38 28 38 29.25 Q38 30.35 37.1 31.25 L37.05 31.3 Q36.15 32 35 32 33.75 32 32.9 31.3 L32.85 31.2 Q32 30.35 32 29.25 L32 24.8 Q32 23.65 32.85 22.8 L32.9 22.75 Q33.75 22 35 22 36.15 22 37.05 22.75 L37.1 22.8 Q38 23.65 38 24.8 L37.7 25.5 37 25.8 36.3 25.5 Q36 25.2 36 24.8 L35.75 24.25 35.75 24.3 Q35.45 24 35 24 34.55 24 34.2 24.3 L34.25 24.2 Q34 24.45 34 24.8 L34 29.25 34.2 29.75 35 30 35.75 29.75 35.75 29.8 36 29.25 36 29 Q35.6 29 35.3 28.7 L35 28 Q35 27.6 35.3 27.3 35.6 27 36 27 L37 27 M16 8 L48 8 Q56 8 56 16 L56 48 Q56 56 48 56 L16 56 Q8 56 8 48 L8 16 Q8 8 16 8 M20 40.2 L20.2 40.75 21 41 21.75 40.75 21.75 40.8 22 40.2 22 34 Q22 33.6 22.3 33.3 22.6 33 23 33 23.4 33 23.7 33.3 L24 34 24 40.2 Q24 41.35 23.1 42.25 L23.05 42.3 Q22.15 43 21 43 19.75 43 18.9 42.3 L18.85 42.2 Q18 41.35 18 40.2 L18 34 Q18 33.6 18.3 33.3 18.6 33 19 33 19.4 33 19.7 33.3 L20 34 20 40.2 M28.1 39 L27 39 27 42 26.7 42.7 26 43 Q25.6 43 25.3 42.7 25 42.4 25 42 L25 34 Q25 33.6 25.3 33.3 25.6 33 26 33 L28.05 33 Q29.25 33 30.1 33.85 31 34.75 31 36 31 37.25 30.1 38.1 L30.1 38.15 29.45 38.65 29.35 38.7 28.1 39 M28.1 37 L28.45 36.9 28.7 36.7 28.75 36.7 29 36 28.7 35.25 28.05 35 27 35 27 37 28.1 37 M25 24.8 Q25 23.65 25.85 22.8 L25.9 22.75 Q26.75 22 28 22 29.15 22 30.05 22.75 L30.1 22.8 Q31 23.65 31 24.8 L31 31 30.7 31.7 Q30.4 32 30 32 L29.3 31.7 Q29 31.4 29 31 L29 29 27 29 27 31 26.7 31.7 26 32 Q25.6 32 25.3 31.7 25 31.4 25 31 L25 24.8 M27 24.8 L27 27 29 27 29 24.8 28.75 24.25 28.75 24.3 Q28.45 24 28 24 27.55 24 27.2 24.3 L27.25 24.2 27 24.8 M21.1 28 L20 28 20 31 19.7 31.7 19 32 Q18.6 32 18.3 31.7 18 31.4 18 31 L18 23 Q18 22.6 18.3 22.3 18.6 22 19 22 L21.05 22 Q22.25 22 23.1 22.85 24 23.75 24 25 24 26.25 23.1 27.1 L23.1 27.15 22.45 27.65 22.35 27.7 21.1 28 M21.1 26 L21.45 25.9 21.7 25.7 21.75 25.7 22 25 21.7 24.25 21.05 24 20 24 20 26 21.1 26 M11 16 L11 48 Q11 53 16 53 L48 53 Q53 53 53 48 L53 16 Q53 11 48 11 L16 11 Q11 11 11 16"/>
  </g>
</svg>