<svg width="64" height="64" xmlns="http://www.w3.org/2000/svg" xmlns:xlink="http://www.w3.org/1999/xlink">
  <defs/>
  <g>
    <path stroke="none" fill="#FFFFFF" d="M16 8 L48 8 Q56 8 56 16 L56 48 Q56 56 48 56 L16 56 Q8 56 8 48 L8 16 Q8 8 16 8 M45 35.75 Q45.05 33.9 43.75 32.5 45.05 31.1 45 29.25 45.05 27.05 43.05 25.4 L43.1 25.5 Q41.4 24 39 24 36.6 24 34.9 25.45 33.05 26.95 33 29 L37.1 29 37.45 28.55 37.45 28.5 Q38.1 28 39 28 39.9 28 40.5 28.5 L40.55 28.55 41 29.25 40.6 30 Q40 30.5 39.15 30.5 L37 30.5 37 34.5 39.15 34.5 39.7 34.55 Q40.2 34.65 40.6 35 L41 35.75 40.55 36.45 40.5 36.5 Q39.9 37 39 37 38.1 37 37.45 36.5 L37.45 36.45 37.1 36 33 36 Q33.05 38.05 34.9 39.55 36.6 41 39 41 41.4 41 43.1 39.5 L43.05 39.6 Q45.05 37.95 45 35.75 M23 41 L23 35 30 35 30 31 26.15 31 26.05 31 23 31 23 28 30 28 30 24 26.15 24 26.05 24 19 24 19 33.85 19 33.95 19 41 23 41"/>
  </g>
</svg>