<svg width="64" height="64" xmlns="http://www.w3.org/2000/svg" xmlns:xlink="http://www.w3.org/1999/xlink">
  <defs/>
  <g>
    <path stroke="none" fill="#FFFFFF" d="M36.95 27 L37.65 27.3 37.95 28 37.95 29.25 Q37.95 30.35 37.05 31.25 L37 31.3 Q36.1 32 34.95 32 33.7 32 32.85 31.3 L32.8 31.2 Q31.95 30.35 31.95 29.25 L31.95 24.8 Q31.95 23.65 32.8 22.8 L32.85 22.75 Q33.7 22 34.95 22 36.1 22 37 22.75 L37.05 22.8 Q37.95 23.65 37.95 24.8 L37.65 25.5 36.95 25.8 Q36.55 25.8 36.25 25.5 35.95 25.2 35.95 24.8 L35.7 24.25 35.7 24.3 34.95 24 Q34.5 24 34.15 24.3 L34.2 24.2 Q33.95 24.45 33.95 24.8 L33.95 29.25 34.15 29.75 34.95 30 35.7 29.75 35.7 29.8 35.95 29.25 35.95 29 35.25 28.7 Q34.95 28.4 34.95 28 34.95 27.6 35.25 27.3 35.55 27 35.95 27 L36.95 27 M44 22 Q44.4 22 44.7 22.3 L45 23 44.7 23.7 44 24 41 24 41 26 44 26 Q44.4 26 44.7 26.3 L45 27 44.7 27.7 44 28 41 28 41 30 44 30 Q44.4 30 44.7 30.3 L45 31 44.7 31.7 44 32 40 32 Q39.6 32 39.3 31.7 39 31.4 39 31 L39 23 Q39 22.6 39.3 22.3 39.6 22 40 22 L44 22 M16 8 L48 8 Q56 8 56 16 L56 48 Q56 56 48 56 L16 56 Q8 56 8 48 L8 16 Q8 8 16 8 M21.05 35 L20 35 20 41 21.05 41 21.75 40.75 21.75 40.8 22 40.25 22 35.8 21.75 35.25 21.75 35.3 Q21.45 35 21.05 35 M23.05 33.75 L23.1 33.8 Q24 34.65 24 35.8 L24 40.25 Q24 41.35 23.1 42.25 L23.05 42.3 Q22.15 43 21.05 43 L19 43 Q18.6 43 18.3 42.7 18 42.4 18 42 L18 34 Q18 33.6 18.3 33.3 18.6 33 19 33 L21.05 33 Q22.15 33 23.05 33.75 M26.95 35.8 L26.95 40.25 27.15 40.75 27.95 41 28.7 40.75 28.7 40.8 28.95 40.25 28.95 35.8 28.7 35.25 28.7 35.3 27.95 35 Q27.5 35 27.15 35.3 L27.2 35.2 Q26.95 35.45 26.95 35.8 M25.8 33.8 L25.85 33.75 Q26.7 33 27.95 33 29.1 33 30 33.75 L30.05 33.8 Q30.95 34.65 30.95 35.8 L30.95 40.25 Q30.95 41.35 30.05 42.25 L30 42.3 Q29.1 43 27.95 43 26.7 43 25.85 42.3 L25.8 42.2 Q24.95 41.35 24.95 40.25 L24.95 35.8 Q24.95 34.65 25.8 33.8 M25 24.8 Q25 23.65 25.85 22.8 L25.9 22.75 Q26.75 22 28 22 29.15 22 30.05 22.75 L30.1 22.8 Q31 23.65 31 24.8 L31 31 30.7 31.7 Q30.4 32 30 32 L29.3 31.7 Q29 31.4 29 31 L29 29 27 29 27 31 26.7 31.7 26 32 Q25.6 32 25.3 31.7 25 31.4 25 31 L25 24.8 M27 24.8 L27 27 29 27 29 24.8 28.75 24.25 28.75 24.3 Q28.45 24 28 24 27.55 24 27.2 24.3 L27.25 24.2 27 24.8 M21.1 26 L21.45 25.9 21.7 25.7 21.75 25.7 22 25 21.7 24.25 21.05 24 20 24 20 26 21.1 26 M21.1 28 L20 28 20 31 19.7 31.7 19 32 Q18.6 32 18.3 31.7 18 31.4 18 31 L18 23 Q18 22.6 18.3 22.3 18.6 22 19 22 L21.05 22 Q22.25 22 23.1 22.85 24 23.75 24 25 24 26.25 23.1 27.1 L23.1 27.15 22.45 27.65 22.35 27.7 21.1 28 M31.95 34.15 Q31.9 33.7 32.15 33.4 32.4 33.05 32.85 33 33.25 32.95 33.6 33.2 L33.95 33.9 34.65 39.2 35.15 38.45 35.65 38.05 36.3 38.05 36.8 38.45 37.3 39.2 37.95 33.9 Q38 33.45 38.35 33.2 38.65 32.95 39.1 33 39.5 33.05 39.75 33.4 L39.95 34.15 38.95 42.15 38.7 42.7 38.2 43 37.6 42.95 37.15 42.55 35.95 40.8 34.8 42.55 34.35 42.95 33.75 43 33.2 42.7 32.95 42.15 31.95 34.15 M40.95 35.8 Q40.95 34.65 41.8 33.8 L41.85 33.75 Q42.7 33 43.95 33 45.1 33 46 33.75 L46.05 33.8 Q46.95 34.65 46.95 35.8 L46.95 42 46.65 42.7 45.95 43 Q45.55 43 45.25 42.7 44.95 42.4 44.95 42 L44.95 35.8 44.7 35.25 44.7 35.3 43.95 35 Q43.5 35 43.15 35.3 L43.2 35.2 Q42.95 35.45 42.95 35.8 L42.95 42 42.65 42.7 41.95 43 Q41.55 43 41.25 42.7 40.95 42.4 40.95 42 L40.95 35.8 M11 16 L11 48 Q11 53 16 53 L48 53 Q53 53 53 48 L53 16 Q53 11 48 11 L16 11 Q11 11 11 16"/>
  </g>
</svg>