<svg width="64" height="64" xmlns="http://www.w3.org/2000/svg" xmlns:xlink="http://www.w3.org/1999/xlink">
  <defs/>
  <g>
    <path stroke="none" fill="#FFFFFF" d="M53 16 Q53 11 48 11 L16 11 Q11 11 11 16 L11 48 Q11 53 16 53 L48 53 Q53 53 53 48 L53 16 M48 8 Q56 8 56 16 L56 48 Q56 56 48 56 L16 56 Q8 56 8 48 L8 16 Q8 8 16 8 L48 8 M33 40 L33 27 36 27 42 34.75 42 27 45 27 45 40 42 40 36 32.35 36 40 33 40 M23 40 L19 40 19 32.95 19 32.85 19 23 26.05 23 26.15 23 30 23 30 27 23 27 23 30 26.05 30 26.15 30 30 30 30 34 23 34 23 40"/>
  </g>
</svg>