<svg width="64" height="64" xmlns="http://www.w3.org/2000/svg" xmlns:xlink="http://www.w3.org/1999/xlink">
  <defs/>
  <g>
    <path stroke="none" fill="#FFFFFF" d="M16 8 L48 8 Q56 8 56 16 L56 48 Q56 56 48 56 L16 56 Q8 56 8 48 L8 16 Q8 8 16 8 M41.5 36.6 Q41.1 37 40.5 37 L37.95 37 37.3 36.7 Q37 36.4 37 36 L33 36 33.1 37 Q33.35 38.4 34.4 39.5 L34.5 39.6 Q35.9 40.95 37.85 41 L40.5 41 Q42.75 41 44.35 39.4 L44.4 39.35 Q45.8 37.95 46 36 L46 35.5 Q46 33.2 44.4 31.6 42.8 30 40.5 30 L37 30 37 28 46 28 46 24 33 24 33 34 40.5 34 Q41.1 34 41.55 34.45 42 34.9 42 35.5 42 36.1 41.6 36.5 L41.5 36.6 M22 41 L22 35 29 35 29 31 25.15 31 25.05 31 22 31 22 28 29 28 29 24 25.15 24 25.05 24 18 24 18 33.85 18 33.95 18 41 22 41"/>
  </g>
</svg>