<svg width="64" height="64" xmlns="http://www.w3.org/2000/svg" xmlns:xlink="http://www.w3.org/1999/xlink">
  <defs/>
  <g>
    <path stroke="none" fill="#FFFFFF" d="M16 8 L48 8 Q56 8 56 16 L56 48 Q56 56 48 56 L16 56 Q8 56 8 48 L8 16 Q8 8 16 8 M43 24 L43 41 39 41 39 33.95 39 33.85 39 28.95 36 28.95 36 27 39 24 43 24 M11 16 L11 48 Q11 53 16 53 L48 53 Q53 53 53 48 L53 16 Q53 11 48 11 L16 11 Q11 11 11 16 M25 41 L21 41 21 33.95 21 33.85 21 24 28.05 24 28.15 24 32 24 32 28 25 28 25 31 28.05 31 28.15 31 32 31 32 35 25 35 25 41"/>
  </g>
</svg>