<svg width="64" height="64" xmlns="http://www.w3.org/2000/svg" xmlns:xlink="http://www.w3.org/1999/xlink">
  <defs/>
  <g>
    <path stroke="none" fill="#FFFFFF" d="M40 28 Q40 27.6 40.3 27.3 40.6 27 41 27 41.4 27 41.7 27.3 L42 28 42 35 45 35 Q45.4 35 45.7 35.3 L46 36 45.7 36.7 45 37 41 37 40.3 36.7 Q40 36.4 40 36 L40 28 M36.1 31 L36.45 30.9 36.7 30.7 36.75 30.7 37 30 36.7 29.25 Q36.45 29 36.05 29 L35 29 35 31 36.1 31 M38.1 32.1 L38.1 32.15 37.45 32.65 38.9 35.55 38.95 36.35 38.45 36.9 37.7 36.95 Q37.3 36.8 37.1 36.45 L35.4 33 35 33 35 36 34.7 36.7 Q34.4 37 34 37 L33.3 36.7 Q33 36.4 33 36 L33 28 Q33 27.6 33.3 27.3 33.6 27 34 27 L36.05 27 Q37.25 27 38.1 27.85 39 28.75 39 30 39 31.25 38.1 32.1 M56 22 L56 42 Q56 46.9 53 48.8 51.1 50 48 50 L16 50 Q12.9 50 11 48.8 8 46.9 8 42 L8 22 Q8 14 16 14 L48 14 Q56 14 56 22 M27 29 L26.3 28.7 26 28 Q26 27.6 26.3 27.3 26.6 27 27 27 L31 27 Q31.4 27 31.7 27.3 L32 28 31.7 28.7 31 29 30 29 30 36 29.7 36.7 29 37 Q28.6 37 28.3 36.7 28 36.4 28 36 L28 29 27 29 M24.1 36.25 L24.05 36.3 Q23.15 37 22 37 20.75 37 19.9 36.3 L19.85 36.2 Q19 35.35 19 34.25 L19 29.8 Q19 28.65 19.85 27.8 L19.9 27.75 Q20.75 27 22 27 23.15 27 24.05 27.75 L24.1 27.8 Q25 28.65 25 29.8 L24.7 30.5 24 30.8 Q23.6 30.8 23.3 30.5 23 30.2 23 29.8 L22.75 29.25 22.75 29.3 Q22.45 29 22 29 21.55 29 21.2 29.3 L21.25 29.2 21 29.8 21 34.25 21.2 34.75 22 35 22.75 34.75 22.75 34.8 23 34.25 Q23 33.85 23.3 33.55 23.6 33.25 24 33.25 24.4 33.25 24.7 33.55 L25 34.25 Q25 35.35 24.1 36.25 M11 22 L11 42 Q11 45 12.6 46.3 13.9 47 16 47 L48 47 Q50.1 47 51.4 46.3 53 45 53 42 L53 22 Q53 17 48 17 L16 17 Q11 17 11 22"/>
  </g>
</svg>