<svg width="64" height="64" xmlns="http://www.w3.org/2000/svg" xmlns:xlink="http://www.w3.org/1999/xlink">
  <defs/>
  <g>
    <path stroke="none" fill="#FFFFFF" d="M16 8 L48 8 Q56 8 56 16 L56 48 Q56 56 48 56 L16 56 Q8 56 8 48 L8 16 Q8 8 16 8 M38 35.75 Q38.05 33.9 36.75 32.5 38.05 31.1 38 29.25 38.05 27.05 36.05 25.4 L36.1 25.5 Q34.4 24 32 24 29.6 24 27.9 25.45 26.05 26.95 26 29 L30.1 29 30.45 28.55 30.45 28.5 Q31.1 28 32 28 32.9 28 33.5 28.5 L33.55 28.55 Q33.95 28.85 34 29.25 L33.6 30 Q33 30.5 32.15 30.5 L30 30.5 30 34.5 32.15 34.5 32.7 34.55 Q33.2 34.65 33.6 35 L34 35.75 33.55 36.45 33.5 36.5 Q32.9 37 32 37 31.1 37 30.45 36.5 L30.45 36.45 30.1 36 26 36 Q26.05 38.05 27.9 39.55 29.6 41 32 41 34.4 41 36.1 39.5 L36.05 39.6 Q38.05 37.95 38 35.75"/>
  </g>
</svg>