<svg width="64" height="64" xmlns="http://www.w3.org/2000/svg" xmlns:xlink="http://www.w3.org/1999/xlink">
  <defs/>
  <g>
    <path stroke="none" fill="#FFFFFF" d="M16 8 L48 8 Q56 8 56 16 L56 48 Q56 56 48 56 L16 56 Q9.55 56 8.3 50.8 8 49.55 8 48 L8 16 Q8 14.45 8.3 13.2 9.55 8 16 8 M27.5 28 Q31 28 33.5 30.65 34.7 32 36.5 32 38.3 32 39.55 30.65 40.1 30.05 40.95 30 41.75 29.95 42.35 30.55 42.95 31.1 43 31.95 43.05 32.75 42.5 33.35 40 36 36.5 36 33 36 30.55 33.35 29.3 32 27.5 32 25.7 32 24.5 33.35 23.9 33.95 23.1 34 22.25 34.05 21.65 33.5 21.05 32.9 21 32.1 20.95 31.25 21.55 30.65 24 28 27.5 28 M11 16 L11 48 Q11 53 16 53 L48 53 Q53 53 53 48 L53 16 Q53 11 48 11 L16 11 Q11 11 11 16"/>
  </g>
</svg>