<svg width="64" height="64" xmlns="http://www.w3.org/2000/svg" xmlns:xlink="http://www.w3.org/1999/xlink">
  <defs/>
  <g>
    <path stroke="none" fill="#FFFFFF" d="M42 23 L44 23 44.7 22.7 45 22 44.7 21.3 Q44.4 21 44 21 L42 21 Q40.8 21 39.9 21.9 39 22.8 39 24 39 25.2 39.9 26.1 40.8 27 41.95 27 L42.05 27 Q42.4 27 42.7 27.3 L43 28 42.7 28.7 42 29 40 29 Q39.6 29 39.3 29.3 39 29.6 39 30 39 30.4 39.3 30.7 39.6 31 40 31 L42 31 Q43.2 31 44.1 30.1 45 29.2 45 28 45 26.8 44.1 25.9 43.2 25 42.05 25 L41.95 25 Q41.6 25 41.3 24.7 41 24.4 41 24 41 23.6 41.3 23.3 41.6 23 42 23 M16 14 L48 14 Q56 14 56 22 L56 41 Q56 49 48 49 L16 49 Q8 49 8 41 L8 22 Q8 14 16 14 M39 33 L39 41 Q39 41.4 39.3 41.7 39.6 42 40 42 L40.7 41.7 41 41 41 38 41.4 38 43.1 41.45 Q43.3 41.8 43.7 41.95 L44.45 41.9 44.95 41.35 Q45.1 40.95 44.9 40.55 L43.15 37 44.9 33.45 44.95 32.7 44.45 32.1 43.7 32.05 Q43.3 32.2 43.1 32.55 L41.4 36 41 36 41 33 40.7 32.3 Q40.4 32 40 32 39.6 32 39.3 32.3 39 32.6 39 33 M23.1 30.25 Q24 29.35 24 28.25 L23.7 27.55 Q23.4 27.25 23 27.25 22.6 27.25 22.3 27.55 22 27.85 22 28.25 L21.75 28.8 21.75 28.75 21 29 20.2 28.75 20 28.25 20 23.8 Q20 23.45 20.25 23.2 L20.2 23.3 Q20.55 23 21 23 21.45 23 21.75 23.3 L21.75 23.25 22 23.8 Q22 24.2 22.3 24.5 22.6 24.8 23 24.8 L23.7 24.5 24 23.8 Q24 22.65 23.1 21.8 L23.05 21.75 Q22.15 21 21 21 19.75 21 18.9 21.75 L18.85 21.8 Q18 22.65 18 23.8 L18 28.25 Q18 29.35 18.85 30.2 L18.9 30.3 Q19.75 31 21 31 22.15 31 23.05 30.3 L23.1 30.25 M25 23.8 L25 30 Q25 30.4 25.3 30.7 25.6 31 26 31 L26.7 30.7 27 30 27 28 29 28 29 30 Q29 30.4 29.3 30.7 L30 31 Q30.4 31 30.7 30.7 L31 30 31 23.8 Q31 22.65 30.1 21.8 L30.05 21.75 Q29.15 21 28 21 26.75 21 25.9 21.75 L25.85 21.8 Q25 22.65 25 23.8 M27 23.8 L27.25 23.2 27.2 23.3 Q27.55 23 28 23 28.45 23 28.75 23.3 L28.75 23.25 29 23.8 29 26 27 26 27 23.8 M35.1 27 L36.35 26.7 36.45 26.65 37.1 26.15 37.1 26.1 Q38 25.25 38 24 38 22.75 37.1 21.85 36.25 21 35.05 21 L33 21 Q32.6 21 32.3 21.3 32 21.6 32 22 L32 30 Q32 30.4 32.3 30.7 L33 31 33.7 30.7 34 30 34 27 35.1 27 M35.1 25 L34 25 34 23 35.05 23 35.7 23.25 36 24 35.75 24.7 35.7 24.7 35.45 24.9 35.1 25 M18 33 L18 41 Q18 41.4 18.3 41.7 18.6 42 19 42 L23 42 23.7 41.7 24 41 23.7 40.3 Q23.4 40 23 40 L20 40 20 33 19.7 32.3 Q19.4 32 19 32 18.6 32 18.3 32.3 18 32.6 18 33 M37.1 41.25 Q38 40.35 38 39.25 L37.7 38.55 Q37.4 38.25 37 38.25 36.6 38.25 36.3 38.55 36 38.85 36 39.25 L35.75 39.8 35.75 39.75 35 40 34.2 39.75 34 39.25 34 34.8 Q34 34.45 34.25 34.2 L34.2 34.3 Q34.55 34 35 34 35.45 34 35.75 34.3 L35.75 34.25 36 34.8 Q36 35.2 36.3 35.5 L37 35.8 37.7 35.5 38 34.8 Q38 33.65 37.1 32.8 L37.05 32.75 Q36.15 32 35 32 33.75 32 32.9 32.75 L32.85 32.8 Q32 33.65 32 34.8 L32 39.25 Q32 40.35 32.85 41.2 L32.9 41.3 Q33.75 42 35 42 36.15 42 37.05 41.3 L37.1 41.25 M25.85 32.8 Q25 33.65 25 34.8 L25 39.25 Q25 40.35 25.85 41.2 L25.9 41.3 Q26.75 42 28 42 29.15 42 30.05 41.3 L30.1 41.25 Q31 40.35 31 39.25 L31 34.8 Q31 33.65 30.1 32.8 L30.05 32.75 Q29.15 32 28 32 26.75 32 25.9 32.75 L25.85 32.8 M27 34.8 L27.25 34.2 27.2 34.3 Q27.55 34 28 34 28.45 34 28.75 34.3 L28.75 34.25 29 34.8 29 39.25 28.75 39.8 28.75 39.75 28 40 27.2 39.75 27 39.25 27 34.8"/>
  </g>
</svg>