<svg width="64" height="64" xmlns="http://www.w3.org/2000/svg" xmlns:xlink="http://www.w3.org/1999/xlink">
  <defs/>
  <g>
    <path stroke="none" fill="#FFFFFF" d="M16 8 L48 8 Q56 8 56 16 L56 48 Q56 56 48 56 L16 56 Q8 56 8 48 L8 16 Q8 8 16 8 M40 28 L40 36 Q40 36.4 40.3 36.7 L41 37 45 37 45.7 36.7 46 36 45.7 35.3 Q45.4 35 45 35 L42 35 42 33 45 33 45.7 32.7 46 32 45.7 31.3 Q45.4 31 45 31 L42 31 42 29 45 29 45.7 28.7 46 28 45.7 27.3 Q45.4 27 45 27 L41 27 40.7 27.05 Q40.45 27.1 40.3 27.3 40 27.6 40 28 M23 36 L23 28 22.7 27.3 Q22.55 27.1 22.3 27.05 L22 27 21.7 27.05 Q21.45 27.1 21.3 27.3 21 27.6 21 28 L21 31 19 31 19 28 18.7 27.3 Q18.55 27.1 18.3 27.05 L18 27 17.7 27.05 Q17.45 27.1 17.3 27.3 17 27.6 17 28 L17 36 Q17 36.4 17.3 36.7 L18 37 Q18.4 37 18.7 36.7 L19 36 19 33 21 33 21 36 Q21 36.4 21.3 36.7 21.6 37 22 37 L22.7 36.7 23 36 M39 36 L39 28 38.7 27.3 Q38.55 27.1 38.3 27.05 L38 27 37.7 27.05 Q37.45 27.1 37.3 27.3 L35 29.6 32.7 27.3 Q32.55 27.1 32.3 27.05 L32 27 31.7 27.05 Q31.45 27.1 31.3 27.3 31 27.6 31 28 L31 36 Q31 36.4 31.3 36.7 31.6 37 32 37 L32.7 36.7 33 36 33 30.4 34.3 31.7 Q34.6 32 35 32 L35.7 31.7 37 30.4 37 36 Q37 36.4 37.3 36.7 37.6 37 38 37 L38.7 36.7 39 36 M24.85 27.8 Q24 28.65 24 29.8 L24 34.25 Q24 35.35 24.85 36.2 L24.9 36.3 Q25.75 37 27 37 28.15 37 29.05 36.3 L29.1 36.25 Q30 35.35 30 34.25 L30 29.8 Q30 28.65 29.1 27.8 L29.05 27.75 Q28.4 27.2 27.6 27.05 L27 27 26.4 27.05 Q25.55 27.2 24.9 27.75 L24.85 27.8 M26 29.8 Q26 29.45 26.25 29.2 L26.2 29.3 Q26.55 29 27 29 27.45 29 27.75 29.3 L27.75 29.25 28 29.8 28 34.25 27.75 34.8 27.75 34.75 27 35 26.2 34.75 26 34.25 26 29.8"/>
  </g>
</svg>