<svg width="64" height="64" xmlns="http://www.w3.org/2000/svg" xmlns:xlink="http://www.w3.org/1999/xlink">
  <defs/>
  <g>
    <path stroke="none" fill="#FFFFFF" d="M16 8 L48 8 Q56 8 56 16 L56 48 Q56 56 48 56 L16 56 Q8 56 8 48 L8 16 Q8 8 16 8 M33.5 28.4 Q34.25 29.15 33 30.45 L26 37 26 41 30.85 41 30.95 41 38 41 38 37 32 37 36.45 32.55 Q38.65 30.35 37.4 27 L36.4 25.65 36.35 25.6 Q34.75 24 32.5 24 L30.85 24 Q28.9 24.05 27.5 25.4 L27.4 25.5 Q26.35 26.6 26.1 28 L26 29 30 29 Q30 28.6 30.3 28.3 30.55 28.05 30.85 28 L30.95 28 32.5 28 Q33.1 28 33.5 28.4"/>
  </g>
</svg>