<svg width="64" height="64" xmlns="http://www.w3.org/2000/svg" xmlns:xlink="http://www.w3.org/1999/xlink">
  <defs/>
  <g>
    <path stroke="none" fill="#FFFFFF" d="M16 8 L48 8 Q56 8 56 16 L56 48 Q56 56 48 56 L16 56 Q8 56 8 48 L8 16 Q8 8 16 8 M37.25 30.75 Q35.5 29 33 29 L35 24 30 24 26.15 33.65 26.1 34 26 35 Q26 37.5 27.75 39.25 29.5 41 32 41 L33 41 Q35.45 41 37.2 39.25 L37.25 39.2 Q39 37.45 39 35 39 32.5 37.25 30.75 M33 33 Q33.8 33 34.4 33.6 35 34.2 35 35 35 35.8 34.45 36.35 L34.35 36.45 Q33.8 37 33 37 L32 37 Q31.2 37 30.6 36.4 30 35.8 30 35 30 34.45 30.25 34 L30.55 33.6 30.6 33.55 31.35 33.1 32 33 33 33"/>
  </g>
</svg>