<svg width="64" height="64" xmlns="http://www.w3.org/2000/svg" xmlns:xlink="http://www.w3.org/1999/xlink">
  <defs/>
  <g>
    <path stroke="none" fill="#FFFFFF" d="M41.1 36.25 Q42 35.35 42 34.25 L41.7 33.55 Q41.4 33.25 41 33.25 40.6 33.25 40.3 33.55 40 33.85 40 34.25 L39.75 34.8 39.75 34.75 39 35 38.2 34.75 38 34.25 38 29.8 Q38 29.45 38.25 29.2 L38.2 29.3 Q38.55 29 39 29 39.45 29 39.75 29.3 L39.75 29.25 40 29.8 Q40 30.2 40.3 30.5 L41 30.8 41.7 30.5 42 29.8 Q42 28.65 41.1 27.8 L41.05 27.75 Q40.15 27 39 27 37.75 27 36.9 27.75 L36.85 27.8 Q36 28.65 36 29.8 L36 34.25 Q36 35.35 36.85 36.2 L36.9 36.3 Q37.75 37 39 37 40.15 37 41.05 36.3 L41.1 36.25 M29 29.8 L29 36 Q29 36.4 29.3 36.7 L30 37 Q30.4 37 30.7 36.7 L31 36 31 34 33 34 33 36 Q33 36.4 33.3 36.7 L34 37 Q34.4 37 34.7 36.7 L35 36 35 29.8 Q35 28.65 34.1 27.8 L34.05 27.75 Q33.15 27 32 27 30.75 27 29.9 27.75 L29.85 27.8 Q29 28.65 29 29.8 M31 29.8 Q31 29.45 31.25 29.2 L31.2 29.3 Q31.55 29 32 29 32.45 29 32.75 29.3 L32.75 29.25 33 29.8 33 32 31 32 31 29.8 M48 27 L44 27 Q43.6 27 43.3 27.3 43 27.6 43 28 L43 36 Q43 36.4 43.3 36.7 43.6 37 44 37 L48 37 Q48.4 37 48.7 36.7 L49 36 48.7 35.3 Q48.4 35 48 35 L45 35 45 33 48 33 Q48.4 33 48.7 32.7 L49 32 48.7 31.3 Q48.4 31 48 31 L45 31 45 29 48 29 Q48.4 29 48.7 28.7 L49 28 48.7 27.3 Q48.4 27 48 27 M16 18 L48 18 Q56 18 56 26 L56 38 Q56 42.9 53 44.8 51.1 46 48 46 L16 46 Q12.9 46 11 44.8 8 42.9 8 38 L8 26 Q8 18 16 18 M18 29 L20 29 20.7 28.7 21 28 20.7 27.3 Q20.4 27 20 27 L18 27 Q16.8 27 15.9 27.9 15 28.8 15 30 15 31.2 15.9 32.1 16.8 33 17.95 33 L18.05 33 Q18.4 33 18.7 33.3 L19 34 18.7 34.7 Q18.4 35 18 35 L16 35 Q15.6 35 15.3 35.3 15 35.6 15 36 15 36.4 15.3 36.7 L16 37 18 37 Q19.2 37 20.1 36.1 21 35.2 21 34 21 32.8 20.1 31.9 19.2 31 18.05 31 L17.95 31 Q17.6 31 17.3 30.7 17 30.4 17 30 17 29.6 17.3 29.3 17.6 29 18 29 M25.1 33 L26.35 32.7 26.45 32.65 27.1 32.15 27.1 32.1 Q28 31.25 28 30 28 28.75 27.1 27.85 26.25 27 25.05 27 L23 27 Q22.6 27 22.3 27.3 22 27.6 22 28 L22 36 Q22 36.4 22.3 36.7 22.6 37 23 37 L23.7 36.7 24 36 24 33 25.1 33 M25.1 31 L24 31 24 29 25.05 29 25.7 29.25 26 30 25.75 30.7 25.7 30.7 25.45 30.9 25.1 31"/>
  </g>
</svg>