<svg width="64" height="64" xmlns="http://www.w3.org/2000/svg" xmlns:xlink="http://www.w3.org/1999/xlink">
  <defs/>
  <g>
    <path stroke="none" fill="#FFFFFF" d="M35 25 L29 25 29 23 Q29 20.5 27.25 18.75 25.5 17 23 17 20.55 17 18.8 18.7 L18.7 18.8 Q17 20.55 17 23 17 25.5 18.75 27.25 20.5 29 23 29 L25 29 25 35 23 35 Q20.5 35 18.75 36.8 17 38.5 17 41 17 43.45 18.7 45.25 L18.75 45.3 18.8 45.3 Q20.55 47 23 47 25.5 47 27.25 45.3 29 43.5 29 41 L29 39 35 39 35 41 Q35 43.5 36.8 45.3 38.5 47 41 47 43.45 47 45.25 45.3 L45.3 45.3 45.3 45.25 Q47 43.45 47 41 47 38.5 45.3 36.8 43.5 35 41 35 L39 35 39 29 41 29 Q43.5 29 45.3 27.25 47 25.5 47 23 47 20.55 45.3 18.8 L45.3 18.75 45.25 18.7 Q43.45 17 41 17 38.5 17 36.8 18.75 35 20.5 35 23 L35 25 M42.45 24.4 Q41.8 25 41 25 L39 25 39 23 Q39 22.2 39.65 21.6 40.2 21 41 21 41.8 21 42.4 21.55 L42.5 21.6 Q43 22.2 43 23 43 23.8 42.45 24.4 M48 8 Q56 8 56 16 L56 48 Q56 56 48 56 L16 56 Q8 56 8 48 L8 16 Q8 8 16 8 L48 8 M41 39 Q41.8 39 42.45 39.65 43 40.2 43 41 43 41.8 42.5 42.4 L42.4 42.5 Q41.8 43 41 43 40.2 43 39.65 42.45 39 41.8 39 41 L39 39 41 39 M23 25 Q22.2 25 21.6 24.4 21 23.8 21 23 21 22.2 21.55 21.6 L21.6 21.55 Q22.2 21 23 21 23.8 21 24.4 21.6 25 22.2 25 23 L25 25 23 25 M35 29 L35 35 29 35 29 29 35 29 M21.6 39.65 Q22.2 39 23 39 L25 39 25 41 Q25 41.8 24.4 42.45 23.8 43 23 43 22.2 43 21.6 42.5 L21.55 42.4 Q21 41.8 21 41 21 40.2 21.6 39.65"/>
  </g>
</svg>