<svg width="64" height="64" xmlns="http://www.w3.org/2000/svg" xmlns:xlink="http://www.w3.org/1999/xlink">
  <defs/>
  <g>
    <path stroke="none" fill="#FFFFFF" d="M35 31 Q34.15 31 33.6 30.45 33 29.85 33 29 L33 23 Q33 22.15 33.6 21.6 34.15 21 35 21 L41 21 Q41.85 21 42.45 21.6 43 22.15 43 23 L43 29 Q43 29.85 42.45 30.45 41.85 31 41 31 L35 31 M53 16 Q53 11 48 11 L16 11 Q11 11 11 16 L11 48 Q11 53 16 53 L48 53 Q53 53 53 48 L53 16 M48 8 Q56 8 56 16 L56 48 Q56 56 48 56 L16 56 Q8 56 8 48 L8 16 Q8 8 16 8 L48 8 M33 41 L33 35 Q33 34.15 33.6 33.6 34.15 33 35 33 L41 33 Q41.85 33 42.45 33.6 43 34.15 43 35 L43 41 Q43 41.85 42.45 42.45 41.85 43 41 43 L35 43 Q34.15 43 33.6 42.45 33 41.85 33 41 M31 23 L31 29 Q31 29.85 30.45 30.45 29.85 31 29 31 L23 31 Q22.15 31 21.6 30.45 21 29.85 21 29 L21 23 Q21 22.15 21.6 21.6 22.15 21 23 21 L29 21 Q29.85 21 30.45 21.6 31 22.15 31 23 M31 35 L31 41 Q31 41.85 30.45 42.45 29.85 43 29 43 L23 43 Q22.15 43 21.6 42.45 21 41.85 21 41 L21 35 Q21 34.15 21.6 33.6 22.15 33 23 33 L29 33 Q29.85 33 30.45 33.6 31 34.15 31 35"/>
  </g>
</svg>