<svg width="64" height="64" xmlns="http://www.w3.org/2000/svg" xmlns:xlink="http://www.w3.org/1999/xlink">
  <defs/>
  <g>
    <path stroke="none" fill="#FFFFFF" d="M11 16 L11 48 Q11 53 16 53 L48 53 Q53 53 53 48 L53 16 Q53 11 48 11 L16 11 Q11 11 11 16 M16 8 L48 8 Q56 8 56 16 L56 48 Q56 56 48 56 L16 56 Q8 56 8 48 L8 16 Q8 8 16 8 M40 22 L40 34.2 Q39.95 37.35 37.65 39.65 L36 40.95 Q34.2 42 32 42 29.8 42 28 40.95 L26.35 39.65 Q24.05 37.35 24 34.2 L24 22 28 22 28 34.1 Q28.05 35.7 29.2 36.85 30.35 38 32 38 33.65 38 34.85 36.85 35.95 35.7 36 34.1 L36 22 40 22"/>
  </g>
</svg>