<svg width="64" height="64" xmlns="http://www.w3.org/2000/svg" xmlns:xlink="http://www.w3.org/1999/xlink">
  <defs/>
  <g>
    <path stroke="none" fill="#FFFFFF" d="M16 8 L48 8 Q56 8 56 16 L56 48 Q56 56 48 56 L16 56 Q8 56 8 48 L8 16 Q8 8 16 8 M39.25 24.8 Q36.45 22 32.5 22 28.55 22 25.8 24.8 23 27.55 23 31.5 L23 32.85 23.3 34.95 Q23.85 37.3 25.8 39.25 28.55 42 32.5 42 36.45 42 39.25 39.25 41.1 37.3 41.75 35 L41.8 34.85 42 32.85 42 32 41 31 31 31 31 35 37.45 35 36.4 36.4 Q34.75 38 32.5 38 30.25 38 28.65 36.4 27.55 35.3 27.2 34 L27 32.65 27 31.5 Q27 29.25 28.65 27.65 30.25 26 32.5 26 34.75 26 36.4 27.65 L36.85 28.15 39.7 25.3 39.25 24.8"/>
  </g>
</svg>