<svg width="64" height="64" xmlns="http://www.w3.org/2000/svg" xmlns:xlink="http://www.w3.org/1999/xlink">
  <defs/>
  <g>
    <path stroke="none" fill="#FFFFFF" d="M16 8 L48 8 Q56 8 56 16 L56 48 Q56 56 48 56 L16 56 Q8 56 8 48 L8 16 Q8 8 16 8 M11 16 L11 48 Q11 53 16 53 L48 53 Q53 53 53 48 L53 16 Q53 11 48 11 L16 11 Q11 11 11 16 M40.5 28.4 Q40.1 28 39.5 28 L37.95 28 37.85 28 Q37.55 28.05 37.3 28.3 37 28.6 37 29 L33 29 33.1 28 Q33.35 26.6 34.4 25.5 L34.5 25.4 Q35.9 24.05 37.85 24 L39.5 24 Q41.75 24 43.35 25.6 L43.4 25.65 44.4 27 Q45.65 30.35 43.45 32.55 L39 37 45 37 45 41 37.95 41 37.85 41 33 41 33 37 40 30.45 Q41.25 29.15 40.5 28.4 M23 41 L19 41 19 33.95 19 33.85 19 24 24.05 24 24.15 24 30 24 30 28 23 28 23 31 30 31 30 35 23 35 23 41"/>
  </g>
</svg>