<svg width="64" height="64" xmlns="http://www.w3.org/2000/svg" xmlns:xlink="http://www.w3.org/1999/xlink">
  <defs/>
  <g>
    <path stroke="none" fill="#FFFFFF" d="M38.1 32.1 Q39 31.25 39 30 39 28.75 38.1 27.85 37.25 27 36.05 27 L34 27 Q33.6 27 33.3 27.3 33 27.6 33 28 L33 36 Q33 36.4 33.3 36.7 L34 37 Q34.4 37 34.7 36.7 L35 36 35 33 35.4 33 37.1 36.45 Q37.3 36.8 37.7 36.95 L38.45 36.9 38.95 36.35 38.9 35.55 37.45 32.65 38.1 32.15 38.1 32.1 M36.1 31 L35 31 35 29 36.05 29 Q36.45 29 36.7 29.25 L37 30 36.75 30.7 36.7 30.7 36.45 30.9 36.1 31 M40 28 L40 36 Q40 36.4 40.3 36.7 L41 37 45 37 45.7 36.7 46 36 45.7 35.3 Q45.4 35 45 35 L42 35 42 28 41.7 27.3 Q41.4 27 41 27 40.6 27 40.3 27.3 40 27.6 40 28 M56 22 L56 42 Q56 46.9 53 48.8 51.1 50 48 50 L16 50 Q12.9 50 11 48.8 8 46.9 8 42 L8 22 Q8 14 16 14 L48 14 Q56 14 56 22 M24.1 36.25 Q25 35.35 25 34.25 L24.7 33.55 Q24.4 33.25 24 33.25 23.6 33.25 23.3 33.55 23 33.85 23 34.25 L22.75 34.8 22.75 34.75 22 35 21.2 34.75 21 34.25 21 29.8 21.25 29.2 21.2 29.3 Q21.55 29 22 29 22.45 29 22.75 29.3 L22.75 29.25 23 29.8 Q23 30.2 23.3 30.5 23.6 30.8 24 30.8 L24.7 30.5 25 29.8 Q25 28.65 24.1 27.8 L24.05 27.75 Q23.15 27 22 27 20.75 27 19.9 27.75 L19.85 27.8 Q19 28.65 19 29.8 L19 34.25 Q19 35.35 19.85 36.2 L19.9 36.3 Q20.75 37 22 37 23.15 37 24.05 36.3 L24.1 36.25 M27 29 L28 29 28 36 Q28 36.4 28.3 36.7 28.6 37 29 37 L29.7 36.7 30 36 30 29 31 29 31.7 28.7 32 28 31.7 27.3 Q31.4 27 31 27 L27 27 Q26.6 27 26.3 27.3 26 27.6 26 28 L26.3 28.7 27 29"/>
  </g>
</svg>