<svg width="64" height="64" xmlns="http://www.w3.org/2000/svg" xmlns:xlink="http://www.w3.org/1999/xlink">
  <defs/>
  <g>
    <path stroke="none" fill="#FFFFFF" d="M11 16 L11 48 Q11 53 16 53 L48 53 Q53 53 53 48 L53 16 Q53 11 48 11 L16 11 Q11 11 11 16 M16 8 L48 8 Q56 8 56 16 L56 48 Q56 56 48 56 L16 56 Q8 56 8 48 L8 16 Q8 8 16 8 M41.5 36.6 L41.6 36.5 Q42 36.1 42 35.5 42 34.9 41.55 34.45 41.1 34 40.5 34 L33 34 33 24 46 24 46 28 37 28 37 30 40.5 30 Q42.8 30 44.4 31.6 46 33.2 46 35.5 L46 36 Q45.8 37.95 44.4 39.35 L44.35 39.4 Q42.75 41 40.5 41 L37.85 41 Q35.9 40.95 34.5 39.6 L34.4 39.5 Q33.35 38.4 33.1 37 L33 36 37 36 Q37 36.4 37.3 36.7 L37.95 37 40.5 37 Q41.1 37 41.5 36.6 M22 41 L18 41 18 33.95 18 33.85 18 24 25.05 24 25.15 24 29 24 29 28 22 28 22 31 25.05 31 25.15 31 29 31 29 35 22 35 22 41"/>
  </g>
</svg>