<svg width="64" height="64" xmlns="http://www.w3.org/2000/svg" xmlns:xlink="http://www.w3.org/1999/xlink">
  <defs/>
  <g>
    <path stroke="none" fill="#FFFFFF" d="M16 16 L48 16 Q56 16 56 24 L56 40 Q56 44.9 53 46.8 51.1 48 48 48 L16 48 Q12.9 48 11 46.8 8 44.9 8 40 L8 24 Q8 16 16 16 M42 29 L43 29 43 36 Q43 36.4 43.3 36.7 43.6 37 44 37 L44.7 36.7 45 36 45 29 46 29 46.7 28.7 47 28 46.7 27.3 Q46.4 27 46 27 L42 27 Q41.6 27 41.3 27.3 41 27.6 41 28 41 28.4 41.3 28.7 L42 29 M20 29 L22 29 22.7 28.7 23 28 22.7 27.3 Q22.4 27 22 27 L20 27 Q18.8 27 17.9 27.9 17 28.8 17 30 17 31.2 17.9 32.1 18.8 33 19.95 33 L20.05 33 Q20.4 33 20.7 33.3 L21 34 20.7 34.7 20 35 18 35 Q17.6 35 17.3 35.3 17 35.6 17 36 17 36.4 17.3 36.7 L18 37 20 37 Q21.2 37 22.1 36.1 23 35.2 23 34 23 32.8 22.1 31.9 21.2 31 20.05 31 L19.95 31 19.3 30.7 Q19 30.4 19 30 19 29.6 19.3 29.3 19.6 29 20 29 M36 36 L36 33 39 33 Q39.4 33 39.7 32.7 L40 32 39.7 31.3 Q39.4 31 39 31 L36 31 36 29 39 29 Q39.4 29 39.7 28.7 L40 28 39.7 27.3 Q39.4 27 39 27 L35 27 Q34.6 27 34.3 27.3 34 27.6 34 28 L34 36 Q34 36.4 34.3 36.7 34.6 37 35 37 L35.7 36.7 36 36 M33 36 L33 28 32.7 27.3 Q32.4 27 32 27 31.6 27 31.3 27.3 31 27.6 31 28 L31 36 Q31 36.4 31.3 36.7 31.6 37 32 37 L32.7 36.7 33 36 M30 36 L30 28 29.7 27.3 29 27 Q28.6 27 28.3 27.3 28 27.6 28 28 L28 31 26 31 26 28 25.7 27.3 Q25.4 27 25 27 24.6 27 24.3 27.3 24 27.6 24 28 L24 36 Q24 36.4 24.3 36.7 L25 37 25.7 36.7 26 36 26 33 28 33 28 36 Q28 36.4 28.3 36.7 28.6 37 29 37 L29.7 36.7 30 36"/>
  </g>
</svg>