<svg width="64" height="64" xmlns="http://www.w3.org/2000/svg" xmlns:xlink="http://www.w3.org/1999/xlink">
  <defs/>
  <g>
    <path stroke="none" fill="#FFFFFF" d="M36.95 27 L35.95 27 Q35.55 27 35.25 27.3 34.95 27.6 34.95 28 34.95 28.4 35.25 28.7 L35.95 29 35.95 29.25 35.7 29.8 35.7 29.75 34.95 30 34.15 29.75 33.95 29.25 33.95 24.8 Q33.95 24.45 34.2 24.2 L34.15 24.3 Q34.5 24 34.95 24 L35.7 24.3 35.7 24.25 35.95 24.8 Q35.95 25.2 36.25 25.5 36.55 25.8 36.95 25.8 L37.65 25.5 37.95 24.8 Q37.95 23.65 37.05 22.8 L37 22.75 Q36.1 22 34.95 22 33.7 22 32.85 22.75 L32.8 22.8 Q31.95 23.65 31.95 24.8 L31.95 29.25 Q31.95 30.35 32.8 31.2 L32.85 31.3 Q33.7 32 34.95 32 36.1 32 37 31.3 L37.05 31.25 Q37.95 30.35 37.95 29.25 L37.95 28 37.65 27.3 36.95 27 M44 22 L40 22 Q39.6 22 39.3 22.3 39 22.6 39 23 L39 31 Q39 31.4 39.3 31.7 39.6 32 40 32 L44 32 44.7 31.7 45 31 44.7 30.3 Q44.4 30 44 30 L41 30 41 28 44 28 44.7 27.7 45 27 44.7 26.3 Q44.4 26 44 26 L41 26 41 24 44 24 44.7 23.7 45 23 44.7 22.3 Q44.4 22 44 22 M16 8 L48 8 Q56 8 56 16 L56 48 Q56 56 48 56 L16 56 Q8 56 8 48 L8 16 Q8 8 16 8 M40.95 35.8 L40.95 42 Q40.95 42.4 41.25 42.7 41.55 43 41.95 43 L42.65 42.7 42.95 42 42.95 35.8 Q42.95 35.45 43.2 35.2 L43.15 35.3 Q43.5 35 43.95 35 L44.7 35.3 44.7 35.25 44.95 35.8 44.95 42 Q44.95 42.4 45.25 42.7 45.55 43 45.95 43 L46.65 42.7 46.95 42 46.95 35.8 Q46.95 34.65 46.05 33.8 L46 33.75 Q45.1 33 43.95 33 42.7 33 41.85 33.75 L41.8 33.8 Q40.95 34.65 40.95 35.8 M31.95 34.15 L32.95 42.15 33.2 42.7 33.75 43 34.35 42.95 34.8 42.55 35.95 40.8 37.15 42.55 37.6 42.95 38.2 43 38.7 42.7 38.95 42.15 39.95 34.15 39.75 33.4 Q39.5 33.05 39.1 33 38.65 32.95 38.35 33.2 38 33.45 37.95 33.9 L37.3 39.2 36.8 38.45 36.3 38.05 35.65 38.05 35.15 38.45 34.65 39.2 33.95 33.9 33.6 33.2 Q33.25 32.95 32.85 33 32.4 33.05 32.15 33.4 31.9 33.7 31.95 34.15 M21.1 26 L20 26 20 24 21.05 24 21.7 24.25 22 25 21.75 25.7 21.7 25.7 21.45 25.9 21.1 26 M21.1 28 L22.35 27.7 22.45 27.65 23.1 27.15 23.1 27.1 Q24 26.25 24 25 24 23.75 23.1 22.85 22.25 22 21.05 22 L19 22 Q18.6 22 18.3 22.3 18 22.6 18 23 L18 31 Q18 31.4 18.3 31.7 18.6 32 19 32 L19.7 31.7 20 31 20 28 21.1 28 M27 24.8 L27.25 24.2 27.2 24.3 Q27.55 24 28 24 28.45 24 28.75 24.3 L28.75 24.25 29 24.8 29 27 27 27 27 24.8 M25 24.8 L25 31 Q25 31.4 25.3 31.7 25.6 32 26 32 L26.7 31.7 27 31 27 29 29 29 29 31 Q29 31.4 29.3 31.7 L30 32 Q30.4 32 30.7 31.7 L31 31 31 24.8 Q31 23.65 30.1 22.8 L30.05 22.75 Q29.15 22 28 22 26.75 22 25.9 22.75 L25.85 22.8 Q25 23.65 25 24.8 M25.8 33.8 Q24.95 34.65 24.95 35.8 L24.95 40.25 Q24.95 41.35 25.8 42.2 L25.85 42.3 Q26.7 43 27.95 43 29.1 43 30 42.3 L30.05 42.25 Q30.95 41.35 30.95 40.25 L30.95 35.8 Q30.95 34.65 30.05 33.8 L30 33.75 Q29.1 33 27.95 33 26.7 33 25.85 33.75 L25.8 33.8 M26.95 35.8 Q26.95 35.45 27.2 35.2 L27.15 35.3 Q27.5 35 27.95 35 L28.7 35.3 28.7 35.25 28.95 35.8 28.95 40.25 28.7 40.8 28.7 40.75 27.95 41 27.15 40.75 26.95 40.25 26.95 35.8 M23.05 33.75 Q22.15 33 21.05 33 L19 33 Q18.6 33 18.3 33.3 18 33.6 18 34 L18 42 Q18 42.4 18.3 42.7 18.6 43 19 43 L21.05 43 Q22.15 43 23.05 42.3 L23.1 42.25 Q24 41.35 24 40.25 L24 35.8 Q24 34.65 23.1 33.8 L23.05 33.75 M21.05 35 Q21.45 35 21.75 35.3 L21.75 35.25 22 35.8 22 40.25 21.75 40.8 21.75 40.75 21.05 41 20 41 20 35 21.05 35"/>
  </g>
</svg>