<svg width="64" height="64" xmlns="http://www.w3.org/2000/svg" xmlns:xlink="http://www.w3.org/1999/xlink">
  <defs/>
  <g>
    <path stroke="none" fill="#FFFFFF" d="M56 22 L56 42 Q56 46.9 53 48.8 51.1 50 48 50 L16 50 Q12.9 50 11 48.8 8 46.9 8 42 L8 22 Q8 14 16 14 L48 14 Q56 14 56 22 M43 38 L43 28 46 28 46 25 37 25 37 28 40 28 40 38 43 38 M19 28.75 L19 38 22 38 22 34 24 34 24 38 27 38 27 28.75 Q27 27.15 25.75 26.05 24.55 25 23 25 21.4 25 20.25 26.05 L20.2 26.05 Q19 27.15 19 28.75 M29 25 L29 38 37 38 37 35 32 35 32 25 29 25 M22 28.75 L22.2 28.3 22.25 28.25 Q22.55 28 23 28 L23.8 28.3 24 28.75 24 31 22 31 22 28.75"/>
  </g>
</svg>