<svg width="64" height="64" xmlns="http://www.w3.org/2000/svg" xmlns:xlink="http://www.w3.org/1999/xlink">
  <defs/>
  <g>
    <path stroke="none" fill="#FFFFFF" d="M11 16 L11 48 Q11 53 16 53 L48 53 Q53 53 53 48 L53 16 Q53 11 48 11 L16 11 Q11 11 11 16 M16 8 L48 8 Q56 8 56 16 L56 48 Q56 56 48 56 L16 56 Q8 56 8 48 L8 16 Q8 8 16 8 M21 28.05 L21 34.95 22.2 34.3 22.3 34.2 Q23 33.55 23 32.5 L23 30.5 Q23 29.45 22.3 28.8 L22.25 28.75 22.2 28.75 21 28.05 M36 25 L36 28 31 28 31 30 36 30 36 33 31 33 31 35 36 35 36 38 28 38 28 25 36 25 M18 25 L20.5 25 Q22.8 25 24.35 26.6 L24.4 26.7 Q26 28.2 26 30.5 L26 32.5 Q26 34.8 24.4 36.35 L24.35 36.4 Q22.8 38 20.5 38 L18 38 18 25 M38 25 L41 25 41 35 46 35 46 38 38 38 38 25"/>
  </g>
</svg>