<svg width="64" height="64" xmlns="http://www.w3.org/2000/svg" xmlns:xlink="http://www.w3.org/1999/xlink">
  <defs/>
  <g>
    <path stroke="none" fill="#FFFFFF" d="M53 16 Q53 11 48 11 L16 11 Q11 11 11 16 L11 48 Q11 53 16 53 L48 53 Q53 53 53 48 L53 16 M37 38 L34 38 30 31 30 38 27 38 27 25 30 25 34 32 34 25 37 25 37 38 M20 28.75 L20 31 22 31 22 28.75 21.8 28.3 Q21.45 28 21 28 20.55 28 20.25 28.25 L20.2 28.3 20 28.75 M17 28.75 Q17 27.15 18.2 26.05 L18.25 26.05 Q19.4 25 21 25 22.55 25 23.75 26.05 25 27.15 25 28.75 L25 38 22 38 22 34 20 34 20 38 17 38 17 28.75 M46.25 24.2 L48.75 25.85 45 31.45 45 38 42 38 42 31.45 38.25 25.85 40.75 24.2 43.5 28.3 46.25 24.2 M48 8 Q56 8 56 16 L56 48 Q56 56 48 56 L16 56 Q8 56 8 48 L8 16 Q8 8 16 8 L48 8"/>
  </g>
</svg>