<svg width="64" height="64" xmlns="http://www.w3.org/2000/svg" xmlns:xlink="http://www.w3.org/1999/xlink">
  <defs/>
  <g>
    <path stroke="none" fill="#FFFFFF" d="M16 8 L48 8 Q56 8 56 16 L56 48 Q56 56 48 56 L16 56 Q8 56 8 48 L8 16 Q8 8 16 8 M39 25 L39 38 41.5 38 Q43.8 38 45.35 36.4 L45.4 36.35 Q47 34.8 47 32.5 L47 30.5 Q47 28.2 45.4 26.7 L45.35 26.6 Q43.8 25 41.5 25 L39 25 M42 28.05 L43.2 28.75 43.25 28.75 43.3 28.8 Q44 29.45 44 30.5 L44 32.5 Q44 33.55 43.3 34.2 L43.2 34.3 Q42.7 34.8 42 34.95 L42 28.05 M17 25 L17 38 25 38 25 35 20 35 20 33 25 33 25 30 20 30 20 28 25 28 25 25 17 25 M37 38 L37 25 34 25 34 32 30 25 27 25 27 38 30 38 30 31 34 38 37 38"/>
  </g>
</svg>