<svg width="64" height="64" xmlns="http://www.w3.org/2000/svg" xmlns:xlink="http://www.w3.org/1999/xlink">
  <defs/>
  <g>
    <path stroke="none" fill="#FFFFFF" d="M16 8 L48 8 Q56 8 56 16 L56 48 Q56 56 48 56 L16 56 Q9.55 56 8.3 50.8 8 49.55 8 48 L8 16 Q8 14.45 8.3 13.2 9.55 8 16 8 M27.5 28 Q24 28 21.55 30.65 20.95 31.25 21 32.1 21.05 32.9 21.65 33.5 22.25 34.05 23.1 34 23.9 33.95 24.5 33.35 25.7 32 27.5 32 29.3 32 30.55 33.35 33 36 36.5 36 40 36 42.5 33.35 43.05 32.75 43 31.95 42.95 31.1 42.35 30.55 41.75 29.95 40.95 30 40.1 30.05 39.55 30.65 38.3 32 36.5 32 34.7 32 33.5 30.65 31 28 27.5 28"/>
  </g>
</svg>