<svg width="64" height="64" xmlns="http://www.w3.org/2000/svg" xmlns:xlink="http://www.w3.org/1999/xlink">
  <defs/>
  <g>
    <path stroke="none" fill="#FFFFFF" d="M11 16 L11 48 Q11 53 16 53 L48 53 Q53 53 53 48 L53 16 Q53 11 48 11 L16 11 Q11 11 11 16 M16 8 L48 8 Q56 8 56 16 L56 48 Q56 56 48 56 L16 56 Q8 56 8 48 L8 16 Q8 8 16 8 M41.5 36.6 L41.6 36.5 Q42 36.1 42 35.5 42 34.9 41.55 34.45 41.1 34 40.55 34 L38.5 34 Q37.9 34 37.45 34.45 37 34.9 37 35.5 37 36.1 37.4 36.5 L37.5 36.6 Q37.9 37 38.5 37 L40.5 37 Q41.1 37 41.5 36.6 M40.5 41 L38.5 41 Q36.25 41 34.65 39.4 L34.6 39.35 Q33.2 37.95 33 36 L33 35.5 Q33 33.6 34.1 32.2 33 30.85 33 29 33 26.95 34.4 25.5 L34.5 25.4 Q35.45 24.5 36.65 24.2 L37.95 24 41.05 24 Q43.05 24 44.5 25.4 L44.6 25.5 Q46 26.95 46 29 46 30.85 44.9 32.2 46 33.6 46 35.5 L46 36 Q45.8 37.95 44.4 39.35 L44.35 39.4 Q42.75 41 40.5 41 M38 30 L41 30 41.7 29.7 42 29 41.7 28.3 Q41.4 28 41.05 28 L37.95 28 Q37.6 28 37.3 28.3 37 28.6 37 29 37 29.4 37.3 29.7 37.6 30 38 30 M22 41 L18 41 18 33.95 18 33.85 18 24 25.05 24 25.15 24 29 24 29 28 22 28 22 31 25.05 31 25.15 31 29 31 29 35 22 35 22 41"/>
  </g>
</svg>