<svg width="64" height="64" xmlns="http://www.w3.org/2000/svg" xmlns:xlink="http://www.w3.org/1999/xlink">
  <defs/>
  <g>
    <path stroke="none" fill="#FFFFFF" d="M16 8 L48 8 Q56 8 56 16 L56 48 Q56 56 48 56 L16 56 Q8 56 8 48 L8 16 Q8 8 16 8 M43 28 Q44.2 28 45.1 28.9 46 29.75 46 31 L46 34 Q46 35.2 45.1 36.05 L45.05 36.1 Q44.2 37 43 37 41.75 37 40.9 36.1 40 35.2 40 34 L40 31 Q40 29.8 40.85 28.9 L40.9 28.85 Q41.8 28 43 28 M47.95 26.05 Q45.9 24 43 24 40.15 24 38.05 26 L38 26.05 Q36 28.15 36 31 L36 34 Q36 36.9 38.05 38.95 40.15 41 43 41 45.85 41 47.9 38.95 L47.95 38.9 Q50 36.85 50 34 L50 31 Q50 28.15 47.95 26.05 M34 24 L30 24 27 27 27 28.95 30 28.95 30 33.85 30 33.95 30 41 34 41 34 24 M18 41 L18 35 25 35 25 31 21.15 31 21.05 31 18 31 18 28 25 28 25 24 21.15 24 21.05 24 14 24 14 33.85 14 33.95 14 41 18 41"/>
  </g>
</svg>