<svg width="64" height="64" xmlns="http://www.w3.org/2000/svg" xmlns:xlink="http://www.w3.org/1999/xlink">
  <defs/>
  <g>
    <path stroke="none" fill="#FFFFFF" d="M16 8 L48 8 Q56 8 56 16 L56 48 Q56 56 48 56 L16 56 Q8 56 8 48 L8 16 Q8 8 16 8 M45 35.75 Q45.05 37.95 43.05 39.6 L43.1 39.5 Q41.4 41 39 41 36.6 41 34.9 39.55 33.05 38.05 33 36 L37.1 36 37.45 36.45 37.45 36.5 Q38.1 37 39 37 39.9 37 40.5 36.5 L40.55 36.45 41 35.75 40.6 35 Q40.2 34.65 39.7 34.55 L39.15 34.5 37 34.5 37 30.5 39.15 30.5 Q40 30.5 40.6 30 L41 29.25 40.55 28.55 40.5 28.5 Q39.9 28 39 28 38.1 28 37.45 28.5 L37.45 28.55 37.1 29 33 29 Q33.05 26.95 34.9 25.45 36.6 24 39 24 41.4 24 43.1 25.5 L43.05 25.4 Q45.05 27.05 45 29.25 45.05 31.1 43.75 32.5 45.05 33.9 45 35.75 M11 16 L11 48 Q11 53 16 53 L48 53 Q53 53 53 48 L53 16 Q53 11 48 11 L16 11 Q11 11 11 16 M23 41 L19 41 19 33.95 19 33.85 19 24 26.05 24 26.15 24 30 24 30 28 23 28 23 31 26.05 31 26.15 31 30 31 30 35 23 35 23 41"/>
  </g>
</svg>