<svg width="64" height="64" xmlns="http://www.w3.org/2000/svg" xmlns:xlink="http://www.w3.org/1999/xlink">
  <defs/>
  <g>
    <path stroke="none" fill="#FFFFFF" d="M56 22 L56 42 Q56 46.9 53 48.8 51.1 50 48 50 L16 50 Q12.9 50 11 48.8 8 46.9 8 42 L8 22 Q8 14 16 14 L48 14 Q56 14 56 22 M31 28.75 L31 31 33 31 33 28.75 32.8 28.3 Q32.45 28 32 28 31.55 28 31.25 28.25 L31.2 28.3 31 28.75 M28 28.75 Q28 27.15 29.2 26.05 L29.25 26.05 Q30.4 25 32 25 33.55 25 34.75 26.05 36 27.15 36 28.75 L36 38 33 38 33 34 31 34 31 38 28 38 28 28.75 M17 28 L17 25 26 25 26 28 23 28 23 38 20 38 20 28 17 28 M42.3 33 L41 33 41 35 42.15 35 42.5 34.9 42.7 34.7 42.75 34.65 43 34 42.7 33.25 Q42.5 33.05 42.3 33 M46 29 Q46 30.45 45.15 31.5 46 32.55 46 34 46 35.7 44.8 36.85 L44.8 36.8 44 37.5 43.85 37.6 Q43 38 42.15 38 L38 38 38 25 42.05 25 Q43.65 25 44.8 26.15 46 27.35 46 29 M42.5 29.9 L42.7 29.7 42.75 29.65 43 29 42.7 28.25 Q42.45 28 42.05 28 L41 28 41 30 42.3 30 42.5 29.9 M11 22 L11 42 Q11 45 12.6 46.3 13.9 47 16 47 L48 47 Q50.1 47 51.4 46.3 53 45 53 42 L53 22 Q53 17 48 17 L16 17 Q11 17 11 22"/>
  </g>
</svg>