<svg width="64" height="64" xmlns="http://www.w3.org/2000/svg" xmlns:xlink="http://www.w3.org/1999/xlink">
  <defs/>
  <g>
    <path stroke="none" fill="#FFFFFF" d="M16 8 L48 8 Q56 8 56 16 L56 48 Q56 56 48 56 L16 56 Q8 56 8 48 L8 16 Q8 8 16 8 M39 32 Q38.2 32 37.6 31.4 37 30.8 37 30 37 29.2 37.55 28.65 L37.65 28.55 Q38.2 28 39 28 L40 28 Q40.8 28 41.4 28.6 42 29.2 42 30 L41.75 31 41.45 31.4 41.4 31.45 40.65 31.9 40 32 39 32 M34.75 34.25 Q36.5 36 39 36 L37 41 42 41 45.85 31.35 45.9 31 46 30 Q46 27.5 44.25 25.75 42.5 24 40 24 L39 24 Q36.55 24 34.8 25.75 L34.75 25.8 Q33 27.55 33 30 33 32.5 34.75 34.25 M23 41 L23 35 30 35 30 31 26.15 31 26.05 31 23 31 23 28 30 28 30 24 26.15 24 26.05 24 19 24 19 33.85 19 33.95 19 41 23 41"/>
  </g>
</svg>