<svg width="64" height="64" xmlns="http://www.w3.org/2000/svg" xmlns:xlink="http://www.w3.org/1999/xlink">
  <defs/>
  <g>
    <path stroke="none" fill="#FFFFFF" d="M40 32 Q40 27.85 37.65 24.9 35.3 22 32 22 28.65 22 26.3 24.9 24 27.85 24 32 24 36.15 26.3 39.1 28.65 42 32 42 35.3 42 37.65 39.1 40 36.15 40 32 M34.55 27.4 L34.55 27.45 Q36 29.35 36 32 36 34.65 34.55 36.6 33.45 37.9 32 38 30.5 37.9 29.4 36.6 28 34.65 28 32 28 29.35 29.4 27.45 30.5 26.1 32 26 33.45 26.1 34.55 27.4 M16 8 L48 8 Q56 8 56 16 L56 48 Q56 56 48 56 L16 56 Q8 56 8 48 L8 16 Q8 8 16 8"/>
  </g>
</svg>