<svg width="64" height="64" xmlns="http://www.w3.org/2000/svg" xmlns:xlink="http://www.w3.org/1999/xlink">
  <defs/>
  <g>
    <path stroke="none" fill="#FFFFFF" d="M44.5 28.4 Q44.1 28 43.5 28 L41.95 28 41.85 28 Q41.55 28.05 41.3 28.3 41 28.6 41 29 L37 29 37.1 28 Q37.35 26.6 38.4 25.5 L38.5 25.4 Q39.9 24.05 41.85 24 L43.5 24 Q45.75 24 47.35 25.6 L47.4 25.65 48.4 27 Q49.65 30.35 47.45 32.55 L43 37 49 37 49 41 41.95 41 41.85 41 37 41 37 37 44 30.45 Q45.25 29.15 44.5 28.4 M16 8 L48 8 Q55.35 8 55.95 14.8 L56 16 56 48 55.95 49.25 Q55.35 56 48 56 L16 56 Q8 56 8 48 L8 16 Q8 8 16 8 M11 16 L11 48 Q11 53 16 53 L48 53 Q53 53 53 48 L53 16 Q53 11 48 11 L16 11 Q11 11 11 16 M18 41 L14 41 14 33.95 14 33.85 14 24 21.05 24 21.15 24 25 24 25 28 18 28 18 31 21.05 31 21.15 31 25 31 25 35 18 35 18 41 M34 24 L34 41 30 41 30 33.95 30 33.85 30 28.95 27 28.95 27 27 30 24 34 24"/>
  </g>
</svg>