<svg width="64" height="64" xmlns="http://www.w3.org/2000/svg" xmlns:xlink="http://www.w3.org/1999/xlink">
  <defs/>
  <g>
    <path stroke="none" fill="#FFFFFF" d="M28 29.2 L28.2 29.75 29 30 29.75 29.75 29.75 29.8 30 29.2 30 23 Q30 22.6 30.3 22.3 30.6 22 31 22 31.4 22 31.7 22.3 L32 23 32 29.2 Q32 30.35 31.1 31.25 L31.05 31.3 Q30.15 32 29 32 27.75 32 26.9 31.3 L26.85 31.2 Q26 30.35 26 29.2 L26 23 Q26 22.6 26.3 22.3 26.6 22 27 22 27.4 22 27.7 22.3 L28 23 28 29.2 M41 31 L40.7 31.7 40 32 Q39.6 32 39.3 31.7 39 31.4 39 31 L39 25.4 37.7 26.7 37 27 36.3 26.7 35 25.4 35 31 34.7 31.7 Q34.4 32 34 32 L33.3 31.7 Q33 31.4 33 31 L33 23 Q33 22.6 33.3 22.3 33.6 22 34 22 34.4 22 34.7 22.3 L37 24.6 39.3 22.3 Q39.6 22 40 22 40.4 22 40.7 22.3 L41 23 41 31 M16 8 L48 8 Q56 8 56 16 L56 48 Q56 56 48 56 L16 56 Q8 56 8 48 L8 16 Q8 8 16 8 M19 34 Q19 33.6 19.3 33.3 19.6 33 20 33 20.4 33 20.7 33.3 L21 34 21 41 24 41 Q24.4 41 24.7 41.3 L25 42 24.7 42.7 24 43 20 43 19.3 42.7 Q19 42.4 19 42 L19 34 M28 35.8 L28 40.25 28.2 40.75 29 41 29.75 40.75 29.75 40.8 30 40.25 30 35.8 29.75 35.25 29.75 35.3 Q29.45 35 29 35 28.55 35 28.2 35.3 L28.25 35.2 Q28 35.45 28 35.8 M19 24.8 Q19 23.65 19.85 22.8 L19.9 22.75 Q20.75 22 22 22 23.15 22 24.05 22.75 L24.1 22.8 Q25 23.65 25 24.8 L25 31 24.7 31.7 24 32 Q23.6 32 23.3 31.7 23 31.4 23 31 L23 24.8 22.75 24.25 22.75 24.3 Q22.45 24 22 24 21.55 24 21.2 24.3 L21.25 24.2 21 24.8 21 31 20.7 31.7 20 32 19.3 31.7 Q19 31.4 19 31 L19 24.8 M26.85 33.8 L26.9 33.75 Q27.75 33 29 33 30.15 33 31.05 33.75 L31.1 33.8 Q32 34.65 32 35.8 L32 40.25 Q32 41.35 31.1 42.25 L31.05 42.3 Q30.15 43 29 43 27.75 43 26.9 42.3 L26.85 42.2 Q26 41.35 26 40.25 L26 35.8 Q26 34.65 26.85 33.8 M38.1 42.25 L38.05 42.3 Q37.15 43 36 43 34.75 43 33.9 42.3 L33.85 42.2 Q33 41.35 33 40.25 L33 35.8 Q33 34.65 33.85 33.8 L33.9 33.75 Q34.75 33 36 33 37.15 33 38.05 33.75 L38.1 33.8 Q39 34.65 39 35.8 L38.7 36.5 38 36.8 Q37.6 36.8 37.3 36.5 37 36.2 37 35.8 L36.75 35.25 36.75 35.3 Q36.45 35 36 35 35.55 35 35.2 35.3 L35.25 35.2 Q35 35.45 35 35.8 L35 40.25 35.2 40.75 36 41 36.75 40.75 36.75 40.8 37 40.25 Q37 39.85 37.3 39.55 37.6 39.25 38 39.25 L38.7 39.55 39 40.25 Q39 41.35 38.1 42.25 M40 34 Q40 33.6 40.3 33.3 40.6 33 41 33 41.4 33 41.7 33.3 L42 34 42 37 42.4 37 44.1 33.55 Q44.3 33.2 44.7 33.05 L45.45 33.1 45.95 33.7 45.9 34.45 44.15 38 45.9 41.55 45.95 42.35 45.45 42.9 44.7 42.95 Q44.3 42.8 44.1 42.45 L42.4 39 42 39 42 42 41.7 42.7 41 43 40.3 42.7 Q40 42.4 40 42 L40 34 M11 16 L11 48 Q11 53 16 53 L48 53 Q53 53 53 48 L53 16 Q53 11 48 11 L16 11 Q11 11 11 16"/>
  </g>
</svg>