<svg width="64" height="64" xmlns="http://www.w3.org/2000/svg" xmlns:xlink="http://www.w3.org/1999/xlink">
  <defs/>
  <g>
    <path stroke="none" fill="#FFFFFF" d="M11 26 L11 38 Q11 43 16 43 L48 43 Q53 43 53 38 L53 26 Q53 21 48 21 L16 21 Q11 21 11 26 M48 27 Q48.4 27 48.7 27.3 L49 28 48.7 28.7 Q48.4 29 48 29 L45 29 45 31 48 31 Q48.4 31 48.7 31.3 L49 32 48.7 32.7 Q48.4 33 48 33 L45 33 45 35 48 35 Q48.4 35 48.7 35.3 L49 36 48.7 36.7 Q48.4 37 48 37 L44 37 Q43.6 37 43.3 36.7 43 36.4 43 36 L43 28 Q43 27.6 43.3 27.3 43.6 27 44 27 L48 27 M29 29.8 Q29 28.65 29.85 27.8 L29.9 27.75 Q30.75 27 32 27 33.15 27 34.05 27.75 L34.1 27.8 Q35 28.65 35 29.8 L35 36 34.7 36.7 Q34.4 37 34 37 L33.3 36.7 Q33 36.4 33 36 L33 34 31 34 31 36 30.7 36.7 Q30.4 37 30 37 L29.3 36.7 Q29 36.4 29 36 L29 29.8 M31 29.8 L31 32 33 32 33 29.8 32.75 29.25 32.75 29.3 Q32.45 29 32 29 31.55 29 31.2 29.3 L31.25 29.2 Q31 29.45 31 29.8 M41.1 36.25 L41.05 36.3 Q40.15 37 39 37 37.75 37 36.9 36.3 L36.85 36.2 Q36 35.35 36 34.25 L36 29.8 Q36 28.65 36.85 27.8 L36.9 27.75 Q37.75 27 39 27 40.15 27 41.05 27.75 L41.1 27.8 Q42 28.65 42 29.8 L41.7 30.5 41 30.8 40.3 30.5 Q40 30.2 40 29.8 L39.75 29.25 39.75 29.3 Q39.45 29 39 29 38.55 29 38.2 29.3 L38.25 29.2 Q38 29.45 38 29.8 L38 34.25 38.2 34.75 39 35 39.75 34.75 39.75 34.8 40 34.25 Q40 33.85 40.3 33.55 40.6 33.25 41 33.25 41.4 33.25 41.7 33.55 L42 34.25 Q42 35.35 41.1 36.25 M16 18 L48 18 Q56 18 56 26 L56 38 Q56 42.9 53 44.8 51.1 46 48 46 L16 46 Q12.9 46 11 44.8 8 42.9 8 38 L8 26 Q8 18 16 18 M25.1 31 L25.45 30.9 25.7 30.7 25.75 30.7 26 30 25.7 29.25 25.05 29 24 29 24 31 25.1 31 M25.1 33 L24 33 24 36 23.7 36.7 23 37 Q22.6 37 22.3 36.7 22 36.4 22 36 L22 28 Q22 27.6 22.3 27.3 22.6 27 23 27 L25.05 27 Q26.25 27 27.1 27.85 28 28.75 28 30 28 31.25 27.1 32.1 L27.1 32.15 26.45 32.65 26.35 32.7 25.1 33 M18 29 Q17.6 29 17.3 29.3 17 29.6 17 30 17 30.4 17.3 30.7 17.6 31 17.95 31 L18.05 31 Q19.2 31 20.1 31.9 21 32.8 21 34 21 35.2 20.1 36.1 19.2 37 18 37 L16 37 15.3 36.7 Q15 36.4 15 36 15 35.6 15.3 35.3 15.6 35 16 35 L18 35 Q18.4 35 18.7 34.7 L19 34 18.7 33.3 Q18.4 33 18.05 33 L17.95 33 Q16.8 33 15.9 32.1 15 31.2 15 30 15 28.8 15.9 27.9 16.8 27 18 27 L20 27 Q20.4 27 20.7 27.3 L21 28 20.7 28.7 20 29 18 29"/>
  </g>
</svg>