<svg width="64" height="64" xmlns="http://www.w3.org/2000/svg" xmlns:xlink="http://www.w3.org/1999/xlink">
  <defs/>
  <g>
    <path stroke="none" fill="#FFFFFF" d="M11 16 L11 48 Q11 53 16 53 L48 53 Q53 53 53 48 L53 16 Q53 11 48 11 L16 11 Q11 11 11 16 M40 28 Q40 27.6 40.3 27.3 40.45 27.1 40.7 27.05 L41 27 45 27 Q45.4 27 45.7 27.3 L46 28 45.7 28.7 45 29 42 29 42 31 45 31 Q45.4 31 45.7 31.3 L46 32 45.7 32.7 45 33 42 33 42 35 45 35 Q45.4 35 45.7 35.3 L46 36 45.7 36.7 45 37 41 37 40.3 36.7 Q40 36.4 40 36 L40 28 M39 36 L38.7 36.7 38 37 Q37.6 37 37.3 36.7 37 36.4 37 36 L37 30.4 35.7 31.7 35 32 Q34.6 32 34.3 31.7 L33 30.4 33 36 32.7 36.7 32 37 Q31.6 37 31.3 36.7 31 36.4 31 36 L31 28 Q31 27.6 31.3 27.3 31.45 27.1 31.7 27.05 L32 27 32.3 27.05 Q32.55 27.1 32.7 27.3 L35 29.6 37.3 27.3 Q37.45 27.1 37.7 27.05 L38 27 38.3 27.05 Q38.55 27.1 38.7 27.3 L39 28 39 36 M16 8 L48 8 Q56 8 56 16 L56 48 Q56 56 48 56 L16 56 Q8 56 8 48 L8 16 Q8 8 16 8 M26 29.8 L26 34.25 26.2 34.75 27 35 27.75 34.75 27.75 34.8 28 34.25 28 29.8 27.75 29.25 27.75 29.3 Q27.45 29 27 29 26.55 29 26.2 29.3 L26.25 29.2 Q26 29.45 26 29.8 M24.85 27.8 L24.9 27.75 Q25.55 27.2 26.4 27.05 L27 27 27.6 27.05 Q28.4 27.2 29.05 27.75 L29.1 27.8 Q30 28.65 30 29.8 L30 34.25 Q30 35.35 29.1 36.25 L29.05 36.3 Q28.15 37 27 37 25.75 37 24.9 36.3 L24.85 36.2 Q24 35.35 24 34.25 L24 29.8 Q24 28.65 24.85 27.8 M23 36 L22.7 36.7 22 37 Q21.6 37 21.3 36.7 21 36.4 21 36 L21 33 19 33 19 36 18.7 36.7 Q18.4 37 18 37 L17.3 36.7 Q17 36.4 17 36 L17 28 Q17 27.6 17.3 27.3 17.45 27.1 17.7 27.05 L18 27 18.3 27.05 Q18.55 27.1 18.7 27.3 L19 28 19 31 21 31 21 28 Q21 27.6 21.3 27.3 21.45 27.1 21.7 27.05 L22 27 22.3 27.05 Q22.55 27.1 22.7 27.3 L23 28 23 36"/>
  </g>
</svg>