<svg width="64" height="64" xmlns="http://www.w3.org/2000/svg" xmlns:xlink="http://www.w3.org/1999/xlink">
  <defs/>
  <g>
    <path stroke="none" fill="#FFFFFF" d="M11 22 L11 42 Q11 45 12.6 46.3 13.9 47 16 47 L48 47 Q50.1 47 51.4 46.3 53 45 53 42 L53 22 Q53 17 48 17 L16 17 Q11 17 11 22 M56 22 L56 42 Q56 46.9 53 48.8 51.1 50 48 50 L16 50 Q12.9 50 11 48.8 8 46.9 8 42 L8 22 Q8 14 16 14 L48 14 Q56 14 56 22 M22 28.75 L22 31 24 31 24 28.75 23.8 28.3 23 28 Q22.55 28 22.25 28.25 L22.2 28.3 22 28.75 M29 25 L32 25 32 35 37 35 37 38 29 38 29 25 M19 28.75 Q19 27.15 20.2 26.05 L20.25 26.05 Q21.4 25 23 25 24.55 25 25.75 26.05 27 27.15 27 28.75 L27 38 24 38 24 34 22 34 22 38 19 38 19 28.75 M43 38 L40 38 40 28 37 28 37 25 46 25 46 28 43 28 43 38"/>
  </g>
</svg>