<svg width="64" height="64" xmlns="http://www.w3.org/2000/svg" xmlns:xlink="http://www.w3.org/1999/xlink">
  <defs/>
  <g>
    <path stroke="none" fill="#FFFFFF" d="M34 30 L30 30 Q29.2 30 28.6 29.4 28 28.8 28 28 28 27.2 28.55 26.65 L28.65 26.55 Q29.2 26 30 26 L34.05 26 Q34.8 26 35.35 26.55 L35.45 26.65 Q36 27.2 36 28 L39.85 26.5 39.7 26 Q39.25 24.8 38.25 23.8 L38.2 23.75 Q36.5 22.05 34.15 22 L30 22 Q27.55 22 25.8 23.75 L25.75 23.8 Q24 25.55 24 28 24 30.5 25.75 32.25 27.5 34 30 34 L34 34 Q34.8 34 35.4 34.6 36 35.2 36 36 36 36.8 35.45 37.35 L35.35 37.45 Q34.8 38 34 38 L29.95 38 Q29.2 38 28.65 37.45 L28.55 37.35 Q28 36.8 28 36 L24.2 37.55 24.35 38 Q24.75 39.2 25.75 40.2 L25.8 40.25 Q27.5 41.95 29.85 42 L34 42 Q36.45 42 38.2 40.25 L38.25 40.2 Q40 38.45 40 36 40 33.5 38.25 31.75 36.5 30 34 30 M16 8 L48 8 Q56 8 56 16 L56 48 Q56 56 48 56 L16 56 Q8 56 8 48 L8 16 Q8 8 16 8"/>
  </g>
</svg>