<svg width="64" height="64" xmlns="http://www.w3.org/2000/svg" xmlns:xlink="http://www.w3.org/1999/xlink">
  <defs/>
  <g>
    <path stroke="none" fill="#FFFFFF" d="M16 8 L48 8 Q56 8 56 16 L56 48 Q56 56 48 56 L16 56 Q8 56 8 48 L8 16 Q8 8 16 8 M33.5 36.6 L33.6 36.5 Q34 36.1 34 35.5 34 34.9 33.55 34.45 33.1 34 32.55 34 L30.5 34 Q29.9 34 29.45 34.45 29 34.9 29 35.5 29 36.1 29.4 36.5 L29.5 36.6 Q29.9 37 30.5 37 L32.5 37 Q33.1 37 33.5 36.6 M30 30 L33 30 33.7 29.7 34 29 33.7 28.3 Q33.4 28 33.05 28 L29.95 28 Q29.6 28 29.3 28.3 29 28.6 29 29 29 29.4 29.3 29.7 L30 30 M32.5 41 L30.5 41 Q28.25 41 26.65 39.4 L26.6 39.35 Q25.2 37.95 25 36 L25 35.5 Q25 33.6 26.1 32.2 25 30.85 25 29 25 26.95 26.4 25.5 L26.5 25.4 Q27.45 24.5 28.65 24.2 L29.95 24 33.05 24 Q35.05 24 36.5 25.4 L36.6 25.5 Q38 26.95 38 29 38 30.85 36.9 32.2 38 33.6 38 35.5 L38 36 Q37.8 37.95 36.4 39.35 L36.35 39.4 Q34.75 41 32.5 41 M11 16 L11 48 Q11 53 16 53 L48 53 Q53 53 53 48 L53 16 Q53 11 48 11 L16 11 Q11 11 11 16"/>
  </g>
</svg>