<svg width="64" height="64" xmlns="http://www.w3.org/2000/svg" xmlns:xlink="http://www.w3.org/1999/xlink">
  <defs/>
  <g>
    <path stroke="none" fill="#FFFFFF" d="M11 16 L11 48 Q11 53 16 53 L48 53 Q53 53 53 48 L53 16 Q53 11 48 11 L16 11 Q11 11 11 16 M41 41 L36 41 41 28 33 28 33 24 46 24 46 28 41 41 M16 8 L48 8 Q56 8 56 16 L56 48 Q56 56 48 56 L16 56 Q8 56 8 48 L8 16 Q8 8 16 8 M22 41 L18 41 18 33.95 18 33.85 18 24 25.05 24 25.15 24 29 24 29 28 22 28 22 31 25.05 31 25.15 31 29 31 29 35 22 35 22 41"/>
  </g>
</svg>