<svg width="64" height="64" xmlns="http://www.w3.org/2000/svg" xmlns:xlink="http://www.w3.org/1999/xlink">
  <defs/>
  <g>
    <path stroke="none" fill="#FFFFFF" d="M37 27 L36 27 Q35.6 27 35.3 27.3 35 27.6 35 28 L35.3 28.7 Q35.6 29 36 29 L36 29.25 35.75 29.8 35.75 29.75 35 30 34.2 29.75 34 29.25 34 24.8 Q34 24.45 34.25 24.2 L34.2 24.3 Q34.55 24 35 24 35.45 24 35.75 24.3 L35.75 24.25 36 24.8 Q36 25.2 36.3 25.5 L37 25.8 37.7 25.5 38 24.8 Q38 23.65 37.1 22.8 L37.05 22.75 Q36.15 22 35 22 33.75 22 32.9 22.75 L32.85 22.8 Q32 23.65 32 24.8 L32 29.25 Q32 30.35 32.85 31.2 L32.9 31.3 Q33.75 32 35 32 36.15 32 37.05 31.3 L37.1 31.25 Q38 30.35 38 29.25 L38 28 37.7 27.3 Q37.4 27 37 27 M44 26 L41 26 41 24 44 24 44.7 23.7 45 23 44.7 22.3 Q44.4 22 44 22 L40 22 Q39.6 22 39.3 22.3 39 22.6 39 23 L39 31 Q39 31.4 39.3 31.7 39.6 32 40 32 L44 32 44.7 31.7 45 31 44.7 30.3 Q44.4 30 44 30 L41 30 41 28 44 28 44.7 27.7 45 27 44.7 26.3 Q44.4 26 44 26 M16 8 L48 8 Q56 8 56 16 L56 48 Q56 56 48 56 L16 56 Q8 56 8 48 L8 16 Q8 8 16 8 M21.1 26 L20 26 20 24 21.05 24 21.7 24.25 22 25 21.75 25.7 21.7 25.7 21.45 25.9 21.1 26 M21.1 28 L22.35 27.7 22.45 27.65 23.1 27.15 23.1 27.1 Q24 26.25 24 25 24 23.75 23.1 22.85 22.25 22 21.05 22 L19 22 Q18.6 22 18.3 22.3 18 22.6 18 23 L18 31 Q18 31.4 18.3 31.7 18.6 32 19 32 L19.7 31.7 20 31 20 28 21.1 28 M27 24.8 L27.25 24.2 27.2 24.3 Q27.55 24 28 24 28.45 24 28.75 24.3 L28.75 24.25 29 24.8 29 27 27 27 27 24.8 M25 24.8 L25 31 Q25 31.4 25.3 31.7 25.6 32 26 32 L26.7 31.7 27 31 27 29 29 29 29 31 Q29 31.4 29.3 31.7 L30 32 Q30.4 32 30.7 31.7 L31 31 31 24.8 Q31 23.65 30.1 22.8 L30.05 22.75 Q29.15 22 28 22 26.75 22 25.9 22.75 L25.85 22.8 Q25 23.65 25 24.8 M28.1 37 L27 37 27 35 28.05 35 28.7 35.25 29 36 28.75 36.7 28.7 36.7 28.45 36.9 28.1 37 M28.1 39 L29.35 38.7 29.45 38.65 30.1 38.15 30.1 38.1 Q31 37.25 31 36 31 34.75 30.1 33.85 29.25 33 28.05 33 L26 33 Q25.6 33 25.3 33.3 25 33.6 25 34 L25 42 Q25 42.4 25.3 42.7 25.6 43 26 43 L26.7 42.7 27 42 27 39 28.1 39 M20 40.2 L20 34 19.7 33.3 Q19.4 33 19 33 18.6 33 18.3 33.3 18 33.6 18 34 L18 40.2 Q18 41.35 18.85 42.2 L18.9 42.3 Q19.75 43 21 43 22.15 43 23.05 42.3 L23.1 42.25 Q24 41.35 24 40.2 L24 34 23.7 33.3 Q23.4 33 23 33 22.6 33 22.3 33.3 22 33.6 22 34 L22 40.2 21.75 40.8 21.75 40.75 21 41 20.2 40.75 20 40.2"/>
  </g>
</svg>