<svg width="64" height="64" xmlns="http://www.w3.org/2000/svg" xmlns:xlink="http://www.w3.org/1999/xlink">
  <defs/>
  <g>
    <path stroke="none" fill="#FFFFFF" d="M47 24 L43 24 40 27 40 28.95 43 28.95 43 33.85 43 33.95 43 41 47 41 47 24 M16 8 L48 8 Q56 8 56 16 L56 48 Q56 56 48 56 L16 56 Q8 56 8 48 L8 16 Q8 8 16 8 M21 41 L21 35 28 35 28 31 24.15 31 24.05 31 21 31 21 28 28 28 28 24 24.15 24 24.05 24 17 24 17 33.85 17 33.95 17 41 21 41 M38 24 L34 24 31 27 31 28.95 34 28.95 34 33.85 34 33.95 34 41 38 41 38 24"/>
  </g>
</svg>