<svg width="64" height="64" xmlns="http://www.w3.org/2000/svg" xmlns:xlink="http://www.w3.org/1999/xlink">
  <defs/>
  <g>
    <path stroke="none" fill="#FFFFFF" d="M31 35 Q31 34.15 30.45 33.6 29.85 33 29 33 L23 33 Q22.15 33 21.6 33.6 21 34.15 21 35 L21 41 Q21 41.85 21.6 42.45 22.15 43 23 43 L29 43 Q29.85 43 30.45 42.45 31 41.85 31 41 L31 35 M31 23 Q31 22.15 30.45 21.6 29.85 21 29 21 L23 21 Q22.15 21 21.6 21.6 21 22.15 21 23 L21 29 Q21 29.85 21.6 30.45 22.15 31 23 31 L29 31 Q29.85 31 30.45 30.45 31 29.85 31 29 L31 23 M33 41 Q33 41.85 33.6 42.45 34.15 43 35 43 L41 43 Q41.85 43 42.45 42.45 43 41.85 43 41 L43 35 Q43 34.15 42.45 33.6 41.85 33 41 33 L35 33 Q34.15 33 33.6 33.6 33 34.15 33 35 L33 41 M48 8 Q56 8 56 16 L56 48 Q56 56 48 56 L16 56 Q8 56 8 48 L8 16 Q8 8 16 8 L48 8 M35 31 L41 31 Q41.85 31 42.45 30.45 43 29.85 43 29 L43 23 Q43 22.15 42.45 21.6 41.85 21 41 21 L35 21 Q34.15 21 33.6 21.6 33 22.15 33 23 L33 29 Q33 29.85 33.6 30.45 34.15 31 35 31"/>
  </g>
</svg>