<svg width="64" height="64" xmlns="http://www.w3.org/2000/svg" xmlns:xlink="http://www.w3.org/1999/xlink">
  <defs/>
  <g>
    <path stroke="none" fill="#FFFFFF" d="M41 31 L41 23 40.7 22.3 Q40.4 22 40 22 39.6 22 39.3 22.3 L37 24.6 34.7 22.3 Q34.4 22 34 22 33.6 22 33.3 22.3 33 22.6 33 23 L33 31 Q33 31.4 33.3 31.7 L34 32 Q34.4 32 34.7 31.7 L35 31 35 25.4 36.3 26.7 37 27 37.7 26.7 39 25.4 39 31 Q39 31.4 39.3 31.7 39.6 32 40 32 L40.7 31.7 41 31 M16 8 L48 8 Q56 8 56 16 L56 48 Q56 56 48 56 L16 56 Q8 56 8 48 L8 16 Q8 8 16 8 M40 34 L40 42 Q40 42.4 40.3 42.7 L41 43 41.7 42.7 42 42 42 39 42.4 39 44.1 42.45 Q44.3 42.8 44.7 42.95 L45.45 42.9 45.95 42.35 45.9 41.55 44.15 38 45.9 34.45 45.95 33.7 45.45 33.1 44.7 33.05 Q44.3 33.2 44.1 33.55 L42.4 37 42 37 42 34 41.7 33.3 Q41.4 33 41 33 40.6 33 40.3 33.3 40 33.6 40 34 M19 24.8 L19 31 Q19 31.4 19.3 31.7 L20 32 20.7 31.7 21 31 21 24.8 21.25 24.2 21.2 24.3 Q21.55 24 22 24 22.45 24 22.75 24.3 L22.75 24.25 23 24.8 23 31 Q23 31.4 23.3 31.7 23.6 32 24 32 L24.7 31.7 25 31 25 24.8 Q25 23.65 24.1 22.8 L24.05 22.75 Q23.15 22 22 22 20.75 22 19.9 22.75 L19.85 22.8 Q19 23.65 19 24.8 M28 29.2 L28 23 27.7 22.3 Q27.4 22 27 22 26.6 22 26.3 22.3 26 22.6 26 23 L26 29.2 Q26 30.35 26.85 31.2 L26.9 31.3 Q27.75 32 29 32 30.15 32 31.05 31.3 L31.1 31.25 Q32 30.35 32 29.2 L32 23 31.7 22.3 Q31.4 22 31 22 30.6 22 30.3 22.3 30 22.6 30 23 L30 29.2 29.75 29.8 29.75 29.75 29 30 28.2 29.75 28 29.2 M19 34 L19 42 Q19 42.4 19.3 42.7 L20 43 24 43 24.7 42.7 25 42 24.7 41.3 Q24.4 41 24 41 L21 41 21 34 20.7 33.3 Q20.4 33 20 33 19.6 33 19.3 33.3 19 33.6 19 34 M38.1 42.25 Q39 41.35 39 40.25 L38.7 39.55 38 39.25 Q37.6 39.25 37.3 39.55 37 39.85 37 40.25 L36.75 40.8 36.75 40.75 36 41 35.2 40.75 35 40.25 35 35.8 Q35 35.45 35.25 35.2 L35.2 35.3 Q35.55 35 36 35 36.45 35 36.75 35.3 L36.75 35.25 37 35.8 Q37 36.2 37.3 36.5 37.6 36.8 38 36.8 L38.7 36.5 39 35.8 Q39 34.65 38.1 33.8 L38.05 33.75 Q37.15 33 36 33 34.75 33 33.9 33.75 L33.85 33.8 Q33 34.65 33 35.8 L33 40.25 Q33 41.35 33.85 42.2 L33.9 42.3 Q34.75 43 36 43 37.15 43 38.05 42.3 L38.1 42.25 M26.85 33.8 Q26 34.65 26 35.8 L26 40.25 Q26 41.35 26.85 42.2 L26.9 42.3 Q27.75 43 29 43 30.15 43 31.05 42.3 L31.1 42.25 Q32 41.35 32 40.25 L32 35.8 Q32 34.65 31.1 33.8 L31.05 33.75 Q30.15 33 29 33 27.75 33 26.9 33.75 L26.85 33.8 M28 35.8 Q28 35.45 28.25 35.2 L28.2 35.3 Q28.55 35 29 35 29.45 35 29.75 35.3 L29.75 35.25 30 35.8 30 40.25 29.75 40.8 29.75 40.75 29 41 28.2 40.75 28 40.25 28 35.8"/>
  </g>
</svg>