<svg width="64" height="64" xmlns="http://www.w3.org/2000/svg" xmlns:xlink="http://www.w3.org/1999/xlink">
  <defs/>
  <g>
    <path stroke="none" fill="#FFFFFF" d="M11 16 L11 48 Q11 53 16 53 L48 53 Q53 53 53 48 L53 16 Q53 11 48 11 L16 11 Q11 11 11 16 M16 8 L48 8 Q56 8 56 16 L56 48 Q56 56 48 56 L16 56 Q8 56 8 48 L8 16 Q8 8 16 8 M38 35.75 Q38.05 37.95 36.05 39.6 L36.1 39.5 Q34.4 41 32 41 29.6 41 27.9 39.55 26.05 38.05 26 36 L30.1 36 30.45 36.45 30.45 36.5 Q31.1 37 32 37 32.9 37 33.5 36.5 L33.55 36.45 34 35.75 33.6 35 Q33.2 34.65 32.7 34.55 L32.15 34.5 30 34.5 30 30.5 32.15 30.5 Q33 30.5 33.6 30 L34 29.25 Q33.95 28.85 33.55 28.55 L33.5 28.5 Q32.9 28 32 28 31.1 28 30.45 28.5 L30.45 28.55 30.1 29 26 29 Q26.05 26.95 27.9 25.45 29.6 24 32 24 34.4 24 36.1 25.5 L36.05 25.4 Q38.05 27.05 38 29.25 38.05 31.1 36.75 32.5 38.05 33.9 38 35.75"/>
  </g>
</svg>