<svg width="64" height="64" xmlns="http://www.w3.org/2000/svg" xmlns:xlink="http://www.w3.org/1999/xlink">
  <defs/>
  <g>
    <path stroke="none" fill="#FFFFFF" d="M51 25 Q51 24.15 50.4 23.55 49.85 23 49 23 48.15 23 47.6 23.55 47 24.15 47 25 47 25.8 47.6 26.4 48.15 27 49 27 49.85 27 50.4 26.4 51 25.8 51 25 M43 25 Q43 24.15 42.4 23.55 41.85 23 41 23 40.15 23 39.6 23.55 39 24.15 39 25 39 25.8 39.6 26.4 40.15 27 41 27 41.85 27 42.4 26.4 43 25.8 43 25 M47 22 Q47 21.15 46.4 20.55 45.85 20 45 20 44.15 20 43.6 20.55 43 21.15 43 22 43 22.8 43.6 23.4 44.15 24 45 24 45.85 24 46.4 23.4 47 22.8 47 22 M24.3 15.75 L39.7 15.75 Q40.7 15.3 41.7 15 47.05 14.9 49.85 17.35 L50.8 18.9 51.25 19.1 52.05 20.15 Q54.05 27.3 55.4 36.6 56.3 41.6 55.85 44.45 55.1 46.95 52.55 47.85 50.35 48.4 48.75 46.8 L45.65 41.25 Q44.5 38.05 42 38.25 L32 38.25 32 38.2 22 38.25 Q19.5 38.05 18.3 41.25 L15.2 46.8 Q13.65 48.35 11.45 47.85 8.9 46.95 8.15 44.45 7.7 41.6 8.6 36.6 9.95 27.3 11.95 20.15 L12.75 19.1 13.2 18.9 14.15 17.3 Q16.95 14.85 22.3 15 L24.3 15.75 M24 29 L24 31 22 31 22 33 24 33 24 35 26 35 26 33 28 33 28 31 26 31 26 29 24 29 M41 32 Q41 30.75 40.1 29.85 39.25 29 38 29 36.75 29 35.85 29.85 35 30.75 35 32 35 33.2 35.85 34.05 36.75 35 38 35 39.25 35 40.1 34.05 41 33.2 41 32 M22 24 Q22 22.75 21.1 21.85 20.25 21 19 21 17.75 21 16.85 21.85 16 22.75 16 24 16 25.2 16.85 26.05 17.75 27 19 27 20.25 27 21.1 26.05 22 25.2 22 24 M47 28 Q47 27.15 46.4 26.55 45.85 26 45 26 44.15 26 43.6 26.55 43 27.15 43 28 43 28.8 43.6 29.4 44.15 30 45 30 45.85 30 46.4 29.4 47 28.8 47 28"/>
  </g>
</svg>