<svg width="64" height="64" xmlns="http://www.w3.org/2000/svg" xmlns:xlink="http://www.w3.org/1999/xlink">
  <defs/>
  <g>
    <path stroke="none" fill="#FFFFFF" d="M44 22 L44 42 43.7 42.7 43 43 21 43 20.3 42.7 Q20 42.4 20 42 L20 22 Q20 21.6 20.3 21.3 20.6 21 21 21 L43 21 Q43.4 21 43.7 21.3 L44 22 M47 21 L52 21 Q56 21 56 25 L56 39 Q56 43 52 43 L47 43 Q46.6 43 46.3 42.7 46 42.4 46 42 L46 22 Q46 21.6 46.3 21.3 46.6 21 47 21 M22 23 L22 41 42 41 42 23 22 23 M50 28 L49.75 27.3 Q49.45 27 49 27 48.6 27 48.3 27.3 48 27.6 48 28 48 28.45 48.3 28.7 48.6 29 49 29 L49.75 28.7 50 28 M53 35 Q53 34.2 52.45 33.6 51.85 33 51 33 50.2 33 49.6 33.6 49 34.2 49 35 49 35.85 49.6 36.4 50.2 37 51 37 51.85 37 52.45 36.4 53 35.85 53 35 M52 30 L51.75 29.3 Q51.45 29 51 29 50.6 29 50.3 29.3 50 29.6 50 30 50 30.45 50.3 30.7 L51 31 51.75 30.7 52 30 M52 26 L51.75 25.3 Q51.45 25 51 25 50.6 25 50.3 25.3 50 25.6 50 26 50 26.45 50.3 26.7 L51 27 51.75 26.7 52 26 M54 28 L53.75 27.3 Q53.45 27 53 27 52.6 27 52.3 27.3 52 27.6 52 28 52 28.45 52.3 28.7 52.6 29 53 29 L53.75 28.7 54 28 M8 25 Q8 21 12 21 L17 21 17.7 21.3 18 22 18 42 17.7 42.7 17 43 12 43 Q8 43 8 39 L8 25 M16 35 L15.75 34.3 Q15.45 34 15 34 14.6 34 14.3 34.3 14 34.6 14 35 14 35.45 14.3 35.7 14.6 36 15 36 L15.75 35.7 16 35 M14 37 L13.75 36.3 Q13.45 36 13 36 12.6 36 12.3 36.3 12 36.6 12 37 12 37.45 12.3 37.7 L13 38 13.75 37.7 14 37 M12 35 L11.75 34.3 Q11.45 34 11 34 10.6 34 10.3 34.3 10 34.6 10 35 10 35.45 10.3 35.7 10.6 36 11 36 L11.75 35.7 12 35 M14 33 L13.75 32.3 Q13.45 32 13 32 12.6 32 12.3 32.3 12 32.6 12 33 12 33.45 12.3 33.7 L13 34 13.75 33.7 14 33 M15 28 Q15 27.2 14.45 26.6 13.85 26 13 26 12.2 26 11.6 26.6 11 27.2 11 28 11 28.85 11.6 29.4 12.2 30 13 30 13.85 30 14.45 29.4 15 28.85 15 28"/>
  </g>
</svg>