<svg width="64" height="64" xmlns="http://www.w3.org/2000/svg" xmlns:xlink="http://www.w3.org/1999/xlink">
  <defs/>
  <g>
    <path stroke="none" fill="#FFFFFF" d="M32 11 L38 17 38 19 34 19 34 27 30 27 30 19 26 19 26 17 32 11"/>
    <path stroke="none" fill="#FFFFFF" d="M47 24 L52 24 Q56 24 56 28 L56 42 Q56 46 52 46 L47 46 Q46.6 46 46.3 45.7 46 45.4 46 45 L46 25 Q46 24.6 46.3 24.3 46.6 24 47 24 M44 31 L44 51 43.7 51.7 43 52 21 52 20.3 51.7 Q20 51.4 20 51 L20 31 Q20 30.6 20.3 30.3 20.6 30 21 30 L43 30 Q43.4 30 43.7 30.3 L44 31 M15 31 Q15 30.2 14.45 29.6 13.85 29 13 29 12.2 29 11.6 29.6 11 30.2 11 31 11 31.85 11.6 32.4 12.2 33 13 33 13.85 33 14.45 32.4 15 31.85 15 31 M22 32 L22 50 42 50 42 32 22 32 M52 33 L51.75 32.3 Q51.45 32 51 32 50.6 32 50.3 32.3 50 32.6 50 33 50 33.45 50.3 33.7 L51 34 51.75 33.7 52 33 M53 38 Q53 37.2 52.45 36.6 51.85 36 51 36 50.2 36 49.6 36.6 49 37.2 49 38 49 38.85 49.6 39.4 50.2 40 51 40 51.85 40 52.45 39.4 53 38.85 53 38 M54 31 L53.75 30.3 Q53.45 30 53 30 52.6 30 52.3 30.3 52 30.6 52 31 52 31.45 52.3 31.7 52.6 32 53 32 L53.75 31.7 54 31 M50 31 L49.75 30.3 Q49.45 30 49 30 48.6 30 48.3 30.3 48 30.6 48 31 48 31.45 48.3 31.7 48.6 32 49 32 L49.75 31.7 50 31 M52 29 L51.75 28.3 Q51.45 28 51 28 50.6 28 50.3 28.3 50 28.6 50 29 50 29.45 50.3 29.7 L51 30 51.75 29.7 52 29 M8 28 Q8 24 12 24 L17 24 17.7 24.3 18 25 18 45 17.7 45.7 17 46 12 46 Q8 46 8 42 L8 28 M14 40 L13.75 39.3 Q13.45 39 13 39 12.6 39 12.3 39.3 12 39.6 12 40 12 40.45 12.3 40.7 L13 41 13.75 40.7 14 40 M16 38 L15.75 37.3 Q15.45 37 15 37 14.6 37 14.3 37.3 14 37.6 14 38 14 38.45 14.3 38.7 14.6 39 15 39 L15.75 38.7 16 38 M14 36 L13.75 35.3 Q13.45 35 13 35 12.6 35 12.3 35.3 12 35.6 12 36 12 36.45 12.3 36.7 L13 37 13.75 36.7 14 36 M12 38 L11.75 37.3 Q11.45 37 11 37 10.6 37 10.3 37.3 10 37.6 10 38 10 38.45 10.3 38.7 10.6 39 11 39 L11.75 38.7 12 38"/>
  </g>
</svg>