<svg width="64" height="64" xmlns="http://www.w3.org/2000/svg" xmlns:xlink="http://www.w3.org/1999/xlink">
  <defs/>
  <g>
    <path stroke="none" fill="#FFFFFF" d="M47 31 L52 31 Q56 31 56 35 L56 49 Q56 53 52 53 L47 53 Q46.6 53 46.3 52.7 46 52.4 46 52 L46 32 Q46 31.6 46.3 31.3 46.6 31 47 31 M52 36 L51.75 35.3 Q51.45 35 51 35 50.6 35 50.3 35.3 50 35.6 50 36 50 36.45 50.3 36.7 L51 37 51.75 36.7 52 36 M44 32 L44 52 43.7 52.7 43 53 21 53 20.3 52.7 Q20 52.4 20 52 L20 32 Q20 31.6 20.3 31.3 20.6 31 21 31 L43 31 Q43.4 31 43.7 31.3 L44 32 M32 27 L26 21 26 19 30 19 30 11 34 11 34 19 38 19 38 21 32 27 M54 38 L53.75 37.3 Q53.45 37 53 37 52.6 37 52.3 37.3 52 37.6 52 38 52 38.45 52.3 38.7 52.6 39 53 39 L53.75 38.7 54 38 M53 45 Q53 44.2 52.45 43.6 51.85 43 51 43 50.2 43 49.6 43.6 49 44.2 49 45 49 45.85 49.6 46.4 50.2 47 51 47 51.85 47 52.45 46.4 53 45.85 53 45 M52 40 L51.75 39.3 Q51.45 39 51 39 50.6 39 50.3 39.3 50 39.6 50 40 50 40.45 50.3 40.7 L51 41 51.75 40.7 52 40 M50 38 L49.75 37.3 Q49.45 37 49 37 48.6 37 48.3 37.3 48 37.6 48 38 48 38.45 48.3 38.7 48.6 39 49 39 L49.75 38.7 50 38 M8 35 Q8 31 12 31 L17 31 17.7 31.3 18 32 18 52 17.7 52.7 17 53 12 53 Q8 53 8 49 L8 35 M22 33 L22 51 42 51 42 33 22 33 M12 45 L11.75 44.3 Q11.45 44 11 44 10.6 44 10.3 44.3 10 44.6 10 45 10 45.45 10.3 45.7 10.6 46 11 46 L11.75 45.7 12 45 M14 47 L13.75 46.3 Q13.45 46 13 46 12.6 46 12.3 46.3 12 46.6 12 47 12 47.45 12.3 47.7 L13 48 13.75 47.7 14 47 M16 45 L15.75 44.3 Q15.45 44 15 44 14.6 44 14.3 44.3 14 44.6 14 45 14 45.45 14.3 45.7 14.6 46 15 46 L15.75 45.7 16 45 M14 43 L13.75 42.3 Q13.45 42 13 42 12.6 42 12.3 42.3 12 42.6 12 43 12 43.45 12.3 43.7 L13 44 13.75 43.7 14 43 M15 38 Q15 37.2 14.45 36.6 13.85 36 13 36 12.2 36 11.6 36.6 11 37.2 11 38 11 38.85 11.6 39.4 12.2 40 13 40 13.85 40 14.45 39.4 15 38.85 15 38"/>
  </g>
</svg>