<svg width="64" height="64" xmlns="http://www.w3.org/2000/svg" xmlns:xlink="http://www.w3.org/1999/xlink">
  <defs/>
  <g>
    <path stroke="none" fill="#FFFFFF" d="M32 24 Q28.75 24 26.4 21.6 24 19.25 24 16 24 12.7 26.4 10.35 28.75 8 32 8 35.3 8 37.65 10.35 40 12.7 40 16 40 19.25 37.65 21.6 35.3 24 32 24 M48 40 Q44.75 40 42.4 37.6 40 35.25 40 32 40 28.7 42.4 26.35 44.75 24 48 24 51.3 24 53.65 26.35 56 28.7 56 32 56 35.25 53.65 37.6 51.3 40 48 40 M32 56 Q28.75 56 26.4 53.6 24 51.25 24 48 24 44.7 26.4 42.35 28.75 40 32 40 35.3 40 37.65 42.35 40 44.7 40 48 40 51.25 37.65 53.6 35.3 56 32 56"/>
    <path stroke="none" fill="#E73246" d="M16 40 Q12.75 40 10.4 37.6 8 35.25 8 32 8 28.7 10.4 26.35 12.75 24 16 24 19.3 24 21.65 26.35 24 28.7 24 32 24 35.25 21.65 37.6 19.3 40 16 40"/>
  </g>
</svg>