<svg width="64" height="64" xmlns="http://www.w3.org/2000/svg" xmlns:xlink="http://www.w3.org/1999/xlink">
  <defs/>
  <g>
    <path stroke="none" fill="#FFFFFF" d="M12 12.05 L20.6 12 22 13.45 19.15 16.3 22 19.1 19.15 21.95 16.25 19.1 13.45 22 12 20.55 12 12.05 M52 51.95 L43.45 52 42 50.55 44.9 47.65 42 44.85 44.9 42.05 47.75 44.85 50.6 42 52 43.45 52 51.95"/>
    <path stroke="none" fill="#FFFFFF" d="M42.9 28.75 Q44.65 27 44.7 24.5 44.7 22 42.9 20.25 41.2 18.5 38.65 18.5 36.2 18.5 34.45 20.25 32.7 22 32.65 24.5 32.7 27 34.4 28.75 36.2 30.5 38.7 30.5 41.15 30.5 42.9 28.75 M22.4 56.35 L12.15 46.1 Q7.05 40.6 12.5 35.15 L35.15 12.5 Q40.6 7.05 46.1 12.15 L56.35 22.4 22.4 56.35 M23.15 42.9 Q23.75 42.3 23.7 41.45 23.7 40.65 23.1 40.05 22.5 39.45 21.7 39.45 20.9 39.5 20.3 40.1 19.7 40.7 19.7 41.45 19.65 42.3 20.25 42.9 20.85 43.5 21.7 43.45 22.55 43.5 23.15 42.9 M28.75 42.9 Q29.35 42.3 29.4 41.4 29.35 40.7 28.75 40.1 28.15 39.5 27.35 39.4 26.55 39.45 25.95 40.05 25.35 40.65 25.3 41.45 25.35 42.3 25.95 42.9 26.55 43.5 27.35 43.45 28.15 43.5 28.75 42.9 M23.1 37.25 Q23.7 36.65 23.75 35.75 23.7 35.05 23.1 34.45 22.5 33.85 21.7 33.75 20.9 33.8 20.3 34.4 19.7 35 19.65 35.8 19.7 36.65 20.3 37.25 20.9 37.85 21.7 37.8 22.5 37.85 23.1 37.25 M28.8 37.2 Q29.4 36.6 29.35 35.8 29.35 35 28.75 34.4 28.15 33.8 27.35 33.8 26.55 33.8 25.95 34.4 25.35 35 25.35 35.8 25.3 36.65 25.9 37.25 26.5 37.85 27.35 37.8 28.2 37.8 28.8 37.2"/>
  </g>
</svg>