<svg width="64" height="64" xmlns="http://www.w3.org/2000/svg" xmlns:xlink="http://www.w3.org/1999/xlink">
  <defs/>
  <g>
    <path stroke="none" fill="#FFFFFF" d="M30 26 Q30 26.85 30.6 27.45 31.15 28 32 28 32.85 28 33.45 27.45 34 26.85 34 26 34 25.15 33.45 24.6 32.85 24 32 24 31.15 24 30.6 24.6 30 25.15 30 26 M34 22 Q34 22.85 34.6 23.45 35.15 24 36 24 36.85 24 37.45 23.45 38 22.85 38 22 38 21.15 37.45 20.6 36.85 20 36 20 35.15 20 34.6 20.6 34 21.15 34 22 M30 18 Q30 18.85 30.6 19.45 31.15 20 32 20 32.85 20 33.45 19.45 34 18.85 34 18 34 17.15 33.45 16.6 32.85 16 32 16 31.15 16 30.6 16.6 30 17.15 30 18 M26 22 Q26 22.85 26.6 23.45 27.15 24 28 24 28.85 24 29.45 23.45 30 22.85 30 22 30 21.15 29.45 20.6 28.85 20 28 20 27.15 20 26.6 20.6 26 21.15 26 22 M21 8 L35.5 8 36 8.05 Q43 8.5 43 16 L43 48 Q43 55.5 36 56 L35.5 56 21 56 21 8 M56 32 L50 38 48 38 48 34 46 34 46 30 48 30 48 26 50 26 56 32 M8 32 L14 26 16 26 16 30 18 30 18 34 16 34 16 38 14 38 8 32 M26 42 Q26 44.45 27.75 46.25 29.5 48 32 48 34.45 48 36.25 46.25 38 44.45 38 42 38 39.5 36.25 37.75 34.45 36 32 36 29.5 36 27.75 37.75 26 39.5 26 42"/>
  </g>
</svg>