<svg width="64" height="64" xmlns="http://www.w3.org/2000/svg" xmlns:xlink="http://www.w3.org/1999/xlink">
  <defs/>
  <g>
    <path stroke="none" fill="#FFFFFF" d="M32 12 Q23.7 12 17.85 17.85 12 23.7 12 32 12 40.3 17.85 46.1 L17.85 46.15 Q23.7 52 32 52 40.3 52 46.1 46.15 L46.15 46.1 Q52 40.3 52 32 52 23.7 46.15 17.85 L46.1 17.85 Q40.3 12 32 12 M20.7 20.7 Q25.35 16 32 16 38.65 16 43.25 20.65 L43.65 21 Q48 25.6 48 32 48 38.65 43.35 43.25 L43.25 43.35 Q38.65 48 32 48 25.6 48 21 43.65 L20.65 43.25 Q16 38.65 16 32 16 25.35 20.7 20.7 L20.65 20.7 20.7 20.65 20.7 20.7 M56 32 Q56 42 48.95 48.95 42 56 32 56 22.05 56 15 48.95 8 42 8 32 8 22.05 15 15 22.05 8 32 8 42 8 48.95 15 56 22.05 56 32 M26 24 L26 40 30 40 30 36 34 36 36 40 40 40 37.1 34.35 37.2 34.25 37.25 34.2 Q39 32.45 39 30 39 27.5 37.25 25.75 L37.2 25.7 36 24.8 Q34.75 24.05 33.2 24 L26 24 M33 28 Q33.8 28 34.4 28.6 L34.45 28.6 Q35 29.15 35 30 35 30.8 34.45 31.35 L34.35 31.45 Q33.8 32 33 32 L30 32 30 28 33 28"/>
  </g>
</svg>