<svg width="64" height="64" xmlns="http://www.w3.org/2000/svg" xmlns:xlink="http://www.w3.org/1999/xlink">
  <defs/>
  <g>
    <path stroke="none" fill="#FFFFFF" d="M48 32 Q48 25.35 43.3 20.65 38.65 16 32 16 25.35 16 20.65 20.65 16 25.35 16 32 16 38.65 20.65 43.3 25.35 48 32 48 38.65 48 43.3 43.3 48 38.65 48 32 M23.5 23.5 Q27 20 32 20 37 20 40.5 23.5 44 27 44 32 44 37 40.5 40.5 37 44 32 44 27 44 23.5 40.5 20 37 20 32 20 27 23.5 23.5 L23.45 23.5 23.5 23.45 23.5 23.5 M16 8 L48 8 Q56 8 56 16 L56 48 Q56 56 48 56 L16 56 Q8 56 8 48 L8 16 Q8 8 16 8"/>
  </g>
</svg>