<svg width="64" height="64" xmlns="http://www.w3.org/2000/svg" xmlns:xlink="http://www.w3.org/1999/xlink">
  <defs/>
  <g>
    <path stroke="none" fill="#FFFFFF" d="M27 8 L37 8 Q41 8 41 12 L41 23 52 23 Q56 23 56 27 L56 37 Q56 41 52 41 L41 41 41 52 Q41 56 37 56 L27 56 Q23 56 23 52 L23 41 12 41 Q8 41 8 37 L8 27 Q8 23 12 23 L23 23 23 12 Q23 8 27 8 M12 26 Q11 26 11 27 L11 37 Q11 38 12 38 L26 38 26 52 Q26 53 27 53 L37 53 Q38 53 38 52 L38 38 52 38 Q53 38 53 37 L53 27 Q53 26 52 26 L12 26 M35.7 16 L33.6 12.85 32.65 12.1 Q32 11.9 31.4 12.1 30.75 12.35 30.35 12.85 L28.3 16 Q27.9 16.6 28 17.3 28.1 18.05 28.65 18.5 29.2 19 29.95 19 L34.1 19 Q34.8 19 35.35 18.5 35.9 18.05 35.95 17.3 36.1 16.6 35.7 16"/>
  </g>
</svg>