<svg width="64" height="64" xmlns="http://www.w3.org/2000/svg" xmlns:xlink="http://www.w3.org/1999/xlink">
  <defs/>
  <g>
    <path stroke="none" fill="#FFFFFF" d="M48 8 L54 14 54 16 50 16 50 24 46 24 46 16 42 16 42 14 48 8 M48 56 L42 50 42 48 46 48 46 40 50 40 50 48 54 48 54 50 48 56 M20 18 Q20 17.15 20.6 16.6 21.15 16 22 16 22.85 16 23.45 16.6 24 17.15 24 18 24 18.85 23.45 19.45 22.85 20 22 20 21.15 20 20.6 19.45 20 18.85 20 18 M24 22 Q24 21.15 24.6 20.6 25.15 20 26 20 26.85 20 27.45 20.6 28 21.15 28 22 28 22.85 27.45 23.45 26.85 24 26 24 25.15 24 24.6 23.45 24 22.85 24 22 M20 26 Q20 25.15 20.6 24.6 21.15 24 22 24 22.85 24 23.45 24.6 24 25.15 24 26 24 26.85 23.45 27.45 22.85 28 22 28 21.15 28 20.6 27.45 20 26.85 20 26 M26 11 L13 11 13 53 26 53 Q31 53 31 48 L31 16 Q31 11 26 11 M26 8 Q34 8 34 16 L34 48 Q34 56 26 56 L10 56 10 8 26 8 M16 22 Q16 21.15 16.6 20.6 17.15 20 18 20 18.85 20 19.45 20.6 20 21.15 20 22 20 22.85 19.45 23.45 18.85 24 18 24 17.15 24 16.6 23.45 16 22.85 16 22 M17 42 Q17 39.9 18.45 38.45 19.9 37 22 37 24.05 37 25.55 38.45 27 39.9 27 42 27 44 25.55 45.5 24.05 47 22 47 19.9 47 18.45 45.5 17 44 17 42"/>
  </g>
</svg>