<svg width="64" height="64" xmlns="http://www.w3.org/2000/svg" xmlns:xlink="http://www.w3.org/1999/xlink">
  <defs/>
  <g>
    <path stroke="none" fill="#FFFFFF" d="M56 32 Q56 42 48.95 48.95 42 56 32 56 22.05 56 15 48.95 8 42 8 32 8 22.05 15 15 22.05 8 32 8 42 8 48.95 15 56 22.05 56 32 M46.85 17.15 Q40.75 11 32 11 23.3 11 17.15 17.15 11 23.3 11 32 11 40.75 17.15 46.85 23.3 53 32 53 40.75 53 46.85 46.85 53 40.75 53 32 53 23.3 46.85 17.15 M36.2 42.75 L21.8 33.5 Q21.3 33.15 21.1 32.55 20.9 31.95 21.1 31.3 21.3 30.7 21.85 30.4 L36.25 21.3 Q36.8 20.9 37.45 21 38.15 21.15 38.55 21.65 39 22.15 39 22.85 L39 41.15 Q39 41.85 38.55 42.35 38.15 42.85 37.45 42.95 L36.2 42.75"/>
  </g>
</svg>