<svg width="64" height="64" xmlns="http://www.w3.org/2000/svg" xmlns:xlink="http://www.w3.org/1999/xlink">
  <defs/>
  <g>
    <path stroke="none" fill="#E73246" d="M48 40 Q44.7 40 42.35 37.6 40 35.25 40 32 40 28.7 42.35 26.35 44.7 24 48 24 51.25 24 53.6 26.35 56 28.7 56 32 56 35.25 53.6 37.6 51.25 40 48 40"/>
    <path stroke="none" fill="#FFFFFF" d="M32 24 Q28.7 24 26.35 21.6 24 19.25 24 16 24 12.7 26.35 10.35 28.7 8 32 8 35.25 8 37.6 10.35 40 12.7 40 16 40 19.25 37.6 21.6 35.25 24 32 24 M16 40 Q12.7 40 10.35 37.6 8 35.25 8 32 8 28.7 10.35 26.35 12.7 24 16 24 19.25 24 21.6 26.35 24 28.7 24 32 24 35.25 21.6 37.6 19.25 40 16 40 M32 56 Q28.7 56 26.35 53.6 24 51.25 24 48 24 44.7 26.35 42.35 28.7 40 32 40 35.25 40 37.6 42.35 40 44.7 40 48 40 51.25 37.6 53.6 35.25 56 32 56"/>
  </g>
</svg>