<svg width="64" height="64" xmlns="http://www.w3.org/2000/svg" xmlns:xlink="http://www.w3.org/1999/xlink">
  <defs/>
  <g>
    <path stroke="none" fill="#FFFFFF" d="M12 12.05 L20.6 12 22 13.45 19.15 16.3 22 19.1 19.15 21.95 16.25 19.1 13.45 22 12 20.55 12 12.05 M52 51.95 L43.45 52 42 50.55 44.9 47.65 42 44.85 44.9 42.05 47.75 44.85 50.6 42 52 43.45 52 51.95"/>
    <path stroke="none" fill="#FFFFFF" d="M42.2 28.1 Q40.75 29.55 38.65 29.55 36.6 29.55 35.15 28.1 33.65 26.65 33.65 24.55 33.65 22.5 35.15 21 36.6 19.55 38.65 19.55 40.75 19.55 42.2 21 43.65 22.5 43.65 24.55 43.65 26.65 42.2 28.1 M45.7 11.8 L57.05 23.1 23.1 57.05 11.75 45.75 Q10.65 44.65 10.05 43.6 7.2 39 11.75 34.45 L34.4 11.8 Q40.05 6.15 45.7 11.8 M36.55 13.95 L13.9 36.6 Q10.4 40.1 13.9 43.6 L23.1 52.8 52.8 23.1 43.6 13.9 Q40.1 10.4 36.55 13.95 M28.75 37.25 Q28.15 37.85 27.35 37.85 26.55 37.85 25.95 37.25 25.35 36.65 25.3 35.8 25.35 35.05 25.95 34.45 26.55 33.85 27.3 33.8 28.15 33.85 28.75 34.45 29.35 35.05 29.35 35.85 29.35 36.65 28.75 37.25 M23.1 37.3 Q22.5 37.9 21.7 37.85 20.85 37.85 20.25 37.25 19.65 36.65 19.7 35.85 19.65 35.05 20.25 34.45 20.85 33.85 21.7 33.8 22.5 33.8 23.1 34.4 23.7 35 23.7 35.8 23.7 36.7 23.1 37.3 M23.1 42.9 Q22.5 43.5 21.7 43.5 20.85 43.55 20.25 42.95 19.65 42.35 19.65 41.45 19.7 40.7 20.3 40.1 20.9 39.5 21.65 39.45 22.5 39.5 23.1 40.1 23.7 40.7 23.7 41.5 23.7 42.3 23.1 42.9 M28.75 42.95 Q28.15 43.55 27.35 43.5 26.55 43.5 25.95 42.9 25.35 42.3 25.35 41.5 25.3 40.7 25.9 40.1 26.5 39.5 27.35 39.45 28.2 39.45 28.8 40.05 29.4 40.65 29.35 41.45 29.35 42.35 28.75 42.95"/>
  </g>
</svg>