<svg width="64" height="64" xmlns="http://www.w3.org/2000/svg" xmlns:xlink="http://www.w3.org/1999/xlink">
  <defs/>
  <g>
    <path stroke="none" fill="#FFFFFF" d="M56 32 Q56 42 48.95 48.95 42 56 32 56 22.05 56 15 48.95 8 42 8 32 8 22.05 15 15 22.05 8 32 8 42 8 48.95 15 56 22.05 56 32 M42.75 27.8 Q43.1 27.2 42.95 26.55 42.9 25.85 42.35 25.45 41.85 25 41.2 25 L22.85 25 Q22.15 25 21.65 25.45 21.15 25.85 21 26.55 20.9 27.2 21.3 27.75 L30.4 42.15 Q30.75 42.7 31.35 42.9 31.95 43.1 32.55 42.9 33.15 42.7 33.55 42.2 L42.75 27.8"/>
  </g>
</svg>