<svg width="64" height="64" xmlns="http://www.w3.org/2000/svg" xmlns:xlink="http://www.w3.org/1999/xlink">
  <defs/>
  <g>
    <path stroke="none" fill="#FFFFFF" d="M25 22 Q25 19.55 23.25 17.75 21.5 16 19 16 16.55 16 14.75 17.75 13 19.55 13 22 13 24.5 14.75 26.25 16.55 28 19 28 21.5 28 23.25 26.25 25 24.5 25 22 M30 8 L30 56 15.5 56 Q8 55.75 8 48 L8 16 Q8 8.25 15.5 8 L30 8 M21 46 Q21 45.15 20.4 44.55 19.85 44 19 44 18.15 44 17.55 44.55 17 45.15 17 46 17 46.85 17.55 47.4 18.15 48 19 48 19.85 48 20.4 47.4 21 46.85 21 46 M17 42 Q17 41.15 16.4 40.55 15.85 40 15 40 14.15 40 13.55 40.55 13 41.15 13 42 13 42.85 13.55 43.4 14.15 44 15 44 15.85 44 16.4 43.4 17 42.85 17 42 M21 38 Q21 37.15 20.4 36.55 19.85 36 19 36 18.15 36 17.55 36.55 17 37.15 17 38 17 38.85 17.55 39.4 18.15 40 19 40 19.85 40 20.4 39.4 21 38.85 21 38 M25 42 Q25 41.15 24.4 40.55 23.85 40 23 40 22.15 40 21.55 40.55 21 41.15 21 42 21 42.85 21.55 43.4 22.15 44 23 44 23.85 44 24.4 43.4 25 42.85 25 42"/>
    <path stroke="none" fill="#FFFFFF" d="M39 42 Q39 44.45 40.75 46.25 42.5 48 45 48 47.45 48 49.25 46.25 51 44.45 51 42 51 39.5 49.25 37.75 47.45 36 45 36 42.5 36 40.75 37.75 39 39.5 39 42 M43 26 Q43 26.85 43.6 27.45 44.15 28 45 28 45.85 28 46.45 27.45 47 26.85 47 26 47 25.15 46.45 24.6 45.85 24 45 24 44.15 24 43.6 24.6 43 25.15 43 26 M47 22 Q47 22.85 47.6 23.45 48.15 24 49 24 49.85 24 50.45 23.45 51 22.85 51 22 51 21.15 50.45 20.6 49.85 20 49 20 48.15 20 47.6 20.6 47 21.15 47 22 M39 22 Q39 22.85 39.6 23.45 40.15 24 41 24 41.85 24 42.45 23.45 43 22.85 43 22 43 21.15 42.45 20.6 41.85 20 41 20 40.15 20 39.6 20.6 39 21.15 39 22 M34 8 L48.5 8 49 8.05 Q56 8.5 56 16 L56 48 Q56 55.5 49 56 L48.5 56 34 56 34 8 M43 18 Q43 18.85 43.6 19.45 44.15 20 45 20 45.85 20 46.45 19.45 47 18.85 47 18 47 17.15 46.45 16.6 45.85 16 45 16 44.15 16 43.6 16.6 43 17.15 43 18"/>
  </g>
</svg>