<svg width="64" height="64" xmlns="http://www.w3.org/2000/svg" xmlns:xlink="http://www.w3.org/1999/xlink">
  <defs/>
  <g>
    <path stroke="none" fill="#FFFFFF" d="M41 21.1 Q41.6 20.5 42.4 20.6 43.2 20.55 43.8 21.15 44.4 21.75 44.4 22.6 44.4 23.35 43.8 23.95 43.2 24.55 42.35 24.6 41.55 24.6 40.95 24 40.35 23.4 40.35 22.6 40.4 21.7 41 21.1 M55.55 38.25 Q56.8 42.8 54.4 46.85 52.05 50.95 47.45 52.2 L42.8 52.4 43.8 53.5 Q44.2 53.95 44.1 54.6 44.05 55.25 43.6 55.65 43.15 56.05 42.5 56 41.85 55.95 41.45 55.5 L36.4 49.75 36 49 Q35.95 48.5 36.15 48.1 36.3 47.7 36.75 47.45 L43.1 43.6 44.2 43.45 Q44.85 43.55 45.15 44.1 45.5 44.65 45.35 45.25 L44.65 46.2 43 47.25 Q44.9 47.5 46.1 47.25 48.65 46.55 49.9 44.3 51.25 42.05 50.55 39.55 50.15 38.55 50.55 37.6 50.95 36.6 51.95 36.2 L53.95 36.15 Q54.9 36.6 55.3 37.55 L55.55 38.25 M52.3 18.3 Q57.95 23.95 52.3 29.6 L29.65 52.25 Q24 57.9 18.35 52.25 L7 40.95 40.95 7 52.3 18.3 M50.2 20.4 L41 11.2 11.3 40.9 20.5 50.1 Q24 53.65 27.5 50.15 L50.15 27.5 Q53.7 23.95 50.2 20.4 M40.95 26.8 Q41.55 26.2 42.4 26.2 43.15 26.2 43.8 26.8 44.4 27.4 44.4 28.25 44.4 29.05 43.8 29.65 43.2 30.25 42.4 30.25 41.6 30.2 41 29.6 40.35 29 40.4 28.2 40.35 27.4 40.95 26.8 M8.4 25.75 Q7.2 21.2 9.6 17.1 11.95 13.05 16.6 11.8 L21.2 11.55 20.25 10.5 Q19.8 9.95 19.9 9.4 19.95 8.7 20.35 8.35 20.9 7.9 21.55 8 22.15 8 22.55 8.45 L27.6 14.2 27.95 14.95 27.85 15.85 27.3 16.5 21 20.4 19.8 20.55 Q19.15 20.4 18.8 19.85 18.45 19.35 18.6 18.75 18.75 18.1 19.35 17.8 L21.05 16.7 Q19.1 16.5 17.95 16.7 15.35 17.35 14.05 19.6 12.75 21.9 13.4 24.4 L13.4 24.45 Q13.85 25.4 13.4 26.4 13 27.35 12.05 27.8 11.1 28.2 10.05 27.8 9.15 27.4 8.65 26.4 L8.4 25.75 M35.3 21.15 Q35.9 20.55 36.75 20.55 37.5 20.55 38.1 21.15 38.7 21.75 38.75 22.6 38.75 23.35 38.15 23.95 37.55 24.55 36.75 24.6 35.9 24.55 35.3 23.95 34.7 23.35 34.75 22.55 34.7 21.75 35.3 21.15 M35.35 26.75 Q35.95 26.15 36.7 26.25 37.55 26.2 38.15 26.8 38.75 27.4 38.7 28.25 38.75 29 38.15 29.6 37.55 30.25 36.7 30.25 35.9 30.25 35.3 29.65 34.7 29.05 34.7 28.25 34.75 27.4 35.35 26.75 M21.85 36 Q23.35 34.5 25.4 34.55 27.45 34.5 28.9 36 30.4 37.45 30.4 39.55 30.4 41.6 28.9 43.1 27.5 44.5 25.4 44.55 23.3 44.5 21.85 43.1 20.4 41.6 20.4 39.55 20.4 37.45 21.85 36"/>
  </g>
</svg>