<svg width="64" height="64" xmlns="http://www.w3.org/2000/svg" xmlns:xlink="http://www.w3.org/1999/xlink">
  <defs/>
  <g>
    <path stroke="none" fill="#FFFFFF" d="M48 8 L54 14 54 16 50 16 50 24 46 24 46 16 42 16 42 14 48 8 M48 56 L42 50 42 48 46 48 46 40 50 40 50 48 54 48 54 50 48 56 M27 22 Q27 24.1 25.55 25.55 24.1 27 22 27 19.95 27 18.45 25.55 17 24.1 17 22 17 19.95 18.45 18.45 19.95 17 22 17 24.1 17 25.55 18.45 27 19.95 27 22 M13 16 L13 48 Q13 53 18 53 L31 53 31 11 18 11 Q13 11 13 16 M18 8 L34 8 34 56 18 56 15.2 55.7 Q10 54.45 10 48 L10 16 Q10 8 18 8 M20 42 Q20 42.85 19.4 43.4 18.85 44 18 44 17.15 44 16.55 43.4 16 42.85 16 42 16 41.15 16.55 40.55 17.15 40 18 40 18.85 40 19.4 40.55 20 41.15 20 42 M24 38 Q24 38.85 23.4 39.4 22.85 40 22 40 21.15 40 20.55 39.4 20 38.85 20 38 20 37.15 20.55 36.55 21.15 36 22 36 22.85 36 23.4 36.55 24 37.15 24 38 M28 42 Q28 42.85 27.4 43.4 26.85 44 26 44 25.15 44 24.55 43.4 24 42.85 24 42 24 41.15 24.55 40.55 25.15 40 26 40 26.85 40 27.4 40.55 28 41.15 28 42 M24 46 Q24 46.85 23.4 47.4 22.85 48 22 48 21.15 48 20.55 47.4 20 46.85 20 46 20 45.15 20.55 44.55 21.15 44 22 44 22.85 44 23.4 44.55 24 45.15 24 46"/>
  </g>
</svg>