<svg width="64" height="64" xmlns="http://www.w3.org/2000/svg" xmlns:xlink="http://www.w3.org/1999/xlink">
  <defs/>
  <g>
    <path stroke="none" fill="#FFFFFF" d="M56 32 Q56 35.3 53.6 37.65 51.25 40 48 40 44.7 40 42.35 37.65 40 35.3 40 32 40 28.75 42.35 26.4 44.7 24 48 24 51.25 24 53.6 26.4 56 28.75 56 32 M51.5 35.55 L51.5 35.5 Q53 34.05 53 32 53 30 51.5 28.55 L51.45 28.5 Q50 27 48 27 45.95 27 44.5 28.5 L44.5 28.55 Q43 30 43 32 43 34.05 44.5 35.55 45.95 37 48 37 50 37 51.5 35.55 M40 16 Q40 19.3 37.6 21.65 35.25 24 32 24 28.7 24 26.35 21.65 24 19.3 24 16 24 12.75 26.35 10.4 28.7 8 32 8 35.25 8 37.6 10.4 40 12.75 40 16 M12.5 35.55 Q13.95 37 16 37 18 37 19.5 35.55 L19.5 35.5 Q21 34.05 21 32 21 30 19.5 28.55 L19.45 28.5 Q18 27 16 27 13.95 27 12.5 28.5 L12.5 28.55 Q11 30 11 32 11 34.05 12.5 35.55 M27 16 Q27 18.05 28.5 19.55 29.95 21 32 21 34 21 35.5 19.55 L35.5 19.5 Q37 18.05 37 16 37 14 35.5 12.55 L35.45 12.5 Q34 11 32 11 29.95 11 28.5 12.5 L28.5 12.55 Q27 14 27 16 M24 32 Q24 35.3 21.6 37.65 19.25 40 16 40 12.7 40 10.35 37.65 8 35.3 8 32 8 28.75 10.35 26.4 12.7 24 16 24 19.25 24 21.6 26.4 24 28.75 24 32 M40 48 Q40 51.3 37.6 53.65 35.25 56 32 56 28.7 56 26.35 53.65 24 51.3 24 48 24 44.75 26.35 42.4 28.7 40 32 40 35.25 40 37.6 42.4 40 44.75 40 48 M28.5 44.5 L28.5 44.55 Q27 46 27 48 27 50.05 28.5 51.55 29.95 53 32 53 34 53 35.5 51.55 L35.5 51.5 Q37 50.05 37 48 37 46 35.5 44.55 L35.45 44.5 Q34 43 32 43 29.95 43 28.5 44.5"/>
  </g>
</svg>