<svg width="64" height="64" xmlns="http://www.w3.org/2000/svg" xmlns:xlink="http://www.w3.org/1999/xlink">
  <defs/>
  <g>
    <path stroke="none" fill="#FFFFFF" d="M27 8 L37 8 Q41 8 41 12 L41 23 52 23 Q56 23 56 27 L56 37 Q56 41 52 41 L41 41 41 52 Q41 56 37 56 L27 56 Q23 56 23 52 L23 41 12 41 Q8 41 8 37 L8 27 Q8 23 12 23 L23 23 23 12 Q23 8 27 8 M37 11 L27 11 Q26 11 26 12 L26 52 Q26 53 27 53 L37 53 Q38 53 38 52 L38 12 Q38 11 37 11 M48 28.3 Q47.4 27.9 46.7 28.05 45.95 28.1 45.5 28.65 45 29.2 45 29.9 L45 34.05 Q45 34.8 45.5 35.35 45.95 35.9 46.7 36 L48 35.7 51.15 33.65 51.9 32.6 Q52.1 32 51.9 31.35 L51.15 30.4 48 28.3 M16 28.3 L12.85 30.4 Q12.35 30.75 12.1 31.35 11.9 32 12.1 32.6 L12.85 33.65 16 35.7 Q16.6 36.1 17.3 36 18.05 35.9 18.5 35.35 19 34.8 19 34.05 L19 29.9 Q19 29.2 18.5 28.65 18.05 28.1 17.3 28.05 16.6 27.9 16 28.3"/>
  </g>
</svg>