<svg width="64" height="64" xmlns="http://www.w3.org/2000/svg" xmlns:xlink="http://www.w3.org/1999/xlink">
  <defs/>
  <g>
    <path stroke="none" fill="#FFFFFF" d="M56 32 Q56 42 48.95 48.95 42 56 32 56 22.05 56 15 48.95 8 42 8 32 8 22.05 15 15 22.05 8 32 8 42 8 48.95 15 56 22.05 56 32 M21.25 36.2 Q20.9 36.8 21.05 37.45 21.15 38.15 21.65 38.55 L22.85 39 41.15 39 Q41.85 39 42.35 38.55 42.85 38.15 43 37.45 43.1 36.8 42.7 36.25 L33.6 21.9 Q33.3 21.35 32.7 21.1 32.05 20.95 31.45 21.1 30.85 21.35 30.5 21.85 L21.25 36.2"/>
  </g>
</svg>