<svg width="64" height="64" xmlns="http://www.w3.org/2000/svg" xmlns:xlink="http://www.w3.org/1999/xlink">
  <defs/>
  <g>
    <path stroke="none" fill="#FFFFFF" d="M48 8 L54 14 54 16 50 16 50 24 46 24 46 16 42 16 42 14 48 8 M15 42 Q15 44.45 16.75 46.25 18.5 48 21 48 23.45 48 25.25 46.25 27 44.45 27 42 27 39.5 25.25 37.75 23.45 36 21 36 18.5 36 16.75 37.75 15 39.5 15 42 M15 22 Q15 22.85 15.6 23.45 16.15 24 17 24 17.85 24 18.45 23.45 19 22.85 19 22 19 21.15 18.45 20.6 17.85 20 17 20 16.15 20 15.6 20.6 15 21.15 15 22 M19 26 Q19 26.85 19.6 27.45 20.15 28 21 28 21.85 28 22.45 27.45 23 26.85 23 26 23 25.15 22.45 24.6 21.85 24 21 24 20.15 24 19.6 24.6 19 25.15 19 26 M23 22 Q23 22.85 23.6 23.45 24.15 24 25 24 25.85 24 26.45 23.45 27 22.85 27 22 27 21.15 26.45 20.6 25.85 20 25 20 24.15 20 23.6 20.6 23 21.15 23 22 M19 18 Q19 18.85 19.6 19.45 20.15 20 21 20 21.85 20 22.45 19.45 23 18.85 23 18 23 17.15 22.45 16.6 21.85 16 21 16 20.15 16 19.6 16.6 19 17.15 19 18 M10 8 L24.5 8 25 8.05 Q32 8.5 32 16 L32 48 Q32 55.5 25 56 L24.5 56 10 56 10 8 M48 56 L42 50 42 48 46 48 46 40 50 40 50 48 54 48 54 50 48 56"/>
  </g>
</svg>