<svg width="64" height="64" xmlns="http://www.w3.org/2000/svg" xmlns:xlink="http://www.w3.org/1999/xlink">
  <defs/>
  <g>
    <path stroke="none" fill="#FFFFFF" d="M42.2 28.1 Q40.75 29.55 38.65 29.55 36.6 29.55 35.15 28.1 33.65 26.65 33.65 24.55 33.65 22.5 35.15 21 36.6 19.55 38.65 19.55 40.75 19.55 42.2 21 43.65 22.5 43.65 24.55 43.65 26.65 42.2 28.1 M45.7 11.85 L57 23.1 23.15 57 11.8 45.7 10.1 43.55 Q7.25 38.95 11.8 34.45 L34.4 11.85 Q40.05 6.2 45.7 11.85 M8.4 25.75 Q7.2 21.2 9.6 17.1 11.95 13.05 16.6 11.8 L21.2 11.55 20.25 10.5 Q19.8 9.95 19.9 9.4 19.95 8.7 20.35 8.35 20.9 7.9 21.55 8 22.15 8 22.55 8.45 L27.6 14.2 27.95 14.95 27.85 15.85 27.3 16.5 21 20.4 19.8 20.55 Q19.15 20.4 18.8 19.85 18.45 19.35 18.6 18.75 18.75 18.1 19.35 17.8 L21.05 16.7 Q19.1 16.5 17.95 16.7 15.35 17.35 14.05 19.6 12.75 21.9 13.4 24.4 L13.4 24.45 Q13.85 25.4 13.4 26.4 13 27.35 12.05 27.8 11.1 28.2 10.05 27.8 9.15 27.4 8.65 26.4 L8.4 25.75 M55.55 38.25 Q56.8 42.8 54.4 46.85 52.05 50.95 47.45 52.2 L42.8 52.4 43.8 53.5 Q44.2 53.95 44.1 54.6 44.05 55.25 43.6 55.65 43.15 56.05 42.5 56 41.85 55.95 41.45 55.5 L36.4 49.75 36 49 Q35.95 48.5 36.15 48.1 36.3 47.7 36.75 47.45 L43.1 43.6 44.2 43.45 Q44.85 43.55 45.15 44.1 45.5 44.65 45.35 45.25 L44.65 46.2 43 47.25 Q44.9 47.5 46.1 47.25 48.65 46.55 49.9 44.3 51.25 42.05 50.55 39.55 50.15 38.55 50.55 37.6 50.95 36.6 51.95 36.2 L53.95 36.15 Q54.9 36.6 55.3 37.55 L55.55 38.25 M36.55 13.95 L13.95 36.6 Q10.45 40.05 13.95 43.55 L23.15 52.75 52.8 23.1 43.6 13.9 Q40.1 10.45 36.55 13.95 M28.8 37.25 Q28.2 37.8 27.4 37.8 26.6 37.8 26 37.25 25.4 36.65 25.35 35.8 25.4 35.05 26 34.45 26.6 33.85 27.35 33.8 28.2 33.85 28.8 34.45 29.4 35.05 29.4 35.85 29.4 36.65 28.8 37.25 M23.15 37.3 Q22.55 37.85 21.75 37.8 20.9 37.8 20.3 37.25 19.7 36.65 19.75 35.85 19.7 35.05 20.3 34.45 20.9 33.85 21.75 33.8 22.55 33.8 23.15 34.4 23.75 35 23.75 35.8 23.75 36.7 23.15 37.3 M28.8 42.9 Q28.2 43.5 27.4 43.45 26.6 43.45 26 42.85 25.4 42.25 25.4 41.45 25.35 40.65 25.95 40.05 26.55 39.45 27.4 39.4 28.25 39.4 28.85 40 29.45 40.6 29.4 41.4 29.4 42.3 28.8 42.9 M23.15 42.85 Q22.55 43.45 21.75 43.45 20.9 43.5 20.3 42.9 19.7 42.3 19.7 41.4 19.75 40.65 20.35 40.05 20.95 39.45 21.7 39.4 22.55 39.45 23.15 40.05 23.75 40.65 23.75 41.45 23.75 42.25 23.15 42.85"/>
  </g>
</svg>