<svg width="64" height="64" xmlns="http://www.w3.org/2000/svg" xmlns:xlink="http://www.w3.org/1999/xlink">
  <defs/>
  <g>
    <path stroke="none" fill="#FFFFFF" d="M12 12.05 L20.6 12 22 13.45 19.15 16.3 22 19.1 19.15 21.95 16.25 19.1 13.45 22 12 20.55 12 12.05 M52 51.95 L43.45 52 42 50.55 44.9 47.65 42 44.85 44.9 42.05 47.75 44.85 50.6 42 52 43.45 52 51.95"/>
    <path stroke="none" fill="#FFFFFF" d="M21.1 35.2 Q19.4 36.95 19.3 39.45 19.3 41.95 21.1 43.7 22.8 45.45 25.35 45.45 27.85 45.45 29.55 43.7 31.35 41.95 31.35 39.45 31.3 36.95 29.6 35.2 27.8 33.45 25.3 33.45 22.9 33.45 21.1 35.2 M40.9 26.7 Q40.3 27.3 40.3 28.2 40.3 28.95 40.9 29.55 41.5 30.15 42.35 30.2 43.1 30.15 43.7 29.55 44.3 28.95 44.35 28.15 44.3 27.35 43.7 26.75 43.1 26.15 42.3 26.15 41.5 26.1 40.9 26.7 M35.2 26.75 Q34.6 27.35 34.65 28.15 34.65 28.95 35.25 29.55 35.85 30.15 36.65 30.2 37.45 30.15 38.05 29.55 38.65 28.95 38.65 28.2 38.7 27.3 38.1 26.7 37.5 26.1 36.65 26.15 35.8 26.15 35.2 26.75 M35.25 21.05 Q34.65 21.65 34.65 22.55 34.65 23.3 35.25 23.9 35.85 24.5 36.65 24.55 37.45 24.5 38.05 23.9 38.65 23.3 38.65 22.5 38.65 21.7 38.05 21.1 37.45 20.5 36.65 20.5 35.85 20.45 35.25 21.05 M40.9 21.1 Q40.3 21.7 40.3 22.5 40.3 23.3 40.9 23.9 41.5 24.5 42.3 24.55 43.15 24.5 43.75 23.9 44.35 23.3 44.3 22.55 44.35 21.65 43.75 21.05 43.15 20.45 42.3 20.5 41.5 20.5 40.9 21.1 M41.6 7.65 L51.85 17.9 52.15 18.3 Q56.8 23.55 51.5 28.85 L28.85 51.5 Q23.55 56.8 18.25 52.2 L17.9 51.85 7.65 41.6 41.6 7.65"/>
  </g>
</svg>