<svg width="64" height="64" xmlns="http://www.w3.org/2000/svg" xmlns:xlink="http://www.w3.org/1999/xlink">
  <defs/>
  <g>
    <path stroke="none" fill="#FFFFFF" d="M25 22 Q25 24.1 23.5 25.55 22.05 27 20 27 17.95 27 16.45 25.55 15 24.1 15 22 15 19.95 16.45 18.45 17.95 17 20 17 22.05 17 23.5 18.45 25 19.95 25 22 M11 16 L11 48 Q11 53 16 53 L29 53 29 11 16 11 Q11 11 11 16 M16 8 L32 8 32 56 16 56 13.2 55.7 Q8 54.45 8 48 L8 16 Q8 8 16 8 M26 42 Q26 42.85 25.4 43.4 24.85 44 24 44 23.15 44 22.55 43.4 22 42.85 22 42 22 41.15 22.55 40.55 23.15 40 24 40 24.85 40 25.4 40.55 26 41.15 26 42 M22 38 Q22 38.85 21.4 39.4 20.85 40 20 40 19.15 40 18.55 39.4 18 38.85 18 38 18 37.15 18.55 36.55 19.15 36 20 36 20.85 36 21.4 36.55 22 37.15 22 38 M18 42 Q18 42.85 17.4 43.4 16.85 44 16 44 15.15 44 14.55 43.4 14 42.85 14 42 14 41.15 14.55 40.55 15.15 40 16 40 16.85 40 17.4 40.55 18 41.15 18 42 M22 46 Q22 46.85 21.4 47.4 20.85 48 20 48 19.15 48 18.55 47.4 18 46.85 18 46 18 45.15 18.55 44.55 19.15 44 20 44 20.85 44 21.4 44.55 22 45.15 22 46"/>
    <path stroke="none" fill="#FFFFFF" d="M42 18 Q42 17.15 42.6 16.6 43.15 16 44 16 44.85 16 45.45 16.6 46 17.15 46 18 46 18.85 45.45 19.45 44.85 20 44 20 43.15 20 42.6 19.45 42 18.85 42 18 M38 22 Q38 21.15 38.6 20.6 39.15 20 40 20 40.85 20 41.45 20.6 42 21.15 42 22 42 22.85 41.45 23.45 40.85 24 40 24 39.15 24 38.6 23.45 38 22.85 38 22 M46 22 Q46 21.15 46.6 20.6 47.15 20 48 20 48.85 20 49.45 20.6 50 21.15 50 22 50 22.85 49.45 23.45 48.85 24 48 24 47.15 24 46.6 23.45 46 22.85 46 22 M42 26 Q42 25.15 42.6 24.6 43.15 24 44 24 44.85 24 45.45 24.6 46 25.15 46 26 46 26.85 45.45 27.45 44.85 28 44 28 43.15 28 42.6 27.45 42 26.85 42 26 M48 8 Q56 8 56 16 L56 48 Q56 56 48 56 L32 56 32 8 48 8 M48 11 L35 11 35 53 48 53 Q53 53 53 48 L53 16 Q53 11 48 11 M39 42 Q39 39.9 40.45 38.45 41.9 37 44 37 46.05 37 47.55 38.45 49 39.9 49 42 49 44 47.55 45.5 46.05 47 44 47 41.9 47 40.45 45.5 39 44 39 42"/>
  </g>
</svg>