<svg width="64" height="64" xmlns="http://www.w3.org/2000/svg" xmlns:xlink="http://www.w3.org/1999/xlink">
  <defs/>
  <g>
    <path stroke="none" fill="#FFFFFF" d="M56 20 L56 44 Q56 48 52 48 L16 48 Q8 48 8 40 L8 24 Q8 16 16 16 L52 16 Q56 16 56 20 M11 40 Q11 45 16 45 L52 45 Q53 45 53 44 L53 20 Q53 19 52 19 L16 19 Q11 19 11 24 L11 40 M38 37 L44 37 44 40 35 40 35 27 38 27 38 37 M24 33 Q21.95 33 20.45 31.5 19 30.05 19 28 19 25.95 20.45 24.5 L20.5 24.45 Q21.95 23 24 23 L27.15 23 Q29.1 23.05 30.5 24.45 L30.55 24.5 31.6 26 Q32 26.9 32 28 L29 28 Q29 27.2 28.45 26.6 L28.4 26.55 Q27.8 26 27.05 26 L24 26 Q23.2 26 22.6 26.55 L22.55 26.6 Q22 27.2 22 28 22 28.85 22.55 29.4 23.15 30 24 30 L27.15 30 Q29.1 30.05 30.55 31.5 L31.6 33 Q32 33.9 32 35 32 37.05 30.55 38.5 L30.5 38.55 Q29.05 40 27 40 L23.9 40 Q21.9 39.95 20.5 38.55 L20.45 38.5 19.4 37 Q19 36.1 19 35 L22 35 Q22 35.8 22.55 36.4 L22.6 36.45 Q23.2 37 23.95 37 L27 37 Q27.8 37 28.4 36.45 L28.45 36.4 Q29 35.8 29 35 29 34.15 28.45 33.6 27.85 33 27.05 33 L24 33"/>
  </g>
</svg>