<svg width="64" height="64" xmlns="http://www.w3.org/2000/svg" xmlns:xlink="http://www.w3.org/1999/xlink">
  <defs/>
  <g>
    <path stroke="none" fill="#FFFFFF" d="M56 32 Q56 35.3 53.6 37.65 51.25 40 48 40 44.7 40 42.35 37.65 40 35.3 40 32 40 28.75 42.35 26.4 44.7 24 48 24 51.25 24 53.6 26.4 56 28.75 56 32 M24 32 Q24 35.3 21.6 37.65 19.25 40 16 40 12.7 40 10.35 37.65 8 35.3 8 32 8 28.75 10.35 26.4 12.7 24 16 24 19.25 24 21.6 26.4 24 28.75 24 32"/>
    <path stroke="none" fill="#E73246" d="M40 16 Q40 19.3 37.6 21.65 35.25 24 32 24 28.7 24 26.35 21.65 24 19.3 24 16 24 12.75 26.35 10.4 28.7 8 32 8 35.25 8 37.6 10.4 40 12.75 40 16 M40 48 Q40 51.3 37.6 53.65 35.25 56 32 56 28.7 56 26.35 53.65 24 51.3 24 48 24 44.75 26.35 42.4 28.7 40 32 40 35.25 40 37.6 42.4 40 44.75 40 48"/>
  </g>
</svg>