<svg width="64" height="64" xmlns="http://www.w3.org/2000/svg" xmlns:xlink="http://www.w3.org/1999/xlink">
  <defs/>
  <g>
    <path stroke="none" fill="#FFFFFF" d="M38 22 Q38 19.55 36.25 17.75 34.5 16 32 16 29.55 16 27.75 17.75 26 19.55 26 22 26 24.5 27.75 26.25 29.55 28 32 28 34.5 28 36.25 26.25 38 24.5 38 22 M56 32 L50 38 48 38 48 34 46 34 46 30 48 30 48 26 50 26 56 32 M43 8 L43 56 28.5 56 Q21 55.75 21 48 L21 16 Q21 8.25 28.5 8 L43 8 M8 32 L14 26 16 26 16 30 18 30 18 34 16 34 16 38 14 38 8 32 M34 46 Q34 45.15 33.4 44.55 32.85 44 32 44 31.15 44 30.55 44.55 30 45.15 30 46 30 46.85 30.55 47.4 31.15 48 32 48 32.85 48 33.4 47.4 34 46.85 34 46 M38 42 Q38 41.15 37.4 40.55 36.85 40 36 40 35.15 40 34.55 40.55 34 41.15 34 42 34 42.85 34.55 43.4 35.15 44 36 44 36.85 44 37.4 43.4 38 42.85 38 42 M30 42 Q30 41.15 29.4 40.55 28.85 40 28 40 27.15 40 26.55 40.55 26 41.15 26 42 26 42.85 26.55 43.4 27.15 44 28 44 28.85 44 29.4 43.4 30 42.85 30 42 M34 38 Q34 37.15 33.4 36.55 32.85 36 32 36 31.15 36 30.55 36.55 30 37.15 30 38 30 38.85 30.55 39.4 31.15 40 32 40 32.85 40 33.4 39.4 34 38.85 34 38"/>
  </g>
</svg>