<svg width="64" height="64" xmlns="http://www.w3.org/2000/svg" xmlns:xlink="http://www.w3.org/1999/xlink">
  <defs/>
  <g>
    <path stroke="none" fill="#FFFFFF" d="M56.65 22.7 L22.7 56.65 12.45 46.4 Q7.35 40.9 12.8 35.45 L35.45 12.8 Q40.9 7.35 46.4 12.45 L56.65 22.7 M23.45 43.2 Q24.05 42.6 24 41.75 24 40.95 23.4 40.35 22.8 39.75 22 39.75 21.2 39.8 20.6 40.4 20 41 20 41.75 19.95 42.6 20.55 43.2 21.15 43.8 22 43.75 22.85 43.8 23.45 43.2 M29.05 43.2 Q29.65 42.6 29.7 41.7 29.65 41 29.05 40.4 28.45 39.8 27.65 39.7 26.85 39.75 26.25 40.35 25.65 40.95 25.6 41.75 25.65 42.6 26.25 43.2 26.85 43.8 27.65 43.75 28.45 43.8 29.05 43.2 M23.4 37.55 Q24 36.95 24.05 36.05 24 35.35 23.4 34.75 22.8 34.15 22 34.05 21.2 34.1 20.6 34.7 20 35.3 19.95 36.1 20 36.95 20.6 37.55 21.2 38.15 22 38.1 22.8 38.15 23.4 37.55 M29.1 37.5 Q29.7 36.9 29.65 36.1 29.65 35.3 29.05 34.7 28.45 34.1 27.65 34.1 26.85 34.1 26.25 34.7 25.65 35.3 25.65 36.1 25.6 36.95 26.2 37.55 26.8 38.15 27.65 38.1 28.5 38.1 29.1 37.5 M8.4 25.75 Q7.2 21.2 9.6 17.1 11.95 13.05 16.6 11.8 L21.2 11.55 20.25 10.5 Q19.8 9.95 19.9 9.4 19.95 8.7 20.35 8.35 20.9 7.9 21.55 8 22.15 8 22.55 8.45 L27.6 14.2 27.95 14.95 27.85 15.85 27.3 16.5 21 20.4 19.8 20.55 Q19.15 20.4 18.8 19.85 18.45 19.35 18.6 18.75 18.75 18.1 19.35 17.8 L21.05 16.7 Q19.1 16.5 17.95 16.7 15.35 17.35 14.05 19.6 12.75 21.9 13.4 24.4 L13.4 24.45 Q13.85 25.4 13.4 26.4 13 27.35 12.05 27.8 11.1 28.2 10.05 27.8 9.15 27.4 8.65 26.4 L8.4 25.75 M43.2 29.05 Q44.95 27.3 45 24.8 45 22.3 43.2 20.55 41.5 18.8 38.95 18.8 36.5 18.8 34.75 20.55 33 22.3 32.95 24.8 33 27.3 34.7 29.05 36.5 30.8 39 30.8 41.45 30.8 43.2 29.05 M55.55 38.25 Q56.8 42.8 54.4 46.85 52.05 50.95 47.45 52.2 L42.8 52.4 43.8 53.5 Q44.2 53.95 44.1 54.6 44.05 55.25 43.6 55.65 43.15 56.05 42.5 56 41.85 55.95 41.45 55.5 L36.4 49.75 36 49 Q35.95 48.5 36.15 48.1 36.3 47.7 36.75 47.45 L43.1 43.6 44.2 43.45 Q44.85 43.55 45.15 44.1 45.5 44.65 45.35 45.25 L44.65 46.2 43 47.25 Q44.9 47.5 46.1 47.25 48.65 46.55 49.9 44.3 51.25 42.05 50.55 39.55 50.15 38.55 50.55 37.6 50.95 36.6 51.95 36.2 L53.95 36.15 Q54.9 36.6 55.3 37.55 L55.55 38.25"/>
  </g>
</svg>