<svg width="64" height="64" xmlns="http://www.w3.org/2000/svg" xmlns:xlink="http://www.w3.org/1999/xlink">
  <defs/>
  <g>
    <path stroke="none" fill="#FFFFFF" d="M56 20 L56 44 Q56 48 52 48 L16 48 Q8 48 8 40 L8 24 Q8 16 16 16 L52 16 Q56 16 56 20 M38 37 L38 27 35 27 35 40 44 40 44 37 38 37 M24 33 L27.05 33 Q27.85 33 28.45 33.6 29 34.15 29 35 29 35.8 28.45 36.4 L28.4 36.45 Q27.8 37 27 37 L23.95 37 Q23.2 37 22.6 36.45 L22.55 36.4 Q22 35.8 22 35 L19 35 Q19 36.1 19.4 37 L20.45 38.5 20.5 38.55 Q21.9 39.95 23.9 40 L27 40 Q29.05 40 30.5 38.55 L30.55 38.5 Q32 37.05 32 35 32 33.9 31.6 33 L30.55 31.5 Q29.1 30.05 27.15 30 L24 30 Q23.15 30 22.55 29.4 22 28.85 22 28 22 27.2 22.55 26.6 L22.6 26.55 Q23.2 26 24 26 L27.05 26 Q27.8 26 28.4 26.55 L28.45 26.6 Q29 27.2 29 28 L32 28 Q32 26.9 31.6 26 L30.55 24.5 30.5 24.45 Q29.1 23.05 27.15 23 L24 23 Q21.95 23 20.5 24.45 L20.45 24.5 Q19 25.95 19 28 19 30.05 20.45 31.5 21.95 33 24 33"/>
  </g>
</svg>