<svg width="64" height="64" xmlns="http://www.w3.org/2000/svg" xmlns:xlink="http://www.w3.org/1999/xlink">
  <defs/>
  <g>
    <path stroke="none" fill="#FFFFFF" d="M56 32 Q56 42 48.95 48.95 42 56 32 56 22.05 56 15 48.95 8 42 8 32 8 22.05 15 15 22.05 8 32 8 42 8 48.95 15 56 22.05 56 32 M46.85 17.15 Q40.75 11 32 11 23.3 11 17.15 17.15 11 23.3 11 32 11 40.75 17.15 46.85 23.3 53 32 53 40.75 53 46.85 46.85 53 40.75 53 32 53 23.3 46.85 17.15 M42.75 27.8 L33.55 42.2 Q33.15 42.7 32.55 42.9 31.95 43.1 31.35 42.9 30.75 42.7 30.4 42.15 L21.3 27.75 Q20.95 27.2 21 26.55 21.15 25.85 21.65 25.45 22.15 25 22.85 25 L41.2 25 Q41.85 25 42.4 25.45 42.9 25.85 42.95 26.55 43.1 27.2 42.75 27.8"/>
  </g>
</svg>