<svg width="64" height="64" xmlns="http://www.w3.org/2000/svg" xmlns:xlink="http://www.w3.org/1999/xlink">
  <defs/>
  <g>
    <path stroke="none" fill="#FFFFFF" d="M20.45 34.55 Q18.75 36.3 18.65 38.8 18.65 41.3 20.45 43.05 22.15 44.8 24.7 44.8 27.2 44.8 28.9 43.05 30.7 41.3 30.7 38.8 30.65 36.3 28.95 34.55 27.15 32.8 24.65 32.8 22.25 32.8 20.45 34.55 M34.55 26.1 Q33.95 26.7 34 27.5 34 28.3 34.6 28.9 35.2 29.5 36 29.55 36.8 29.5 37.4 28.9 38 28.3 38 27.55 38.05 26.65 37.45 26.05 36.85 25.45 36 25.5 35.15 25.5 34.55 26.1 M34.6 20.4 Q34 21 34 21.9 34 22.65 34.6 23.25 35.2 23.85 36 23.9 36.8 23.85 37.4 23.25 38 22.65 38 21.85 38 21.05 37.4 20.45 36.8 19.85 36 19.85 35.2 19.8 34.6 20.4 M8.4 25.75 Q7.2 21.2 9.6 17.1 11.95 13.05 16.6 11.8 L21.2 11.55 20.25 10.5 Q19.8 9.95 19.9 9.4 19.95 8.7 20.35 8.35 20.9 7.9 21.55 8 22.15 8 22.55 8.45 L27.6 14.2 27.95 14.95 27.85 15.85 27.3 16.5 21 20.4 19.8 20.55 Q19.15 20.4 18.8 19.85 18.45 19.35 18.6 18.75 18.75 18.1 19.35 17.8 L21.05 16.7 Q19.1 16.5 17.95 16.7 15.35 17.35 14.05 19.6 12.75 21.9 13.4 24.4 L13.4 24.45 Q13.85 25.4 13.4 26.4 13 27.35 12.05 27.8 11.1 28.2 10.05 27.8 9.15 27.4 8.65 26.4 L8.4 25.75 M40.25 26.05 Q39.65 26.65 39.65 27.55 39.65 28.3 40.25 28.9 40.85 29.5 41.7 29.55 42.45 29.5 43.05 28.9 43.65 28.3 43.7 27.5 43.65 26.7 43.05 26.1 42.45 25.5 41.65 25.5 40.85 25.45 40.25 26.05 M55.55 38.25 Q56.8 42.8 54.4 46.85 52.05 50.95 47.45 52.2 L42.8 52.4 43.8 53.5 Q44.2 53.95 44.1 54.6 44.05 55.25 43.6 55.65 43.15 56.05 42.5 56 41.85 55.95 41.45 55.5 L36.4 49.75 36 49 Q35.95 48.5 36.15 48.1 36.3 47.7 36.75 47.45 L43.1 43.6 44.2 43.45 Q44.85 43.55 45.15 44.1 45.5 44.65 45.35 45.25 L44.65 46.2 43 47.25 Q44.9 47.5 46.1 47.25 48.65 46.55 49.9 44.3 51.25 42.05 50.55 39.55 50.15 38.55 50.55 37.6 50.95 36.6 51.95 36.2 L53.95 36.15 Q54.9 36.6 55.3 37.55 L55.55 38.25 M40.25 20.45 Q39.65 21.05 39.65 21.85 39.65 22.65 40.25 23.25 40.85 23.85 41.65 23.9 42.5 23.85 43.1 23.25 43.7 22.65 43.65 21.9 43.7 21 43.1 20.4 42.5 19.8 41.65 19.85 40.85 19.85 40.25 20.45 M40.95 7 L51.2 17.25 51.5 17.65 Q56.15 22.9 50.85 28.2 L28.2 50.85 Q22.9 56.15 17.6 51.55 L17.25 51.2 7 40.95 40.95 7"/>
  </g>
</svg>