<svg width="64" height="64" xmlns="http://www.w3.org/2000/svg" xmlns:xlink="http://www.w3.org/1999/xlink">
  <defs/>
  <g>
    <path stroke="none" fill="#FFFFFF" d="M48 8 L54 14 54 16 50 16 50 24 46 24 46 16 42 16 42 14 48 8 M27 22 Q27 19.55 25.25 17.75 23.5 16 21 16 18.55 16 16.75 17.75 15 19.55 15 22 15 24.5 16.75 26.25 18.55 28 21 28 23.5 28 25.25 26.25 27 24.5 27 22 M48 56 L42 50 42 48 46 48 46 40 50 40 50 48 54 48 54 50 48 56 M32 8 L32 56 17.5 56 Q10 55.75 10 48 L10 16 Q10 8.25 17.5 8 L32 8 M27 42 Q27 41.15 26.4 40.55 25.85 40 25 40 24.15 40 23.55 40.55 23 41.15 23 42 23 42.85 23.55 43.4 24.15 44 25 44 25.85 44 26.4 43.4 27 42.85 27 42 M23 46 Q23 45.15 22.4 44.55 21.85 44 21 44 20.15 44 19.55 44.55 19 45.15 19 46 19 46.85 19.55 47.4 20.15 48 21 48 21.85 48 22.4 47.4 23 46.85 23 46 M23 38 Q23 37.15 22.4 36.55 21.85 36 21 36 20.15 36 19.55 36.55 19 37.15 19 38 19 38.85 19.55 39.4 20.15 40 21 40 21.85 40 22.4 39.4 23 38.85 23 38 M19 42 Q19 41.15 18.4 40.55 17.85 40 17 40 16.15 40 15.55 40.55 15 41.15 15 42 15 42.85 15.55 43.4 16.15 44 17 44 17.85 44 18.4 43.4 19 42.85 19 42"/>
  </g>
</svg>