<svg width="64" height="64" xmlns="http://www.w3.org/2000/svg" xmlns:xlink="http://www.w3.org/1999/xlink">
  <defs/>
  <g>
    <path stroke="none" fill="#FFFFFF" d="M38 34 L38 30 41 30 Q41.85 30 42.4 30.55 43 31.15 43 32 43 32.85 42.4 33.4 41.85 34 41.05 34 L38 34 M41 37 L42 36.9 42 37 43 40 46 40 44.5 35.5 Q46 34.05 46 32 46 29.95 44.5 28.45 43.05 27 41 27 L35 27 35 40 38 40 38 37 41 37 M8 20 Q8 16 12 16 L48 16 Q56 16 56 24 L56 40 Q56 48 48 48 L12 48 Q8 48 8 44 L8 20 M24 33 L27.05 33 Q27.85 33 28.45 33.6 29 34.15 29 35 29 35.8 28.45 36.4 L28.4 36.45 Q27.8 37 27 37 L23.95 37 Q23.2 37 22.6 36.45 L22.55 36.4 Q22 35.8 22 35 L19 35 Q19 36.1 19.4 37 L20.45 38.5 20.5 38.55 Q21.9 39.95 23.9 40 L27 40 Q29.05 40 30.5 38.55 L30.55 38.5 Q32 37.05 32 35 32 33.9 31.6 33 L30.55 31.5 Q29.1 30.05 27.15 30 L24 30 Q23.15 30 22.55 29.4 22 28.85 22 28 22 27.2 22.55 26.6 L22.6 26.55 Q23.2 26 24 26 L27.05 26 Q27.8 26 28.4 26.55 L28.45 26.6 Q29 27.2 29 28 L32 28 Q32 26.9 31.6 26 L30.55 24.5 30.5 24.45 Q29.1 23.05 27.15 23 L24 23 Q21.95 23 20.5 24.45 L20.45 24.5 Q19 25.95 19 28 19 30.05 20.45 31.5 21.95 33 24 33"/>
  </g>
</svg>