<svg width="64" height="64" xmlns="http://www.w3.org/2000/svg" xmlns:xlink="http://www.w3.org/1999/xlink">
  <defs/>
  <g>
    <path stroke="none" fill="#FFFFFF" d="M36 11 L23 11 23 53 36 53 Q41 53 41 48 L41 16 Q41 11 36 11 M36 8 Q44 8 44 16 L44 48 Q44 56 36 56 L20 56 20 8 36 8 M26 22 Q26 21.15 26.6 20.6 27.15 20 28 20 28.85 20 29.45 20.6 30 21.15 30 22 30 22.85 29.45 23.45 28.85 24 28 24 27.15 24 26.6 23.45 26 22.85 26 22 M30 18 Q30 17.15 30.6 16.6 31.15 16 32 16 32.85 16 33.45 16.6 34 17.15 34 18 34 18.85 33.45 19.45 32.85 20 32 20 31.15 20 30.6 19.45 30 18.85 30 18 M34 22 Q34 21.15 34.6 20.6 35.15 20 36 20 36.85 20 37.45 20.6 38 21.15 38 22 38 22.85 37.45 23.45 36.85 24 36 24 35.15 24 34.6 23.45 34 22.85 34 22 M30 26 Q30 25.15 30.6 24.6 31.15 24 32 24 32.85 24 33.45 24.6 34 25.15 34 26 34 26.85 33.45 27.45 32.85 28 32 28 31.15 28 30.6 27.45 30 26.85 30 26 M27 42 Q27 39.9 28.45 38.45 29.9 37 32 37 34.05 37 35.55 38.45 37 39.9 37 42 37 44 35.55 45.5 34.05 47 32 47 29.9 47 28.45 45.5 27 44 27 42"/>
  </g>
</svg>