<svg width="64" height="64" xmlns="http://www.w3.org/2000/svg" xmlns:xlink="http://www.w3.org/1999/xlink">
  <defs/>
  <g>
    <path stroke="none" fill="#FFFFFF" d="M56 32 L50 38 48 38 48 34 46 34 46 30 48 30 48 26 50 26 56 32 M37 22 Q37 24.1 35.55 25.55 34.1 27 32 27 29.95 27 28.45 25.55 27 24.1 27 22 27 19.95 28.45 18.45 29.95 17 32 17 34.1 17 35.55 18.45 37 19.95 37 22 M23 16 L23 48 Q23 53 28 53 L41 53 41 11 28 11 Q23 11 23 16 M8 32 L14 26 16 26 16 30 18 30 18 34 16 34 16 38 14 38 8 32 M34 38 Q34 38.85 33.4 39.4 32.85 40 32 40 31.15 40 30.55 39.4 30 38.85 30 38 30 37.15 30.55 36.55 31.15 36 32 36 32.85 36 33.4 36.55 34 37.15 34 38 M30 42 Q30 42.85 29.4 43.4 28.85 44 28 44 27.15 44 26.55 43.4 26 42.85 26 42 26 41.15 26.55 40.55 27.15 40 28 40 28.85 40 29.4 40.55 30 41.15 30 42 M38 42 Q38 42.85 37.4 43.4 36.85 44 36 44 35.15 44 34.55 43.4 34 42.85 34 42 34 41.15 34.55 40.55 35.15 40 36 40 36.85 40 37.4 40.55 38 41.15 38 42 M34 46 Q34 46.85 33.4 47.4 32.85 48 32 48 31.15 48 30.55 47.4 30 46.85 30 46 30 45.15 30.55 44.55 31.15 44 32 44 32.85 44 33.4 44.55 34 45.15 34 46 M28 8 L44 8 44 56 28 56 25.2 55.7 Q20 54.45 20 48 L20 16 Q20 8 28 8"/>
  </g>
</svg>