<svg width="64" height="64" xmlns="http://www.w3.org/2000/svg" xmlns:xlink="http://www.w3.org/1999/xlink">
  <defs/>
  <g>
    <path stroke="none" fill="#FFFFFF" d="M12 12.05 L20.6 12 22 13.45 19.15 16.3 22 19.1 19.15 21.95 16.25 19.1 13.45 22 12 20.55 12 12.05 M52 51.95 L43.45 52 42 50.55 44.9 47.65 42 44.85 44.9 42.05 47.75 44.85 50.6 42 52 43.45 52 51.95"/>
    <path stroke="none" fill="#FFFFFF" d="M40.95 21.1 Q41.55 20.5 42.35 20.6 43.15 20.55 43.75 21.15 44.35 21.75 44.35 22.6 44.35 23.35 43.75 23.95 43.15 24.55 42.3 24.6 41.5 24.6 40.9 24 40.3 23.4 40.3 22.6 40.35 21.7 40.95 21.1 M35.25 21.15 Q35.85 20.55 36.7 20.55 37.45 20.55 38.05 21.15 38.65 21.75 38.7 22.6 38.7 23.35 38.1 23.95 37.5 24.55 36.7 24.6 35.85 24.55 35.25 23.95 34.65 23.35 34.7 22.55 34.65 21.75 35.25 21.15 M35.3 26.75 Q35.9 26.15 36.65 26.25 37.5 26.2 38.1 26.8 38.7 27.4 38.65 28.25 38.7 29 38.1 29.6 37.5 30.25 36.65 30.25 35.85 30.25 35.25 29.65 34.65 29.05 34.65 28.25 34.7 27.4 35.3 26.75 M40.9 26.8 Q41.5 26.2 42.35 26.2 43.1 26.2 43.75 26.8 44.35 27.4 44.35 28.25 44.35 29.05 43.75 29.65 43.15 30.25 42.35 30.25 41.55 30.2 40.95 29.6 40.3 29 40.35 28.2 40.3 27.4 40.9 26.8 M52.25 18.3 Q57.9 23.95 52.25 29.6 L29.6 52.25 Q23.95 57.9 18.3 52.25 L6.95 40.95 40.9 7 52.25 18.3 M50.15 20.4 L40.95 11.2 11.25 40.9 20.45 50.1 Q23.95 53.65 27.45 50.15 L50.1 27.5 Q53.65 23.95 50.15 20.4 M21.8 36 Q23.3 34.5 25.35 34.55 27.4 34.5 28.85 36 30.35 37.45 30.35 39.55 30.35 41.6 28.85 43.1 27.45 44.5 25.35 44.55 23.25 44.5 21.8 43.1 20.35 41.6 20.35 39.55 20.35 37.45 21.8 36"/>
  </g>
</svg>