<svg width="64" height="64" xmlns="http://www.w3.org/2000/svg" xmlns:xlink="http://www.w3.org/1999/xlink">
  <defs/>
  <g>
    <path stroke="none" fill="#FFFFFF" d="M56 32 Q56 42 48.95 48.95 42 56 32 56 22.05 56 15 48.95 8 42 8 32 8 22.05 15 15 22.05 8 32 8 42 8 48.95 15 56 22.05 56 32 M36.2 42.75 L37.45 42.95 Q38.15 42.9 38.55 42.35 39 41.85 39 41.2 L39 22.85 Q39 22.15 38.55 21.65 38.15 21.15 37.45 21 36.8 20.9 36.25 21.3 L21.85 30.4 Q21.3 30.75 21.1 31.35 20.9 31.95 21.1 32.55 21.3 33.15 21.8 33.55 L36.2 42.75"/>
  </g>
</svg>