<svg width="64" height="64" xmlns="http://www.w3.org/2000/svg" xmlns:xlink="http://www.w3.org/1999/xlink">
  <defs/>
  <g>
    <path stroke="none" fill="#FFFFFF" d="M56 32 Q56 42 48.95 48.95 42 56 32 56 22.05 56 15 48.95 8 42 8 32 8 22.05 15 15 22.05 8 32 8 42 8 48.95 15 56 22.05 56 32 M46.85 17.15 Q40.75 11 32 11 23.3 11 17.15 17.15 11 23.3 11 32 11 40.75 17.15 46.85 23.3 53 32 53 40.75 53 46.85 46.85 53 40.75 53 32 53 23.3 46.85 17.15 M27.8 21.3 L42.2 30.5 42.9 31.45 Q43.1 32.05 42.9 32.7 L42.15 33.6 27.75 42.75 26.55 43 25.45 42.35 Q25 41.85 25 41.15 L25 22.85 Q25 22.15 25.45 21.65 25.85 21.15 26.55 21.05 27.2 20.9 27.8 21.3"/>
  </g>
</svg>