<svg width="64" height="64" xmlns="http://www.w3.org/2000/svg" xmlns:xlink="http://www.w3.org/1999/xlink">
  <defs/>
  <g>
    <path stroke="none" fill="#FFFFFF" d="M53 40 L53 24 Q53 19 48 19 L12 19 Q11 19 11 20 L11 44 Q11 45 12 45 L48 45 Q53 45 53 40 M8 20 Q8 16 12 16 L48 16 Q56 16 56 24 L56 40 Q56 48 48 48 L12 48 Q8 48 8 44 L8 20 M38 34 L41.05 34 Q41.85 34 42.4 33.4 43 32.85 43 32 43 31.15 42.4 30.55 41.85 30 41 30 L38 30 38 34 M41 37 L38 37 38 40 35 40 35 27 41 27 Q43.05 27 44.5 28.45 46 29.95 46 32 46 34.05 44.5 35.5 L46 40 43 40 42 37 42 36.9 41 37 M24 33 Q21.95 33 20.45 31.5 19 30.05 19 28 19 25.95 20.45 24.5 L20.5 24.45 Q21.95 23 24 23 L27.15 23 Q29.1 23.05 30.5 24.45 L30.55 24.5 31.6 26 Q32 26.9 32 28 L29 28 Q29 27.2 28.45 26.6 L28.4 26.55 Q27.8 26 27.05 26 L24 26 Q23.2 26 22.6 26.55 L22.55 26.6 Q22 27.2 22 28 22 28.85 22.55 29.4 23.15 30 24 30 L27.15 30 Q29.1 30.05 30.55 31.5 L31.6 33 Q32 33.9 32 35 32 37.05 30.55 38.5 L30.5 38.55 Q29.05 40 27 40 L23.9 40 Q21.9 39.95 20.5 38.55 L20.45 38.5 19.4 37 Q19 36.1 19 35 L22 35 Q22 35.8 22.55 36.4 L22.6 36.45 Q23.2 37 23.95 37 L27 37 Q27.8 37 28.4 36.45 L28.45 36.4 Q29 35.8 29 35 29 34.15 28.45 33.6 27.85 33 27.05 33 L24 33"/>
  </g>
</svg>