<svg xmlns="http://www.w3.org/2000/svg" width="16" height="16" viewBox="0 0 24 24"><path fill="white" d="M22.71 6.29a1 1 0 0 0-1.42 0L20 7.59V2a1 1 0 0 0-2 0v5.59l-1.29-1.3a1 1 0 0 0-1.42 1.42l3 3a1 1 0 0 0 .33.21a.94.94 0 0 0 .76 0a1 1 0 0 0 .33-.21l3-3a1 1 0 0 0 0-1.42ZM19 13a1 1 0 0 0-1 1v.38l-1.48-1.48a2.79 2.79 0 0 0-3.93 0l-.7.7l-2.48-2.48a2.85 2.85 0 0 0-3.93 0L4 12.6V7a1 1 0 0 1 1-1h8a1 1 0 0 0 0-2H5a3 3 0 0 0-3 3v12a3 3 0 0 0 3 3h12a3 3 0 0 0 3-3v-5a1 1 0 0 0-1-1ZM5 20a1 1 0 0 1-1-1v-3.57l2.9-2.9a.79.79 0 0 1 1.09 0l3.17 3.17l4.3 4.3Zm13-1a.89.89 0 0 1-.18.53L13.31 15l.7-.7a.77.77 0 0 1 1.1 0L18 17.21Z"/></svg>