<?xml version="1.0" encoding="UTF-8" standalone="no"?>
<svg
   width="512"
   height="512"
   viewBox="0 0 512 512"
   version="1.1"
   id="svg1"
   sodipodi:docname="inputplumber.svg"
   inkscape:version="1.3.2 (091e20ef0f, 2023-11-25)"
   xml:space="preserve"
   xmlns:inkscape="http://www.inkscape.org/namespaces/inkscape"
   xmlns:sodipodi="http://sodipodi.sourceforge.net/DTD/sodipodi-0.dtd"
   xmlns="http://www.w3.org/2000/svg"
   xmlns:svg="http://www.w3.org/2000/svg"><defs
     id="defs1" /><sodipodi:namedview
     id="namedview1"
     pagecolor="#ffffff"
     bordercolor="#000000"
     borderopacity="0.25"
     inkscape:showpageshadow="2"
     inkscape:pageopacity="0.0"
     inkscape:pagecheckerboard="true"
     inkscape:deskcolor="#d1d1d1"
     inkscape:zoom="1.5761719"
     inkscape:cx="367.02849"
     inkscape:cy="239.18711"
     inkscape:window-width="2560"
     inkscape:window-height="1374"
     inkscape:window-x="0"
     inkscape:window-y="0"
     inkscape:window-maximized="1"
     inkscape:current-layer="svg1" /><g
     fill="#000000"
     id="g2"
     transform="matrix(12.712639,0,0,12.712639,53.809664,40.364795)"
     inkscape:label="Pipes"
     style="fill:#ffffff;fill-opacity:1"><path
       id="path1"
       d="M 6.9448602e-05 11.999965 L 6.9448602e-05 25.999935 L 2.9999752 25.999935 A 3 3 0 0 0 6.0000346 23.000029 L 8.2712425 23.000029 L 8.2712425 20.999989 L 6.0000346 20.999989 L 6.0000346 17.000064 L 8.2712425 17.000064 L 8.2712425 15.000024 L 6.0000346 15.000024 A 3 3 0 0 0 2.9999752 11.999965 L 6.9448602e-05 11.999965 z M 29.000029 11.999965 A 3 3 0 0 0 25.99997 15.000024 L 23.681442 15.000024 L 23.681442 17.000064 L 25.99997 17.000064 L 25.99997 20.999989 L 23.681442 20.999989 L 23.681442 23.000029 L 25.99997 23.000029 A 3 3 0 0 0 29.000029 25.999935 L 31.999935 25.999935 L 31.999935 11.999965 L 29.000029 11.999965 z M 1.9999554 14.000004 L 2.9999752 14.000004 A 1 1 0 0 1 3.999995 15.000024 L 3.999995 23.000029 A 1 1 0 0 1 2.9999752 24.000049 L 1.9999554 24.000049 L 1.9999554 14.000004 z M 29.000029 14.000004 L 30.000049 14.000004 L 30.000049 24.000049 L 29.000029 24.000049 A 1 1 0 0 1 28.000009 23.000029 L 28.000009 15.000024 A 1 1 0 0 1 29.000029 14.000004 z "
       style="fill:#ffffff;fill-opacity:1" /><path
       d="M 22,6 H 10 v 2 h 5 v 2 h 2 V 8 h 5 z"
       class="ouiIcon__fillSecondary"
       id="path2"
       style="fill:#ffffff;fill-opacity:1" /></g><g
     style="display:inline;overflow:hidden;fill:#ffffff;fill-opacity:1"
     id="g1"
     transform="matrix(0.26909602,0,0,0.26909602,120.80515,144.54857)"><path
       d="m 384,384 h 42.66667 a 42.666667,42.666667 0 0 1 0,85.33333 H 384 V 512 a 42.666667,42.666667 0 0 1 -85.33333,0 V 469.33333 H 256 A 42.666667,42.666667 0 0 1 256,384 h 42.66667 v -42.66667 a 42.666667,42.666667 0 1 1 85.33333,0 z M 170.66667,768 h 170.66666 a 42.666667,42.666667 0 0 1 0,85.33333 H 128 A 42.666667,42.666667 0 0 1 85.333333,810.66667 v -512 A 42.666667,42.666667 0 0 1 97.834667,268.50133 L 183.168,183.168 a 42.666667,42.666667 0 0 1 30.16533,-12.50133 H 810.66667 A 42.666667,42.666667 0 0 1 840.832,183.168 l 85.33333,85.33333 a 42.666667,42.666667 0 0 1 12.50134,30.16534 v 512 A 42.666667,42.666667 0 0 1 896,853.33333 H 682.66667 a 42.666667,42.666667 0 0 1 -38.144,-23.59466 l -73.55734,-147.072 H 453.03467 l -11.22134,22.44266 a 42.666667,42.666667 0 1 1 -76.33066,-38.144 l 23.04,-46.08 a 42.666667,42.666667 0 0 1 38.144,-23.552 h 170.66666 a 42.666667,42.666667 0 0 1 38.144,23.59467 L 709.03467,768 H 853.33333 V 316.33067 L 793.00267,256 H 230.99733 l -60.33066,60.33067 z m 512,-384 a 42.666667,42.666667 0 1 1 0,-85.33333 42.666667,42.666667 0 0 1 0,85.33333 z m 0,170.66667 a 42.66667,42.66667 0 1 1 0,-85.33334 42.66667,42.66667 0 0 1 0,85.33334 z M 768,469.33333 A 42.666667,42.666667 0 1 1 768,384 a 42.666667,42.666667 0 0 1 0,85.33333 z m -170.66667,0 a 42.666667,42.666667 0 1 1 0,-85.33333 42.666667,42.666667 0 0 1 0,85.33333 z"
       id="path1-7"
       style="fill:#ffffff;fill-opacity:1" /></g></svg>
