<svg xmlns="http://www.w3.org/2000/svg" width="16" height="16" viewBox="0 0 100 100"><path id="gisMove0" fill="white" stroke="none" stroke-dasharray="none" stroke-linejoin="bevel" stroke-miterlimit="4" stroke-width="3.922" d="M50 0L35.355 14.645H45V30h10V14.645h9.645L50 0zM14.645 35.355L0 50l14.645 14.645V55H30V45H14.645v-9.645zm70.71 0V45H70v10h15.355v9.645L100 50L85.355 35.355zM50 37.45c-6.89 0-12.55 5.661-12.55 12.551c0 6.89 5.66 12.55 12.55 12.55c6.656 0 12.114-5.296 12.48-11.866a3.5 3.5 0 0 0 .07-.684a3.5 3.5 0 0 0-.071-.7C62.104 42.739 56.65 37.45 50 37.45zm0 7c3.107 0 5.55 2.444 5.55 5.551s-2.443 5.55-5.55 5.55c-3.107 0-5.55-2.443-5.55-5.55c0-3.107 2.443-5.55 5.55-5.55zM45 70v15.355h-9.645L50 100l14.645-14.645H55V70H45z" color="white"/></svg>