<svg xmlns="http://www.w3.org/2000/svg" width="128" height="128" viewBox="0 0 256 256"><path fill="white" d="M101.85 191.14C97.34 201 82.29 224 40 224a8 8 0 0 1-8-8c0-42.29 23-57.34 32.86-61.85a8 8 0 0 1 6.64 14.56c-6.43 2.93-20.62 12.36-23.12 38.91c26.55-2.5 36-16.69 38.91-23.12a8 8 0 1 1 14.56 6.64m122-144a16 16 0 0 0-15-15c-12.58-.75-44.73.4-71.4 27.07L88 108.7a8 8 0 0 1-11.33-11.31l26.56-26.57a4 4 0 0 0-2.82-6.82H74.35A15.9 15.9 0 0 0 63 68.68L28.7 103a16 16 0 0 0 9.07 27.16l38.47 5.37l44.21 44.21l5.37 38.49a15.94 15.94 0 0 0 10.78 12.92a16.1 16.1 0 0 0 5.1.83a15.9 15.9 0 0 0 11.3-4.68l34.32-34.3a16 16 0 0 0 4.68-11.35v-26.06a4 4 0 0 0-6.83-2.82l-26.57 26.56a8 8 0 0 1-11.71-.42a8.2 8.2 0 0 1 .6-11.1l49.27-49.27c26.69-26.68 27.84-58.83 27.09-71.42Z"/></svg>