<svg xmlns="http://www.w3.org/2000/svg" width="16" height="16" viewBox="0 0 15 15"><path fill="#fff" d="M7.224 8.607a.5.5 0 0 1 .629.065l2.476 2.474a.5.5 0 0 1 0 .707L7.853 14.33a.5.5 0 0 1-.707 0L4.67 11.853l-.064-.078a.5.5 0 0 1 .064-.629l2.475-2.474zM5.732 11.5l1.767 1.767L9.267 11.5L7.499 9.732zM3.224 4.607a.5.5 0 0 1 .629.065l2.476 2.474a.5.5 0 0 1 0 .707L3.853 10.33a.5.5 0 0 1-.707 0L.67 7.853l-.064-.077a.5.5 0 0 1 .064-.63l2.475-2.474zm8 0a.5.5 0 0 1 .629.065l2.476 2.474a.5.5 0 0 1 0 .707l-2.476 2.476a.5.5 0 0 1-.707 0L8.67 7.853l-.064-.078a.5.5 0 0 1 .064-.629l2.475-2.474zM1.732 7.5l1.767 1.768L5.267 7.5L3.499 5.732zm8 0l1.767 1.767L13.267 7.5l-1.768-1.768zM7.224.607a.5.5 0 0 1 .629.065l2.476 2.474a.5.5 0 0 1 0 .707L7.853 6.33a.5.5 0 0 1-.707 0L4.67 3.853l-.064-.078a.5.5 0 0 1 .064-.629L7.146.672zM5.732 3.5l1.767 1.767L9.267 3.5L7.499 1.732z"/></svg>