<?xml version="1.0" encoding="UTF-8" standalone="no"?>
<svg
   width="24"
   height="24"
   viewBox="0 0 24 24"
   version="1.1"
   id="svg2"
   sodipodi:docname="solar--dialog-2-bold.svg"
   inkscape:version="1.3.2 (091e20ef0f, 2023-11-25)"
   xmlns:inkscape="http://www.inkscape.org/namespaces/inkscape"
   xmlns:sodipodi="http://sodipodi.sourceforge.net/DTD/sodipodi-0.dtd"
   xmlns="http://www.w3.org/2000/svg"
   xmlns:svg="http://www.w3.org/2000/svg">
  <defs
     id="defs2" />
  <sodipodi:namedview
     id="namedview2"
     pagecolor="#ffffff"
     bordercolor="#000000"
     borderopacity="0.25"
     inkscape:showpageshadow="2"
     inkscape:pageopacity="0.0"
     inkscape:pagecheckerboard="0"
     inkscape:deskcolor="#d1d1d1"
     inkscape:zoom="47.25"
     inkscape:cx="12"
     inkscape:cy="12"
     inkscape:window-width="2560"
     inkscape:window-height="1374"
     inkscape:window-x="0"
     inkscape:window-y="0"
     inkscape:window-maximized="1"
     inkscape:current-layer="svg2" />
  <path
     fill="8eef97"
     fill-rule="evenodd"
     d="m10.549 21.528l.25-.423c.4-.677.6-1.015.92-1.204s.736-.202 1.568-.229c.781-.025 1.306-.093 1.755-.279a3.86 3.86 0 0 0 2.086-2.086c.294-.709.294-1.607.294-3.403v-.772c0-2.524 0-3.786-.568-4.713a3.86 3.86 0 0 0-1.273-1.273c-.927-.568-2.19-.568-4.713-.568H8.554c-2.524 0-3.786 0-4.713.568A3.86 3.86 0 0 0 2.568 8.42C2 9.346 2 10.61 2 13.132v.771c0 1.797 0 2.695.293 3.404a3.86 3.86 0 0 0 2.087 2.086c.449.186.973.254 1.754.28c.833.026 1.25.039 1.569.228s.52.527.92 1.204l.25.423a.98.98 0 0 0 1.676 0m2.535-7.239a.964.964 0 1 0 0-1.928a.964.964 0 0 0 0 1.928m-2.41-.964a.964.964 0 1 1-1.927 0a.964.964 0 0 1 1.928 0m-4.337.964a.964.964 0 1 0 0-1.928a.964.964 0 0 0 0 1.928"
     clip-rule="evenodd"
     id="path1"
     style="fill:#8eef97;fill-opacity:1" />
  <path
     fill="8eef97"
     d="M15.17 2c1.151 0 2.067 0 2.802.07c.753.071 1.39.222 1.957.57a4.34 4.34 0 0 1 1.431 1.43c.348.567.498 1.204.57 1.957c.07.736.07 1.651.07 2.803v.787c0 .82 0 1.472-.036 2c-.037.541-.114 1.006-.294 1.44a4.34 4.34 0 0 1-2.428 2.38q-.191.074-.334.122c.014-.469.014-1.003.014-1.605v-.893c0-1.201 0-2.208-.078-3.026c-.082-.857-.259-1.66-.712-2.4a5.36 5.36 0 0 0-1.768-1.768c-.738-.452-1.542-.63-2.4-.711c-.817-.078-1.824-.078-3.026-.078H8.483c-.816 0-1.542 0-2.18.024c.03-.103.07-.22.118-.36q.12-.352.315-.67a4.34 4.34 0 0 1 1.431-1.433c.568-.347 1.205-.498 1.958-.57C10.859 2 11.775 2 12.927 2z"
     id="path2"
     style="fill:#8eef97;fill-opacity:1" />
</svg>
