<svg xmlns="http://www.w3.org/2000/svg" width="24" height="24" viewBox="0 0 14 14"><path fill="white" fill-rule="evenodd" d="M0 1.957C0 1.152.652.5 1.457.5h11.086C13.348.5 14 1.152 14 1.957v7.586c0 .805-.652 1.457-1.457 1.457H8.517l.535 1.495H10a.75.75 0 0 1 0 1.5H4a.75.75 0 0 1 0-1.5h.948L5.483 11H1.457A1.457 1.457 0 0 1 0 9.543zM2.064 5.53c0-.345.28-.625.625-.625h.875V4.03a.625.625 0 0 1 1.25 0v.875h.875a.625.625 0 0 1 0 1.25h-.875v.875a.625.625 0 0 1-1.25 0v-.875h-.875a.625.625 0 0 1-.625-.625m8.042-.975a.875.875 0 1 0 1.75 0a.875.875 0 0 0-1.75 0m-1.941 1.95a.875.875 0 1 0 1.75 0a.875.875 0 0 0-1.75 0" clip-rule="evenodd"/></svg>