<svg width="64" height="64" xmlns="http://www.w3.org/2000/svg" xmlns:xlink="http://www.w3.org/1999/xlink">
  <defs/>
  <g>
    <path stroke="none" fill="#FFFFFF" d="M51 24 L50.75 23.3 Q50.45 23 50 23 49.6 23 49.3 23.3 49 23.6 49 24 49 24.45 49.3 24.7 49.6 25 50 25 L50.75 24.7 51 24 M12 20 L52 20 Q56 20 56 24 L56 36 Q56 44 48 44 L16 44 Q8 44 8 36 L8 24 Q8 20 12 20 M12.95 30.7 Q11 30.7 11 32.65 L11 34.75 Q11 36.7 12.95 36.7 L15.05 36.7 Q17 36.7 17 34.75 L17 32.65 Q17 30.7 15.05 30.7 L12.95 30.7 M13 23 L13 25 11 25 11 27 13 27 13 29 15 29 15 27 17 27 17 25 15 25 15 23 13 23 M21 23 Q19 23 19 25 L19 39 Q19 41 21 41 L43 41 Q45 41 45 39 L45 25 Q45 23 43 23 L21 23 M49 26 L48.75 25.3 Q48.45 25 48 25 47.6 25 47.3 25.3 47 25.6 47 26 47 26.45 47.3 26.7 L48 27 48.75 26.7 49 26 M48.95 30.7 Q47 30.7 47 32.65 L47 34.75 Q47 36.7 48.95 36.7 L51.05 36.7 Q53 36.7 53 34.75 L53 32.65 Q53 30.7 51.05 30.7 L48.95 30.7 M51 28 L50.75 27.3 Q50.45 27 50 27 49.6 27 49.3 27.3 49 27.6 49 28 49 28.45 49.3 28.7 49.6 29 50 29 L50.75 28.7 51 28 M53 26 L52.75 25.3 Q52.45 25 52 25 51.6 25 51.3 25.3 51 25.6 51 26 51 26.45 51.3 26.7 51.6 27 52 27 L52.75 26.7 53 26"/>
  </g>
</svg>