<svg width="64" height="64" xmlns="http://www.w3.org/2000/svg" xmlns:xlink="http://www.w3.org/1999/xlink">
  <defs/>
  <g>
    <path stroke="none" fill="#FFFFFF" d="M11 16 L11 48 Q11 53 16 53 L48 53 Q53 53 53 48 L53 16 Q53 11 48 11 L16 11 Q11 11 11 16 M16 8 L48 8 Q56 8 56 16 L56 48 Q56 56 48 56 L16 56 Q8 56 8 48 L8 16 Q8 8 16 8 M25 23 L34.2 23 Q35.75 23.05 37 23.8 L38.2 24.7 38.25 24.75 Q40 26.5 40 29 40 31.45 38.25 33.2 L38.2 33.25 38.1 33.35 40 41 36 41 34.5 35 34 35 28 35 28 41 24 41 24 24 25 23 M28 27 L28 31 34 31 Q34.8 31 35.35 30.45 L35.45 30.35 Q36 29.8 36 29 36 28.15 35.45 27.6 L35.4 27.6 Q34.8 27 34 27 L28 27"/>
  </g>
</svg>