<svg width="64" height="64" xmlns="http://www.w3.org/2000/svg" xmlns:xlink="http://www.w3.org/1999/xlink">
  <defs/>
  <g>
    <path stroke="none" fill="#FFFFFF" d="M36.5 53 Q43.25 52.8 48 48 52.85 43.2 53 36.4 L53 32 53 31.05 53 30 53 16 Q53 11 48 11 L16 11 Q11 11 11 16 L11 48 Q11 53 16 53 L36.5 53 M56 30 L56 31.05 56 32 56 36.5 Q55.8 44.5 50.15 50.15 44.5 55.8 36.5 56 L16 56 Q8 56 8 48 L8 16 Q8 8 16 8 L48 8 Q56 8 56 16 L56 30 M41.5 28.4 Q41.1 28 40.5 28 L38.95 28 38.85 28 38.3 28.3 Q38 28.6 38 29 L34 29 34.1 28 Q34.35 26.6 35.4 25.5 L35.5 25.4 Q36.9 24.05 38.85 24 L40.5 24 Q42.75 24 44.35 25.6 L44.4 25.65 45.4 27 Q46.65 30.35 44.45 32.55 L40 37 46 37 46 41 38.95 41 38.85 41 34 41 34 37 41 30.45 Q42.25 29.15 41.5 28.4 M18 24 L25 24 Q27.5 24 29.25 25.75 31 27.5 31 30 31 32.45 29.25 34.2 L29.2 34.25 28.45 34.9 31.5 41 27.5 41 25 36 22 36 22 41 18 41 18 24 M25 28 L22 28 22 32 25 32 Q25.8 32 26.35 31.45 L26.45 31.35 Q27 30.8 27 30 27 29.2 26.4 28.6 25.8 28 25 28"/>
  </g>
</svg>