<svg width="64" height="64" xmlns="http://www.w3.org/2000/svg" xmlns:xlink="http://www.w3.org/1999/xlink">
  <defs/>
  <g>
    <path stroke="none" fill="#FFFFFF" d="M11 16 L11 48 Q11 53 16 53 L48 53 Q53 53 53 48 L53 16 Q53 11 48 11 L16 11 Q11 11 11 16 M16 8 L48 8 Q56 8 56 16 L56 48 Q56 56 48 56 L16 56 Q8 56 8 48 L8 16 Q8 8 16 8 M24 28 L21 28 21 32 24 32 Q24.8 32 25.35 31.45 L25.45 31.35 Q26 30.8 26 30 26 29.2 25.4 28.6 24.8 28 24 28 M17 24 L24 24 Q26.5 24 28.25 25.75 30 27.5 30 30 30 32.45 28.25 34.2 L28.2 34.25 27.45 34.9 30.5 41 26.5 41 24 36 21 36 21 41 17 41 17 24 M42.5 36.6 L42.6 36.5 Q43 36.1 43 35.5 43 34.9 42.55 34.45 42.1 34 41.5 34 L34 34 34 24 47 24 47 28 38 28 38 30 41.5 30 Q43.8 30 45.4 31.6 47 33.2 47 35.5 L47 36 Q46.8 37.95 45.4 39.35 L45.35 39.4 Q43.75 41 41.5 41 L38.85 41 Q36.9 40.95 35.5 39.6 L35.4 39.5 Q34.35 38.4 34.1 37 L34 36 38 36 Q38 36.4 38.3 36.7 38.6 37 38.95 37 L41.5 37 Q42.1 37 42.5 36.6"/>
  </g>
</svg>