<svg width="64" height="64" xmlns="http://www.w3.org/2000/svg" xmlns:xlink="http://www.w3.org/1999/xlink">
  <defs/>
  <g>
    <path stroke="none" fill="#FFFFFF" d="M20 20 L44 20 Q48.95 20 52.45 23.5 56 27.05 56 32 56 36.95 52.45 40.45 48.95 44 44 44 L20 44 Q15.05 44 11.5 40.45 8 36.95 8 32 8 27.05 11.5 23.5 15.05 20 20 20 M24 32 Q24 30.35 22.8 29.15 21.65 28 20 28 18.35 28 17.15 29.15 16 30.35 16 32 16 33.65 17.15 34.8 18.35 36 20 36 21.65 36 22.8 34.8 24 33.65 24 32 M36 32 Q36 30.35 34.8 29.15 33.65 28 32 28 30.35 28 29.15 29.15 28 30.35 28 32 28 33.65 29.15 34.8 30.35 36 32 36 33.65 36 34.8 34.8 36 33.65 36 32 M48 32 Q48 30.35 46.8 29.15 45.65 28 44 28 42.35 28 41.15 29.15 40 30.35 40 32 40 33.65 41.15 34.8 42.35 36 44 36 45.65 36 46.8 34.8 48 33.65 48 32"/>
  </g>
</svg>