<svg width="64" height="64" xmlns="http://www.w3.org/2000/svg" xmlns:xlink="http://www.w3.org/1999/xlink">
  <defs/>
  <g>
    <path stroke="none" fill="#FFFFFF" fill-opacity="0" d="M50.85 15.35 Q51.65 15 52.65 15 54.5 15 55.85 16.2 L55.95 16.3 62.6 22.7 62.65 22.7 Q64.05 24.15 64 26 64 28 62.6 29.3 L55.95 35.7 55.85 35.75 55 36.4 Q53.95 37 52.65 37 50.75 37 49.5 35.75 L49.05 35.3 Q48 34.1 48 32.4 L48 26.05 48 25.95 48 19.6 48.1 18.55 Q48.4 17.3 49.4 16.3 50 15.65 50.85 15.35 M9 36.4 L8.15 35.75 8.05 35.7 1.4 29.3 Q0 28 0 26 -0.05 24.15 1.35 22.7 L1.4 22.7 8.05 16.3 8.15 16.2 Q9.5 15 11.35 15 12.35 15 13.15 15.35 13.95 15.65 14.6 16.3 15.6 17.3 15.9 18.55 L16 19.6 16 26.05 16 26.1 16 32.4 Q16 34.1 14.95 35.3 L14.5 35.75 Q13.25 37 11.35 37 10.05 37 9 36.4 M60.5 27.15 Q61 26.7 61 26 61 25.35 60.5 24.85 L53.85 18.45 Q53.5 18.15 53.1 18.05 L52.65 18 Q51.95 18 51.5 18.45 51 18.95 51 19.6 L51 32.4 Q51 33.1 51.5 33.55 51.95 34 52.65 34 L53.85 33.55 60.5 27.15 M3.5 27.15 L10.15 33.55 Q10.65 34 11.35 34 L12.5 33.55 Q13 33.1 13 32.4 L13 19.6 Q13 18.95 12.5 18.45 12.05 18 11.35 18 L10.9 18.05 Q10.45 18.15 10.15 18.45 L3.5 24.85 Q3 25.35 3 26 3 26.7 3.5 27.15"/>
    <path stroke="none" fill="#FFFFFF" d="M3.5 27.15 Q3 26.7 3 26 3 25.35 3.5 24.85 L10.15 18.45 Q10.45 18.15 10.9 18.05 L11.35 18 Q12.05 18 12.5 18.45 13 18.95 13 19.6 L13 32.4 Q13 33.1 12.5 33.55 L11.35 34 Q10.65 34 10.15 33.55 L3.5 27.15 M55 36.4 Q53.35 40.8 48.95 44.3 46.2 46.55 43 47.9 L43 50 Q43 52.5 39.75 54.25 36.55 56 32 56 27.5 56 24.25 54.25 21 52.5 21 50 L21 47.9 Q17.8 46.55 15 44.3 10.65 40.8 9 36.4 10.05 37 11.35 37 13.25 37 14.5 35.75 L14.95 35.3 Q16 36.55 17.4 37.65 23.45 42.5 32 42.5 40.55 42.5 46.55 37.7 L46.6 37.65 49.05 35.3 49.5 35.75 Q50.75 37 52.65 37 53.95 37 55 36.4 M13.15 15.35 L15 13.65 Q22.05 8 32 8 42 8 48.95 13.65 L50.85 15.35 Q50 15.65 49.4 16.3 48.4 17.3 48.1 18.55 L46.55 17.1 Q40.55 12.3 32 12.3 23.45 12.3 17.4 17.1 L17.45 17.1 15.9 18.55 Q15.6 17.3 14.6 16.3 13.95 15.65 13.15 15.35 M48 25.95 L48 26.05 Q47.7 30 44.2 32.9 L44 33.05 Q39.05 37 32 37 24.85 37 19.8 32.95 L19.7 32.9 Q16.3 30 16 26.1 L16 26.05 Q16.25 22 19.85 19 L19.95 18.9 Q25 15 32 15 39.15 15 44.2 19 L44.15 19 Q47.7 22 48 25.95 M60.5 27.15 L53.85 33.55 52.65 34 Q51.95 34 51.5 33.55 51 33.1 51 32.4 L51 19.6 Q51 18.95 51.5 18.45 51.95 18 52.65 18 L53.1 18.05 Q53.5 18.15 53.85 18.45 L60.5 24.85 Q61 25.35 61 26 61 26.7 60.5 27.15 M33 30 L34 29.9 34 30 35 33 38 33 36.5 28.5 Q38 27.05 38 25 38 22.95 36.5 21.45 35.05 20 33 20 L27 20 27 33 30 33 30 30 33 30 M30 27 L30 23 33 23 Q33.85 23 34.4 23.55 35 24.15 35 25 35 25.85 34.4 26.4 33.85 27 33.05 27 L30 27"/>
  </g>
</svg>