<svg width="64" height="64" xmlns="http://www.w3.org/2000/svg" xmlns:xlink="http://www.w3.org/1999/xlink">
  <defs/>
  <g>
    <path stroke="none" fill="#FFFFFF" d="M16 8 L48 8 Q56 8 56 16 L56 48 Q56 56 48 56 L16 56 Q8 56 8 48 L8 16 Q8 8 16 8 M25 23 L24 24 24 41 28 41 28 35 34 35 34.5 35 36 41 40 41 38.1 33.35 38.2 33.25 38.25 33.2 Q40 31.45 40 29 40 26.5 38.25 24.75 L38.2 24.7 37 23.8 Q35.75 23.05 34.2 23 L25 23 M28 27 L34 27 Q34.8 27 35.4 27.6 L35.45 27.6 Q36 28.15 36 29 36 29.8 35.45 30.35 L35.35 30.45 Q34.8 31 34 31 L28 31 28 27"/>
  </g>
</svg>