<svg width="64" height="64" xmlns="http://www.w3.org/2000/svg" xmlns:xlink="http://www.w3.org/1999/xlink">
  <defs/>
  <g>
    <path stroke="none" fill="#FFFFFF" fill-opacity="0" d="M41.65 8 L41.7 8.05 41.8 8.15 Q43 9.5 43 11.35 43 13.35 41.7 14.6 40.25 16.05 38.4 16 L25.6 16 Q23.55 16 22.25 14.5 21 13.25 21 11.35 21 9.5 22.25 8.15 L22.3 8.05 22.35 8 28.7 1.4 Q30 0 32 0 33.85 -0.05 35.3 1.35 L35.3 1.4 41.65 8 M8 22.35 L8.05 22.3 8.15 22.2 Q9.5 21 11.35 21 13.35 21 14.6 22.3 16.05 23.75 16 25.6 L16 38.4 Q16 40.45 14.5 41.75 13.25 43 11.35 43 9.5 43 8.15 41.75 L8.05 41.7 8 41.65 1.4 35.3 Q0 34 0 32 -0.05 30.15 1.35 28.7 L1.4 28.7 8 22.35 M22.35 56 L22.3 55.95 22.25 55.85 Q21 54.5 21 52.65 21 50.75 22.25 49.5 23.55 48 25.6 48 L38.4 48 Q40.25 47.95 41.7 49.4 43 50.65 43 52.65 43 54.5 41.8 55.85 L41.7 55.95 41.65 56 35.3 62.6 35.3 62.65 Q33.85 64.05 32 64 30 64 28.7 62.6 L22.35 56 M56 41.65 L55.95 41.7 55.85 41.75 Q54.5 43 52.65 43 50.75 43 49.5 41.75 48 40.45 48 38.4 L48 25.6 Q47.95 23.75 49.4 22.3 50.65 21 52.65 21 54.5 21 55.85 22.2 L55.95 22.3 56 22.35 62.6 28.7 62.65 28.7 Q64.05 30.15 64 32 64 34 62.6 35.3 L56 41.65 M60.5 33.15 Q61 32.7 61 32 61 31.35 60.5 30.85 L53.85 24.45 Q53.35 24 52.65 24 51.95 24 51.5 24.45 51 24.95 51 25.6 L51 38.4 Q51 39.1 51.5 39.55 51.95 40 52.65 40 L53.85 39.55 60.5 33.15 M30.85 3.5 L24.45 10.15 Q24 10.65 24 11.35 24 12.05 24.45 12.5 24.9 13 25.6 13 L38.4 13 Q39.05 13 39.55 12.5 40 12.05 40 11.35 40 10.65 39.55 10.15 L33.15 3.5 Q32.65 3 32 3 31.3 3 30.85 3.5 M3.5 33.15 L10.15 39.55 Q10.65 40 11.35 40 L12.5 39.55 Q13 39.1 13 38.4 L13 25.6 Q13 24.95 12.5 24.45 12.05 24 11.35 24 10.65 24 10.15 24.45 L3.5 30.85 Q3 31.35 3 32 3 32.7 3.5 33.15 M30.85 60.5 Q31.3 61 32 61 32.65 61 33.15 60.5 L39.55 53.85 Q40 53.35 40 52.65 40 51.95 39.55 51.5 39.05 51 38.4 51 L25.6 51 Q24.9 51 24.45 51.5 24 51.95 24 52.65 24 53.35 24.45 53.85 L30.85 60.5"/>
    <path stroke="none" fill="#FFFFFF" d="M30.85 60.5 L24.45 53.85 Q24 53.35 24 52.65 24 51.95 24.45 51.5 24.9 51 25.6 51 L38.4 51 Q39.05 51 39.55 51.5 40 51.95 40 52.65 40 53.35 39.55 53.85 L33.15 60.5 Q32.65 61 32 61 31.3 61 30.85 60.5 M22.35 8 L22.3 8.05 22.25 8.15 Q21 9.5 21 11.35 21 13.25 22.25 14.5 23.55 16 25.6 16 L38.4 16 Q40.25 16.05 41.7 14.6 43 13.35 43 11.35 43 9.5 41.8 8.15 L41.7 8.05 41.65 8 48 8 Q56 8 56 16 L56 22.35 55.95 22.3 55.85 22.2 Q54.5 21 52.65 21 50.65 21 49.4 22.3 47.95 23.75 48 25.6 L48 38.4 Q48 40.45 49.5 41.75 50.75 43 52.65 43 54.5 43 55.85 41.75 L55.95 41.7 56 41.65 56 48 Q56 56 48 56 L41.65 56 41.7 55.95 41.8 55.85 Q43 54.5 43 52.65 43 50.65 41.7 49.4 40.25 47.95 38.4 48 L25.6 48 Q23.55 48 22.25 49.5 21 50.75 21 52.65 21 54.5 22.25 55.85 L22.3 55.95 22.35 56 16 56 Q8 56 8 48 L8 41.65 8.05 41.7 8.15 41.75 Q9.5 43 11.35 43 13.25 43 14.5 41.75 16 40.45 16 38.4 L16 25.6 Q16.05 23.75 14.6 22.3 13.35 21 11.35 21 9.5 21 8.15 22.2 L8.05 22.3 8 22.35 8 16 Q8 8 16 8 L22.35 8 M60.5 33.15 L53.85 39.55 52.65 40 Q51.95 40 51.5 39.55 51 39.1 51 38.4 L51 25.6 Q51 24.95 51.5 24.45 51.95 24 52.65 24 53.35 24 53.85 24.45 L60.5 30.85 Q61 31.35 61 32 61 32.7 60.5 33.15 M3.5 33.15 Q3 32.7 3 32 3 31.35 3.5 30.85 L10.15 24.45 Q10.65 24 11.35 24 12.05 24 12.5 24.45 13 24.95 13 25.6 L13 38.4 Q13 39.1 12.5 39.55 L11.35 40 Q10.65 40 10.15 39.55 L3.5 33.15 M30.85 3.5 Q31.3 3 32 3 32.65 3 33.15 3.5 L39.55 10.15 Q40 10.65 40 11.35 40 12.05 39.55 12.5 39.05 13 38.4 13 L25.6 13 Q24.9 13 24.45 12.5 24 12.05 24 11.35 24 10.65 24.45 10.15 L30.85 3.5"/>
  </g>
</svg>