<svg width="64" height="64" xmlns="http://www.w3.org/2000/svg" xmlns:xlink="http://www.w3.org/1999/xlink">
  <defs/>
  <g>
    <path stroke="none" fill="#FFFFFF" d="M20 20 L44 20 Q48.95 20 52.45 23.5 56 27.05 56 32 56 36.95 52.45 40.45 48.95 44 44 44 L20 44 Q15.05 44 11.5 40.45 8 36.95 8 32 8 27.05 11.5 23.5 15.05 20 20 20 M43.5 34.75 L41.9 31.4 41.9 34.9 40.7 34.9 40.7 29.1 41.9 29.1 43.9 33.3 45.8 29.1 47 29.1 47 34.9 45.8 34.9 45.8 31.35 44.2 34.75 43.5 34.75 M13.6 25.65 Q11 28.3 11 32 11 35.7 13.65 38.35 16.3 41 20 41 L44 41 Q47.7 41 50.35 38.35 53 35.7 53 32 53 28.3 50.35 25.65 47.7 23 44 23 L20 23 Q16.3 23 13.65 25.6 L13.6 25.65 M21.25 29.55 L20.7 30.5 20.05 30.15 19.3 30.05 18.65 30.2 Q18.4 30.35 18.4 30.65 18.4 31 18.8 31.2 L19.9 31.6 Q20.7 31.85 21 32.15 21.4 32.55 21.4 33.15 21.4 34.05 20.75 34.55 L19.1 35 Q17.9 35 17 34.5 L17.4 33.45 Q18.2 33.9 19.05 33.9 L19.85 33.7 20.1 33.25 Q20.1 32.95 19.75 32.75 L18.75 32.4 Q17.9 32.15 17.55 31.8 17.1 31.4 17.1 30.7 17.1 29.9 17.7 29.45 18.3 29 19.25 29 L20.45 29.2 21.25 29.55 M35.35 33.8 L34.95 34.9 33.65 34.9 35.9 29.1 37.15 29.1 39.45 34.9 38.1 34.9 37.65 33.8 35.35 33.8 M32.2 31.45 L32.2 32.5 29.8 32.5 29.8 33.85 32.55 33.85 32.55 34.9 28.55 34.9 28.55 29.1 32.55 29.1 32.55 30.15 29.8 30.15 29.8 31.45 32.2 31.45 M36.5 30.5 L35.7 32.8 37.35 32.8 36.5 30.5 M24.15 34.9 L24.15 30.15 22.35 30.15 22.35 29.1 27.2 29.1 27.2 30.15 25.4 30.15 25.4 34.9 24.15 34.9"/>
  </g>
</svg>