<svg width="64" height="64" xmlns="http://www.w3.org/2000/svg" xmlns:xlink="http://www.w3.org/1999/xlink">
  <defs/>
  <g>
    <path stroke="none" fill="#FFFFFF" fill-opacity="0" d="M60.5 33.15 Q61 32.7 61 32 61 31.35 60.5 30.85 L53.85 24.45 Q53.5 24.1 53 24.05 L52.65 24 Q51.95 24 51.5 24.45 51 24.95 51 25.6 L51 38.4 Q51 39.1 51.5 39.55 51.95 40 52.65 40 L53 40 53.85 39.55 60.5 33.15 M53 43 L52.65 43 Q50.75 43 49.5 41.75 48 40.45 48 38.4 L48 25.6 Q47.95 23.75 49.4 22.3 50.65 21 52.65 21 L53 21 Q54.65 21.1 55.85 22.2 L55.95 22.3 56 22.35 62.6 28.7 62.65 28.7 Q64.05 30.15 64 32 64 34 62.6 35.3 L56 41.65 55.95 41.7 55.85 41.75 Q54.65 42.9 53 43 M11 21 L11.35 21 Q13.35 21 14.6 22.3 16.05 23.75 16 25.6 L16 38.4 Q16 40.45 14.5 41.75 13.25 43 11.35 43 L11 43 Q9.35 42.9 8.15 41.75 L8.05 41.7 8 41.65 1.4 35.3 Q0 34 0 32 -0.05 30.15 1.35 28.7 L1.4 28.7 8 22.35 8.05 22.3 8.15 22.2 Q9.35 21.1 11 21 M3.5 33.15 L10.15 39.55 11 40 11.35 40 12.5 39.55 Q13 39.1 13 38.4 L13 25.6 Q13 24.95 12.5 24.45 12.05 24 11.35 24 L11 24.05 Q10.5 24.1 10.15 24.45 L3.5 30.85 Q3 31.35 3 32 3 32.7 3.5 33.15"/>
    <path stroke="none" fill="#FFFFFF" d="M3.5 33.15 Q3 32.7 3 32 3 31.35 3.5 30.85 L10.15 24.45 Q10.5 24.1 11 24.05 L11.35 24 Q12.05 24 12.5 24.45 13 24.95 13 25.6 L13 38.4 Q13 39.1 12.5 39.55 L11.35 40 11 40 10.15 39.55 3.5 33.15 M60.5 33.15 L53.85 39.55 53 40 52.65 40 Q51.95 40 51.5 39.55 51 39.1 51 38.4 L51 25.6 Q51 24.95 51.5 24.45 51.95 24 52.65 24 L53 24.05 Q53.5 24.1 53.85 24.45 L60.5 30.85 Q61 31.35 61 32 61 32.7 60.5 33.15 M53 21 L53 16 Q53 11 48 11 L16 11 Q11 11 11 16 L11 21 Q9.35 21.1 8.15 22.2 L8.05 22.3 8 22.35 8 16 Q8 8 16 8 L48 8 Q56 8 56 16 L56 22.35 55.95 22.3 55.85 22.2 Q54.65 21.1 53 21 M11 43 L11 48 Q11 53 16 53 L48 53 Q53 53 53 48 L53 43 Q54.65 42.9 55.85 41.75 L55.95 41.7 56 41.65 56 48 Q56 56 48 56 L16 56 Q8 56 8 48 L8 41.65 8.05 41.7 8.15 41.75 Q9.35 42.9 11 43 M25 23 L34.2 23 Q35.75 23.05 37 23.8 L38.2 24.7 38.25 24.75 Q40 26.5 40 29 40 31.45 38.25 33.2 L38.2 33.25 38.1 33.35 40 41 36 41 34.5 35 34 35 28 35 28 41 24 41 24 24 25 23 M28 27 L28 31 34 31 Q34.8 31 35.35 30.45 L35.45 30.35 Q36 29.8 36 29 36 28.15 35.45 27.6 L35.4 27.6 Q34.8 27 34 27 L28 27"/>
  </g>
</svg>