<svg width="64" height="64" xmlns="http://www.w3.org/2000/svg" xmlns:xlink="http://www.w3.org/1999/xlink">
  <defs/>
  <g>
    <path stroke="none" fill="#FFFFFF" d="M56 22.35 L55.95 22.3 55.85 22.2 Q54.5 21 52.65 21 50.65 21 49.4 22.3 47.95 23.75 48 25.6 L48 38.4 Q48 40.45 49.5 41.75 50.75 43 52.65 43 54.5 43 55.85 41.75 L55.95 41.7 56 41.65 56 48 Q56 56 48 56 L16 56 Q8 56 8 48 L8 16 Q8 8 16 8 L48 8 Q56 8 56 16 L56 22.35 M60.5 33.15 L53.85 39.55 52.65 40 Q51.95 40 51.5 39.55 51 39.1 51 38.4 L51 25.6 Q51 24.95 51.5 24.45 51.95 24 52.65 24 53.35 24 53.85 24.45 L60.5 30.85 Q61 31.35 61 32 61 32.7 60.5 33.15"/>
    <path stroke="none" fill="#FFFFFF" fill-opacity="0" d="M60.5 33.15 Q61 32.7 61 32 61 31.35 60.5 30.85 L53.85 24.45 Q53.35 24 52.65 24 51.95 24 51.5 24.45 51 24.95 51 25.6 L51 38.4 Q51 39.1 51.5 39.55 51.95 40 52.65 40 L53.85 39.55 60.5 33.15 M56 41.65 L55.95 41.7 55.85 41.75 Q54.5 43 52.65 43 50.75 43 49.5 41.75 48 40.45 48 38.4 L48 25.6 Q47.95 23.75 49.4 22.3 50.65 21 52.65 21 54.5 21 55.85 22.2 L55.95 22.3 56 22.35 62.6 28.7 62.65 28.7 Q64.05 30.15 64 32 64 34 62.6 35.3 L56 41.65"/>
  </g>
</svg>