<svg width="64" height="64" xmlns="http://www.w3.org/2000/svg" xmlns:xlink="http://www.w3.org/1999/xlink">
  <defs/>
  <g>
    <path stroke="none" fill="#FFFFFF" d="M16 8 L48 8 Q56 8 56 16 L56 48 Q56 56 48 56 L16 56 Q8 56 8 48 L8 16 Q8 8 16 8 M46 24 L42 24 42 30 38 30 38 24 34 24 34 32.05 Q34 32.85 34.55 33.4 35.15 34 35.95 34 L42 34 42 41 46 41 46 24 M25 28 Q25.8 28 26.4 28.6 27 29.2 27 30 27 30.8 26.45 31.35 L26.35 31.45 Q25.8 32 25 32 L22 32 22 28 25 28 M18 24 L18 41 22 41 22 36 25 36 27.5 41 31.5 41 28.45 34.9 29.2 34.25 29.25 34.2 Q31 32.45 31 30 31 27.5 29.25 25.75 27.5 24 25 24 L18 24"/>
  </g>
</svg>