<svg width="64" height="64" xmlns="http://www.w3.org/2000/svg" xmlns:xlink="http://www.w3.org/1999/xlink">
  <defs/>
  <g>
    <path stroke="none" fill="#FFFFFF" d="M22.9 22 L41.1 22 Q45.6 22 48.8 24.9 52 27.85 52 32 52 36.1 48.8 39.05 45.6 42 41.1 42 L22.9 42 Q18.4 42 15.2 39.05 12 36.1 12 32 12 27.85 15.2 24.9 18.4 22 22.9 22 M17.25 27.15 L17.25 27.1 Q15 29.15 15 32 15 34.8 17.25 36.85 19.6 39 22.9 39 L41.1 39 Q44.4 39 46.8 36.85 49 34.8 49 32 49 29.15 46.8 27.1 L46.8 27.15 Q44.4 25 41.1 25 L22.9 25 Q19.6 25 17.25 27.15 M26 31 L38 31 38 33 26 33 26 31 M26 34 L38 34 38 36 26 36 26 34 M26 28 L38 28 38 30 26 30 26 28"/>
  </g>
</svg>