<svg width="64" height="64" xmlns="http://www.w3.org/2000/svg" xmlns:xlink="http://www.w3.org/1999/xlink">
  <defs/>
  <g>
    <path stroke="none" fill="#FFFFFF" d="M20 20 L44 20 Q48.95 20 52.45 23.5 56 27.05 56 32 56 36.95 52.45 40.45 48.95 44 44 44 L20 44 Q15.05 44 11.5 40.45 8 36.95 8 32 8 27.05 11.5 23.5 15.05 20 20 20 M48 32 Q48 33.65 46.8 34.8 45.65 36 44 36 42.35 36 41.15 34.8 40 33.65 40 32 40 30.35 41.15 29.15 42.35 28 44 28 45.65 28 46.8 29.15 48 30.35 48 32 M13.6 25.65 Q11 28.3 11 32 11 35.7 13.65 38.35 16.3 41 20 41 L44 41 Q47.7 41 50.35 38.35 53 35.7 53 32 53 28.3 50.35 25.65 47.7 23 44 23 L20 23 Q16.3 23 13.65 25.6 L13.6 25.65 M36 32 Q36 33.65 34.8 34.8 33.65 36 32 36 30.35 36 29.15 34.8 28 33.65 28 32 28 30.35 29.15 29.15 30.35 28 32 28 33.65 28 34.8 29.15 36 30.35 36 32 M24 32 Q24 33.65 22.8 34.8 21.65 36 20 36 18.35 36 17.15 34.8 16 33.65 16 32 16 30.35 17.15 29.15 18.35 28 20 28 21.65 28 22.8 29.15 24 30.35 24 32"/>
  </g>
</svg>