<svg width="64" height="64" xmlns="http://www.w3.org/2000/svg" xmlns:xlink="http://www.w3.org/1999/xlink">
  <defs/>
  <g>
    <path stroke="none" fill="#FFFFFF" d="M22.35 8 L22.3 8.05 22.25 8.15 Q21 9.5 21 11.35 21 13.25 22.25 14.5 23.55 16 25.6 16 L38.4 16 Q40.25 16.05 41.7 14.6 43 13.35 43 11.35 43 9.5 41.8 8.15 L41.7 8.05 41.65 8 48 8 Q56 8 56 16 L56 48 Q56 56 48 56 L41.65 56 41.7 55.95 41.8 55.85 Q43 54.5 43 52.65 43 50.65 41.7 49.4 40.25 47.95 38.4 48 L25.6 48 Q23.55 48 22.25 49.5 21 50.75 21 52.65 21 54.5 22.25 55.85 L22.3 55.95 22.35 56 16 56 Q8 56 8 48 L8 16 Q8 8 16 8 L22.35 8 M30.85 3.5 Q31.3 3 32 3 32.65 3 33.15 3.5 L39.55 10.15 Q40 10.65 40 11.35 40 12.05 39.55 12.5 39.05 13 38.4 13 L25.6 13 Q24.9 13 24.45 12.5 24 12.05 24 11.35 24 10.65 24.45 10.15 L30.85 3.5 M30.85 60.5 L24.45 53.85 Q24 53.35 24 52.65 24 51.95 24.45 51.5 24.9 51 25.6 51 L38.4 51 Q39.05 51 39.55 51.5 40 51.95 40 52.65 40 53.35 39.55 53.85 L33.15 60.5 Q32.65 61 32 61 31.3 61 30.85 60.5"/>
    <path stroke="none" fill="#FFFFFF" fill-opacity="0" d="M30.85 60.5 Q31.3 61 32 61 32.65 61 33.15 60.5 L39.55 53.85 Q40 53.35 40 52.65 40 51.95 39.55 51.5 39.05 51 38.4 51 L25.6 51 Q24.9 51 24.45 51.5 24 51.95 24 52.65 24 53.35 24.45 53.85 L30.85 60.5 M41.65 8 L41.7 8.05 41.8 8.15 Q43 9.5 43 11.35 43 13.35 41.7 14.6 40.25 16.05 38.4 16 L25.6 16 Q23.55 16 22.25 14.5 21 13.25 21 11.35 21 9.5 22.25 8.15 L22.3 8.05 22.35 8 28.7 1.4 Q30 0 32 0 33.85 -0.05 35.3 1.35 L35.3 1.4 41.65 8 M22.35 56 L22.3 55.95 22.25 55.85 Q21 54.5 21 52.65 21 50.75 22.25 49.5 23.55 48 25.6 48 L38.4 48 Q40.25 47.95 41.7 49.4 43 50.65 43 52.65 43 54.5 41.8 55.85 L41.7 55.95 41.65 56 35.3 62.6 35.3 62.65 Q33.85 64.05 32 64 30 64 28.7 62.6 L22.35 56 M30.85 3.5 L24.45 10.15 Q24 10.65 24 11.35 24 12.05 24.45 12.5 24.9 13 25.6 13 L38.4 13 Q39.05 13 39.55 12.5 40 12.05 40 11.35 40 10.65 39.55 10.15 L33.15 3.5 Q32.65 3 32 3 31.3 3 30.85 3.5"/>
  </g>
</svg>