<svg width="64" height="64" xmlns="http://www.w3.org/2000/svg" xmlns:xlink="http://www.w3.org/1999/xlink">
  <defs/>
  <g>
    <path stroke="none" fill="#FFFFFF" d="M27.5 11 Q20.75 11.2 16 16 11.15 20.8 11 27.6 L11 32 11 32.95 11 34 11 48 Q11 53 16 53 L48 53 Q53 53 53 48 L53 16 Q53 11 48 11 L27.5 11 M8 34 L8 32.95 8 32 8 27.5 Q8.2 19.5 13.85 13.85 19.5 8.2 27.5 8 L48 8 Q56 8 56 16 L56 48 Q56 56 48 56 L16 56 Q8 56 8 48 L8 34 M42 24 L42 41 38 41 38 33.95 38 33.85 38 28.95 35 28.95 35 27 38 24 42 24 M22 24 L26 24 26 37 34 37 34 41 22 41 22 24"/>
  </g>
</svg>