<svg width="64" height="64" xmlns="http://www.w3.org/2000/svg" xmlns:xlink="http://www.w3.org/1999/xlink">
  <defs/>
  <g>
    <path stroke="none" fill="#FFFFFF" d="M11 16 L11 48 Q11 53 16 53 L48 53 Q53 53 53 48 L53 16 Q53 11 48 11 L16 11 Q11 11 11 16 M16 8 L48 8 Q56 8 56 16 L56 48 Q56 56 48 56 L16 56 Q8 56 8 48 L8 16 Q8 8 16 8 M46 24 L46 41 42 41 42 34 35.95 34 Q35.15 34 34.55 33.4 34 32.85 34 32.05 L34 24 38 24 38 30 42 30 42 24 46 24 M18 24 L25 24 Q27.5 24 29.25 25.75 31 27.5 31 30 31 32.45 29.25 34.2 L29.2 34.25 28.45 34.9 31.5 41 27.5 41 25 36 22 36 22 41 18 41 18 24 M25 28 L22 28 22 32 25 32 Q25.8 32 26.35 31.45 L26.45 31.35 Q27 30.8 27 30 27 29.2 26.4 28.6 25.8 28 25 28"/>
  </g>
</svg>