<svg width="64" height="64" xmlns="http://www.w3.org/2000/svg" xmlns:xlink="http://www.w3.org/1999/xlink">
  <defs/>
  <g>
    <path stroke="none" fill="#FFFFFF" fill-opacity="0" d="M41.65 8 L41.7 8.05 41.8 8.15 Q42.9 9.35 43 11 L43 11.35 Q43 13.35 41.7 14.6 40.25 16.05 38.4 16 L25.6 16 Q23.55 16 22.25 14.5 21 13.25 21 11.35 L21 11 Q21.1 9.35 22.25 8.15 L22.3 8.05 22.35 8 28.7 1.4 Q30 0 32 0 33.85 -0.05 35.3 1.35 L35.3 1.4 41.65 8 M30.85 3.5 L24.45 10.15 Q24.1 10.5 24.05 11 L24 11.35 Q24 12.05 24.45 12.5 24.9 13 25.6 13 L38.4 13 Q39.05 13 39.55 12.5 40 12.05 40 11.35 L40 11 39.55 10.15 33.15 3.5 Q32.65 3 32 3 31.3 3 30.85 3.5"/>
    <path stroke="none" fill="#FFFFFF" d="M30.85 3.5 Q31.3 3 32 3 32.65 3 33.15 3.5 L39.55 10.15 40 11 40 11.35 Q40 12.05 39.55 12.5 39.05 13 38.4 13 L25.6 13 Q24.9 13 24.45 12.5 24 12.05 24 11.35 L24.05 11 Q24.1 10.5 24.45 10.15 L30.85 3.5 M43 11 Q42.9 9.35 41.8 8.15 L41.7 8.05 41.65 8 48 8 Q56 8 56 16 L56 48 Q56 56 48 56 L16 56 Q8 56 8 48 L8 16 Q8 8 16 8 L22.35 8 22.3 8.05 22.25 8.15 Q21.1 9.35 21 11 L16 11 Q11 11 11 16 L11 48 Q11 53 16 53 L48 53 Q53 53 53 48 L53 16 Q53 11 48 11 L43 11 M25 41 L25 23 29 23 29 37 39 37 39 41 25 41"/>
  </g>
</svg>