<svg width="64" height="64" xmlns="http://www.w3.org/2000/svg" xmlns:xlink="http://www.w3.org/1999/xlink">
  <defs/>
  <g>
    <path stroke="none" fill="#FFFFFF" d="M22.35 56 L16 56 Q8 56 8 48 L8 16 Q8 8 16 8 L48 8 Q56 8 56 16 L56 48 Q56 56 48 56 L41.65 56 41.7 55.95 41.8 55.85 Q43 54.5 43 52.65 43 50.65 41.7 49.4 40.25 47.95 38.4 48 L25.6 48 Q23.55 48 22.25 49.5 21 50.75 21 52.65 21 54.5 22.25 55.85 L22.3 55.95 22.35 56 M30.85 60.5 L24.45 53.85 Q24 53.35 24 52.65 24 51.95 24.45 51.5 24.9 51 25.6 51 L38.4 51 Q39.05 51 39.55 51.5 40 51.95 40 52.65 40 53.35 39.55 53.85 L33.15 60.5 Q32.65 61 32 61 31.3 61 30.85 60.5"/>
    <path stroke="none" fill="#FFFFFF" fill-opacity="0" d="M30.85 60.5 Q31.3 61 32 61 32.65 61 33.15 60.5 L39.55 53.85 Q40 53.35 40 52.65 40 51.95 39.55 51.5 39.05 51 38.4 51 L25.6 51 Q24.9 51 24.45 51.5 24 51.95 24 52.65 24 53.35 24.45 53.85 L30.85 60.5 M41.65 56 L35.3 62.6 35.3 62.65 Q33.85 64.05 32 64 30 64 28.7 62.6 L22.35 56 22.3 55.95 22.25 55.85 Q21 54.5 21 52.65 21 50.75 22.25 49.5 23.55 48 25.6 48 L38.4 48 Q40.25 47.95 41.7 49.4 43 50.65 43 52.65 43 54.5 41.8 55.85 L41.7 55.95 41.65 56"/>
  </g>
</svg>