<svg width="64" height="64" xmlns="http://www.w3.org/2000/svg" xmlns:xlink="http://www.w3.org/1999/xlink">
  <defs/>
  <g>
    <path stroke="none" fill="#FFFFFF" d="M43 24 L43 41 39 41 39 33.95 39 33.85 39 28.95 36 28.95 36 27 39 24 43 24 M56 34 L56 48 Q56 56 48 56 L16 56 Q8 56 8 48 L8 16 Q8 8 16 8 L36.5 8 Q44.5 8.2 50.15 13.85 55.8 19.5 56 27.5 L56 32 56 32.95 56 34 M36.5 11 L16 11 Q11 11 11 16 L11 48 Q11 53 16 53 L48 53 Q53 53 53 48 L53 34 53 32.95 53 32 53 27.6 Q52.85 20.8 48 16 43.25 11.2 36.5 11 M19 24 L26 24 Q28.5 24 30.25 25.75 32 27.5 32 30 32 32.45 30.25 34.2 L30.2 34.25 29.45 34.9 32.5 41 28.5 41 26 36 23 36 23 41 19 41 19 24 M26 28 L23 28 23 32 26 32 Q26.8 32 27.35 31.45 L27.45 31.35 Q28 30.8 28 30 28 29.2 27.4 28.6 26.8 28 26 28"/>
  </g>
</svg>