<svg width="64" height="64" xmlns="http://www.w3.org/2000/svg" xmlns:xlink="http://www.w3.org/1999/xlink">
  <defs/>
  <g>
    <path stroke="none" fill="#FFFFFF" d="M11 43 L11 48 Q11 53 16 53 L48 53 Q53 53 53 48 L53 16 Q53 11 48 11 L16 11 Q11 11 11 16 L11 21 Q9.35 21.1 8.15 22.2 L8.05 22.3 8 22.35 8 16 Q8 8 16 8 L48 8 Q56 8 56 16 L56 48 Q56 56 48 56 L16 56 Q8 56 8 48 L8 41.65 8.05 41.7 8.15 41.75 Q9.35 42.9 11 43 M3.5 33.15 Q3 32.7 3 32 3 31.35 3.5 30.85 L10.15 24.45 Q10.5 24.1 11 24.05 L11.35 24 Q12.05 24 12.5 24.45 13 24.95 13 25.6 L13 38.4 Q13 39.1 12.5 39.55 L11.35 40 11 40 10.15 39.55 3.5 33.15"/>
    <path stroke="none" fill="#FFFFFF" fill-opacity="0" d="M3.5 33.15 L10.15 39.55 11 40 11.35 40 12.5 39.55 Q13 39.1 13 38.4 L13 25.6 Q13 24.95 12.5 24.45 12.05 24 11.35 24 L11 24.05 Q10.5 24.1 10.15 24.45 L3.5 30.85 Q3 31.35 3 32 3 32.7 3.5 33.15 M11 43 Q9.35 42.9 8.15 41.75 L8.05 41.7 8 41.65 1.4 35.3 Q0 34 0 32 -0.05 30.15 1.35 28.7 L1.4 28.7 8 22.35 8.05 22.3 8.15 22.2 Q9.35 21.1 11 21 L11.35 21 Q13.35 21 14.6 22.3 16.05 23.75 16 25.6 L16 38.4 Q16 40.45 14.5 41.75 13.25 43 11.35 43 L11 43"/>
  </g>
</svg>