<svg width="64" height="64" xmlns="http://www.w3.org/2000/svg" xmlns:xlink="http://www.w3.org/1999/xlink">
  <defs/>
  <g>
    <path stroke="none" fill="#FFFFFF" d="M43 24 L39 24 36 27 36 28.95 39 28.95 39 33.85 39 33.95 39 41 43 41 43 24 M56 34 L56 48 Q56 56 48 56 L16 56 Q8 56 8 48 L8 16 Q8 8 16 8 L36.5 8 Q44.5 8.2 50.15 13.85 55.8 19.5 56 27.5 L56 32 56 32.95 56 34 M19 24 L19 41 23 41 23 36 26 36 28.5 41 32.5 41 29.45 34.9 30.2 34.25 30.25 34.2 Q32 32.45 32 30 32 27.5 30.25 25.75 28.5 24 26 24 L19 24 M26 28 Q26.8 28 27.4 28.6 28 29.2 28 30 28 30.8 27.45 31.35 L27.35 31.45 Q26.8 32 26 32 L23 32 23 28 26 28"/>
  </g>
</svg>