<svg width="64" height="64" xmlns="http://www.w3.org/2000/svg" xmlns:xlink="http://www.w3.org/1999/xlink">
  <defs/>
  <g>
    <path stroke="none" fill="#FFFFFF" d="M43 53 L48 53 Q53 53 53 48 L53 16 Q53 11 48 11 L16 11 Q11 11 11 16 L11 48 Q11 53 16 53 L21 53 Q21.1 54.65 22.25 55.85 L22.3 55.95 22.35 56 16 56 Q8 56 8 48 L8 16 Q8 8 16 8 L48 8 Q56 8 56 16 L56 48 Q56 56 48 56 L41.65 56 41.7 55.95 41.8 55.85 Q42.9 54.65 43 53 M25 23 L34.2 23 Q35.75 23.05 37 23.8 L38.2 24.7 38.25 24.75 Q40 26.5 40 29 40 31.45 38.25 33.2 L38.2 33.25 38.1 33.35 40 41 36 41 34.5 35 34 35 28 35 28 41 24 41 24 24 25 23 M28 27 L28 31 34 31 Q34.8 31 35.35 30.45 L35.45 30.35 Q36 29.8 36 29 36 28.15 35.45 27.6 L35.4 27.6 Q34.8 27 34 27 L28 27 M30.85 60.5 L24.45 53.85 Q24.1 53.5 24.05 53 L24 52.65 Q24 51.95 24.45 51.5 24.9 51 25.6 51 L38.4 51 Q39.05 51 39.55 51.5 40 51.95 40 52.65 L40 53 39.55 53.85 33.15 60.5 Q32.65 61 32 61 31.3 61 30.85 60.5"/>
    <path stroke="none" fill="#FFFFFF" fill-opacity="0" d="M30.85 60.5 Q31.3 61 32 61 32.65 61 33.15 60.5 L39.55 53.85 40 53 40 52.65 Q40 51.95 39.55 51.5 39.05 51 38.4 51 L25.6 51 Q24.9 51 24.45 51.5 24 51.95 24 52.65 L24.05 53 Q24.1 53.5 24.45 53.85 L30.85 60.5 M43 53 Q42.9 54.65 41.8 55.85 L41.7 55.95 41.65 56 35.3 62.6 35.3 62.65 Q33.85 64.05 32 64 30 64 28.7 62.6 L22.35 56 22.3 55.95 22.25 55.85 Q21.1 54.65 21 53 L21 52.65 Q21 50.75 22.25 49.5 23.55 48 25.6 48 L38.4 48 Q40.25 47.95 41.7 49.4 43 50.65 43 52.65 L43 53"/>
  </g>
</svg>