<svg width="64" height="64" xmlns="http://www.w3.org/2000/svg" xmlns:xlink="http://www.w3.org/1999/xlink">
  <defs/>
  <g>
    <path stroke="none" fill="#FFFFFF" d="M22.9 22 L41.1 22 Q45.6 22 48.8 24.9 52 27.85 52 32 52 36.1 48.8 39.05 45.6 42 41.1 42 L22.9 42 Q18.4 42 15.2 39.05 12 36.1 12 32 12 27.85 15.2 24.9 18.4 22 22.9 22 M17.25 27.15 L17.25 27.1 Q15 29.15 15 32 15 34.8 17.25 36.85 19.6 39 22.9 39 L41.1 39 Q44.4 39 46.8 36.85 49 34.8 49 32 49 29.15 46.8 27.1 L46.8 27.15 Q44.4 25 41.1 25 L22.9 25 Q19.6 25 17.25 27.15"/>
    <path stroke="none" fill="#FFFFFF" d="M24 27 L35 27 35 29 26 29 26 32 28 32 28 34 24 34 24 27 M29 30 L40 30 40 37 29 37 29 30"/>
  </g>
</svg>