<svg width="64" height="64" xmlns="http://www.w3.org/2000/svg" xmlns:xlink="http://www.w3.org/1999/xlink">
  <defs/>
  <g>
    <path stroke="none" fill="#FFFFFF" d="M41.5 28.4 Q42.25 29.15 41 30.45 L34 37 34 41 38.85 41 38.95 41 46 41 46 37 40 37 44.45 32.55 Q46.65 30.35 45.4 27 L44.4 25.65 44.35 25.6 Q42.75 24 40.5 24 L38.85 24 Q36.9 24.05 35.5 25.4 L35.4 25.5 Q34.35 26.6 34.1 28 L34 29 38 29 Q38 28.6 38.3 28.3 L38.85 28 38.95 28 40.5 28 Q41.1 28 41.5 28.4 M8 30 L8 16 Q8 8 16 8 L48 8 Q56 8 56 16 L56 48 Q56 56 48 56 L27.5 56 Q19.5 55.8 13.85 50.15 8.2 44.5 8 36.5 L8 32 8 31.05 8 30 M19 24 L19 41 31 41 31 37 23 37 23 24 19 24"/>
  </g>
</svg>