<svg width="64" height="64" xmlns="http://www.w3.org/2000/svg" xmlns:xlink="http://www.w3.org/1999/xlink">
  <defs/>
  <g>
    <path stroke="none" fill="#FFFFFF" d="M27.5 53 L48 53 Q53 53 53 48 L53 16 Q53 11 48 11 L16 11 Q11 11 11 16 L11 30 11 31.05 11 32 11 36.4 Q11.15 43.2 16 48 20.75 52.8 27.5 53 M8 30 L8 16 Q8 8 16 8 L48 8 Q56 8 56 16 L56 48 Q56 56 48 56 L27.5 56 Q19.5 55.8 13.85 50.15 8.2 44.5 8 36.5 L8 32 8 31.05 8 30 M41.5 28.4 Q41.1 28 40.5 28 L38.95 28 38.85 28 38.3 28.3 Q38 28.6 38 29 L34 29 34.1 28 Q34.35 26.6 35.4 25.5 L35.5 25.4 Q36.9 24.05 38.85 24 L40.5 24 Q42.75 24 44.35 25.6 L44.4 25.65 45.4 27 Q46.65 30.35 44.45 32.55 L40 37 46 37 46 41 38.95 41 38.85 41 34 41 34 37 41 30.45 Q42.25 29.15 41.5 28.4 M19 24 L23 24 23 37 31 37 31 41 19 41 19 24"/>
  </g>
</svg>