<svg width="64" height="64" xmlns="http://www.w3.org/2000/svg" xmlns:xlink="http://www.w3.org/1999/xlink">
  <defs/>
  <g>
    <path stroke="none" fill="#FFFFFF" d="M20 20 L44 20 Q48.95 20 52.45 23.5 56 27.05 56 32 56 36.95 52.45 40.45 48.95 44 44 44 L20 44 Q15.05 44 11.5 40.45 8 36.95 8 32 8 27.05 11.5 23.5 15.05 20 20 20 M24.15 34.9 L25.4 34.9 25.4 30.15 27.2 30.15 27.2 29.1 22.35 29.1 22.35 30.15 24.15 30.15 24.15 34.9 M36.5 30.5 L37.35 32.8 35.7 32.8 36.5 30.5 M32.2 31.45 L29.8 31.45 29.8 30.15 32.55 30.15 32.55 29.1 28.55 29.1 28.55 34.9 32.55 34.9 32.55 33.85 29.8 33.85 29.8 32.5 32.2 32.5 32.2 31.45 M35.35 33.8 L37.65 33.8 38.1 34.9 39.45 34.9 37.15 29.1 35.9 29.1 33.65 34.9 34.95 34.9 35.35 33.8 M21.25 29.55 L20.45 29.2 19.25 29 Q18.3 29 17.7 29.45 17.1 29.9 17.1 30.7 17.1 31.4 17.55 31.8 17.9 32.15 18.75 32.4 L19.75 32.75 Q20.1 32.95 20.1 33.25 L19.85 33.7 19.05 33.9 Q18.2 33.9 17.4 33.45 L17 34.5 Q17.9 35 19.1 35 L20.75 34.55 Q21.4 34.05 21.4 33.15 21.4 32.55 21 32.15 20.7 31.85 19.9 31.6 L18.8 31.2 Q18.4 31 18.4 30.65 18.4 30.35 18.65 30.2 L19.3 30.05 20.05 30.15 20.7 30.5 21.25 29.55 M43.5 34.75 L44.2 34.75 45.8 31.35 45.8 34.9 47 34.9 47 29.1 45.8 29.1 43.9 33.3 41.9 29.1 40.7 29.1 40.7 34.9 41.9 34.9 41.9 31.4 43.5 34.75"/>
  </g>
</svg>