<svg width="64" height="64" xmlns="http://www.w3.org/2000/svg" xmlns:xlink="http://www.w3.org/1999/xlink">
  <defs/>
  <g>
    <path stroke="none" fill="#FFFFFF" d="M16 8 L48 8 Q56 8 56 16 L56 48 Q56 56 48 56 L16 56 Q8 56 8 48 L8 16 Q8 8 16 8 M42.5 36.6 Q42.1 37 41.5 37 L38.95 37 Q38.6 37 38.3 36.7 38 36.4 38 36 L34 36 34.1 37 Q34.35 38.4 35.4 39.5 L35.5 39.6 Q36.9 40.95 38.85 41 L41.5 41 Q43.75 41 45.35 39.4 L45.4 39.35 Q46.8 37.95 47 36 L47 35.5 Q47 33.2 45.4 31.6 43.8 30 41.5 30 L38 30 38 28 47 28 47 24 34 24 34 34 41.5 34 Q42.1 34 42.55 34.45 43 34.9 43 35.5 43 36.1 42.6 36.5 L42.5 36.6 M24 28 Q24.8 28 25.4 28.6 26 29.2 26 30 26 30.8 25.45 31.35 L25.35 31.45 Q24.8 32 24 32 L21 32 21 28 24 28 M17 24 L17 41 21 41 21 36 24 36 26.5 41 30.5 41 27.45 34.9 28.2 34.25 28.25 34.2 Q30 32.45 30 30 30 27.5 28.25 25.75 26.5 24 24 24 L17 24"/>
  </g>
</svg>