<svg width="64" height="64" xmlns="http://www.w3.org/2000/svg" xmlns:xlink="http://www.w3.org/1999/xlink">
  <defs/>
  <g>
    <path stroke="none" fill="#FFFFFF" fill-opacity="0" d="M50.85 15.35 Q51.65 15 52.65 15 54.5 15 55.85 16.2 L55.95 16.3 62.6 22.7 62.65 22.7 Q64.05 24.15 64 26 64 28 62.6 29.3 L55.95 35.7 55.85 35.75 55 36.4 Q53.95 37 52.65 37 50.75 37 49.5 35.75 L49.05 35.3 Q48 34.1 48 32.4 L48 26.05 48 25.95 48 19.6 48.1 18.55 Q48.4 17.3 49.4 16.3 50 15.65 50.85 15.35 M60.5 27.15 Q61 26.7 61 26 61 25.35 60.5 24.85 L53.85 18.45 Q53.5 18.15 53.1 18.05 L52.65 18 Q51.95 18 51.5 18.45 51 18.95 51 19.6 L51 32.4 Q51 33.1 51.5 33.55 51.95 34 52.65 34 L53.85 33.55 60.5 27.15"/>
    <path stroke="none" fill="#FFFFFF" d="M60.5 27.15 L53.85 33.55 52.65 34 Q51.95 34 51.5 33.55 51 33.1 51 32.4 L51 19.6 Q51 18.95 51.5 18.45 51.95 18 52.65 18 L53.1 18.05 Q53.5 18.15 53.85 18.45 L60.5 24.85 Q61 25.35 61 26 61 26.7 60.5 27.15 M55 36.4 Q53.35 40.8 48.95 44.3 46.2 46.55 43 47.9 L43 50 Q43 52.5 39.75 54.25 36.55 56 32 56 27.5 56 24.25 54.25 21 52.5 21 50 L21 47.9 Q17.8 46.55 15 44.3 8 38.7 8 30.65 L8 30.1 8 29.55 8 29 8 28.5 8 28.1 8 27.95 8 27.4 Q8 19.4 15 13.65 22.05 8 32 8 42 8 48.95 13.65 L50.85 15.35 Q50 15.65 49.4 16.3 48.4 17.3 48.1 18.55 L46.55 17.1 Q40.55 12.3 32 12.3 23.45 12.3 17.4 17.1 L17.45 17.1 Q12.15 21.4 12 27.4 12.1 33.45 17.4 37.65 23.45 42.5 32 42.5 40.55 42.5 46.55 37.7 L46.6 37.65 49.05 35.3 49.5 35.75 Q50.75 37 52.65 37 53.95 37 55 36.4 M48 25.95 L48 26.05 Q47.7 30 44.2 32.9 L44 33.05 Q39.05 37 32 37 24.85 37 19.8 32.95 L19.7 32.9 Q16.3 30 16 26.1 L16 26.05 Q16.25 22 19.85 19 L19.95 18.9 Q25 15 32 15 39.15 15 44.2 19 L44.15 19 Q47.7 22 48 25.95 M31 30 L31 20 28 20 28 33 37 33 37 30 31 30"/>
  </g>
</svg>