<svg width="64" height="64" xmlns="http://www.w3.org/2000/svg" xmlns:xlink="http://www.w3.org/1999/xlink">
  <defs/>
  <g>
    <path stroke="none" fill="#FFFFFF" d="M56 30 L56 31.05 56 32 56 36.5 Q55.8 44.5 50.15 50.15 44.5 55.8 36.5 56 L16 56 Q8 56 8 48 L8 16 Q8 8 16 8 L48 8 Q56 8 56 16 L56 30 M41.5 28.4 Q42.25 29.15 41 30.45 L34 37 34 41 38.85 41 38.95 41 46 41 46 37 40 37 44.45 32.55 Q46.65 30.35 45.4 27 L44.4 25.65 44.35 25.6 Q42.75 24 40.5 24 L38.85 24 Q36.9 24.05 35.5 25.4 L35.4 25.5 Q34.35 26.6 34.1 28 L34 29 38 29 Q38 28.6 38.3 28.3 L38.85 28 38.95 28 40.5 28 Q41.1 28 41.5 28.4 M18 24 L18 41 22 41 22 36 25 36 27.5 41 31.5 41 28.45 34.9 29.2 34.25 29.25 34.2 Q31 32.45 31 30 31 27.5 29.25 25.75 27.5 24 25 24 L18 24 M25 28 Q25.8 28 26.4 28.6 27 29.2 27 30 27 30.8 26.45 31.35 L26.35 31.45 Q25.8 32 25 32 L22 32 22 28 25 28"/>
  </g>
</svg>