<svg width="64" height="64" xmlns="http://www.w3.org/2000/svg" xmlns:xlink="http://www.w3.org/1999/xlink">
  <defs/>
  <g>
    <path stroke="none" fill="#FFFFFF" d="M47 26 Q47 25.2 46.4 24.6 45.85 24 45 24 44.2 24 43.6 24.6 43 25.2 43 26 43 26.9 43.6 27.4 44.2 28 45 28 45.85 28 46.4 27.4 47 26.9 47 26 M20 20 L44 20 Q48.95 20 52.45 23.5 56 27.05 56 32 56 36.95 52.45 40.45 48.95 44 44 44 L20 44 Q15.05 44 11.5 40.45 9.1 38.05 8.35 35 8 33.55 8 32 8 30.45 8.35 29 9.1 25.95 11.5 23.5 15.05 20 20 20 M29 38 Q29 36.75 28.1 35.85 27.3 35 26 35 24.75 35 23.85 35.85 23 36.75 23 38 23 39.25 23.85 40.1 24.75 41 26 41 27.3 41 28.1 40.1 29 39.25 29 38 M41 38 Q41 36.75 40.1 35.85 39.3 35 38 35 36.75 35 35.85 35.85 35 36.75 35 38 35 39.25 35.85 40.1 36.75 41 38 41 39.3 41 40.1 40.1 41 39.25 41 38 M14 30 L14.3 30.7 Q14.6 31 15 31 L17 31 17 33 Q17 33.4 17.3 33.7 L18 34 20 34 20.7 33.7 21 33 21 31 23 31 23.7 30.7 24 30 24 28 23.7 27.3 Q23.4 27 23 27 L21 27 21 25 20.7 24.3 Q20.4 24 20 24 L18 24 Q17.6 24 17.3 24.3 17 24.6 17 25 L17 27 15 27 Q14.6 27 14.3 27.3 14 27.6 14 28 L14 30 M47 34 Q47 33.2 46.4 32.6 45.85 32 45 32 44.2 32 43.6 32.6 43 33.2 43 34 43 34.9 43.6 35.4 44.2 36 45 36 45.85 36 46.4 35.4 47 34.9 47 34 M43 30 Q43 29.2 42.4 28.6 41.85 28 41 28 40.2 28 39.6 28.6 39 29.2 39 30 39 30.9 39.6 31.4 40.2 32 41 32 41.85 32 42.4 31.4 43 30.9 43 30 M51 30 Q51 29.2 50.4 28.6 49.85 28 49 28 48.2 28 47.6 28.6 47 29.2 47 30 47 30.9 47.6 31.4 48.2 32 49 32 49.85 32 50.4 31.4 51 30.9 51 30"/>
  </g>
</svg>