<svg width="64" height="64" xmlns="http://www.w3.org/2000/svg" xmlns:xlink="http://www.w3.org/1999/xlink">
  <defs/>
  <g>
    <path stroke="none" fill="#FFFFFF" d="M29 33 Q29 31.75 28.1 30.85 27.3 30 26 30 24.75 30 23.85 30.85 23 31.75 23 33 23 34.25 23.85 35.1 24.75 36 26 36 27.3 36 28.1 35.1 29 34.25 29 33 M41 33 Q41 31.75 40.1 30.85 39.3 30 38 30 36.75 30 35.85 30.85 35 31.75 35 33 35 34.25 35.85 35.1 36.75 36 38 36 39.3 36 40.1 35.1 41 34.25 41 33 M14 25 L14.3 25.7 Q14.6 26 15 26 L17 26 17 28 Q17 28.4 17.3 28.7 L18 29 20 29 20.7 28.7 21 28 21 26 23 26 23.7 25.7 24 25 24 23 23.7 22.3 Q23.4 22 23 22 L21 22 21 20 20.7 19.3 Q20.4 19 20 19 L18 19 Q17.6 19 17.3 19.3 17 19.6 17 20 L17 22 15 22 Q14.6 22 14.3 22.3 14 22.6 14 23 L14 25 M47 29 Q47 28.2 46.4 27.6 45.85 27 45 27 44.2 27 43.6 27.6 43 28.2 43 29 43 29.9 43.6 30.4 44.2 31 45 31 45.85 31 46.4 30.4 47 29.9 47 29 M8 44 L8 27 Q8 22.05 11.5 18.5 15.05 15 20 15 L44 15 Q48.95 15 52.45 18.5 56 22.05 56 27 L56 44 Q56.1 48.15 52 47.95 49.65 48.55 45.3 38.95 L44 39 20 39 18.75 38.95 Q14.35 48.55 12 47.95 7.9 48.15 8 44 M51 25 Q51 24.2 50.4 23.6 49.85 23 49 23 48.2 23 47.6 23.6 47 24.2 47 25 47 25.9 47.6 26.4 48.2 27 49 27 49.85 27 50.4 26.4 51 25.9 51 25 M43 25 Q43 24.2 42.4 23.6 41.85 23 41 23 40.2 23 39.6 23.6 39 24.2 39 25 39 25.9 39.6 26.4 40.2 27 41 27 41.85 27 42.4 26.4 43 25.9 43 25 M47 21 Q47 20.2 46.4 19.6 45.85 19 45 19 44.2 19 43.6 19.6 43 20.2 43 21 43 21.9 43.6 22.4 44.2 23 45 23 45.85 23 46.4 22.4 47 21.9 47 21"/>
  </g>
</svg>