<svg width="64" height="64" xmlns="http://www.w3.org/2000/svg" xmlns:xlink="http://www.w3.org/1999/xlink">
  <defs/>
  <g>
    <path stroke="none" fill="#FFFFFF" d="M46 8 L52 14 52 16 48 16 48 24 44 24 44 16 40 16 40 14 46 8 M46 56 L40 50 40 48 44 48 44 40 48 40 48 48 52 48 52 50 46 56 M16 8 L32 8 Q36 8 36 12 L36 52 Q36 56 32 56 L16 56 Q12 56 12 52 L12 12 Q12 8 16 8 M32 11 L16 11 Q15 11 15 12 L15 52 Q15 53 16 53 L32 53 Q33 53 33 52 L33 12 Q33 11 32 11 M22 17 L26 17 26 21 30 21 30 25 26 25 26 29 22 29 22 25 18 25 18 21 22 21 22 17 M27 37 Q27 38.3 26.1 39.1 25.3 40 24 40 22.75 40 21.85 39.1 21 38.3 21 37 21 35.75 21.85 34.85 22.75 34 24 34 25.3 34 26.1 34.85 27 35.75 27 37 M26 46 Q26 46.9 25.4 47.4 24.85 48 24 48 23.15 48 22.55 47.4 22 46.9 22 46 22 45.2 22.55 44.6 23.15 44 24 44 24.85 44 25.4 44.6 26 45.2 26 46"/>
  </g>
</svg>