<svg width="64" height="64" xmlns="http://www.w3.org/2000/svg" xmlns:xlink="http://www.w3.org/1999/xlink">
  <defs/>
  <g>
    <path stroke="none" fill="#FFFFFF" d="M41.2 20 L38.35 22.85 35.5 20 32.7 22.8 35.55 25.65 32.7 28.5 35.5 31.3 38.35 28.45 41.2 31.3 44 28.5 41.15 25.65 44 22.8 41.2 20 M43.3 9.45 L54.6 20.7 Q57.4 23.55 54.65 26.35 L26.4 54.6 Q23.55 57.45 20.7 54.6 L9.4 43.3 Q6.6 40.45 9.4 37.6 L37.65 9.4 Q40.45 6.6 43.3 9.45 M23.55 43.25 Q24.1 42.7 24.15 41.85 24.15 41.05 23.55 40.45 22.95 39.85 22.15 39.8 21.3 39.9 20.75 40.45 20.1 41.1 20.15 41.8 20.15 42.7 20.75 43.3 21.35 43.9 22.15 43.85 22.9 43.9 23.55 43.25 M30.6 37.6 Q31.45 36.75 31.5 35.55 31.5 34.35 30.65 33.45 29.75 32.55 28.55 32.5 27.3 32.5 26.4 33.4 25.5 34.3 25.5 35.5 25.5 36.75 26.4 37.6 27.3 38.5 28.5 38.5 29.7 38.5 30.6 37.6 M12 12.05 L20.6 12 22 13.45 19.15 16.3 22 19.1 19.15 21.95 16.25 19.1 13.45 22 12 20.55 12 12.05 M52 51.95 L43.45 52 42 50.55 44.9 47.65 42 44.85 44.9 42.05 47.75 44.85 50.6 42 52 43.45 52 51.95"/>
  </g>
</svg>