<svg width="64" height="64" xmlns="http://www.w3.org/2000/svg" xmlns:xlink="http://www.w3.org/1999/xlink">
  <defs/>
  <g>
    <path stroke="none" fill="#FFFFFF" d="M46 8 L52 14 52 16 48 16 48 24 44 24 44 16 40 16 40 14 46 8 M46 56 L40 50 40 48 44 48 44 40 48 40 48 48 52 48 52 50 46 56 M16 8 L32 8 Q36 8 36 12 L36 52 Q36 56 32 56 L16 56 Q12 56 12 52 L12 12 Q12 8 16 8 M26 46 Q26 45.2 25.4 44.6 24.85 44 24 44 23.15 44 22.55 44.6 22 45.2 22 46 22 46.9 22.55 47.4 23.15 48 24 48 24.85 48 25.4 47.4 26 46.9 26 46 M27 37 Q27 35.75 26.1 34.85 25.3 34 24 34 22.75 34 21.85 34.85 21 35.75 21 37 21 38.3 21.85 39.1 22.75 40 24 40 25.3 40 26.1 39.1 27 38.3 27 37 M22 17 L22 21 18 21 18 25 22 25 22 29 26 29 26 25 30 25 30 21 26 21 26 17 22 17"/>
  </g>
</svg>