<svg width="64" height="64" xmlns="http://www.w3.org/2000/svg" xmlns:xlink="http://www.w3.org/1999/xlink">
  <defs/>
  <g>
    <path stroke="none" fill="#FFFFFF" d="M30 17 L30 21 26 21 26 25 30 25 30 29 34 29 34 25 38 25 38 21 34 21 34 17 30 17 M24 8 L40 8 Q44 8 44 12 L44 52 Q44 56 40 56 L24 56 Q20 56 20 52 L20 12 Q20 8 24 8 M34 46 Q34 45.2 33.4 44.6 32.85 44 32 44 31.15 44 30.55 44.6 30 45.2 30 46 30 46.9 30.55 47.4 31.15 48 32 48 32.85 48 33.4 47.4 34 46.9 34 46 M35 37 Q35 35.75 34.1 34.85 33.3 34 32 34 30.75 34 29.85 34.85 29 35.75 29 37 29 38.3 29.85 39.1 30.75 40 32 40 33.3 40 34.1 39.1 35 38.3 35 37"/>
  </g>
</svg>