<svg width="64" height="64" xmlns="http://www.w3.org/2000/svg" xmlns:xlink="http://www.w3.org/1999/xlink">
  <defs/>
  <g>
    <path stroke="none" fill="#FFFFFF" d="M56 32 L50 38 48 38 48 34 46 34 46 30 48 30 48 26 50 26 56 32 M30 17 L34 17 34 21 38 21 38 25 34 25 34 29 30 29 30 25 26 25 26 21 30 21 30 17 M40 11 L24 11 Q23 11 23 12 L23 52 Q23 53 24 53 L40 53 Q41 53 41 52 L41 12 Q41 11 40 11 M24 8 L40 8 Q44 8 44 12 L44 52 Q44 56 40 56 L24 56 Q20 56 20 52 L20 12 Q20 8 24 8 M8 32 L14 26 16 26 16 30 18 30 18 34 16 34 16 38 14 38 8 32 M35 37 Q35 38.3 34.1 39.1 33.3 40 32 40 30.75 40 29.85 39.1 29 38.3 29 37 29 35.75 29.85 34.85 30.75 34 32 34 33.3 34 34.1 34.85 35 35.75 35 37 M34 46 Q34 46.9 33.4 47.4 32.85 48 32 48 31.15 48 30.55 47.4 30 46.9 30 46 30 45.2 30.55 44.6 31.15 44 32 44 32.85 44 33.4 44.6 34 45.2 34 46"/>
  </g>
</svg>