<svg width="64" height="64" xmlns="http://www.w3.org/2000/svg" xmlns:xlink="http://www.w3.org/1999/xlink">
  <defs/>
  <g>
    <path stroke="none" fill="#FFFFFF" fill-opacity="0" d="M43 10.1 L43 10.35 Q43 12.35 41.7 13.6 L41.3 14 Q40 15.05 38.4 15 L32.8 15 31.2 15 25.6 15 Q23.9 15 22.75 14 L22.25 13.5 Q21 12.25 21 10.35 L21 10.1 Q21.1 8.4 22.25 7.15 L22.3 7.05 28.7 0.4 Q30 -1 32 -1 33.85 -1.05 35.3 0.35 L35.3 0.4 41.7 7.05 41.8 7.15 Q42.9 8.4 43 10.1 M30.85 2.5 L24.45 9.15 Q24 9.65 24 10.35 24 11.05 24.45 11.5 24.9 12 25.6 12 L38.4 12 Q39.05 12 39.55 11.5 40 11.05 40 10.35 40 9.65 39.55 9.15 L33.15 2.5 Q32.65 2 32 2 31.3 2 30.85 2.5"/>
    <path stroke="none" fill="#FFFFFF" d="M30.85 2.5 Q31.3 2 32 2 32.65 2 33.15 2.5 L39.55 9.15 Q40 9.65 40 10.35 40 11.05 39.55 11.5 39.05 12 38.4 12 L25.6 12 Q24.9 12 24.45 11.5 24 11.05 24 10.35 24 9.65 24.45 9.15 L30.85 2.5 M41.3 14 L41.7 13.6 Q43 12.35 43 10.35 L43 10.1 Q46.2 11.4 48.95 13.65 56 19.4 56 27.4 L56 27.95 56 28.1 56 28.5 56 29 56 29.55 56 30.1 56 30.65 Q56 38.7 48.95 44.3 46.2 46.55 43 47.9 L43 50 Q43 52.5 39.75 54.25 36.55 56 32 56 27.5 56 24.25 54.25 21 52.5 21 50 L21 47.9 Q17.8 46.55 15 44.3 8 38.7 8 30.65 L8 30.1 8 29.55 8 29 8 28.5 8 28.1 8 27.95 8 27.4 Q8 19.4 15 13.65 17.8 11.4 21 10.1 L21 10.35 Q21 12.25 22.25 13.5 L22.75 14 Q19.85 15.15 17.4 17.1 L17.45 17.1 Q12.15 21.4 12 27.4 12.1 33.45 17.4 37.65 23.45 42.5 32 42.5 40.55 42.5 46.55 37.7 L46.6 37.65 Q51.9 33.4 52 27.4 51.85 21.4 46.55 17.1 44.1 15.15 41.3 14 M31.2 15 L32.8 15 Q39.45 15.25 44.2 19 L44.15 19 Q47.7 22 48 25.95 L48 26.05 Q47.7 30 44.2 32.9 L44 33.05 Q39.05 37 32 37 24.85 37 19.8 32.95 L19.7 32.9 Q16.3 30 16 26.1 L16 26.05 Q16.25 22 19.85 19 L19.95 18.9 Q24.7 15.2 31.2 15 M30 27 L30 23 33 23 Q33.85 23 34.4 23.55 35 24.15 35 25 35 25.85 34.4 26.4 33.85 27 33.05 27 L30 27 M33 30 L34 29.9 34 30 35 33 38 33 36.5 28.5 Q38 27.05 38 25 38 22.95 36.5 21.45 35.05 20 33 20 L27 20 27 33 30 33 30 30 33 30"/>
  </g>
</svg>