<svg width="64" height="64" xmlns="http://www.w3.org/2000/svg" xmlns:xlink="http://www.w3.org/1999/xlink">
  <defs/>
  <g>
    <path stroke="none" fill="#FFFFFF" d="M41.2 20 L38.35 22.85 35.5 20 32.7 22.8 35.55 25.65 32.7 28.5 35.5 31.3 38.35 28.45 41.2 31.3 44 28.5 41.15 25.65 44 22.8 41.2 20 M43.3 9.45 L54.6 20.7 Q57.4 23.55 54.65 26.35 L26.4 54.6 Q23.55 57.45 20.7 54.6 L9.4 43.3 Q6.6 40.45 9.4 37.6 L37.65 9.4 Q40.45 6.6 43.3 9.45 M23.55 43.25 Q24.1 42.7 24.15 41.85 24.15 41.05 23.55 40.45 22.95 39.85 22.15 39.8 21.3 39.9 20.75 40.45 20.1 41.1 20.15 41.8 20.15 42.7 20.75 43.3 21.35 43.9 22.15 43.85 22.9 43.9 23.55 43.25 M30.6 37.6 Q31.45 36.75 31.5 35.55 31.5 34.35 30.65 33.45 29.75 32.55 28.55 32.5 27.3 32.5 26.4 33.4 25.5 34.3 25.5 35.5 25.5 36.75 26.4 37.6 27.3 38.5 28.5 38.5 29.7 38.5 30.6 37.6 M8.4 25.75 Q7.2 21.2 9.6 17.1 11.95 13.05 16.6 11.8 L21.2 11.55 20.25 10.5 Q19.8 9.95 19.9 9.4 19.95 8.7 20.35 8.35 20.9 7.9 21.55 8 22.15 8 22.55 8.45 L27.6 14.2 27.95 14.95 27.85 15.85 27.3 16.5 21 20.4 19.8 20.55 Q19.15 20.4 18.8 19.85 18.45 19.35 18.6 18.75 18.75 18.1 19.35 17.8 L21.05 16.7 Q19.1 16.5 17.95 16.7 15.35 17.35 14.05 19.6 12.75 21.9 13.4 24.4 L13.4 24.45 Q13.85 25.4 13.4 26.4 13 27.35 12.05 27.8 11.1 28.2 10.05 27.8 9.15 27.4 8.65 26.4 L8.4 25.75 M55.55 38.25 Q56.8 42.8 54.4 46.85 52.05 50.95 47.45 52.2 L42.8 52.4 43.8 53.5 Q44.2 53.95 44.1 54.6 44.05 55.25 43.6 55.65 43.15 56.05 42.5 56 41.85 55.95 41.45 55.5 L36.4 49.75 36 49 Q35.95 48.5 36.15 48.1 36.3 47.7 36.75 47.45 L43.1 43.6 44.2 43.45 Q44.85 43.55 45.15 44.1 45.5 44.65 45.35 45.25 L44.65 46.2 43 47.25 Q44.9 47.5 46.1 47.25 48.65 46.55 49.9 44.3 51.25 42.05 50.55 39.55 50.15 38.55 50.55 37.6 50.95 36.6 51.95 36.2 L53.95 36.15 Q54.9 36.6 55.3 37.55 L55.55 38.25"/>
  </g>
</svg>