<svg width="64" height="64" xmlns="http://www.w3.org/2000/svg" xmlns:xlink="http://www.w3.org/1999/xlink">
  <defs/>
  <g>
    <path stroke="none" fill="#FFFFFF" d="M25.45 14.35 Q31.8 21.05 32.75 31.95 33.5 38.4 32 41.4 L31.75 41.85 30 43.45 30 44 Q30 47.3 32.35 49.65 34.7 52 38 52 41.3 52 43.65 49.65 46 47.3 46 44 L46 24 45.9 23.9 42.9 20.9 Q42 20 42 18.75 L42 14.85 Q42 13.9 42.55 13.15 43.1 12.35 44 12.05 L44 8 52 8 52 12 52.05 12.05 Q52.9 12.35 53.45 13.15 54 13.9 54 14.85 L54 18.75 Q54 20 53.15 20.9 L50.15 23.9 50 24.05 50 44 Q50 48.95 46.5 52.45 L46.45 52.5 Q42.95 56 38 56 33 56 29.5 52.5 26 49 26 44 L26 43.6 25.6 43.3 Q19.55 38.2 17 29.1 L17 29 Q15.85 25.2 13.55 22.95 10.65 21 9.6 17.7 8.6 14.45 9.25 11.4 9.9 7.5 13.7 8.05 12.9 9.25 13 10.65 12.8 13.3 15.6 15.05 L15.9 15.25 Q16.15 16.2 17 17.05 18.3 18.35 20 18.3 21.8 18.3 23.1 17.05 23.9 16.2 24.2 15.25 L24.55 15 24.5 15.05 25.45 14.35 M24 10.65 Q24 11.55 23.2 12.25 L22.85 12.5 21.35 13.15 21.35 13.95 Q21.35 14.5 20.95 14.9 20.55 15.3 20 15.3 19.5 15.3 19.1 14.9 18.7 14.5 18.7 13.95 L18.7 13.15 17.2 12.5 Q16 11.75 16 10.65 16 9.6 17.1 8.85 L17.2 8.75 Q18.35 8 20 8 21.7 8 22.85 8.75 24 9.55 24 10.65"/>
    <path stroke="none" fill="#FFFFFF" fill-opacity="0" d="M24 10.65 Q24 9.55 22.85 8.75 21.7 8 20 8 18.35 8 17.2 8.75 L17.1 8.85 Q16 9.6 16 10.65 16 11.75 17.2 12.5 L18.7 13.15 18.7 13.95 Q18.7 14.5 19.1 14.9 19.5 15.3 20 15.3 20.55 15.3 20.95 14.9 21.35 14.5 21.35 13.95 L21.35 13.15 22.85 12.5 23.2 12.25 Q24 11.55 24 10.65 M13.7 8.05 Q14.3 7.05 15.55 6.25 17.35 5 20 5 22.7 5 24.5 6.25 L24.6 6.3 Q27.15 8.1 27 10.65 27.1 12.8 25.45 14.35 L24.5 15.05 24.55 15 24.2 15.25 Q23.9 16.2 23.1 17.05 21.8 18.3 20 18.3 18.3 18.35 17 17.05 16.15 16.2 15.9 15.25 L15.6 15.05 Q12.8 13.3 13 10.65 12.9 9.25 13.7 8.05"/>
  </g>
</svg>