<svg width="64" height="64" xmlns="http://www.w3.org/2000/svg" xmlns:xlink="http://www.w3.org/1999/xlink">
  <defs/>
  <g>
    <path stroke="none" fill="#FFFFFF" d="M41.15 20.05 L43.95 22.85 41.15 25.65 44 28.5 41.15 31.35 38.3 28.5 35.5 31.3 32.7 28.5 35.5 25.7 32.7 22.85 35.55 20 38.35 22.85 41.15 20.05 M43.25 9.45 L54.55 20.75 Q57.4 23.55 54.6 26.35 L26.35 54.6 Q23.55 57.4 20.7 54.6 L9.4 43.3 Q6.6 40.5 9.4 37.7 L37.65 9.45 Q40.45 6.65 43.25 9.45 M12 12.1 L20.6 12.05 22 13.5 19.15 16.35 22 19.15 19.15 22 16.25 19.15 13.45 22.05 12 20.6 12 12.1 M52 52 L43.45 52.05 42 50.6 44.9 47.7 42 44.9 44.9 42.1 47.75 44.9 50.6 42.05 52 43.5 52 52 M52.45 22.85 L41.15 11.55 Q40.45 10.85 39.75 11.55 L11.5 39.8 Q10.8 40.5 11.5 41.2 L22.8 52.5 Q23.5 53.2 24.2 52.5 L52.45 24.25 Q53.15 23.55 52.45 22.85 M30.6 37.65 Q29.7 38.6 28.45 38.55 27.3 38.6 26.35 37.7 25.5 36.8 25.45 35.55 25.45 34.4 26.35 33.45 27.25 32.6 28.45 32.55 29.7 32.55 30.55 33.45 31.5 34.35 31.45 35.55 31.5 36.8 30.6 37.65 M23.5 43.3 Q22.85 43.95 22.1 43.9 21.3 43.9 20.7 43.3 20.1 42.7 20.1 41.9 20.05 41.15 20.7 40.5 21.25 39.95 22.1 39.9 22.9 39.9 23.5 40.5 24.1 41.1 24.1 41.9 24.05 42.75 23.5 43.3"/>
  </g>
</svg>