<svg width="64" height="64" xmlns="http://www.w3.org/2000/svg" xmlns:xlink="http://www.w3.org/1999/xlink">
  <defs/>
  <g>
    <path stroke="none" fill="#FFFFFF" d="M21.5 10 L42.5 10 Q50 10.25 50 18 L50 38 Q50 44.6 45.3 49.3 40.6 54 34 54 L30 54 Q23.4 54 18.7 49.3 14 44.6 14 38 L14 18 Q14 10.25 21.5 10 M42 13 L34 13 34 16.35 Q35.25 16.75 36.25 17.75 38 19.5 38 22 L38 28 47 28 47 18 Q47 13 42 13 M34.95 51 Q39.7 50.65 43.2 47.2 47 43.35 47 38 L47 31 37.95 31 Q37.65 32.85 36.25 34.25 34.55 35.95 32.15 36 L31.85 36 Q29.45 35.95 27.75 34.25 26.35 32.85 26.1 31 L17 31 17 38 Q17 43.35 20.85 47.2 24.3 50.65 29.1 51 30.3 52 32 52 33.6 52.05 34.95 51 M17 18 L17 28 26 28 26 22 Q26 19.5 27.75 17.75 28.75 16.75 30 16.35 L30 13 22 13 Q17 13 17 18 M30.85 48.5 L24.45 41.85 Q24 41.35 24 40.65 24 39.95 24.45 39.5 24.9 39 25.6 39 L38.4 39 Q39.05 39 39.55 39.5 40 39.95 40 40.65 40 41.35 39.55 41.85 L33.15 48.5 Q32.65 49 32 49 31.3 49 30.85 48.5"/>
    <path stroke="none" fill="#FFFFFF" fill-opacity="0" d="M30.85 48.5 Q31.3 49 32 49 32.65 49 33.15 48.5 L39.55 41.85 Q40 41.35 40 40.65 40 39.95 39.55 39.5 39.05 39 38.4 39 L25.6 39 Q24.9 39 24.45 39.5 24 39.95 24 40.65 24 41.35 24.45 41.85 L30.85 48.5 M32.15 36 L38.4 36 Q40.25 35.95 41.7 37.4 43 38.65 43 40.65 43 42.5 41.8 43.85 L41.7 43.95 35.3 50.6 35.3 50.65 34.95 51 Q33.6 52.05 32 52 30.3 52 29.1 51 L28.7 50.6 22.3 43.95 22.25 43.85 Q21 42.5 21 40.65 21 38.75 22.25 37.5 23.55 36 25.6 36 L31.85 36 32.15 36"/>
  </g>
</svg>