<svg width="64" height="64" xmlns="http://www.w3.org/2000/svg" xmlns:xlink="http://www.w3.org/1999/xlink">
  <defs/>
  <g>
    <path stroke="none" fill="#FFFFFF" fill-opacity="0" d="M21.2 10 Q21.5 9 22.25 8.15 L22.3 8.05 28.7 1.4 Q30 0 32 0 33.85 -0.05 35.3 1.35 L35.3 1.4 41.7 8.05 41.8 8.15 Q42.55 9 42.85 10 L43 11.35 Q43 13.35 41.7 14.6 40.25 16.05 38.4 16 L37.25 16 32.1 16 31.95 16 26.8 16 25.6 16 Q23.55 16 22.25 14.5 21 13.25 21 11.35 L21.2 10 M30.85 3.5 L24.45 10.15 Q24 10.65 24 11.35 24 12.05 24.45 12.5 24.9 13 25.6 13 L38.4 13 Q39.05 13 39.55 12.5 40 12.05 40 11.35 40 10.65 39.55 10.15 L33.15 3.5 Q32.65 3 32 3 31.3 3 30.85 3.5"/>
    <path stroke="none" fill="#FFFFFF" d="M30.85 3.5 Q31.3 3 32 3 32.65 3 33.15 3.5 L39.55 10.15 Q40 10.65 40 11.35 40 12.05 39.55 12.5 39.05 13 38.4 13 L25.6 13 Q24.9 13 24.45 12.5 24 12.05 24 11.35 24 10.65 24.45 10.15 L30.85 3.5 M21.2 10 L21 11.35 Q21 13.25 22.25 14.5 23.55 16 25.6 16 L26.8 16 Q26 17.35 26 19 L26 25 15 25 15 15 Q15 11.75 17.15 10.6 18.25 10 20 10 L21.2 10 M37.25 16 L38.4 16 Q40.25 16.05 41.7 14.6 43 13.35 43 11.35 L42.85 10 44 10 Q45.75 10 46.9 10.6 49 11.75 49 15 L49 25 38 25 38 19 Q38 17.35 37.25 16 M15 28 L26.1 28 Q26.35 29.85 27.75 31.25 29.5 33 32 33 34.5 33 36.25 31.25 37.65 29.85 37.95 28 L49 28 49 37.5 Q48.8 44.25 44 49 39.25 53.8 32.5 54 L31.5 54 Q24.75 53.8 19.95 49 15.2 44.25 15 37.5 L15 28"/>
    <path stroke="none" fill="#E73246" d="M31.95 16 L32.1 16 Q33.3 16.05 34.15 16.9 35 17.75 35 19 L35 27 34.85 28 34.15 29.15 Q33.25 30 32 30 30.75 30 29.9 29.15 29.4 28.65 29.2 28 L29 27 29 19 Q29 17.75 29.9 16.9 30.7 16.05 31.95 16"/>
  </g>
</svg>