<svg width="64" height="64" xmlns="http://www.w3.org/2000/svg" xmlns:xlink="http://www.w3.org/1999/xlink">
  <defs/>
  <g>
    <path stroke="none" fill="#FFFFFF" fill-opacity="0" d="M42.85 10.05 L43 11.35 42.75 13.05 41.7 14.6 Q40.25 16.05 38.4 16 L34 16 30 16 25.6 16 Q23.55 16 22.25 14.5 21.6 13.85 21.3 13.05 21 12.25 21 11.35 L21.2 10.05 Q21.5 9 22.25 8.15 L22.3 8.05 28.7 1.4 Q30 0 32 0 33.85 -0.05 35.3 1.35 L35.3 1.4 41.7 8.05 41.8 8.15 42.85 10.05 M25.55 13 L38.45 13 Q39.05 13 39.55 12.5 40 12.05 40 11.35 40 10.65 39.55 10.15 L33.15 3.5 Q32.65 3 32 3 31.3 3 30.85 3.5 L24.45 10.15 Q24 10.65 24 11.35 24 12.05 24.45 12.5 24.9 13 25.55 13"/>
    <path stroke="none" fill="#FFFFFF" d="M25.55 13 Q24.9 13 24.45 12.5 24 12.05 24 11.35 24 10.65 24.45 10.15 L30.85 3.5 Q31.3 3 32 3 32.65 3 33.15 3.5 L39.55 10.15 Q40 10.65 40 11.35 40 12.05 39.55 12.5 39.05 13 38.45 13 L25.55 13 M42.75 13.05 L43 11.35 42.85 10.05 Q50 10.4 50 18 L50 38 Q50 44.6 45.3 49.3 40.6 54 34 54 L30 54 Q23.4 54 18.7 49.3 14 44.6 14 38 L14 18 Q14 10.4 21.2 10.05 L21 11.35 Q21 12.25 21.3 13.05 17 13.35 17 18 L17 28 26 28 26 22 Q26 19.5 27.75 17.75 28.75 16.75 30 16.35 L30 16 34 16 34 16.35 Q35.25 16.75 36.25 17.75 38 19.5 38 22 L38 28 47 28 47 18 Q47 13.4 42.75 13.05 M47 38 L47 31 37.95 31 Q37.65 32.85 36.25 34.25 34.5 36 32 36 29.5 36 27.75 34.25 26.35 32.85 26.1 31 L17 31 17 38 Q17 43.35 20.85 47.2 24.65 51 30 51 L34 51 Q39.35 51 43.2 47.2 47 43.35 47 38"/>
  </g>
</svg>