<svg width="64" height="64" xmlns="http://www.w3.org/2000/svg" xmlns:xlink="http://www.w3.org/1999/xlink">
  <defs/>
  <g>
    <path stroke="none" fill="#FFFFFF" d="M21.5 10 L42.5 10 Q50 10.25 50 18 L50 38 Q50 44.6 45.3 49.3 40.6 54 34 54 L30 54 Q23.4 54 18.7 49.3 14 44.6 14 38 L14 18 Q14 10.25 21.5 10 M17 18 L17 28 26 28 26 22 Q26 19.5 27.75 17.75 28.75 16.75 30 16.35 L30 13 22 13 Q17 13 17 18 M47 38 L47 31 37.95 31 Q37.65 32.85 36.25 34.25 34.5 36 32 36 29.5 36 27.75 34.25 26.35 32.85 26.1 31 L17 31 17 38 Q17 43.35 20.85 47.2 24.65 51 30 51 L34 51 Q39.35 51 43.2 47.2 47 43.35 47 38 M29.9 19.9 Q29 20.75 29 22 L29 30 Q29 31.25 29.9 32.15 30.75 33 32 33 33.25 33 34.15 32.15 35 31.25 35 30 L35 22 Q35 20.75 34.15 19.9 33.25 19 32 19 30.75 19 29.9 19.9 M42 13 L34 13 34 16.35 Q35.25 16.75 36.25 17.75 38 19.5 38 22 L38 28 47 28 47 18 Q47 13 42 13"/>
  </g>
</svg>