<svg width="64" height="64" xmlns="http://www.w3.org/2000/svg" xmlns:xlink="http://www.w3.org/1999/xlink">
  <defs/>
  <g>
    <path stroke="none" fill="#FFFFFF" d="M26.8 30 L25.6 30 Q23.55 30 22.25 31.5 21 32.75 21 34.65 21 36.5 22.25 37.85 L22.3 37.95 28.7 44.6 Q30 46 32 46 33.85 46.05 35.3 44.65 L35.3 44.6 41.7 37.95 41.8 37.85 Q43 36.5 43 34.65 43 32.65 41.7 31.4 40.25 29.95 38.4 30 L37.25 30 Q37.8 29.1 37.95 28 L49 28 49 37.5 Q48.8 44.25 44 49 39.25 53.8 32.5 54 L31.5 54 Q24.75 53.8 19.95 49 15.2 44.25 15 37.5 L15 28 26.1 28 Q26.25 29.1 26.8 30 M34 10 L44 10 Q45.75 10 46.9 10.6 49 11.75 49 15 L49 25 38 25 38 19 Q38 16.5 36.25 14.75 35.25 13.75 34 13.35 L34 10 M20 10 L30 10 30 13.35 Q28.75 13.75 27.75 14.75 26 16.5 26 19 L26 25 15 25 15 15 Q15 11.75 17.15 10.6 18.25 10 20 10 M30.85 42.5 L24.45 35.85 Q24 35.35 24 34.65 24 33.95 24.45 33.5 24.9 33 25.6 33 L38.4 33 Q39.05 33 39.55 33.5 40 33.95 40 34.65 40 35.35 39.55 35.85 L33.15 42.5 Q32.65 43 32 43 31.3 43 30.85 42.5"/>
    <path stroke="none" fill="#FFFFFF" fill-opacity="0" d="M30.85 42.5 Q31.3 43 32 43 32.65 43 33.15 42.5 L39.55 35.85 Q40 35.35 40 34.65 40 33.95 39.55 33.5 39.05 33 38.4 33 L25.6 33 Q24.9 33 24.45 33.5 24 33.95 24 34.65 24 35.35 24.45 35.85 L30.85 42.5 M37.25 30 L38.4 30 Q40.25 29.95 41.7 31.4 43 32.65 43 34.65 43 36.5 41.8 37.85 L41.7 37.95 35.3 44.6 35.3 44.65 Q33.85 46.05 32 46 30 46 28.7 44.6 L22.3 37.95 22.25 37.85 Q21 36.5 21 34.65 21 32.75 22.25 31.5 23.55 30 25.6 30 L26.8 30 31.95 30 32.1 30 37.25 30"/>
    <path stroke="none" fill="#E73246" d="M32.1 30 L31.95 30 Q30.7 29.95 29.9 29.15 29.4 28.65 29.2 28 L29 27 29 19 Q29 17.75 29.9 16.9 30.75 16 32 16 33.25 16 34.15 16.9 35 17.75 35 19 L35 27 34.85 28 34.15 29.15 Q33.3 29.95 32.1 30"/>
  </g>
</svg>