<svg width="64" height="64" xmlns="http://www.w3.org/2000/svg" xmlns:xlink="http://www.w3.org/1999/xlink">
  <defs/>
  <g>
    <path stroke="none" fill="#FFFFFF" d="M32 38.15 Q26.75 37.9 22.5 39.55 19.95 40.5 17.3 43.7 15.05 46.3 13.15 47.6 11.85 48.25 10.7 47.9 8.05 47.05 8 44.8 8 40.45 8.3 36.1 8.75 31.1 10.2 26.25 11.55 21.15 14.3 18.25 14.25 17.5 15.5 16.8 17.15 15.85 19.6 16 22.2 16.1 22.45 16.8 26.05 18.05 30.55 18.25 L31.35 18.25 32 18.25 Q37.35 18.3 41.55 16.8 41.8 16.1 44.4 16 46.85 15.85 48.5 16.8 49.75 17.5 49.7 18.25 52.45 21.15 53.8 26.25 55.25 31.1 55.7 36.1 L56 44.8 Q55.95 47.05 53.3 47.9 52.15 48.25 50.9 47.6 48.95 46.3 46.7 43.7 44.05 40.5 41.5 39.55 37.25 37.9 32 38.15 M39 30.5 Q39 29.9 38.55 29.45 38.1 29 37.5 29 36.9 29 36.45 29.45 36 29.9 36 30.5 36 31.1 36.45 31.55 36.9 32 37.5 32 38.1 32 38.55 31.55 L39 30.5 M22 28 L22 30 20 30 20 32 22 32 22 34 24 34 24 32 26 32 26 30 24 30 24 28 22 28 M21 23 Q21 21.8 20.1 20.9 19.25 20 18 20 16.8 20 15.9 20.9 15 21.8 15 23 15 24.25 15.9 25.1 16.8 26 18 26 19.25 26 20.1 25.1 21 24.25 21 23 M34 26 Q34 25.15 33.4 24.55 32.85 24 32 24 31.15 24 30.55 24.55 30 25.15 30 26 30 26.85 30.55 27.4 31.15 28 32 28 32.85 28 33.4 27.4 34 26.85 34 26 M42 33.5 Q42 32.9 41.55 32.45 41.1 32 40.5 32 39.9 32 39.45 32.45 39 32.9 39 33.5 39 34.1 39.45 34.55 39.9 35 40.5 35 41.1 35 41.55 34.55 L42 33.5 M42 27.5 Q42 26.9 41.55 26.45 41.1 26 40.5 26 39.9 26 39.45 26.45 39 26.9 39 27.5 39 28.1 39.45 28.55 39.9 29 40.5 29 41.1 29 41.55 28.55 L42 27.5 M45 30.5 Q45 29.9 44.55 29.45 44.1 29 43.5 29 42.9 29 42.45 29.45 42 29.9 42 30.5 42 31.1 42.45 31.55 42.9 32 43.5 32 L44.55 31.55 Q45 31.1 45 30.5 M49 23 Q49 21.8 48.1 20.9 47.25 20 46 20 44.8 20 43.9 20.9 43 21.8 43 23 43 24.25 43.9 25.1 44.8 26 46 26 47.25 26 48.1 25.1 49 24.25 49 23"/>
  </g>
</svg>