<svg width="64" height="64" xmlns="http://www.w3.org/2000/svg" xmlns:xlink="http://www.w3.org/1999/xlink">
  <defs/>
  <g>
    <path stroke="none" fill="#FFFFFF" d="M12 38 L52 38 Q53 38 53 37 L53 27 Q53 26 52 26 L11.95 26 Q11 26.05 11 27 L11 37 Q11 38 12 38 M34 23 L34 15 30 15 30 23 34 23 M27 56 Q23 56 23 52 L23 41 12 41 Q8 41 8 37 L8 27 8.05 26 Q8.55 23 12 23 L23 23 23 12 Q23 8 27 8 L37 8 Q41 8 41 12 L41 23 52 23 Q56 23 56 27 L56 37 Q56 41 52 41 L41 41 41 52 Q41 56 37 56 L27 56 M41 34 L41 30 49 30 49 34 41 34 M34 49 L34 41 30 41 30 49 34 49 M15 34 L15 30 23 30 23 34 15 34"/>
  </g>
</svg>