<svg width="64" height="64" xmlns="http://www.w3.org/2000/svg" xmlns:xlink="http://www.w3.org/1999/xlink">
  <defs/>
  <g>
    <path stroke="none" fill="#FFFFFF" d="M52 26 Q52 24.8 51.1 23.9 50.2 23 49 23 47.8 23 46.9 23.9 46 24.8 46 26 46 27.3 46.9 28.1 47.8 29 49 29 50.2 29 51.1 28.1 52 27.3 52 26 M16 17 L48 17 Q55.5 17 56 24 L56 24.5 56 39.5 56 40 Q55.5 47 48 47 L16 47 Q8.5 47 8.05 40 L8 39.5 8 24.5 8.05 24 Q8.5 17 16 17 M14 32 L14 34 12 34 12 36 14 36 14 38 16 38 16 36 18 36 18 34 16 34 16 32 14 32 M18 26 Q18 24.8 17.1 23.9 16.2 23 15 23 13.8 23 12.9 23.9 12 24.8 12 26 12 27.3 12.9 28.1 13.8 29 15 29 16.2 29 17.1 28.1 18 27.3 18 26 M43 24 L21 24 21 40 43 40 43 24 M50 37 L49.75 36.3 Q49.45 36 49 36 48.6 36 48.3 36.3 48 36.6 48 37 48 37.45 48.3 37.7 48.6 38 49 38 L49.75 37.7 50 37 M48 35 L47.75 34.3 Q47.45 34 47 34 46.6 34 46.3 34.3 46 34.6 46 35 46 35.45 46.3 35.7 46.6 36 47 36 L47.75 35.7 48 35 M50 33 L49.75 32.3 Q49.45 32 49 32 48.6 32 48.3 32.3 48 32.6 48 33 48 33.45 48.3 33.7 48.6 34 49 34 L49.75 33.7 50 33 M52 35 L51.75 34.3 Q51.45 34 51 34 50.6 34 50.3 34.3 50 34.6 50 35 50 35.45 50.3 35.7 L51 36 51.75 35.7 52 35"/>
  </g>
</svg>