<svg width="64" height="64" xmlns="http://www.w3.org/2000/svg" xmlns:xlink="http://www.w3.org/1999/xlink">
  <defs/>
  <g>
    <path stroke="none" fill="#FFFFFF" d="M50 26 Q50 26.85 49.4 27.4 48.8 28 48 28 47.2 28 46.6 27.4 46 26.85 46 26 46 25.2 46.6 24.6 47.2 24 48 24 48.8 24 49.4 24.6 50 25.2 50 26 M16 16 L48 16 Q56 16 56 24 L56 40 Q56 48 48 48 L16 48 Q8 48 8 40 L8 24 Q8 16 16 16 M53 24 Q53 19 48 19 L16 19 Q11 19 11 24 L11 40 Q11 45 16 45 L48 45 Q53 45 53 40 L53 24 M51 34 L50.75 34.7 50 35 Q49.6 35 49.3 34.7 49 34.45 49 34 49 33.6 49.3 33.3 49.6 33 50 33 50.45 33 50.75 33.3 L51 34 M47 34 L46.75 34.7 46 35 45.3 34.7 Q45 34.45 45 34 45 33.6 45.3 33.3 45.6 33 46 33 46.45 33 46.75 33.3 L47 34 M49 32 L48.75 32.7 48 33 47.3 32.7 Q47 32.45 47 32 47 31.6 47.3 31.3 47.6 31 48 31 48.45 31 48.75 31.3 L49 32 M49 36 L48.75 36.7 48 37 47.3 36.7 Q47 36.45 47 36 47 35.6 47.3 35.3 47.6 35 48 35 48.45 35 48.75 35.3 L49 36 M43 24 L43 40 21 40 21 24 43 24 M18 26 Q18 26.85 17.4 27.4 16.8 28 16 28 15.2 28 14.6 27.4 14 26.85 14 26 14 25.2 14.6 24.6 15.2 24 16 24 16.8 24 17.4 24.6 18 25.2 18 26 M15 31 L17 31 17 33 19 33 19 35 17 35 17 37 15 37 15 35 13 35 13 33 15 33 15 31"/>
  </g>
</svg>