<svg width="64" height="64" xmlns="http://www.w3.org/2000/svg" xmlns:xlink="http://www.w3.org/1999/xlink">
  <defs/>
  <g>
    <path stroke="none" fill="#FFFFFF" fill-opacity="0" d="M21.05 23 L21 22.35 Q21 20.5 22.25 19.15 L22.3 19.05 28.7 12.4 Q30 11 32 11 33.85 10.95 35.3 12.35 L35.3 12.4 41.7 19.05 41.8 19.15 Q43 20.5 43 22.35 L43 23 Q42.8 24.55 41.7 25.6 L41.25 26 Q39.95 27.05 38.4 27 L25.6 27 Q23.95 27 22.75 26 L22.25 25.5 Q21.2 24.45 21.05 23 M30.85 14.5 L24.45 21.15 Q24 21.65 24 22.35 L24.15 23 24.45 23.5 Q24.9 24 25.6 24 L38.4 24 Q39.05 24 39.55 23.5 L39.9 23 40 22.35 Q40 21.65 39.55 21.15 L33.15 14.5 Q32.65 14 32 14 31.3 14 30.85 14.5"/>
    <path stroke="none" fill="#FFFFFF" d="M30.85 14.5 Q31.3 14 32 14 32.65 14 33.15 14.5 L39.55 21.15 Q40 21.65 40 22.35 L39.9 23 39.55 23.5 Q39.05 24 38.4 24 L25.6 24 Q24.9 24 24.45 23.5 L24.15 23 24 22.35 Q24 21.65 24.45 21.15 L30.85 14.5 M21.05 23 Q21.2 24.45 22.25 25.5 L22.75 26 16 26 Q11 26 11 31 L11 47 Q11 52 16 52 L48 52 Q53 52 53 47 L53 31 Q53 26 48 26 L41.25 26 41.7 25.6 Q42.8 24.55 43 23 L48 23 Q56 23 56 31 L56 47 Q56 55 48 55 L16 55 Q8 55 8 47 L8 31 Q8 23 16 23 L21.05 23 M50 33 Q50 33.85 49.4 34.4 48.8 35 48 35 47.2 35 46.6 34.4 46 33.85 46 33 46 32.2 46.6 31.6 47.2 31 48 31 48.8 31 49.4 31.6 50 32.2 50 33 M49 39 L48.75 39.7 48 40 47.3 39.7 Q47 39.45 47 39 47 38.6 47.3 38.3 47.6 38 48 38 48.45 38 48.75 38.3 L49 39 M47 41 L46.75 41.7 46 42 45.3 41.7 Q45 41.45 45 41 45 40.6 45.3 40.3 45.6 40 46 40 46.45 40 46.75 40.3 L47 41 M49 43 L48.75 43.7 48 44 47.3 43.7 Q47 43.45 47 43 47 42.6 47.3 42.3 47.6 42 48 42 48.45 42 48.75 42.3 L49 43 M51 41 L50.75 41.7 50 42 Q49.6 42 49.3 41.7 49 41.45 49 41 49 40.6 49.3 40.3 49.6 40 50 40 50.45 40 50.75 40.3 L51 41 M43 31 L43 47 21 47 21 31 43 31 M18 33 Q18 33.85 17.4 34.4 16.8 35 16 35 15.2 35 14.6 34.4 14 33.85 14 33 14 32.2 14.6 31.6 15.2 31 16 31 16.8 31 17.4 31.6 18 32.2 18 33 M15 38 L17 38 17 40 19 40 19 42 17 42 17 44 15 44 15 42 13 42 13 40 15 40 15 38"/>
  </g>
</svg>