<svg width="64" height="64" xmlns="http://www.w3.org/2000/svg" xmlns:xlink="http://www.w3.org/1999/xlink">
  <defs/>
  <g>
    <path stroke="none" fill="#FFFFFF" d="M56 32 Q56 42 48.95 48.95 42 56 32 56 22.05 56 15 48.95 8 42 8 32 8 22.05 15 15 22.05 8 32 8 42 8 48.95 15 56 22.05 56 32 M27.2 28.45 L27.45 27.8 27.15 27.15 25.65 25.65 25.2 25.4 24.65 25.4 24.2 25.75 Q22 28.4 22 32 22 36.15 24.95 39.1 27.85 42 32 42 36.15 42 39.1 39.1 42 36.15 42 32 42 28.45 39.85 25.75 L39.4 25.4 38.85 25.4 Q38.55 25.45 38.35 25.65 L36.9 27.15 Q36.6 27.4 36.6 27.8 36.55 28.15 36.8 28.45 38 30 38 32 38 34.45 36.25 36.25 34.45 38 32 38 29.55 38 27.8 36.25 26 34.45 26 32 26 30 27.2 28.45 M31 22 Q30.6 22 30.3 22.3 30 22.6 30 23 L30 31 Q30 31.4 30.3 31.7 30.6 32 31 32 L33 32 33.7 31.7 34 31 34 23 33.7 22.3 Q33.4 22 33 22 L31 22"/>
  </g>
</svg>