<svg width="64" height="64" xmlns="http://www.w3.org/2000/svg" xmlns:xlink="http://www.w3.org/1999/xlink">
  <defs/>
  <g>
    <path stroke="none" fill="#FFFFFF" fill-opacity="0" d="M26.2 23 L22.3 18.95 22.25 18.85 Q21 17.5 21 15.65 21 13.75 22.25 12.5 23.55 11 25.6 11 L38.4 11 Q40.25 10.95 41.7 12.4 43 13.65 43 15.65 43 17.5 41.8 18.85 L41.7 18.95 37.8 23 35.3 25.6 35.3 25.65 34.9 26 Q33.6 27.05 32 27 30.3 27 29.15 26 L28.7 25.6 26.2 23 M30.85 23.5 Q31.3 24 32 24 32.65 24 33.15 23.5 L39.55 16.85 Q40 16.35 40 15.65 40 14.95 39.55 14.5 39.05 14 38.4 14 L25.6 14 Q24.9 14 24.45 14.5 24 14.95 24 15.65 24 16.35 24.45 16.85 L30.85 23.5"/>
    <path stroke="none" fill="#FFFFFF" d="M30.85 23.5 L24.45 16.85 Q24 16.35 24 15.65 24 14.95 24.45 14.5 24.9 14 25.6 14 L38.4 14 Q39.05 14 39.55 14.5 40 14.95 40 15.65 40 16.35 39.55 16.85 L33.15 23.5 Q32.65 24 32 24 31.3 24 30.85 23.5 M37.8 23 L48 23 Q56 23 56 31 L56 47 Q56 55 48 55 L16 55 Q8 55 8 47 L8 31 Q8 23 16 23 L26.2 23 28.7 25.6 29.15 26 16 26 Q11 26 11 31 L11 47 Q11 52 16 52 L48 52 Q53 52 53 47 L53 31 Q53 26 48 26 L34.9 26 35.3 25.65 35.3 25.6 37.8 23 M50 33 Q50 33.85 49.4 34.4 48.8 35 48 35 47.2 35 46.6 34.4 46 33.85 46 33 46 32.2 46.6 31.6 47.2 31 48 31 48.8 31 49.4 31.6 50 32.2 50 33 M49 39 L48.75 39.7 48 40 47.3 39.7 Q47 39.45 47 39 47 38.6 47.3 38.3 47.6 38 48 38 48.45 38 48.75 38.3 L49 39 M47 41 L46.75 41.7 46 42 45.3 41.7 Q45 41.45 45 41 45 40.6 45.3 40.3 45.6 40 46 40 46.45 40 46.75 40.3 L47 41 M49 43 L48.75 43.7 48 44 47.3 43.7 Q47 43.45 47 43 47 42.6 47.3 42.3 47.6 42 48 42 48.45 42 48.75 42.3 L49 43 M51 41 L50.75 41.7 50 42 Q49.6 42 49.3 41.7 49 41.45 49 41 49 40.6 49.3 40.3 49.6 40 50 40 50.45 40 50.75 40.3 L51 41 M43 31 L43 47 21 47 21 31 43 31 M18 33 Q18 33.85 17.4 34.4 16.8 35 16 35 15.2 35 14.6 34.4 14 33.85 14 33 14 32.2 14.6 31.6 15.2 31 16 31 16.8 31 17.4 31.6 18 32.2 18 33 M15 38 L17 38 17 40 19 40 19 42 17 42 17 44 15 44 15 42 13 42 13 40 15 40 15 38"/>
  </g>
</svg>