<svg width="64" height="64" xmlns="http://www.w3.org/2000/svg" xmlns:xlink="http://www.w3.org/1999/xlink">
  <defs/>
  <g>
    <path stroke="none" fill="#FFFFFF" fill-opacity="0" d="M21.05 23 L21 22.35 Q21 20.5 22.25 19.15 L22.3 19.05 28.7 12.4 Q30 11 32 11 33.85 10.95 35.3 12.35 L35.3 12.4 41.7 19.05 41.8 19.15 Q43 20.5 43 22.35 L43 23 Q42.8 24.55 41.7 25.6 40.25 27.05 38.4 27 L25.6 27 Q23.55 27 22.25 25.5 21.2 24.45 21.05 23 M30.85 14.5 L24.45 21.15 Q24 21.65 24 22.35 L24.15 23 24.45 23.5 Q24.9 24 25.6 24 L38.4 24 Q39.05 24 39.55 23.5 L39.9 23 40 22.35 Q40 21.65 39.55 21.15 L33.15 14.5 Q32.65 14 32 14 31.3 14 30.85 14.5"/>
    <path stroke="none" fill="#FFFFFF" d="M30.85 14.5 Q31.3 14 32 14 32.65 14 33.15 14.5 L39.55 21.15 Q40 21.65 40 22.35 L39.9 23 39.55 23.5 Q39.05 24 38.4 24 L25.6 24 Q24.9 24 24.45 23.5 L24.15 23 24 22.35 Q24 21.65 24.45 21.15 L30.85 14.5 M21.05 23 Q21.2 24.45 22.25 25.5 23.55 27 25.6 27 L38.4 27 Q40.25 27.05 41.7 25.6 42.8 24.55 43 23 L48 23 Q55.5 23 56 30 L56 30.5 56 45.5 56 46 Q55.5 53 48 53 L16 53 Q8.5 53 8.05 46 L8 45.5 8 30.5 8.05 30 Q8.5 23 16 23 L21.05 23 M43 30 L21 30 21 46 43 46 43 30 M52 41 L51.75 40.3 Q51.45 40 51 40 50.6 40 50.3 40.3 50 40.6 50 41 50 41.45 50.3 41.7 L51 42 51.75 41.7 52 41 M50 43 L49.75 42.3 Q49.45 42 49 42 48.6 42 48.3 42.3 48 42.6 48 43 48 43.45 48.3 43.7 48.6 44 49 44 L49.75 43.7 50 43 M48 41 L47.75 40.3 Q47.45 40 47 40 46.6 40 46.3 40.3 46 40.6 46 41 46 41.45 46.3 41.7 46.6 42 47 42 L47.75 41.7 48 41 M50 39 L49.75 38.3 Q49.45 38 49 38 48.6 38 48.3 38.3 48 38.6 48 39 48 39.45 48.3 39.7 48.6 40 49 40 L49.75 39.7 50 39 M52 32 Q52 30.8 51.1 29.9 50.2 29 49 29 47.8 29 46.9 29.9 46 30.8 46 32 46 33.3 46.9 34.1 47.8 35 49 35 50.2 35 51.1 34.1 52 33.3 52 32 M14 38 L14 40 12 40 12 42 14 42 14 44 16 44 16 42 18 42 18 40 16 40 16 38 14 38 M18 32 Q18 30.8 17.1 29.9 16.2 29 15 29 13.8 29 12.9 29.9 12 30.8 12 32 12 33.3 12.9 34.1 13.8 35 15 35 16.2 35 17.1 34.1 18 33.3 18 32"/>
  </g>
</svg>