<svg width="64" height="64" xmlns="http://www.w3.org/2000/svg" xmlns:xlink="http://www.w3.org/1999/xlink">
  <defs/>
  <g>
    <path stroke="none" fill="#FFFFFF" d="M56 32 Q56 42 48.95 48.95 42 56 32 56 22.05 56 15 48.95 8 42 8 32 8 22.05 15 15 22.05 8 32 8 42 8 48.95 15 56 22.05 56 32 M32 11 Q23.3 11 17.15 17.15 11 23.3 11 32 11 40.75 17.15 46.85 23.3 53 32 53 40.75 53 46.85 46.85 53 40.75 53 32 53 23.3 46.85 17.15 40.75 11 32 11 M31 22 L33 22 Q33.4 22 33.7 22.3 L34 23 34 31 33.7 31.7 33 32 31 32 Q30.6 32 30.3 31.7 30 31.4 30 31 L30 23 Q30 22.6 30.3 22.3 30.6 22 31 22 M27.2 28.45 Q26 30 26 32 26 34.45 27.8 36.25 29.55 38 32 38 34.45 38 36.25 36.25 38 34.45 38 32 38 30 36.8 28.45 36.55 28.15 36.6 27.8 36.6 27.4 36.9 27.15 L38.35 25.65 Q38.55 25.45 38.85 25.4 L39.4 25.4 39.85 25.75 Q42 28.45 42 32 42 36.15 39.1 39.1 36.15 42 32 42 27.85 42 24.95 39.1 22 36.15 22 32 22 28.4 24.2 25.75 L24.65 25.4 25.2 25.4 25.65 25.65 27.15 27.15 27.45 27.8 27.2 28.45"/>
  </g>
</svg>