<svg xmlns="http://www.w3.org/2000/svg" width="32" height="32" viewBox="0 0 36 36"><path fill="white" d="M32 6H4a2 2 0 0 0-2 2v20a2 2 0 0 0 2 2h28a2 2 0 0 0 2-2V8a2 2 0 0 0-2-2M5.21 8A1.25 1.25 0 1 1 4 9.25A1.25 1.25 0 0 1 5.21 8m0 20a1.25 1.25 0 1 1 1.25-1.25A1.25 1.25 0 0 1 5.21 28m5.06-5.78a5 5 0 0 1-3.52-1.34l.86-1.06a4 4 0 0 0 2.71 1.11c1 0 1.55-.5 1.55-1.09s-.59-.91-1.91-1.22c-1.7-.4-2.89-.89-2.89-2.44s1.22-2.49 3-2.49a4.58 4.58 0 0 1 3.12 1.15l-.81 1.1A3.68 3.68 0 0 0 10 15a1.25 1.25 0 0 0-1.39 1.08c0 .67.61.91 1.92 1.21c1.72.39 2.87.94 2.87 2.44s-1.16 2.49-3.13 2.49m7.51 0a5 5 0 0 1-3.52-1.34l.86-1.06a4 4 0 0 0 2.71 1.11c1 0 1.55-.5 1.55-1.09s-.59-.91-1.91-1.22c-1.7-.4-2.89-.89-2.89-2.44s1.23-2.49 3-2.49a4.56 4.56 0 0 1 3.12 1.15l-.81 1.1a3.68 3.68 0 0 0-2.37-1a1.25 1.25 0 0 0-1.39 1.08c0 .67.61.91 1.92 1.21c1.72.39 2.87.94 2.87 2.44s-1.17 2.55-3.14 2.55m4.58-.14v-8.24h2.9c2.72 0 4.64 1.71 4.64 4.12s-1.9 4.12-4.64 4.12ZM30.69 28a1.25 1.25 0 1 1 1.25-1.25A1.25 1.25 0 0 1 30.69 28m0-17.5a1.25 1.25 0 1 1 1.25-1.25a1.25 1.25 0 0 1-1.25 1.25" class="clr-i-solid clr-i-solid-path-1"/><path fill="white" d="M23.86 15.2h1.56a2.77 2.77 0 1 1 0 5.53h-1.56Z" class="clr-i-solid clr-i-solid-path-2"/><path fill="none" d="M0 0h36v36H0z"/></svg>