<?xml version="1.0" encoding="UTF-8" standalone="no"?>
<!-- Created with Inkscape (http://www.inkscape.org/) -->

<svg
   width="64mm"
   height="64mm"
   viewBox="0 0 64 64"
   version="1.1"
   id="svg1"
   inkscape:version="1.4 (e7c3feb100, 2024-10-09)"
   sodipodi:docname="ayaneo_esc_button.svg"
   xmlns:inkscape="http://www.inkscape.org/namespaces/inkscape"
   xmlns:sodipodi="http://sodipodi.sourceforge.net/DTD/sodipodi-0.dtd"
   xmlns="http://www.w3.org/2000/svg"
   xmlns:svg="http://www.w3.org/2000/svg">
  <sodipodi:namedview
     id="namedview1"
     pagecolor="#505050"
     bordercolor="#eeeeee"
     borderopacity="1"
     inkscape:showpageshadow="0"
     inkscape:pageopacity="0"
     inkscape:pagecheckerboard="true"
     inkscape:deskcolor="#505050"
     inkscape:document-units="mm"
     inkscape:zoom="1.6604907"
     inkscape:cx="100.27156"
     inkscape:cy="197.23085"
     inkscape:window-width="2560"
     inkscape:window-height="1374"
     inkscape:window-x="0"
     inkscape:window-y="0"
     inkscape:window-maximized="1"
     inkscape:current-layer="layer1" />
  <defs
     id="defs1">
    <inkscape:path-effect
       effect="powerclip"
       id="path-effect27"
       is_visible="true"
       lpeversion="1"
       inverse="true"
       flatten="false"
       hide_clip="false"
       message="" />
  </defs>
  <g
     inkscape:label="Layer 1"
     inkscape:groupmode="layer"
     id="layer1"
     transform="translate(-103.98124,-134.93749)">
    <path
       id="path2-6"
       clip-path="none"
       style="fill:#ffffff;fill-opacity:1;stroke:#ffffff;stroke-width:0.11736;stroke-opacity:1"
       inkscape:label="path2-6"
       d="M 104.20553 17.25662 A 3.3405764 3.3405764 0 0 0 100.86496 20.597188 A 3.3405764 3.3405764 0 0 0 104.20553 23.937756 A 3.3405764 3.3405764 0 0 0 107.5461 20.597188 A 3.3405764 3.3405764 0 0 0 104.20553 17.25662 z M 101.76486 19.464098 L 103.15939 19.464098 L 103.15939 19.987057 L 102.28782 19.987057 L 102.28782 20.335672 L 103.15939 20.335672 L 103.15939 20.858631 L 102.28782 20.858631 L 102.28782 21.207319 L 103.15939 21.207319 L 103.15939 21.730277 L 101.76486 21.730277 L 101.76486 19.464098 z M 104.20531 19.464098 L 104.90261 19.464098 L 104.90261 19.987057 L 104.20546 19.987057 L 104.20531 19.987057 C 104.15885 19.987094 104.11816 20.004487 104.08337 20.039316 C 104.04854 20.074184 104.03104 20.114916 104.03104 20.161401 C 104.03104 20.2079 104.04854 20.248546 104.08337 20.283413 L 104.19667 20.335672 L 104.21417 20.335672 C 104.3943 20.335672 104.55412 20.405401 104.69358 20.544855 C 104.83297 20.684313 104.90276 20.847035 104.90276 21.032975 C 104.90276 21.218918 104.83303 21.381639 104.69358 21.521094 C 104.55412 21.660555 104.3914 21.730277 104.20546 21.730277 L 103.50815 21.730277 L 103.50815 21.207319 L 104.20546 21.207319 L 104.32739 21.154986 L 104.37973 21.032975 L 104.32739 20.910963 C 104.29244 20.876101 104.25483 20.858631 104.21409 20.858631 L 104.1966 20.858631 C 104.01646 20.858631 103.85665 20.788903 103.71719 20.649447 C 103.57779 20.509991 103.50801 20.347342 103.50801 20.161401 C 103.50801 19.975462 103.57773 19.812739 103.71719 19.673282 C 103.85665 19.53382 104.01937 19.464098 104.20531 19.464098 z M 105.94846 19.464098 C 106.12859 19.464098 106.28834 19.525123 106.42779 19.647152 C 106.57308 19.774987 106.64569 19.931838 106.64569 20.117779 L 106.64569 20.379294 L 106.12273 20.379294 L 106.12273 20.117779 L 106.08789 20.039316 C 106.04726 20.004454 106.00076 19.987057 105.94846 19.987057 C 105.89613 19.987057 105.85257 20.001549 105.81774 20.030607 L 105.8091 20.03939 L 105.77426 20.117779 L 105.77426 21.085307 L 105.8091 21.172479 L 105.9486 21.207319 L 106.07932 21.172479 L 106.12287 21.085307 L 106.12287 20.823791 L 106.64583 20.823791 L 106.64583 21.085307 C 106.65164 21.259627 106.58192 21.416476 106.43665 21.555933 L 106.43658 21.555933 L 106.41916 21.573353 C 106.28551 21.677945 106.12859 21.730277 105.94846 21.730277 C 105.76253 21.730277 105.60566 21.677944 105.47783 21.573353 L 105.46034 21.564643 L 105.4517 21.547224 C 105.31807 21.413578 105.25123 21.259553 105.25123 21.085234 L 105.25123 20.117779 C 105.25123 19.931838 105.32097 19.774987 105.46041 19.647152 L 105.46905 19.647152 C 105.6027 19.525125 105.76251 19.464098 105.94846 19.464098 z "
       transform="matrix(7.0603676,0,0,7.0603676,-599.74799,21.513886)" />
  </g>
</svg>
