<?xml version="1.0" encoding="UTF-8" standalone="no"?>
<!-- Created with Inkscape (http://www.inkscape.org/) -->

<svg
   width="64mm"
   height="64mm"
   viewBox="0 0 64 64"
   version="1.1"
   id="svg1"
   inkscape:version="1.4 (e7c3feb100, 2024-10-09)"
   sodipodi:docname="ayaneo rb button.svg"
   xmlns:inkscape="http://www.inkscape.org/namespaces/inkscape"
   xmlns:sodipodi="http://sodipodi.sourceforge.net/DTD/sodipodi-0.dtd"
   xmlns="http://www.w3.org/2000/svg"
   xmlns:svg="http://www.w3.org/2000/svg">
  <sodipodi:namedview
     id="namedview1"
     pagecolor="#505050"
     bordercolor="#eeeeee"
     borderopacity="1"
     inkscape:showpageshadow="0"
     inkscape:pageopacity="0"
     inkscape:pagecheckerboard="0"
     inkscape:deskcolor="#505050"
     inkscape:document-units="mm"
     inkscape:zoom="0.54965629"
     inkscape:cx="397.52115"
     inkscape:cy="561.25984"
     inkscape:window-width="2560"
     inkscape:window-height="1374"
     inkscape:window-x="0"
     inkscape:window-y="0"
     inkscape:window-maximized="1"
     inkscape:current-layer="layer1" />
  <defs
     id="defs1" />
  <g
     inkscape:label="Layer 1"
     inkscape:groupmode="layer"
     id="layer1">
    <path
       id="path9-7"
       style="fill:#ffffff;fill-opacity:1;stroke:#000000;stroke-width:0"
       d="m 7.999998,25.17281 c 0,0.82948 0.01166,1.65962 0.02235,2.41392 0.0153,0.75433 0.04108,1.43311 0.119223,2.04865 0.07863,0.61557 0.209344,1.1677 0.41059,1.76495 0.201134,0.59728 0.473252,1.23974 0.820941,1.82522 0.34758,0.58547 0.77061,1.11284 1.27531,1.56914 0.50481,0.45624 1.09072,0.84133 1.79515,1.21637 0.70431,0.37504 1.52711,0.74089 2.70386,1.07453 1.17686,0.33367 2.70773,0.63479 4.74754,0.83605 2.03993,0.20113 4.58925,0.30199 7.79418,0.43809 3.20481,0.13604 7.06488,0.30734 10.58088,0.3929 3.51615,0.0855 6.68763,0.0862 8.50342,0.0578 1.81579,-0.0284 2.27651,-0.0853 2.96005,-0.30629 0.68341,-0.22106 1.59036,-0.607 2.41142,-1.21764 0.82107,-0.61066 1.55482,-1.44612 2.10505,-2.27335 0.55035,-0.82722 0.91684,-1.64606 1.16619,-2.39385 0.24947,-0.74782 0.38288,-1.42436 0.46069,-2.65371 0.0775,-1.22934 0.0998,-3.0111 0.12316,-4.79274 z m 15.966084,2.02982 h 3.85632 c 0.87834,0 1.62817,0.31013 2.2495,0.93141 0.6427,0.64273 0.96398,1.40379 0.96398,2.28215 0,0.87838 -0.32128,1.62821 -0.96398,2.24949 l 0.96398,2.89222 h -1.92809 l -0.6427,-1.92814 v -0.0653 l -0.64269,0.0653 h -1.92809 v 1.92814 h -1.92823 z m 8.99804,0 h 4.49901 c 0.68553,0 1.28468,0.25657 1.79876,0.77075 0.51423,0.51416 0.77204,1.11454 0.77204,1.8001 0,0.62128 -0.19312,1.15688 -0.57865,1.60679 0.3856,0.4713 0.57865,1.00691 0.57865,1.60679 0,0.70698 -0.25781,1.30608 -0.77204,1.79883 -0.51408,0.51418 -1.11323,0.77201 -1.79876,0.77201 h -4.49901 z m -7.06981,1.92812 v 2.57087 h 1.95943 c 0.34275,0 0.63306,-0.12947 0.86869,-0.38665 0.2571,-0.23563 0.38536,-0.53458 0.38536,-0.89878 0,-0.36421 -0.12826,-0.6756 -0.38536,-0.9327 -0.23563,-0.23563 -0.5358,-0.35274 -0.90003,-0.35274 z m 8.9979,0 v 1.28544 h 2.57092 c 0.19287,0 0.34229,-0.0649 0.4493,-0.19337 l 0.19336,-0.44939 -0.19336,-0.45066 c -0.10689,-0.1285 -0.25652,-0.19214 -0.4493,-0.19214 z m 0,3.21358 v 1.28543 h 2.57092 c 0.19287,0 0.34229,-0.0649 0.4493,-0.19336 l 0.19336,-0.44939 -0.19336,-0.45066 c -0.10689,-0.1285 -0.25652,-0.19215 -0.4493,-0.19215 z" />
  </g>
</svg>
