<?xml version="1.0" encoding="UTF-8" standalone="no"?>
<!-- Created with Inkscape (http://www.inkscape.org/) -->

<svg
   width="64mm"
   height="64mm"
   viewBox="0 0 64 64"
   version="1.1"
   id="svg1"
   inkscape:version="1.4 (e7c3feb100, 2024-10-09)"
   sodipodi:docname="ayaneo rt button.svg"
   xmlns:inkscape="http://www.inkscape.org/namespaces/inkscape"
   xmlns:sodipodi="http://sodipodi.sourceforge.net/DTD/sodipodi-0.dtd"
   xmlns="http://www.w3.org/2000/svg"
   xmlns:svg="http://www.w3.org/2000/svg">
  <sodipodi:namedview
     id="namedview1"
     pagecolor="#505050"
     bordercolor="#eeeeee"
     borderopacity="1"
     inkscape:showpageshadow="0"
     inkscape:pageopacity="0"
     inkscape:pagecheckerboard="0"
     inkscape:deskcolor="#505050"
     inkscape:document-units="mm"
     inkscape:zoom="0.54965629"
     inkscape:cx="397.52115"
     inkscape:cy="561.25984"
     inkscape:window-width="2560"
     inkscape:window-height="1374"
     inkscape:window-x="0"
     inkscape:window-y="0"
     inkscape:window-maximized="1"
     inkscape:current-layer="layer1" />
  <defs
     id="defs1" />
  <g
     inkscape:label="Layer 1"
     inkscape:groupmode="layer"
     id="layer1">
    <path
       id="path10"
       style="fill:#ffffff;fill-opacity:1;stroke:#000000;stroke-width:0"
       d="m 31.998961,17.905275 c -0.55845,0 -1.11632,0.0232 -1.76583,0.0689 -1.29891,0.0915 -3.89684,0.27512 -6.33014,0.76918 -2.43329,0.49399 -4.702187,1.29766 -6.433402,2.18041 -1.731214,0.88275 -2.923923,1.84416 -3.790641,2.66972 -0.866723,0.82558 -1.407808,1.51564 -1.833187,2.13998 -0.425385,0.62435 -0.736115,1.1833 -0.987706,1.65216 -0.251603,0.4688 -0.442634,0.84756 -0.625578,1.34382 -0.182939,0.49628 -0.3567325,1.10942 -0.5476555,1.95293 -0.190932,0.84352 -0.398742,1.9179 -0.664414,3.60952 -0.265677,1.69163 -0.589549,4.00063 -0.769207,5.6792 -0.179782,1.67859 -0.215461,2.72552 -0.233532,3.64097 -0.01767,0.91545 -0.01767,1.69971 -0.01767,2.48266 h 23.9992425 24.00076 c 0,-0.78295 0,-1.56721 -0.0174,-2.48266 -0.0174,-0.91545 -0.0539,-1.96241 -0.23342,-3.64097 -0.17985,-1.67854 -0.50353,-3.98757 -0.76921,-5.6792 -0.26555,-1.69162 -0.47361,-2.76603 -0.66453,-3.60952 -0.19086,-0.84351 -0.36472,-1.45665 -0.54763,-1.95293 -0.18303,-0.49626 -0.37552,-0.87505 -0.62702,-1.34382 -0.25165,-0.46883 -0.5623,-1.02781 -0.987689,-1.65216 -0.42537,-0.62434 -0.96504,-1.3144 -1.8318,-2.13998 -0.86671,-0.82556 -2.06081,-1.787 -3.79202,-2.66972 -1.73122,-0.88275 -3.99872,-1.68642 -6.43202,-2.18041 -2.43318,-0.49397 -5.03112,-0.67769 -6.33014,-0.76918 -0.6494,-0.0458 -1.20879,-0.0689 -1.76736,-0.0689 z m -9.19445,9.11362 h 4.59729 c 1.04708,0 1.94091,0.37127 2.68171,1.11191 0.76628,0.76619 1.1493,1.67197 1.1493,2.71913 0,1.04715 -0.38302,1.94106 -1.1493,2.6817 l 1.1493,3.4479 h -2.29859 l -0.76627,-2.29857 v -0.0762 l -0.76615,0.0762 h -2.29859 v 2.29857 h -2.2987 z m 9.96073,0 h 8.42817 v 2.2986 h -3.06474 v 7.66204 h -2.2987 v -7.66204 h -3.06473 z m -7.66203,2.2986 v 3.06484 h 2.33743 c 0.4086,0 0.75324,-0.1529 1.03417,-0.45941 0.30604,-0.28091 0.45941,-0.63883 0.45941,-1.07299 0,-0.4342 -0.15313,-0.8039 -0.45941,-1.11041 -0.28094,-0.28091 -0.63895,-0.42203 -1.07301,-0.42203 z" />
  </g>
</svg>
