<?xml version="1.0" encoding="UTF-8" standalone="no"?>
<!-- Created with Inkscape (http://www.inkscape.org/) -->

<svg
   width="64mm"
   height="64mm"
   viewBox="0 0 64 64"
   version="1.1"
   id="svg1"
   inkscape:version="1.4 (e7c3feb100, 2024-10-09)"
   sodipodi:docname="ayaneo_lb_button.svg"
   xmlns:inkscape="http://www.inkscape.org/namespaces/inkscape"
   xmlns:sodipodi="http://sodipodi.sourceforge.net/DTD/sodipodi-0.dtd"
   xmlns="http://www.w3.org/2000/svg"
   xmlns:svg="http://www.w3.org/2000/svg">
  <sodipodi:namedview
     id="namedview1"
     pagecolor="#505050"
     bordercolor="#eeeeee"
     borderopacity="1"
     inkscape:showpageshadow="0"
     inkscape:pageopacity="0"
     inkscape:pagecheckerboard="0"
     inkscape:deskcolor="#505050"
     inkscape:document-units="mm"
     inkscape:zoom="1.5546628"
     inkscape:cx="110.31331"
     inkscape:cy="71.076508"
     inkscape:window-width="2560"
     inkscape:window-height="1374"
     inkscape:window-x="0"
     inkscape:window-y="0"
     inkscape:window-maximized="1"
     inkscape:current-layer="layer1" />
  <defs
     id="defs1">
    <inkscape:path-effect
       effect="powerclip"
       id="path-effect1"
       is_visible="true"
       lpeversion="1"
       inverse="true"
       flatten="false"
       hide_clip="false"
       message="" />
  </defs>
  <g
     inkscape:label="Layer 1"
     inkscape:groupmode="layer"
     id="layer1">
    <path
       id="path5"
       clip-path="none"
       style="fill:#ffffff;fill-opacity:1;stroke:#000000;stroke-width:0"
       d="M 1252.71 299.23141 C 1252.729 297.71312 1252.7488 296.19455 1252.8148 295.14691 C 1252.8808 294.09927 1252.9946 293.52286 1253.2072 292.88558 C 1253.4197 292.2483 1253.7314 291.55027 1254.2003 290.84531 C 1254.6693 290.14036 1255.2955 289.42848 1255.9952 288.90809 C 1256.6949 288.38769 1257.468 288.05898 1258.0505 287.87056 C 1258.6329 287.68213 1259.0247 287.63405 1260.5721 287.60986 C 1262.1195 287.58566 1264.8222 287.5854 1267.8185 287.6583 C 1270.8149 287.7312 1274.1045 287.87701 1276.8356 287.99299 C 1279.5668 288.10897 1281.7394 288.19537 1283.4778 288.36687 C 1285.2161 288.53837 1286.5202 288.79506 1287.5231 289.0794 C 1288.5259 289.36373 1289.2278 289.67577 1289.8281 289.99538 C 1290.4283 290.31499 1290.9269 290.64232 1291.3571 291.03115 C 1291.7872 291.41997 1292.1486 291.87007 1292.4448 292.36901 C 1292.7411 292.86796 1292.9722 293.41544 1293.1437 293.92442 C 1293.3151 294.4334 1293.4273 294.90374 1293.4942 295.42831 C 1293.5612 295.95288 1293.5828 296.53159 1293.5955 297.17441 C 1293.6085 297.81723 1293.6119 298.52452 1293.6149 299.23141 L 1252.71 299.23141 z M 1266.8637 297.50205 L 1268.5068 297.50205 L 1268.5068 292.02464 L 1271.7933 292.02464 L 1271.7933 290.38159 L 1266.8637 290.38159 L 1266.8637 297.50205 z M 1273.4364 297.50205 L 1277.2703 297.50205 C 1277.8545 297.50205 1278.3659 297.28273 1278.8041 296.84456 C 1279.2423 296.40639 1279.4612 295.8954 1279.4612 295.31117 C 1279.4612 294.78172 1279.2971 294.325 1278.9684 293.9416 C 1279.2971 293.53995 1279.4612 293.08367 1279.4612 292.57247 C 1279.4612 291.96999 1279.2423 291.45854 1278.8041 291.03863 C 1278.3659 290.60046 1277.8545 290.38159 1277.2703 290.38159 L 1273.4364 290.38159 L 1273.4364 297.50205 z M 1275.0794 295.85856 L 1275.0794 294.76334 L 1277.2703 294.76334 C 1277.4346 294.76334 1277.5629 294.81806 1277.6539 294.9276 L 1277.8181 295.31117 L 1277.6539 295.6943 C 1277.5626 295.80382 1277.4346 295.85856 1277.2703 295.85856 L 1275.0794 295.85856 z M 1275.0794 293.1203 L 1275.0794 292.02464 L 1277.2703 292.02464 C 1277.4346 292.02464 1277.5629 292.07936 1277.6539 292.1889 L 1277.8181 292.57247 L 1277.6539 292.95604 C 1277.5626 293.06554 1277.4346 293.1203 1277.2703 293.1203 L 1275.0794 293.1203 z "
       transform="matrix(1.1734593,0,0,-1.1734593,-1462.0042,376.3085)" />
  </g>
</svg>
