<?xml version="1.0" encoding="UTF-8" standalone="no"?>
<!-- Created with Inkscape (http://www.inkscape.org/) -->

<svg
   width="64mm"
   height="64mm"
   viewBox="0 0 64 64"
   version="1.1"
   id="svg1"
   inkscape:version="1.4 (e7c3feb100, 2024-10-09)"
   sodipodi:docname="ayaneo_tm_button.svg"
   xmlns:inkscape="http://www.inkscape.org/namespaces/inkscape"
   xmlns:sodipodi="http://sodipodi.sourceforge.net/DTD/sodipodi-0.dtd"
   xmlns="http://www.w3.org/2000/svg"
   xmlns:svg="http://www.w3.org/2000/svg">
  <sodipodi:namedview
     id="namedview1"
     pagecolor="#505050"
     bordercolor="#eeeeee"
     borderopacity="1"
     inkscape:showpageshadow="0"
     inkscape:pageopacity="0"
     inkscape:pagecheckerboard="0"
     inkscape:deskcolor="#505050"
     inkscape:document-units="mm"
     inkscape:zoom="1.1741442"
     inkscape:cx="80.48415"
     inkscape:cy="172.46604"
     inkscape:window-width="2560"
     inkscape:window-height="1374"
     inkscape:window-x="0"
     inkscape:window-y="0"
     inkscape:window-maximized="1"
     inkscape:current-layer="layer1" />
  <defs
     id="defs1">
    <inkscape:path-effect
       effect="powerclip"
       id="path-effect8"
       is_visible="true"
       lpeversion="1"
       inverse="true"
       flatten="false"
       hide_clip="false"
       message="" />
  </defs>
  <g
     inkscape:label="Layer 1"
     inkscape:groupmode="layer"
     id="layer1">
    <path
       id="path2"
       clip-path="none"
       style="fill:#ffffff;fill-opacity:1;stroke:#ffffff;stroke-width:0.11736;stroke-opacity:1"
       d="M 112.51221 29.749974 A 3.3405764 3.3405764 0 0 0 109.17164 33.090542 A 3.3405764 3.3405764 0 0 0 112.51221 36.431111 A 3.3405764 3.3405764 0 0 0 115.85278 33.090542 A 3.3405764 3.3405764 0 0 0 112.51221 29.749974 z M 110.28314 31.957453 L 112.09611 31.957453 L 112.09611 32.410659 L 111.41623 32.410659 L 111.41623 34.223632 L 110.96302 34.223632 L 110.96302 32.410659 L 110.28314 32.410659 L 110.28314 31.957453 z M 112.47503 31.957453 L 112.92831 31.957453 L 113.60812 33.317146 L 114.288 31.957453 L 114.7412 31.957453 L 114.7412 34.223632 L 114.288 34.223632 L 114.288 33.090542 L 113.72142 34.223632 L 113.49481 34.223632 L 112.92831 33.090542 L 112.92831 34.223632 L 112.47503 34.223632 L 112.47503 31.957453 z "
       transform="matrix(7.0603676,0,0,7.0603676,-762.37743,-201.63128)" />
  </g>
</svg>
