<?xml version="1.0" encoding="UTF-8" standalone="no"?>
<!-- Created with Inkscape (http://www.inkscape.org/) -->

<svg
   width="64mm"
   height="64mm"
   viewBox="0 0 64 64"
   version="1.1"
   id="svg1"
   inkscape:version="1.4 (e7c3feb100, 2024-10-09)"
   sodipodi:docname="ayaneo_win_button.svg"
   xmlns:inkscape="http://www.inkscape.org/namespaces/inkscape"
   xmlns:sodipodi="http://sodipodi.sourceforge.net/DTD/sodipodi-0.dtd"
   xmlns="http://www.w3.org/2000/svg"
   xmlns:svg="http://www.w3.org/2000/svg">
  <sodipodi:namedview
     id="namedview1"
     pagecolor="#505050"
     bordercolor="#eeeeee"
     borderopacity="1"
     inkscape:showpageshadow="0"
     inkscape:pageopacity="0"
     inkscape:pagecheckerboard="0"
     inkscape:deskcolor="#505050"
     inkscape:document-units="mm"
     inkscape:zoom="0.83024534"
     inkscape:cx="164.40923"
     inkscape:cy="284.85556"
     inkscape:window-width="2560"
     inkscape:window-height="1374"
     inkscape:window-x="0"
     inkscape:window-y="0"
     inkscape:window-maximized="1"
     inkscape:current-layer="layer1" />
  <defs
     id="defs1">
    <inkscape:path-effect
       effect="powerclip"
       id="path-effect11"
       is_visible="true"
       lpeversion="1"
       inverse="true"
       flatten="false"
       hide_clip="false"
       message="" />
  </defs>
  <g
     inkscape:label="Layer 1"
     inkscape:groupmode="layer"
     id="layer1">
    <path
       id="path2-6-1"
       clip-path="none"
       style="fill:#ffffff;fill-opacity:1;stroke:#ffffff;stroke-width:0.11736;stroke-opacity:1"
       d="M 94.945099 12.758704 A 3.3405764 3.3405764 0 0 0 91.604531 16.099273 A 3.3405764 3.3405764 0 0 0 94.945099 19.439841 A 3.3405764 3.3405764 0 0 0 98.285668 16.099273 A 3.3405764 3.3405764 0 0 0 94.945099 12.758704 z M 92.203903 14.966183 L 92.657109 14.966183 L 92.997014 15.985971 L 93.336992 14.966183 L 93.563595 14.966183 L 93.9035 15.985971 L 94.243405 14.966183 L 94.696685 14.966183 L 94.696685 15.192786 L 94.016802 17.232362 L 93.790199 17.232362 L 93.450294 16.212574 L 93.110389 17.232362 L 92.883712 17.232362 L 92.203903 15.192786 L 92.203903 14.966183 z M 95.00175 14.966183 L 95.454957 14.966183 L 95.454957 17.232362 L 95.00175 17.232362 L 95.00175 14.966183 z M 95.873324 14.966183 L 96.326604 14.966183 L 97.233017 16.325876 L 97.233017 14.966183 L 97.686296 14.966183 L 97.686296 17.232362 L 97.233017 17.232362 L 96.326604 15.872669 L 96.326604 17.232362 L 95.873324 17.232362 L 95.873324 14.966183 z "
       transform="matrix(7.0603676,0,0,7.0603676,-638.34719,-81.666669)" />
  </g>
</svg>
