<?xml version="1.0" encoding="UTF-8" standalone="no"?>
<!-- Created with Inkscape (http://www.inkscape.org/) -->

<svg
   width="64mm"
   height="64mm"
   viewBox="0 0 64 64"
   version="1.1"
   id="svg1"
   inkscape:version="1.4 (e7c3feb100, 2024-10-09)"
   sodipodi:docname="ayaneo_share_button.svg"
   xmlns:inkscape="http://www.inkscape.org/namespaces/inkscape"
   xmlns:sodipodi="http://sodipodi.sourceforge.net/DTD/sodipodi-0.dtd"
   xmlns="http://www.w3.org/2000/svg"
   xmlns:svg="http://www.w3.org/2000/svg">
  <sodipodi:namedview
     id="namedview1"
     pagecolor="#505050"
     bordercolor="#eeeeee"
     borderopacity="1"
     inkscape:showpageshadow="0"
     inkscape:pageopacity="0"
     inkscape:pagecheckerboard="0"
     inkscape:deskcolor="#505050"
     inkscape:document-units="mm"
     inkscape:zoom="1.6604907"
     inkscape:cx="244.20492"
     inkscape:cy="272.50981"
     inkscape:window-width="2560"
     inkscape:window-height="1374"
     inkscape:window-x="0"
     inkscape:window-y="0"
     inkscape:window-maximized="1"
     inkscape:current-layer="layer1" />
  <defs
     id="defs1">
    <inkscape:path-effect
       effect="powerclip"
       id="path-effect13"
       is_visible="true"
       lpeversion="1"
       inverse="true"
       flatten="false"
       hide_clip="false"
       message="" />
  </defs>
  <g
     inkscape:label="Layer 1"
     inkscape:groupmode="layer"
     id="layer1">
    <path
       id="path2-6-1-5-5"
       clip-path="none"
       style="fill:#ffffff;fill-opacity:1;stroke:#ffffff;stroke-width:0.11736;stroke-opacity:1"
       d="M 66.845087 27.485663 A 3.3405764 3.3405764 0 0 0 63.504518 30.826231 A 3.3405764 3.3405764 0 0 0 66.845087 34.1668 A 3.3405764 3.3405764 0 0 0 70.185655 30.826231 A 3.3405764 3.3405764 0 0 0 66.845087 27.485663 z M 64.906809 29.268187 L 67.686285 29.268187 L 67.827912 29.409888 L 67.827912 30.118023 L 67.403031 30.118023 L 67.403031 29.686042 L 65.190063 29.686042 L 65.190063 30.967858 L 65.53048 30.967858 L 65.53048 31.392739 L 64.906809 31.392739 L 64.765109 31.251112 L 64.765109 29.409888 C 64.835929 29.427588 64.906809 29.268187 64.906809 29.268187 z M 65.923669 30.401277 L 68.713758 30.401277 L 68.855385 30.542977 L 68.855385 32.384202 L 68.713758 32.525829 L 65.923669 32.525829 L 65.782042 32.384202 L 65.782042 30.542977 L 65.923669 30.401277 z M 66.206923 30.826231 L 66.206923 32.100948 L 68.430431 32.100948 L 68.430431 30.826231 L 68.26143 30.826231 L 66.206923 30.826231 z "
       transform="matrix(7.0603676,0,0,7.0603676,-439.95077,-185.64441)" />
  </g>
</svg>
